<?xml version="1.0" standalone="no"?>
<!DOCTYPE svg PUBLIC "-//W3C//DTD SVG 1.1//EN" "http://www.w3.org/Graphics/SVG/1.1/DTD/svg11.dtd" >
<svg xmlns="http://www.w3.org/2000/svg">
<metadata>Generated by IcoMoon</metadata>
<defs>
<font id="m2-Icons" horiz-adv-x="1024">
<font-face units-per-em="1024" ascent="960" descent="-64" />
<missing-glyph horiz-adv-x="1024" />
<glyph unicode="&#x20;" horiz-adv-x="512" d="" />
<glyph unicode="&#xe900;" glyph-name="Facebook" d="M960 423.936c0 248.917-200.576 450.731-448 450.731s-448-201.813-448-450.731c0-224.981 163.84-411.435 378.027-445.269v314.965h-113.835v130.304h113.749v99.285c0 112.981 66.901 175.36 169.216 175.36 49.067 0 100.267-8.789 100.267-8.789v-110.933h-56.448c-55.68 0-73.003-34.731-73.003-70.4v-84.523h124.245l-19.883-130.304h-104.363v-314.965c214.187 33.835 377.984 220.288 377.984 445.269z" />
<glyph unicode="&#xe901;" glyph-name="Instagram" d="M722.304 850.304c50.731-2.304 78.293-10.795 96.64-17.92l1.11-0.368c22.35-8.449 42.33-21.721 58.709-38.587l0.039-0.038c16.825-16.342 30.097-36.322 38.916-59.781 7.125-18.347 15.616-45.867 17.92-96.64 2.517-54.869 3.029-71.339 3.029-210.304s-0.512-155.435-3.029-210.304c-2.304-50.731-10.795-78.293-17.92-96.64l-0.406-1.168c-17.488-44.355-52.844-79.711-98.367-97.605-18.347-7.125-45.867-15.616-96.64-17.92-54.869-2.517-71.339-3.029-210.304-3.029s-155.435 0.512-210.304 3.029c-50.731 2.304-78.293 10.795-96.64 17.92l-1.11 0.368c-22.349 8.45-42.329 21.722-58.709 38.586-17.323 16.768-30.592 37.205-38.955 59.819-7.125 18.347-15.616 45.867-17.92 96.64-2.517 54.869-3.029 71.339-3.029 210.304s0.512 155.435 3.029 210.304c2.304 50.731 10.795 78.293 17.92 96.64l0.368 1.11c8.45 22.349 21.722 42.329 38.586 58.709l0.038 0.039c16.342 16.825 36.322 30.097 59.781 38.916 18.347 7.125 45.867 15.616 96.64 17.92 54.869 2.517 71.339 3.029 210.304 3.029s155.435-0.512 210.304-3.029zM512 686.891c-143.73 0-260.245-116.516-260.245-260.245s116.516-260.245 260.245-260.245v0c143.741 0 260.267 116.525 260.267 260.267s-116.525 260.267-260.267 260.267v0zM837.291 703.147v0c0 26.957-21.853 48.811-48.811 48.811s-48.811-21.853-48.811-48.811v0c0-26.957 21.853-48.811 48.811-48.811s48.811 21.853 48.811 48.811zM418.133 286.208c26.86-18.813 60.217-30.062 96.203-30.062 93.314 0 168.96 75.646 168.96 168.96 0 59.305-30.554 111.473-76.779 141.622l-0.65 0.397c-25.859 16.892-57.521 26.94-91.531 26.94-93.314 0-168.96-75.646-168.96-168.96 0-57.329 28.552-107.989 72.212-138.536l0.545-0.361z" />
<glyph unicode="&#xe902;" glyph-name="Vkontakte" d="M959.232 656.342c6.955 20.864 0 36.053-30.805 36.053h-102.4c-25.856 0-37.76-13.312-44.715-27.52 0 0-52.693-121.472-126.293-200.235-23.851-22.784-34.773-30.379-47.701-30.379-6.955 0-15.915 7.595-15.915 28.459v194.56c0 24.661-7.936 36.053-29.824 36.053h-161.024c-15.915 0-25.856-11.392-25.856-22.784 0-23.723 36.779-29.44 40.747-95.829v-144.256c0-31.317-5.973-36.992-18.859-36.992-34.816 0-119.296 122.411-170.027 261.888-9.941 27.52-19.883 37.973-45.696 37.973h-103.424c-29.781 0-34.773-13.269-34.773-27.52 0-25.6 34.773-154.709 162.048-325.504 84.48-116.736 204.8-179.371 313.173-179.371 65.579 0 73.515 14.251 73.515 37.973v88.235c0 28.501 5.973 33.237 26.88 33.237 14.891 0 41.728-7.595 102.4-63.573 69.547-66.432 81.493-96.811 120.277-96.811h102.4c29.781 0 43.733 14.251 35.755 41.771-8.96 27.52-42.752 67.371-86.485 114.773-23.851 26.624-59.648 56.021-70.571 70.272-14.933 18.987-10.923 26.581 0 43.648-0.981 0 124.245 168.917 137.173 225.877z" />
<glyph unicode="&#xe903;" glyph-name="Crown" d="M512-85.333c282.752 0 512 229.248 512 512s-229.248 512-512 512-512-229.248-512-512 229.248-512 512-512zM384 469.334l128 256 128-256 170.667 160-85.333-288h-426.667l-85.333 288 170.667-160zM725.333 256v-85.333h-426.667v85.333h426.667z" />
<glyph unicode="&#xe904;" glyph-name="Lighting" d="M512-85.333c282.752 0 512 229.248 512 512s-229.248 512-512 512-512-229.248-512-512 229.248-512 512-512zM576 810.667l-64-341.333h256l-320-426.667 64 341.333h-256l320 426.667z" />
<glyph unicode="&#xe905;" glyph-name="Star" d="M512-85.333c-282.752 0-512 229.248-512 512s229.248 512 512 512c282.752 0 512-229.248 512-512s-229.248-512-512-512zM610.304 561.963l-98.304 206.037-98.304-206.037-226.304-29.824 165.547-157.141-41.557-224.469 200.619 108.885 200.619-108.885-41.557 224.427 165.547 157.184-226.304 29.867z" />
<glyph unicode="&#xe906;" glyph-name="Top" d="M512-85.333c282.752 0 512 229.248 512 512s-229.248 512-512 512-512-229.248-512-512 229.248-512 512-512zM512 725.334l298.667-298.667h-213.333v-256h-170.667v256h-213.333l298.667 298.667z" />
<glyph unicode="&#xe907;" glyph-name="Wi-Fi" d="M893.611 573.184c-98.935 94.197-233.127 152.15-380.856 152.15-0.266 0-0.531 0-0.797-0.001h0.042c-0.219 0-0.478 0-0.738 0-147.734 0-281.932-57.953-381.1-152.365l0.228 0.215 55.637-64.853c84.079 81.46 198.851 131.67 325.35 131.67 0.219 0 0.439 0 0.658 0h-0.034c0.206 0 0.449 0.001 0.692 0.001 126.477 0 241.227-50.211 325.403-131.788l-0.122 0.118 55.637 64.853zM782.336 443.392c-69.182 68.769-164.536 111.275-269.818 111.275-0.182 0-0.364 0-0.546 0h0.028c-105.429 0-200.96-42.496-270.336-111.275l55.723-65.024c54.234 56.121 130.177 90.966 214.259 90.966 0.125 0 0.25 0 0.374 0h-0.020c0.105 0 0.23 0 0.355 0 84.082 0 160.025-34.844 214.177-90.881l0.081-0.084 55.723 65.024zM670.72 313.174c-39.126 43.556-95.632 70.827-158.507 70.827-0.075 0-0.15 0-0.225 0h0.012c-63.019 0-119.68-27.307-158.72-70.827l56.32-65.707c23.558 31.226 60.593 51.2 102.293 51.2 0.038 0 0.075 0 0.113 0h-0.006c41.856 0 79.061-20.096 102.4-51.2l56.32 65.707zM512 85.334c29.455 0 53.333 23.878 53.333 53.333s-23.878 53.333-53.333 53.333v0c-29.455 0-53.333-23.878-53.333-53.333s23.878-53.333 53.333-53.333v0z" />
<glyph unicode="&#xe908;" glyph-name="Settings" d="M406.016 320.683c26.302-27.177 63.111-44.048 103.86-44.048 0.747 0 1.492 0.006 2.237 0.017l-0.113-0.001c41.344 0 76.672 14.677 105.984 44.032 27.177 26.302 44.048 63.111 44.048 103.86 0 0.747-0.006 1.492-0.017 2.237l0.001-0.113c0 41.344-14.677 76.672-44.032 105.984-26.302 27.177-63.111 44.048-103.86 44.048-0.747 0-1.492-0.006-2.237-0.017l0.113 0.001c-41.344 0-76.672-14.677-105.984-44.032-27.177-26.302-44.048-63.111-44.048-103.86 0-0.747 0.006-1.492 0.017-2.237l-0.001 0.113c0-41.344 14.677-76.672 44.032-105.984zM829.995 384.683l90.027-70.016c9.301-6.656 10.667-16 3.968-27.989l-85.973-148.011c-5.333-9.344-13.995-11.989-26.027-8.021l-105.984 42.027c-27.989-20.011-52.011-34.005-72.021-42.027l-16-112c-2.645-11.947-9.301-17.963-19.968-17.963h-172.032c-10.667 0-17.323 5.973-19.968 18.005l-16 112c-27.494 11.768-51.204 25.838-72.771 42.542l0.75-0.558-105.984-42.027c-12.032-3.968-20.693-1.28-26.027 8.021l-85.973 148.011c-6.656 11.989-5.333 21.333 4.011 27.989l89.984 69.973c-1.308 10.918-2.055 23.562-2.055 36.381 0 1.985 0.018 3.966 0.054 5.943l-0.004-0.297c0 18.688 0.683 32.683 2.005 41.984l-90.027 70.016c-9.301 6.656-10.667 16-3.968 27.989l85.973 148.011c5.333 9.344 14.037 11.989 26.027 8.021l105.984-42.027c27.989 20.011 52.011 34.005 72.021 41.984l16 112c2.645 12.032 9.301 18.005 19.968 18.005h172.032c10.667 0 17.323-5.973 19.968-17.963l16-112.043c25.344-10.667 49.365-24.661 72.021-41.984l105.984 41.984c12.032 4.011 20.693 1.365 26.027-7.979l85.973-148.011c6.699-11.989 5.333-21.333-3.968-27.989l-90.027-69.973c1.323-9.387 2.005-23.339 2.005-42.027s-0.683-32.683-2.005-41.984z" />
<glyph unicode="&#xe909;" glyph-name="Menu" d="M128 682.667h768v-85.333h-768v85.333zM128 469.334h768v-85.333h-768v85.333zM896 256h-768v-85.333h768v85.333z" />
<glyph unicode="&#xe90a;" glyph-name="Lock-Opened" d="M298.667 640c0 0.017 0 0.037 0 0.056 0 117.821 95.513 213.333 213.333 213.333 72.060 0 135.776-35.728 174.399-90.436l0.449-0.671-74.368-42.965c-23.65 29.779-59.855 48.705-100.48 48.705-70.692 0-128-57.308-128-128 0-0.008 0-0.015 0-0.023v0.001-85.291h426.624v-469.333h-597.291v469.291h85.333v85.333zM554.667 310.102c25.685 15.029 42.663 42.481 42.663 73.899 0 47.127-38.203 85.331-85.329 85.333v0c-47.127-0.002-85.33-38.206-85.33-85.333 0-31.417 16.978-58.869 42.26-73.681l0.403-0.218v-139.435h85.333v139.435z" />
<glyph unicode="&#xe90b;" glyph-name="Lock-Closed" d="M298.667 640v-85.333h-85.333v-469.333h597.333v469.333h-85.333v85.333c0 117.821-95.514 213.333-213.333 213.333s-213.333-95.513-213.333-213.333zM384 640c0 0 0 128 128 128s128-128 128-128v-85.333h-256v85.333zM554.667 310.085v-139.418h-85.333v139.418c-25.506 14.754-42.667 42.33-42.667 73.916 0 47.13 38.204 85.333 85.333 85.333s85.333-38.204 85.333-85.333c0-31.586-17.161-59.162-42.667-73.916z" />
<glyph unicode="&#xe90c;" glyph-name="Lamp" d="M512 853.334c-0.005 0-0.010 0-0.016 0-164.949 0-298.667-133.718-298.667-298.667 0-83.868 34.569-159.662 90.235-213.911l0.064-0.062c22.613-21.973 41.728-48.128 48.939-78.848l1.365-5.845h316.16l1.365 5.845c7.253 30.72 26.325 56.832 48.939 78.848 55.73 54.311 90.299 130.105 90.299 213.973 0 164.949-133.718 298.667-298.667 298.667-0.006 0-0.011 0-0.017 0h0.001zM374.229 169.558l-10.283 43.776h296.107l-10.283-43.776c-5.717-24.32-27.435-41.557-52.437-41.557h-170.667c-0.004 0-0.008 0-0.013 0-25.379 0-46.657 17.558-52.35 41.19l-0.075 0.367zM426.667 85.334v-42.667c0-23.564 19.103-42.667 42.667-42.667v0h85.333c23.564 0 42.667 19.103 42.667 42.667v0 42.667h-170.667zM370.517 556.843l26.965 80.981 114.517-38.187 114.517 38.187 26.965-80.981-98.816-32.896v-139.947h-85.333v139.947l-98.816 32.853z" />
<glyph unicode="&#xe90d;" glyph-name="Filters" d="M298.667 810.667h128v-256h-128v85.333h-170.667v85.333h170.667v85.333zM256 298.667h128v-256h-128v85.333h-128v85.333h128v85.333zM682.667 554.667h-128v-85.333h-426.667v-85.333h426.667v-85.333h128v256zM896 725.334v-85.333h-384v85.333h384zM896 384v85.333h-128v-85.333h128zM896 128v85.333h-426.667v-85.333h426.667z" />
<glyph unicode="&#xe90e;" glyph-name="Calendar" d="M341.333 853.334h-85.333v-85.333h-128v-170.667h768v170.667h-128v85.333h-85.333v-85.333h-341.333v85.333zM896 554.667h-768v-512h768v512zM256 426.667h85.333v-85.333h-85.333v85.333zM256 256h85.333v-85.333h-85.333v85.333zM469.333 426.667h85.333v-85.333h-85.333v85.333zM469.333 256h85.333v-85.333h-85.333v85.333zM682.667 426.667h85.333v-85.333h-85.333v85.333zM682.667 256h85.333v-85.333h-85.333v85.333z" />
<glyph unicode="&#xe90f;" glyph-name="Calculator" d="M810.667 768h-597.333v-682.667h597.333v682.667zM298.667 682.667h426.667v-170.667h-426.667v170.667zM298.667 426.667h85.333v-85.333h-85.333v85.333zM554.667 426.667h-85.333v-85.333h85.333v85.333zM298.667 256h85.333v-85.333h-85.333v85.333zM725.333 426.667h-85.333v-85.333h85.333v85.333zM469.333 256h256v-85.333h-256v85.333z" />
<glyph unicode="&#xe910;" glyph-name="Filter" d="M170.667 725.334h682.667l-284.459-298.667v-298.667l-113.749 59.733v238.933l-284.459 298.667z" />
<glyph unicode="&#xe911;" glyph-name="Sort-1-9" d="M776.363 508.587v-43.989h-179.029v43.947h61.013v161.749l-61.013-5.888v33.536l77.312 27.392h37.717v-216.747h64zM776.363 269.654v-1.493c0-89.856-36.267-140.16-101.376-140.16-0.462-0.007-1.007-0.011-1.553-0.011-25.796 0-49.577 8.632-68.61 23.166l0.274-0.201 21.077 43.989c15.915-12.203 30.336-18.475 48.469-18.475 28.459 0 45.483 23.637 47.36 61.013-11.52-9.984-25.557-17.024-47.36-17.024-43.264 0-77.312 26.624-77.312 81.749v2.219c0 53.632 36.267 90.24 86.912 90.24 28.117 0 46.592-7.381 62.507-23.296 18.859-18.859 29.611-46.933 29.611-101.717zM712.363 274.816c6.656 7.040 10.368 16.64 10.368 29.611v2.219c0 27.392-14.421 41.813-36.992 41.813-23.296 0-36.267-15.189-36.267-41.813v-1.835c0-25.173 14.805-39.979 36.267-39.979 0.331-0.010 0.72-0.016 1.11-0.016 9.863 0 18.837 3.803 25.538 10.022l-0.024-0.022zM341.333 640v-341.333h85.333l-128-170.667-128 170.667h85.333v341.333h85.333z" />
<glyph unicode="&#xe912;" glyph-name="Sort-9-1" d="M341.333 213.334v341.333h85.333l-128 170.667-128-170.667h85.333v-341.333h85.333zM776.363 508.587v-43.989h-179.029v43.947h61.013v161.749l-61.013-5.888v33.536l77.312 27.392h37.717v-216.747h64zM776.363 269.654v-1.493c0-89.856-36.267-140.16-101.376-140.16-0.462-0.007-1.007-0.011-1.553-0.011-25.796 0-49.577 8.632-68.61 23.166l0.274-0.201 21.077 43.989c15.915-12.203 30.336-18.475 48.469-18.475 28.459 0 45.483 23.637 47.36 61.013-11.52-9.984-25.557-17.024-47.36-17.024-43.264 0-77.312 26.624-77.312 81.749v2.219c0 53.632 36.267 90.24 86.912 90.24 28.117 0 46.592-7.381 62.507-23.296 18.859-18.859 29.611-46.933 29.611-101.717zM712.363 274.816c6.656 7.040 10.368 16.64 10.368 29.611v2.219c0 27.392-14.421 41.813-36.992 41.813-23.296 0-36.267-15.189-36.267-41.813v-1.835c0-25.173 14.805-39.979 36.267-39.979 0.331-0.010 0.72-0.016 1.11-0.016 9.863 0 18.837 3.803 25.538 10.022l-0.024-0.022z" />
<glyph unicode="&#xe913;" glyph-name="Sort-A-Z" d="M710.357 725.334l100.309-259.456h-59.776l-20.907 56.021h-96.256l-20.907-56.021h-58.155l100.309 259.456h55.381zM650.965 569.046h61.397l-30.507 84.053-30.891-84.053zM710.357 386.006h60.16v-258.005h-58.155v84.779h-36.523l-51.755-84.779h-66.219l59.392 95.829c-30.507 12.16-52.181 36.864-52.181 77.781 0 51.2 35.328 81.067 91.904 83.285 15.852 0.707 34.443 1.109 53.128 1.109 0.072 0 0.144 0 0.216 0h-0.010zM623.701 297.899c0-24.32 16.811-37.973 44.117-37.973h44.544v77.44h-10.837c-43.349 0-77.824 0-77.824-39.467zM341.333 640v-341.333h85.333l-128-170.667-128 170.667h85.333v341.333h85.333z" />
<glyph unicode="&#xe914;" glyph-name="Sort-Asc" d="M298.667 640h426.667v-85.333h-426.667v85.333zM298.667 469.334h256v-85.333h-256v85.333zM426.667 298.667h-128v-85.333h128v85.333z" />
<glyph unicode="&#xe915;" glyph-name="Sort-Default" d="M128 768h768v-170.667h-768v170.667zM128 512h554.667v-170.667h-554.667v170.667zM426.667 256h-298.667v-170.667h298.667v170.667z" />
<glyph unicode="&#xe916;" glyph-name="Sort-Desc" d="M426.667 640h-128v-85.333h128v85.333zM298.667 384v85.333h256v-85.333h-256zM298.667 298.667h426.667v-85.333h-426.667v85.333z" />
<glyph unicode="&#xe917;" glyph-name="Sort-Down" d="M298.667 640v-341.333h85.333l-128-170.667-128 170.667h85.333v341.333h85.333zM896 640h-426.667v-85.333h426.667v85.333zM725.333 469.334h-256v-85.333h256v85.333zM469.333 298.667h128v-85.333h-128v85.333z" />
<glyph unicode="&#xe918;" glyph-name="Sort-Left" d="M810.667 725.334h-512v85.333l-170.667-128 170.667-128v85.333h512v85.333zM384 128v426.667h85.333v-426.667h-85.333zM554.667 298.667v256h85.333v-256h-85.333zM725.333 554.667v-128h85.333v128h-85.333z" />
<glyph unicode="&#xe919;" glyph-name="Sort-Right" d="M213.333 725.334h512v85.333l170.667-128-170.667-128v85.333h-512v85.333zM213.333 128v426.667h85.333v-426.667h-85.333zM384 298.667v256h85.333v-256h-85.333zM554.667 554.667v-128h85.333v128h-85.333z" />
<glyph unicode="&#xe91a;" glyph-name="Sort-Up" d="M298.667 213.334v341.333h85.333l-128 170.667-128-170.667h85.333v-341.333h85.333zM469.333 213.334h128v85.333h-128v-85.333zM469.333 384v85.333h256v-85.333h-256zM896 554.667h-426.667v85.333h426.667v-85.333z" />
<glyph unicode="&#xe91b;" glyph-name="Sort-Z-A" d="M341.333 213.334v341.333h85.333l-128 170.667-128-170.667h85.333v-341.333h85.333zM710.357 725.334l100.309-259.456h-59.776l-20.907 56.021h-96.256l-20.907-56.021h-58.155l100.309 259.456h55.381zM650.965 569.046h61.397l-30.507 84.053-30.891-84.053zM710.357 386.006h60.16v-258.005h-58.155v84.779h-36.523l-51.755-84.779h-66.219l59.392 95.829c-30.507 12.16-52.181 36.864-52.181 77.781 0 51.2 35.328 81.067 91.904 83.285 15.852 0.707 34.443 1.109 53.128 1.109 0.072 0 0.144 0 0.216 0h-0.010zM623.701 297.899c0-24.32 16.811-37.973 44.117-37.973h44.544v77.44h-10.837c-43.349 0-77.824 0-77.824-39.467z" />
<glyph unicode="&#xe91c;" glyph-name="View-Grid" d="M768 682.667v-213.333h-213.333v213.333h213.333zM853.333 469.334v-384h-682.667v682.667h682.667v-298.667zM768 384h-213.333v-213.333h213.333v213.333zM469.333 469.334v213.333h-213.333v-213.333h213.333zM256 384v-213.333h213.333v213.333h-213.333z" />
<glyph unicode="&#xe91d;" glyph-name="View-List" d="M170.667 725.334v-170.667h682.667v170.667h-682.667zM85.333 469.334v341.333h853.333v-341.333h-853.333zM170.667 298.667v-170.667h682.667v170.667h-682.667zM85.333 42.667v341.333h853.333v-341.333h-853.333z" />
<glyph unicode="&#xe91e;" glyph-name="View-Table" d="M810.667 725.334v-256h-256v256h256zM810.667 384v-256h-256v256h256zM469.333 469.334h-256v256h256v-256zM213.333 384h256v-256h-256v256zM128 810.667v-768h768v768h-768z" />
<glyph unicode="&#xe91f;" glyph-name="Close-Circle" d="M512-0c235.648 0 426.667 191.019 426.667 426.667s-191.019 426.667-426.667 426.667-426.667-191.019-426.667-426.667 191.019-426.667 426.667-426.667zM662.869 637.867l60.331-60.331-150.869-150.869 150.869-150.869-60.331-60.331-150.869 150.869-150.869-150.869-60.331 60.331 150.869 150.869-150.869 150.869 60.331 60.331 150.869-150.869 150.869 150.869z" />
<glyph unicode="&#xe920;" glyph-name="Close-Small" d="M512 366.336l-204.501-204.501-60.331 60.331 204.501 204.501-204.501 204.501 60.331 60.331 204.501-204.501 204.501 204.501 60.331-60.331-204.501-204.501 204.501-204.501-60.331-60.331-204.501 204.501z" />
<glyph unicode="&#xe921;" glyph-name="Close" d="M512 366.336l311.168-311.168 60.331 60.331-311.168 311.168 311.168 311.168-60.331 60.331-311.168-311.168-311.168 311.168-60.331-60.331 311.168-311.168-311.168-311.168 60.331-60.331 311.168 311.168z" />
<glyph unicode="&#xe922;" glyph-name="Forbidden" d="M853.333 426.667v-0.030c0 0.197 0.001 0.394 0.001 0.59 0 79.039-26.983 151.777-71.68 208.762l-478.976-478.976-0.751 0.566c57.924-45.291 130.847-72.284 210.074-72.284 188.513 0 341.333 152.82 341.333 341.333 0 0.013 0 0.027 0 0.038zM242.347 217.344l478.976 478.976c-57.188 44.766-130.143 71.785-209.409 71.785-188.513 0-341.333-152.82-341.333-341.333 0-79.255 27.012-152.202 72.332-210.135l-0.565 0.75zM938.667 426.667c0-235.648-191.019-426.667-426.667-426.667s-426.667 191.019-426.667 426.667 191.019 426.667 426.667 426.667 426.667-191.019 426.667-426.667z" />
<glyph unicode="&#xe923;" glyph-name="Minus-Circle-Small" d="M512 85.334c188.513 0 341.333 152.82 341.333 341.333s-152.82 341.333-341.333 341.333v0c-188.513 0-341.333-152.82-341.333-341.333s152.82-341.333 341.333-341.333v0zM682.667 469.334v-85.333h-341.333v85.333h341.333z" />
<glyph unicode="&#xe924;" glyph-name="Minus-Circle" d="M512-0c235.639 0 426.667 191.027 426.667 426.667 0 235.642-191.027 426.667-426.667 426.667-235.642 0-426.667-191.025-426.667-426.667 0-235.639 191.025-426.667 426.667-426.667zM725.333 469.334v-85.333h-426.667v85.333h426.667z" />
<glyph unicode="&#xe925;" glyph-name="Minus-Small" d="M213.333 469.334h597.333v-85.333h-597.333z" />
<glyph unicode="&#xe926;" glyph-name="Minus" d="M128 469.334h768v-85.333h-768z" />
<glyph unicode="&#xe927;" glyph-name="Plus-Circle-Small" d="M512 85.334c188.513 0 341.333 152.82 341.333 341.333s-152.82 341.333-341.333 341.333v0c-188.513 0-341.333-152.82-341.333-341.333s152.82-341.333 341.333-341.333v0zM469.333 469.334v128h85.333v-128h128v-85.333h-128v-128h-85.333v128h-128v85.333h128z" />
<glyph unicode="&#xe928;" glyph-name="Plus-Circle" d="M512-0c235.648 0 426.667 191.019 426.667 426.667s-191.019 426.667-426.667 426.667-426.667-191.019-426.667-426.667 191.019-426.667 426.667-426.667zM469.333 469.334v213.333h85.333v-213.333h213.333v-85.333h-213.333v-213.333h-85.333v213.333h-213.333v85.333h213.333z" />
<glyph unicode="&#xe929;" glyph-name="Plus-Small" d="M554.667 725.334h-85.333v-256h-256v-85.333h256v-256h85.333v256h256v85.333h-256v256z" />
<glyph unicode="&#xe92a;" glyph-name="Plus" d="M554.667 810.667h-85.333v-341.333h-341.333v-85.333h341.333v-341.333h85.333v341.333h341.333v85.333h-341.333v341.333z" />
<glyph unicode="&#xe92b;" glyph-name="Search-Default" d="M469.333 256v0c117.821 0 213.333 95.513 213.333 213.333s-95.513 213.333-213.333 213.333v0c-117.821 0-213.333-95.513-213.333-213.333s95.513-213.333 213.333-213.333zM170.667 469.334c0.043 164.916 133.744 298.591 298.667 298.591 164.949 0 298.667-133.718 298.667-298.667 0-59.781-17.563-115.459-47.812-162.157l0.708 1.166 165.632-165.632-90.496-90.496-165.632 165.632c-45.548-29.571-101.254-47.153-161.067-47.153-164.949 0-298.667 133.718-298.667 298.667 0 0.017 0 0.034 0 0.052v-0.003z" />
<glyph unicode="&#xe92c;" glyph-name="Search-Heart" d="M768 473.856c22.881 18.606 43.416 37.627 62.672 57.877l0.262 0.278c34.688 36.693 65.067 80.384 65.067 123.093 0 56.789-47.445 112.896-109.44 112.896-23.125 0-44.544-6.912-62.208-18.731-7.694-5.19-14.37-10.999-20.268-17.526l-0.084-0.095c-5.973 6.656-12.8 12.587-20.352 17.621-17.393 11.734-38.825 18.731-61.891 18.731-0.111 0-0.223 0-0.334 0h0.017c-23.345-0.013-44.867-7.804-62.12-20.921l0.253 0.185c-22.369-16.776-38.49-40.817-44.9-68.574l-0.156-0.802c-1.583-6.841-2.5-14.701-2.517-22.772v-0.012c0-42.709 30.379-86.357 65.067-123.093 31.217-32.518 65.204-61.888 101.745-87.905l2.191-1.482 1.707-1.237c7.040-4.992 14.165-9.899 21.291-14.72 24.629 16.555 45.484 32.067 65.599 48.452l-1.599-1.262zM170.667 469.334c0.006 162.59 129.93 294.832 291.62 298.575l0.348 0.006c-17.586-25.2-29.801-55.422-34.311-88.103l-0.121-1.071c-98.64-20.125-171.809-106.179-171.809-209.323 0-117.7 95.278-213.146 212.914-213.418h0.026c0.033 0 0.071 0 0.11 0 76.993 0 144.454 40.811 181.93 101.981l0.53 0.931c-3.084 1.967-1.638 0.97-0.191-0.025l4.628-3.004c13.366-9.103 29.867-14.534 47.637-14.534 14.519 0 28.191 3.626 40.16 10.022l-0.458-0.224c-6.4-14.976-14.080-29.312-22.784-42.88l165.632-165.632-90.496-90.496-165.632 165.632c-45.548-29.571-101.254-47.153-161.067-47.153-164.949 0-298.667 133.718-298.667 298.667 0 0.017 0 0.034 0 0.052v-0.003z" />
<glyph unicode="&#xe92d;" glyph-name="Search-Minus" d="M256 469.334v0c0 117.821 95.513 213.333 213.333 213.333s213.333-95.513 213.333-213.333v0c0-117.821-95.513-213.333-213.333-213.333s-213.333 95.513-213.333 213.333zM469.333 768c-164.916-0.043-298.591-133.744-298.591-298.667 0-164.949 133.718-298.667 298.667-298.667 59.781 0 115.459 17.563 162.157 47.812l-1.166-0.708 165.632-165.632 90.496 90.496-165.632 165.632c29.571 45.548 47.153 101.254 47.153 161.067 0 164.949-133.718 298.667-298.667 298.667-0.017 0-0.034 0-0.052 0h0.003zM597.333 512v-85.333h-256v85.333h256z" />
<glyph unicode="&#xe92e;" glyph-name="Search-Plus" d="M469.333 256v0c117.821 0 213.333 95.513 213.333 213.333s-95.513 213.333-213.333 213.333v0c-117.821 0-213.333-95.513-213.333-213.333s95.513-213.333 213.333-213.333zM170.667 469.334c0.043 164.916 133.744 298.591 298.667 298.591 164.949 0 298.667-133.718 298.667-298.667 0-59.781-17.563-115.459-47.812-162.157l0.708 1.166 165.632-165.632-90.496-90.496-165.632 165.632c-45.548-29.571-101.254-47.153-161.067-47.153-164.949 0-298.667 133.718-298.667 298.667 0 0.017 0 0.034 0 0.052v-0.003zM426.667 512h-85.333v-85.333h85.333v-85.333h85.333v85.333h85.333v85.333h-85.333v85.333h-85.333v-85.333z" />
<glyph unicode="&#xe92f;" glyph-name="Apartments" d="M384 821.504l-298.667-225.493v-553.344h853.333v553.344l-297.173 224.341-135.893-90.667-121.6 91.819zM853.333 553.515v-425.515h-170.667v85.333h85.333v85.333h-85.333v85.333h85.333v85.333h-85.333v126.72l-104.917 79.104 60.757 40.491 214.827-162.133zM256 554.667h85.333v-85.333h-85.333v85.333zM426.667 554.667h85.333v-85.333h-85.333v85.333zM256 384h85.333v-85.333h-85.333v85.333zM426.667 384h85.333v-85.333h-85.333v85.333zM256 213.334h85.333v-85.333h-85.333v85.333zM426.667 213.334h85.333v-85.333h-85.333v85.333z" />
<glyph unicode="&#xe930;" glyph-name="Home-Add" d="M512 853.334l-448-426.667h149.333v-426.667h597.333v426.667h149.333l-448 426.667zM469.333 341.334v128h85.333v-128h128v-85.333h-128v-128h-85.333v128h-128v85.333h128z" />
<glyph unicode="&#xe931;" glyph-name="Home-Like" d="M64 426.667h149.333v-426.667h597.333v426.667h149.333l-448 426.667-448-426.667zM488.704 144c-33.369 23.535-62.646 48.56-89.429 76.028l-0.128 0.132c-30.805 32.128-57.813 70.357-57.813 107.733 0 49.707 42.155 98.773 97.28 98.773 20.565 0 38.741-6.059 54.443-16.384 5.419-3.584 11.008-9.856 15.787-15.232 1.109-1.237 2.133-2.432 3.157-3.499 1.024 1.067 2.048 2.261 3.157 3.499 4.779 5.376 10.368 11.648 15.787 15.232 15.2 10.264 33.933 16.385 54.096 16.385 0.122 0 0.244 0 0.366-0.001h-0.019c55.125 0 97.28-49.067 97.28-98.773 0-37.376-27.008-75.605-57.813-107.733-27.008-28.16-57.429-53.333-89.557-76.16-6.473-4.652-14.559-7.44-23.296-7.44s-16.823 2.788-23.416 7.522l0.12-0.082z" />
<glyph unicode="&#xe932;" glyph-name="Home-Mortgage" d="M512 853.334l-448-426.667h149.333v-426.667h327.424c-18.188 37.463-28.819 81.49-28.819 128 0 164.949 133.718 298.667 298.667 298.667 0.022 0 0.044 0 0.065 0h149.33l-448 426.667zM597.333 128c0.012 117.823 95.53 213.333 213.355 213.333 117.833 0 213.355-95.522 213.355-213.355 0-0.007 0-0.015 0-0.022v0.001c-0.012-117.823-95.53-213.333-213.355-213.333-117.833 0-213.355 95.522-213.355 213.355 0 0.007 0 0.015 0 0.022v-0.001zM938.667 128c0 70.692-57.308 128-128 128s-128-57.308-128-128v0c0-70.692 57.308-128 128-128s128 57.308 128 128v0zM747.093 180.182l80.981 33.152h10.837v-170.667h-58.027v106.325l-33.792-13.056v44.245z" />
<glyph unicode="&#xe933;" glyph-name="Home-Percent" d="M64 426.667h149.333v-426.667h597.333v426.667h149.333l-448 426.667-448-426.667zM609.83 456.837c16.661 16.661 43.678 16.661 60.339 0s16.661-43.678 0-60.339l-256-256c-16.663-16.661-43.677-16.661-60.34 0s-16.662 43.678 0 60.339l256 256zM469.333 405.334c0-35.345-28.655-64-64-64-35.346 0-64 28.655-64 64s28.654 64 64 64c35.345 0 64-28.655 64-64zM682.667 192c0-35.345-28.655-64-64-64s-64 28.655-64 64c0 35.345 28.655 64 64 64s64-28.655 64-64z" />
<glyph unicode="&#xe934;" glyph-name="Home-Search" d="M474.453 248.235c48.554 0 87.915 39.361 87.915 87.915s-39.361 87.915-87.915 87.915v0c-48.542 0-87.893-39.351-87.893-87.893s39.351-87.893 87.893-87.893v0zM938.667 426.667h-128v-426.667h-597.333v426.667h-128l426.667 426.667 426.667-426.667zM563.2 185.259l100.011-99.925 62.123 62.123-99.968 99.968c15.52 25.316 24.78 55.932 24.96 88.697v0.050c-0.097 97.084-78.785 175.756-175.865 175.829h-0.007c-97.050-0.121-175.69-78.776-175.787-175.82v-0.009c0.097-97.054 78.736-175.708 175.775-175.829h0.012c32.81 0.172 63.425 9.417 89.509 25.35l-0.762-0.433z" />
<glyph unicode="&#xe935;" glyph-name="Home" d="M512 853.334l-448-426.667h149.333v-426.667h597.333v426.667h149.333l-448 426.667z" />
<glyph unicode="&#xe936;" glyph-name="Plan-Off" d="M143.104 825.771c-3.865 3.865-9.206 6.256-15.104 6.256-11.797 0-21.36-9.563-21.36-21.36 0-5.898 2.391-11.239 6.256-15.104v0l768-768c3.865-3.865 9.206-6.256 15.104-6.256 11.797 0 21.36 9.563 21.36 21.36 0 5.898-2.391 11.239-6.256 15.104l-768 768zM128 128v592.171l85.333-85.333v-80.171h80.171l85.333-85.333h-165.504v-341.333h170.667v-85.333h-256v85.333zM559.829 469.334l-85.333 85.333h122.837v-85.333h-37.504zM810.667 469.334v-250.837l85.333-85.333v677.504h-677.504l85.333-85.333h506.837v-170.667h-85.333v-85.333h85.333zM597.333 128v122.837l-85.333 85.333v-293.504h293.504l-85.333 85.333h-122.837z" />
<glyph unicode="&#xe937;" glyph-name="Plan" d="M213.333 810.667h682.667v-768h-384v298.667h85.333v-213.333h213.333v341.333h-85.333v85.333h85.333v170.667h-597.333v-170.667h384v-85.333h-384v-341.333h170.667v-85.333h-256v768h85.333z" />
<glyph unicode="&#xe938;" glyph-name="Success" d="M795.136 630.272c9.523-7.883 15.545-19.707 15.545-32.937 0-10.341-3.679-19.823-9.799-27.208l0.057 0.071-298.667-362.667c-7.883-9.525-19.708-15.547-32.939-15.547-12.497 0-23.739 5.373-31.543 13.935l-0.030 0.034-213.333 234.667c-6.887 7.551-11.105 17.64-11.105 28.715 0 23.57 19.108 42.678 42.678 42.678 12.496 0 23.738-5.371 31.543-13.93l0.030-0.034 180.181-198.187 267.307 324.608c7.883 9.523 19.707 15.545 32.937 15.545 10.341 0 19.823-3.679 27.208-9.799l-0.071 0.057z" />
<glyph unicode="&#xe939;" glyph-name="Success-Circle" d="M512-0c235.639 0 426.667 191.027 426.667 426.667 0 235.642-191.027 426.667-426.667 426.667-235.642 0-426.667-191.025-426.667-426.667 0-235.639 191.025-426.667 426.667-426.667zM730.014 588.483c18.679-14.367 22.174-41.155 7.804-59.833l-213.333-277.335c-7.787-10.125-19.703-16.226-32.469-16.631-12.77-0.401-25.045 4.937-33.459 14.549l-149.332 170.667c-15.517 17.737-13.72 44.689 4.014 60.207s44.689 13.722 60.206-4.011l115.102-131.546 181.636 236.128c14.366 18.678 41.156 22.172 59.831 7.804z" />
<glyph unicode="&#xe93a;" glyph-name="Question-Circle" d="M642.005 458.667c24.673 23.845 39.991 57.234 39.991 94.201 0 0.632-0.004 1.264-0.013 1.894l0.001-0.095c0 46.677-16.64 86.656-49.963 120.021-33.365 33.28-73.387 49.963-120.021 49.963-46.677 0-86.656-16.64-120.021-49.963-33.28-33.365-49.963-73.387-49.963-120.021h83.968c0 22.656 8.704 42.667 26.027 59.989 17.323 17.365 37.333 26.027 59.989 26.027s42.667-8.704 59.989-26.027c17.323-17.323 26.027-37.333 26.027-59.989s-8.704-42.667-26.027-59.989l-52.011-54.016c-33.28-36.011-49.963-75.989-49.963-119.979v-22.016h83.968c0 43.989 16.683 84.011 50.005 120.021l37.973 39.979zM553.984 128.683v83.968h-83.968v-83.968h83.968zM210.005 726.614c83.968 84.053 184.661 126.037 301.995 126.037s217.344-41.984 299.989-125.995c84.011-82.645 125.995-182.656 125.995-299.989s-41.984-218.027-125.995-301.995c-82.645-82.688-182.656-123.989-299.989-123.989s-218.027 41.301-301.995 123.989c-82.688 83.968-123.989 184.661-123.989 301.995s41.301 217.344 123.989 299.989z" />
<glyph unicode="&#xe93b;" glyph-name="Loader" d="M469.333 810.667c0 23.564 19.103 42.667 42.667 42.667v0c235.641 0 426.667-191.025 426.667-426.667v0c0-23.564-19.103-42.667-42.667-42.667s-42.667 19.103-42.667 42.667v0c0 0.013 0 0.028 0 0.043 0 188.49-152.801 341.291-341.291 341.291-0.015 0-0.030 0-0.045 0h0.002c-23.564 0-42.667 19.103-42.667 42.667v0z" />
<glyph unicode="&#xe93c;" glyph-name="Info-Circle" d="M553.984 554.667v86.016h-83.968v-86.016h83.968zM553.984 212.651v256h-83.968v-256h83.968zM210.005 726.656c83.968 84.011 184.661 125.995 301.995 125.995s217.344-41.984 299.989-125.995c84.011-82.645 125.995-182.656 125.995-299.989s-41.984-218.027-125.995-301.995c-82.645-82.688-182.656-123.989-299.989-123.989s-218.027 41.301-301.995 123.989c-82.688 83.968-123.989 184.661-123.989 301.995s41.301 217.344 123.989 299.989z" />
<glyph unicode="&#xe93d;" glyph-name="Bell" d="M596.139 753.75c0.747 4.24 1.173 9.121 1.173 14.102 0 47.128-38.205 85.333-85.333 85.333s-85.333-38.205-85.333-85.333c0-4.981 0.427-9.863 1.246-14.61l-0.072 0.507c-93.671-33.492-161.173-117.647-169.875-218.611l-0.066-0.951-19.669-235.52h-67.541c-23.564 0-42.667-19.103-42.667-42.667v0-42.667c0-47.147 171.947-85.333 384-85.333s384 38.187 384 85.333v42.667c0 23.564-19.103 42.667-42.667 42.667v0h-67.541l-19.627 235.477c-8.766 101.952-76.308 186.134-168.246 219.049l-1.781 0.556zM426.709 87.467l-0.043-2.133c0.602-46.671 38.576-84.273 85.333-84.273 47.132 0 85.34 38.208 85.34 85.34 0 0.375-0.002 0.75-0.007 1.123l0.001-0.057c-25.485-1.366-55.318-2.145-85.333-2.145-30.016 0-59.85 0.778-89.484 2.316l4.15-0.172z" />
<glyph unicode="&#xe93e;" glyph-name="Bell-Off" d="M257.835 534.144c1.49 17.613 4.511 33.822 8.975 49.422l-0.442-1.806 441.813-441.813c-57.387-7.595-124.501-11.947-196.181-11.947-212.053 0-384 38.187-384 85.333v42.667c0 23.564 19.103 42.667 42.667 42.667v0h67.541l19.627 235.477zM896 213.334c0-13.909-14.933-27.051-41.515-38.613l-520.704 520.619c25.953 25.379 57.365 45.294 92.298 57.811l1.782 0.557c-0.747 4.24-1.173 9.121-1.173 14.102 0 47.128 38.205 85.333 85.333 85.333s85.333-38.205 85.333-85.333c0-4.981-0.427-9.863-1.246-14.61l0.072 0.507c93.701-33.485 161.225-117.663 169.918-218.655l0.066-0.95 19.627-235.477h67.541c23.564 0 42.667-19.103 42.667-42.667v0-42.667zM426.667 87.467v-2.133c0.602-46.671 38.576-84.273 85.333-84.273 47.132 0 85.34 38.208 85.34 85.34 0 0.375-0.002 0.75-0.007 1.123l0.001-0.057c-25.485-1.366-55.318-2.145-85.333-2.145-30.016 0-59.85 0.778-89.484 2.316l4.15-0.172zM143.147 825.728c-3.865 3.865-9.206 6.256-15.104 6.256-11.797 0-21.36-9.563-21.36-21.36 0-5.898 2.391-11.239 6.256-15.104v0l768-768c3.865-3.865 9.206-6.256 15.104-6.256 11.797 0 21.36 9.563 21.36 21.36 0 5.898-2.391 11.239-6.256 15.104l-768 768z" />
<glyph unicode="&#xe93f;" glyph-name="Alert" d="M553.984 340.651v172.032h-83.968v-172.032h83.968zM553.984 170.667v86.016h-83.968v-86.016h83.968zM41.984 42.667l470.016 809.984 470.016-809.984h-940.032z" />
<glyph unicode="&#xe940;" glyph-name="Alert-Circle" d="M553.984 298.667v-86.016h-83.968v86.016h83.968zM553.984 640.683v-256h-83.968v256h83.968zM210.005 126.678c83.968-84.011 184.661-125.995 301.995-125.995s217.344 41.984 299.989 125.995c84.011 82.645 125.995 182.656 125.995 299.989s-41.984 218.027-125.995 301.995c-82.645 82.688-182.656 123.989-299.989 123.989s-218.027-41.301-301.995-123.989c-82.688-83.968-123.989-184.661-123.989-301.995s41.301-217.344 123.989-299.989z" />
<glyph unicode="&#xe941;" glyph-name="Centering" d="M299.989 214.656c58.667-57.301 129.365-85.973 212.011-85.973 82.688 0 152.661 28.672 210.005 85.973 58.667 58.667 87.979 129.365 87.979 212.011 0 82.688-29.312 152.661-87.979 210.005-57.344 58.667-127.36 87.979-210.005 87.979-82.688 0-153.344-29.312-212.011-87.979-57.301-57.344-85.973-127.317-85.973-210.005s28.629-153.344 85.973-212.011zM893.995 468.651h88.021v-83.968h-88.021c-9.344-89.344-45.995-166.016-109.995-230.016s-140.672-100.693-229.973-109.995v-88.021h-84.053v88.021c-89.301 9.344-165.973 45.995-229.973 109.995s-100.693 140.672-109.995 229.973h-88.021v84.053h88.021c9.344 89.301 45.995 165.973 109.995 229.973s140.672 100.693 229.973 109.995v88.021h84.053v-88.021c89.301-9.344 165.973-45.995 229.973-109.995s100.693-140.672 109.995-229.973zM392.021 546.688c33.28 33.28 73.301 49.963 119.979 49.963s86.656-16.64 120.021-49.963c33.28-33.365 49.963-73.387 49.963-120.021 0-46.677-16.64-86.656-49.963-120.021-33.365-33.28-73.387-49.963-120.021-49.963-46.677 0-86.656 16.64-120.021 49.963-33.28 33.365-49.963 73.387-49.963 120.021 0 46.677 16.64 86.656 49.963 120.021z" />
<glyph unicode="&#xe942;" glyph-name="Compass-Circle" d="M605.995 332.672l162.005 349.995-349.995-162.005-162.005-349.995 349.995 162.005zM210.005 726.614c83.968 84.053 184.661 126.037 301.995 126.037s217.344-41.984 299.989-125.995c84.011-82.645 125.995-182.656 125.995-299.989s-41.984-218.027-125.995-301.995c-82.645-82.688-182.656-123.989-299.989-123.989s-218.027 41.301-301.995 123.989c-82.688 83.968-123.989 184.661-123.989 301.995s41.301 217.344 123.989 299.989zM477.995 458.624c9.344 9.344 20.693 13.995 34.005 13.995 13.355 0 24.021-4.693 32-13.995 9.344-8.021 13.995-18.688 13.995-32 0-13.355-4.693-24.661-13.995-34.005-8.021-7.979-18.688-11.989-32-11.989-13.355 0-24.661 4.011-34.005 11.989-7.465 8.745-12.007 20.182-12.007 32.679 0 0.466 0.006 0.931 0.019 1.395l-0.001-0.068c0 13.355 4.011 24.021 11.989 32z" />
<glyph unicode="&#xe943;" glyph-name="Draw" d="M520.277 786.432c40.363 2.176 81.92 2.901 139.307-9.301 76.699-16.504 143.66-50.728 198.856-98.241l-0.584 0.491c7.542-6.855 17.607-11.052 28.653-11.052 23.564 0 42.667 19.103 42.667 42.667 0 13.351-6.132 25.269-15.733 33.093l-0.078 0.061c-65.013 56.002-144.722 96.779-232.529 115.842l-3.503 0.638c-67.797 14.379-117.675 13.397-161.707 11.008-22.378-1.456-39.977-19.964-39.977-42.582 0-23.564 19.103-42.667 42.667-42.667 0.675 0 1.346 0.016 2.013 0.047l-0.095-0.003zM298.667 773.206c0 34.901 29.099 63.232 64 63.232s64-28.331 64-63.232v-231.765l271.701-54.997c39.4-7.599 68.757-41.797 68.779-82.856v-203.949c0-69.821-56.601-126.421-126.421-126.421-0.030 0-0.060 0-0.090 0h-242.769c-0.001 0-0.003 0-0.004 0-34.908 0-66.51 14.153-89.382 37.034l-204.203 204.118c-12.237 12.206-19.809 29.085-19.809 47.732 0 21.493 10.058 40.636 25.724 52.98l0.144 0.109c11.501 9.080 26.206 14.565 42.193 14.565 11.288 0 21.937-2.734 31.321-7.577l-0.383 0.18 115.2-56.064v406.912z" />
<glyph unicode="&#xe944;" glyph-name="Geo-Location" d="M896 810.667l-768-329.131 272.597-123.904c18.852-8.712 33.656-23.516 42.149-41.841l0.219-0.527 123.904-272.597 329.131 768z" />
<glyph unicode="&#xe945;" glyph-name="Layers" d="M279.253 426.667l-193.92-106.667 426.667-234.667 426.667 234.667-193.963 106.667 193.963 106.667-426.667 234.667-426.667-234.667 193.92-106.667zM512 396.075l-249.6 137.259 249.6 137.259 249.6-137.259-249.6-137.259z" />
<glyph unicode="&#xe946;" glyph-name="Map" d="M128 725.334l256 85.333 256-85.333 256 85.333v-682.667l-256-85.333-256 85.333-256-85.333v682.667zM384 725.334v-512l256-85.333v512l-256 85.333z" />
<glyph unicode="&#xe947;" glyph-name="Panorama" d="M135.979 630.912c9.429-8.363 25.6-18.091 49.707-27.776 47.147-18.944 115.968-34.389 198.315-42.411v-182.4c40.704 3.712 83.712 5.675 128 5.675h-0.074c0.484 0 0.967 0.001 1.451 0.001 44.58 0 88.679-2.061 126.623-5.675v182.4c82.389 8.021 151.168 23.467 198.315 42.411 24.107 9.685 40.32 19.413 49.707 27.776l0.063 0.049c3.055 2.444 5.647 5.443 7.702 8.997-0.853 1.877-4.053 7.083-15.317 15.104-16.299 11.52-42.624 23.68-79.019 34.56-72.277 21.675-174.592 35.712-289.451 35.712s-217.173-14.037-289.451-35.669c-36.395-10.88-62.72-23.083-78.976-34.603-11.307-7.979-14.507-13.184-15.36-15.061l0.081-0.153c1.971-3.418 4.563-6.431 7.684-8.935zM42.667 213.334v426.667c0 38.357 25.728 66.347 51.499 84.608 26.88 19.072 63.061 34.56 103.893 46.763 82.176 24.661 193.152 39.296 313.941 39.296 120.747 0 231.765-14.635 313.941-39.253 40.832-12.288 76.971-27.733 103.893-46.805 25.771-18.261 51.499-46.208 51.499-84.608v-426.667c0-31.829-17.92-56.661-37.973-74.027-20.224-17.579-47.189-31.872-77.141-43.563-58.539-22.912-137.515-39.339-226.219-47.36v244.224c-37.925 3.859-81.958 6.060-126.505 6.060-0.525 0-1.051 0-1.576-0.001h0.081c-0.516 0.001-1.128 0.001-1.739 0.001-44.461 0-88.407-2.201-131.737-6.499l5.476 0.44v-244.267c-88.747 8.107-167.68 24.491-226.219 47.36-29.952 11.733-56.917 26.027-77.099 43.605-20.096 17.365-38.016 42.197-38.016 74.027zM896.085 640.811l-0.043-0.171 0.043 0.213zM127.957 640.64l-0.043 0.171v-0.003c0.007-0.060 0.022-0.118 0.042-0.168z" />
<glyph unicode="&#xe948;" glyph-name="Pin" d="M436.011 478.678c21.333-20.011 46.677-29.995 75.989-29.995 29.355 0 54.016 9.984 73.984 29.995 21.333 21.333 32 46.677 32 75.989 0.011 0.549 0.017 1.195 0.017 1.844 0 28.574-12.319 54.27-31.936 72.068l-0.081 0.073c-17.891 19.699-43.605 32.016-72.196 32.016-0.629 0-1.256-0.006-1.882-0.018l0.094 0.001c-29.355 0-54.656-10.667-75.989-32-20.011-19.968-29.995-44.629-29.995-73.984s9.984-54.656 29.995-75.989zM299.947 764.672c58.709 58.667 129.408 87.979 212.053 87.979 82.688 0 152.661-29.312 210.005-87.979 58.667-57.344 87.979-127.317 87.979-210.005 0-41.344-10.667-88.661-32-141.995-21.703-57.627-46.602-107.069-75.983-153.388l1.999 3.372c-34.698-55.398-63.717-98.434-93.862-140.609l5.841 8.599c-25.598-37.067-49.24-68.339-74.056-98.612l2.077 2.612-32-33.963c-8.021 9.301-18.688 21.333-32 35.968-19.285 23.453-42.888 53.406-65.987 83.764l-6.034 8.268c-28.191 37.205-58.499 80.882-87.094 125.756l-4.895 8.217c-24.036 41.28-47.551 90.014-67.406 140.587l-2.567 7.424c-21.333 54.656-32 102.656-32 144 0 82.688 28.629 152.661 85.973 210.005z" />
<glyph unicode="&#xe949;" glyph-name="Ruller" d="M662.869 818.859l241.323-241.323-543.061-543.061-241.323 241.323 60.331 60.373 90.496-90.539 60.331 60.373-90.496 90.453 60.331 60.373 150.869-150.827 60.331 60.331-150.869 150.784 60.416 60.416 90.453-90.539 60.331 60.331-90.496 90.539 60.331 60.331 150.869-150.869 60.331 60.373-150.869 150.827 60.373 60.331z" />
<glyph unicode="&#xe94a;" glyph-name="Traffic" d="M160.171 426.667v-0.005c0 0.029 0 0.058 0 0.088 0 193.462 156.832 350.293 350.293 350.293 14.767 0 29.32-0.914 41.899-2.515 70.571-40.789 120.789-112.427 168.576-180.565 43.947-62.677 85.803-122.368 139.563-152.405l-0.021 0.666c0.181-4.631 0.273-9.285 0.273-13.96 0-193.462-156.832-350.293-350.293-350.293-192.9 0-349.383 155.923-350.29 348.697zM493.312 854.486c-162.005-0.085-278.059-2.56-372.053-77.483-65.28-52.053-99.84-236.8-37.504-314.965-0.939-11.648-1.451-23.467-1.451-35.371 0-236.459 191.701-428.16 428.203-428.16 236.459 0 428.16 191.701 428.16 428.16s-191.701 428.16-428.16 428.16c-5.76 0-11.52-0.085-17.195-0.341z" />
<glyph unicode="&#xe94b;" glyph-name="Pie-Chart" d="M555.989 382.678h381.995c-9.301-101.333-50.005-187.989-121.984-260.011-72.021-72.021-158.677-112.64-260.011-122.027v382.080zM555.989 852.651c101.333-9.301 187.989-49.963 260.011-121.984s112.64-158.677 122.027-260.011h-382.080v381.995zM470.016 852.651v-851.968c-108.032 10.667-199.339 56.661-274.005 137.984-73.344 81.323-109.995 177.323-109.995 288s36.651 206.677 109.995 288c74.667 81.323 165.973 127.317 274.005 137.984z" />
<glyph unicode="&#xe94c;" glyph-name="Attachment" d="M704 682.667h64v-489.984c0-65.365-22.656-121.344-68.011-168.021-45.312-45.312-100.693-68.011-165.973-68.011-65.365 0-121.344 22.699-168.021 68.011-45.312 46.677-68.011 102.656-68.011 168.021v531.968c0 46.677 16.683 86.699 50.005 120.021 34.688 34.645 75.349 52.011 122.027 52.011 46.635 0 86.613-17.365 119.979-52.053 33.365-33.237 50.005-73.259 50.005-119.936v-448c0-29.312-10.667-54.613-32-75.947-20.011-20.053-44.672-30.037-73.984-30.037-0.472-0.007-1.029-0.012-1.588-0.012-28.923 0-55.174 11.438-74.478 30.038l0.033-0.032c-21.333 21.333-32 46.677-32 75.989v405.973h64v-406.016c0-11.947 4.011-21.973 12.032-29.995 9.301-7.979 19.968-11.989 32-11.989 0.331-0.010 0.721-0.015 1.112-0.015 11.287 0 21.502 4.589 28.881 12.003l0.002 0.002c7.416 7.381 12.005 17.595 12.005 28.882 0 0.391-0.006 0.781-0.016 1.17l0.001-0.057v448c0 29.355-10.667 54.699-32 76.032-17.891 19.699-43.605 32.016-72.196 32.016-0.629 0-1.256-0.006-1.882-0.018l0.094 0.001c-29.355 0-54.699-10.667-76.032-32s-32-46.677-32-76.032v-531.968c0-46.677 16.683-87.339 50.005-122.027 34.688-33.323 75.349-50.005 122.027-50.005 46.635 0 86.613 16.683 119.979 50.005 33.323 34.688 50.005 75.349 50.005 122.027v489.984z" />
<glyph unicode="&#xe94d;" glyph-name="Clipboard" d="M170.667 853.334h85.333v-128c0-47.128 38.205-85.333 85.333-85.333v0h341.333c47.128 0 85.333 38.205 85.333 85.333v0 128h85.333v-853.333h-682.667v853.333zM682.667 853.334h-341.333v-106.667c0-11.782 9.551-21.333 21.333-21.333v0h298.667c11.782 0 21.333 9.551 21.333 21.333v0 106.667z" />
<glyph unicode="&#xe94e;" glyph-name="Document-Copy" d="M341.333 853.334v-85.333h426.667v-597.333h85.333v682.667h-512zM170.667 682.667v-682.667h512v682.667h-512zM298.667 554.667h256v-85.333h-256v85.333zM554.667 384v-85.333h-256v85.333h256zM298.667 213.334h256v-85.333h-256v85.333z" />
<glyph unicode="&#xe94f;" glyph-name="Document" d="M725.333 853.334l128-128v-725.333h-682.667v853.333h554.667zM682.667 640h-341.333v-85.333h341.333v85.333zM341.333 469.334v-85.333h341.333v85.333h-341.333zM682.667 298.667h-341.333v-85.333h341.333v85.333z" />
<glyph unicode="&#xe950;" glyph-name="Excel" d="M597.333 853.334l-512-128v-597.333l512-128v128h298.667c23.564 0 42.667 19.103 42.667 42.667v0 512c0 23.564-19.103 42.667-42.667 42.667v0h-298.667v128zM597.333 554.667v85.333h85.333v-85.333h-85.333zM597.333 469.334v-85.333h85.333v85.333h-85.333zM597.333 213.334v85.333h85.333v-85.333h-85.333zM768 213.334v85.333h85.333v-85.333h-85.333zM853.333 469.334v-85.333h-85.333v85.333h85.333zM853.333 554.667v85.333h-85.333v-85.333h85.333zM373.333 266.667l-48 106.667-48-106.667h-64l80 160-80 160h64l48-106.667 48 106.667h64l-75.392-160 75.392-160h-64z" />
<glyph unicode="&#xe951;" glyph-name="File-Corrupted" d="M725.333 853.334h-554.667v-323.669l85.333-85.333 128 128 128-128 128 128 128-128 85.333 85.333v195.669l-128 128zM853.333 409.003l-85.333-85.333-128 128-128-128-128 128-128-128-85.333 85.333v-409.003h682.667v409.003z" />
<glyph unicode="&#xe952;" glyph-name="File-Error" d="M725.333 853.334l128-128v-725.333h-682.667v853.333h554.667zM332.501 545.835l119.168-119.168-119.168-119.168 60.331-60.331 119.168 119.168 119.168-119.168 60.331 60.331-119.168 119.168 119.168 119.168-60.331 60.331-119.168-119.168-119.168 119.168-60.331-60.331z" />
<glyph unicode="&#xe953;" glyph-name="File-Minus" d="M725.333 853.334l128-128v-725.333h-682.667v853.333h554.667zM682.667 469.334h-341.333v-85.333h341.333v85.333z" />
<glyph unicode="&#xe954;" glyph-name="File-Plus" d="M725.333 853.334h-554.667v-853.333h682.667v725.333l-128 128zM469.333 597.334h85.333v-128h128v-85.333h-128v-128h-85.333v128h-128v85.333h128v128z" />
<glyph unicode="&#xe955;" glyph-name="File-Sucess" d="M725.333 853.334l128-128v-725.333h-682.667v853.333h554.667zM469.333 238.336l264.832 264.832-60.331 60.331-204.501-204.501-119.168 119.168-60.331-60.331 179.499-179.499z" />
<glyph unicode="&#xe956;" glyph-name="File-Upload" d="M725.333 853.334h-554.667v-853.333h298.667v341.333h-128l170.667 213.333 170.667-213.333h-128v-341.333h298.667v725.333l-128 128z" />
<glyph unicode="&#xe957;" glyph-name="File-Wait" d="M725.333 853.334h-554.667v-853.333h260.309c-55.314 54.249-89.6 129.766-89.6 213.29 0 164.949 133.718 298.667 298.667 298.667 83.525 0 159.041-34.286 213.244-89.552l0.047-0.048v302.976l-128 128zM853.333 4.31c-1.438-1.467-2.842-2.872-4.261-4.262l-0.049-0.048h4.309v4.309zM853.333 213.334c0-117.821-95.513-213.333-213.333-213.333s-213.333 95.513-213.333 213.333v0c0 117.821 95.513 213.333 213.333 213.333s213.333-95.513 213.333-213.333v0zM682.667 230.998v110.336h-85.333v-145.664l97.835-97.835 60.331 60.331-72.832 72.832z" />
<glyph unicode="&#xe958;" glyph-name="File" d="M170.667 853.334h554.667l128-128v-725.333h-682.667v853.333z" />
<glyph unicode="&#xe959;" glyph-name="Folder" d="M469.333 810.667h-384v-725.333h853.333v597.333h-405.333l-64 128z" />
<glyph unicode="&#xe95a;" glyph-name="Histogram" d="M896 810.667h-213.333v-768h213.333v768zM384 469.334h213.333v-426.667h-213.333v426.667zM85.333 341.334h213.333v-298.667h-213.333v298.667z" />
<glyph unicode="&#xe95b;" glyph-name="Mail" d="M85.333 641.536v-513.536h853.333v513.536l-426.667-310.272-426.667 310.272zM908.8 725.334h-793.6l396.8-288.597 396.8 288.597z" />
<glyph unicode="&#xe95c;" glyph-name="Video" d="M896 810.667v-768h-768v768h768zM682.667 426.667l-298.667 170.667v-341.333l298.667 170.667z" />
<glyph unicode="&#xe95d;" glyph-name="Camera" d="M512 512c-70.692 0-128-57.308-128-128s57.308-128 128-128v0c70.692 0 128 57.308 128 128s-57.308 128-128 128v0zM853.333 640h-102.4c-15.361 0.722-28.27 10.488-33.575 24.062l-0.089 0.258-26.496 79.403c-5.431 13.814-18.346 23.557-33.622 24.274l-0.085 0.003h-290.133c-14.080 0-29.269-10.923-33.664-24.235l-26.539-79.445c-5.403-13.826-18.307-23.586-33.578-24.317l-0.086-0.003h-102.4c-46.933 0-85.333-38.4-85.333-85.333v-384c0-46.933 38.4-85.333 85.333-85.333h682.667c46.933 0 85.333 38.4 85.333 85.333v384c0 46.933-38.4 85.333-85.333 85.333zM512 170.667c-117.821 0-213.333 95.513-213.333 213.333s95.513 213.333 213.333 213.333v0c117.821 0 213.333-95.513 213.333-213.333s-95.513-213.333-213.333-213.333v0zM832 503.467c-16.495 0-29.867 13.372-29.867 29.867s13.372 29.867 29.867 29.867v0c16.495 0 29.867-13.372 29.867-29.867s-13.372-29.867-29.867-29.867v0z" />
<glyph unicode="&#xe95e;" glyph-name="Desktop" d="M981.333 853.334v-682.667h-384v-85.333h128v-85.333h-426.667v85.333h128v85.333h-384v682.667h938.667zM896 768h-768v-512h768v512z" />
<glyph unicode="&#xe95f;" glyph-name="Globe" d="M555.051 810.752v-340.352h169.301c-11.585 135.844-74.415 255.118-168.827 339.933l-0.474 0.419zM724.352 383.062h-169.259v-340.395c94.896 85.244 157.728 204.535 169.17 338.492l0.131 1.903zM601.387-42.666c118.016 102.101 197.547 252.757 209.067 425.728h170.88c-19.029-213.248-176.128-386.048-379.947-425.728zM810.453 470.4c-11.52 172.885-91.008 323.499-208.939 425.6 203.733-39.723 360.747-212.48 379.819-425.6h-170.88zM42.667 470.4c19.072 213.12 176.085 385.835 379.733 425.6-117.888-102.101-197.333-252.715-208.853-425.6h-170.88zM468.907 810.752c-94.887-85.234-157.717-204.508-169.17-338.447l-0.131-1.905h169.344v340.352zM42.667 383.062h170.88c11.52-172.971 91.008-323.627 209.024-425.728-203.776 39.68-360.875 212.48-379.904 425.728zM299.605 383.062c11.573-135.86 74.405-255.151 168.827-339.976l0.474-0.419v340.395h-169.387z" />
<glyph unicode="&#xe960;" glyph-name="Image" d="M128 810.667v-768h768v768h-768zM768 576c0-58.91-47.756-106.667-106.667-106.667s-106.667 47.756-106.667 106.667v0c0 58.91 47.756 106.667 106.667 106.667s106.667-47.756 106.667-106.667v0zM384 384l110.421-165.632 60.245 80.299 128-170.667h-469.333l170.667 256z" />
<glyph unicode="&#xe961;" glyph-name="Mobile" d="M213.333 896v-938.667h554.667v938.667h-554.667zM298.667 768h384v-597.333h-384v597.333zM490.667-0v0c-35.346 0-64 28.654-64 64s28.654 64 64 64v0c35.346 0 64-28.654 64-64s-28.654-64-64-64z" />
<glyph unicode="&#xe962;" glyph-name="No-Camera" d="M143.104 783.104c-3.865 3.865-9.206 6.256-15.104 6.256-11.797 0-21.36-9.563-21.36-21.36 0-5.898 2.391-11.239 6.256-15.104v0l768-768c3.865-3.865 9.206-6.256 15.104-6.256 11.797 0 21.36 9.563 21.36 21.36 0 5.898-2.391 11.239-6.256 15.104l-768 768zM85.333 554.667c0 45.227 35.669 82.56 80.299 85.205l157.227-157.227c-15.222-28.615-24.16-62.57-24.16-98.613 0-117.821 95.513-213.333 213.333-213.333 36.043 0 69.999 8.939 99.771 24.72l-1.158-0.56 109.525-109.525h-549.504c-46.933 0-85.333 38.4-85.333 85.333v384zM384 384c0 0.017 0 0.038 0 0.059 0 11.769 1.588 23.167 4.563 33.992l-0.21-0.898 156.8-156.8c-9.956-2.782-21.389-4.381-33.195-4.381-70.669 0-127.957 57.288-127.957 127.957 0 0.025 0 0.050 0 0.075v-0.004zM478.848 507.648l156.8-156.8c2.788 9.967 4.391 21.413 4.391 33.234 0 70.669-57.288 127.957-127.957 127.957-11.82 0-23.266-1.603-34.133-4.603l0.899 0.212zM725.333 384c-0.005-36.057-8.955-70.024-24.752-99.802l0.56 1.156 190.763-190.72c27.901 14.426 46.665 43.026 46.763 76.019v384.013c0 46.933-38.4 85.333-85.333 85.333h-102.4c-15.361 0.722-28.27 10.488-33.575 24.062l-0.089 0.258-26.496 79.403c-5.431 13.814-18.346 23.557-33.622 24.274l-0.085 0.003h-290.133c-14.080 0-29.269-10.923-33.664-24.235l-22.656-67.84 102.741-102.784c28.623 15.232 62.589 24.177 98.645 24.177 117.815 0 213.325-95.504 213.333-213.317v-0.001zM832 503.467c-16.495 0-29.867 13.372-29.867 29.867s13.372 29.867 29.867 29.867v0c16.495 0 29.867-13.372 29.867-29.867s-13.372-29.867-29.867-29.867v0z" />
<glyph unicode="&#xe963;" glyph-name="Rouble" d="M298.667 810.667h298.667c117.821 0 213.333-95.513 213.333-213.333s-95.513-213.333-213.333-213.333h-170.667v-42.667h213.333v-128h-213.333v-170.667h-128v170.667h-85.333v128h85.333v42.667h-85.333v128h85.333v298.667zM426.667 512h170.667c47.128 0 85.333 38.205 85.333 85.333s-38.205 85.333-85.333 85.333v0h-170.667v-170.667z" />
<glyph unicode="&#xe964;" glyph-name="Shield-Success" d="M425.984 212.651l342.016 342.016-59.989 59.989-282.027-279.979-109.995 109.995-59.989-59.989 169.984-172.032zM512 896.683l384-172.032v-256c0-118.613-36.693-227.328-109.995-325.973-73.344-97.365-164.693-159.36-274.005-186.027-109.355 26.667-200.661 88.661-274.005 186.027-73.301 98.645-109.995 207.36-109.995 325.973v256l384 172.032z" />
<glyph unicode="&#xe965;" glyph-name="Shield" d="M512 896.683l384-172.032v-256c0-118.613-36.693-227.328-109.995-325.973-73.344-97.365-164.693-159.36-274.005-186.027-109.355 26.667-200.661 88.661-274.005 186.027-73.301 98.645-109.995 207.36-109.995 325.973v256l384 172.032z" />
<glyph unicode="&#xe966;" glyph-name="Tag" d="M612.053 827.99c-2.259 0.142-4.899 0.223-7.557 0.223-35.337 0-67.329-14.319-90.491-37.472l-411.903-411.903c-7.731-7.723-12.514-18.396-12.514-30.187s4.782-22.464 12.513-30.186v0l301.696-301.653c7.723-7.731 18.396-12.514 30.187-12.514s22.464 4.782 30.186 12.513v0l411.904 411.861c23.152 23.162 37.471 55.154 37.471 90.491 0 2.659-0.081 5.299-0.241 7.917l0.018-0.36-7.936 135.168c-5.155 85.199-72.967 153.010-157.696 158.143l-0.47 0.023-135.168 7.936zM645.163 559.83c15.445-15.445 36.783-24.999 60.352-24.999 47.138 0 85.351 38.213 85.351 85.351 0 23.569-9.553 44.907-24.999 60.352v0c-15.451 15.451-36.796 25.007-60.373 25.007-47.155 0-85.381-38.226-85.381-85.381 0-23.577 9.557-44.922 25.007-60.373v0z" />
<glyph unicode="&#xe967;" glyph-name="Upload" d="M597.333 341.334h128l-213.333 213.333-213.333-213.333h128v-298.667h170.667v298.667zM128 810.667v-170.667h768v170.667h-768z" />
<glyph unicode="&#xe968;" glyph-name="Download" d="M597.333 512h128l-213.333-213.333-213.333 213.333h128v298.667h170.667v-298.667zM128 42.667v170.667h768v-170.667h-768z" />
<glyph unicode="&#xe969;" glyph-name="Bookmark" d="M213.333 810.667h597.333v-725.333l-298.667 213.333-298.667-213.333v725.333z" />
<glyph unicode="&#xe96a;" glyph-name="Call-Circle" d="M512-0c235.648 0 426.667 191.019 426.667 426.667s-191.019 426.667-426.667 426.667-426.667-191.019-426.667-426.667 191.019-426.667 426.667-426.667zM552.021 306.688l39.979 39.979h133.333v-133.333h-23.723c-107.563 0-207.531 35.413-285.227 117.717-77.739 82.261-117.717 177.664-117.717 285.227v23.723h133.333v-133.333l-40.021-40.021c40.021-79.957 89.941-123.051 160-160z" />
<glyph unicode="&#xe96b;" glyph-name="Call" d="M640 298.667l-64-64c-112.085 59.051-192 128-256 256l64 64v213.333h-213.333v-37.931c0-172.16 64-324.736 188.331-456.405s284.245-188.331 456.405-188.331h37.931v213.333h-213.333z" />
<glyph unicode="&#xe96c;" glyph-name="Chat" d="M170.667 768c-23.564 0-42.667-19.103-42.667-42.667v0-469.333c0-23.564 19.103-42.667 42.667-42.667v0h85.333v-170.667l170.667 170.667h426.667c23.564 0 42.667 19.103 42.667 42.667v0 469.333c0 23.564-19.103 42.667-42.667 42.667v0h-682.667zM256 640h512v-85.333h-512v85.333zM682.667 469.334v-85.333h-426.667v85.333h426.667z" />
<glyph unicode="&#xe96d;" glyph-name="Clock" d="M512-0c235.639 0 426.667 191.027 426.667 426.667 0 235.642-191.027 426.667-426.667 426.667-235.642 0-426.667-191.025-426.667-426.667 0-235.639 191.025-426.667 426.667-426.667zM469.333 383.117v299.55h85.333v-255.117l195.136-136.597-48.939-69.905-231.531 162.069z" />
<glyph unicode="&#xe96e;" glyph-name="Copy" d="M853.333 768v85.333h-512v-170.667h-170.667v-682.667h512v170.667h170.667v597.333zM426.667 768h341.333v-512h-85.333v426.667h-256v85.333z" />
<glyph unicode="&#xe96f;" glyph-name="Edit" d="M712.107 739.798c-80.811 58.837-138.325 57.557-160.171 54.016-6.219-1.103-11.471-4.58-14.885-9.441l-0.049-0.073-293.675-405.205c-11.352-15.515-18.571-34.698-19.701-55.5l-0.011-0.265-12.629-239.957c-0.022-0.386-0.035-0.837-0.035-1.29 0-13.196 10.697-23.893 23.893-23.893 3.081 0 6.026 0.583 8.73 1.645l-0.162-0.056 224.256 85.76c18.901 7.253 35.328 19.84 47.189 36.224l293.547 405.077c2.872 3.896 4.597 8.792 4.597 14.090 0 1.398-0.12 2.768-0.35 4.1l0.020-0.142c-3.584 22.443-20.779 76.885-100.565 134.912zM468.352 193.494l-87.168-33.664c-0.871-0.348-1.88-0.551-2.937-0.551-2.622 0-4.954 1.245-6.436 3.177l-0.014 0.019c-13.207 16.847-28.331 31.346-45.253 43.498l-0.657 0.448c-16.081 12.026-34.55 22.192-54.357 29.618l-1.536 0.505c-3.172 1.178-5.391 4.179-5.391 7.698 0 0.174 0.005 0.346 0.016 0.517l-0.001-0.023 5.205 93.269 23.467 32.213s52.395 7.211 120.832-42.581c68.352-49.749 77.696-101.888 77.696-101.888l-23.467-32.256z" />
<glyph unicode="&#xe970;" glyph-name="External-Link" d="M768 810.667h-256v-85.333h197.973l-283.307-283.307 60.331-60.288 281.003 280.96v-193.365h85.333v341.333h-85.333zM170.667 682.667h256v-74.667h-181.333v-448h448v224h74.667v-298.667h-597.333v597.333z" />
<glyph unicode="&#xe971;" glyph-name="Eye" d="M421.973 516.694c25.387 25.259 55.381 37.973 90.027 37.973s64.683-12.672 90.027-37.973c25.301-25.344 37.973-55.339 37.973-90.027s-12.672-64.683-37.973-90.027c-25.344-25.301-55.339-37.973-90.027-37.973s-64.683 12.672-90.027 37.973c-25.259 25.387-37.973 55.381-37.973 90.027s12.672 64.683 37.973 90.027zM359.979 274.688c42.667-41.387 93.355-62.037 152.021-62.037s108.672 20.693 150.016 61.995c42.667 42.667 64 93.355 64 152.021s-21.333 108.672-64 150.016c-41.387 42.667-91.349 64-150.016 64s-109.355-21.333-152.021-64c-41.301-41.387-61.995-91.349-61.995-150.016s20.693-109.355 62.037-152.021zM226.005 658.688c85.333 58.624 180.608 87.979 285.995 87.979 105.344 0 200.661-29.355 285.995-88.021s146.688-135.979 184.021-231.979c-37.333-96-98.688-173.355-184.021-232.021s-180.651-87.979-285.995-87.979c-105.344 0-200.661 29.355-285.995 88.021s-146.688 135.979-184.021 231.979c37.333 96 98.688 173.355 184.021 232.021z" />
<glyph unicode="&#xe972;" glyph-name="Fullscreen" d="M384 725.334h-170.667v-170.667h-85.333v256h256v-85.333zM384 128h-170.667v170.667h-85.333v-256h256v85.333zM640 42.667h256v256h-85.333v-170.667h-170.667v-85.333zM640 725.334v85.333h256v-256h-85.333v170.667h-170.667z" />
<glyph unicode="&#xe973;" glyph-name="Heart-Fill" d="M258.133 266.496c75.264-84.736 162.432-158.421 253.867-223.829 91.435 65.408 178.603 139.136 253.867 223.829 69.419 78.080 130.133 170.837 130.133 261.632 0 120.661-94.848 239.872-218.88 239.872-0.036 0-0.078 0-0.121 0-45.986 0-88.485-14.933-122.912-40.214l0.579 0.406c-15.061-10.667-30.72-31.403-42.667-45.525-11.947 14.123-27.605 34.816-42.667 45.525-33.848 24.875-76.346 39.808-122.333 39.808-0.042 0-0.085 0-0.127 0h0.007c-124.075 0-218.88-119.211-218.88-239.872 0-90.795 60.715-183.552 130.133-261.632z" />
<glyph unicode="&#xe974;" glyph-name="Heart-Line" d="M522.496 573.227c-2.322-3.363-6.155-5.539-10.496-5.539s-8.174 2.176-10.468 5.496l-0.028 0.042c-19.243 30.165-40.96 46.251-54.613 62.379-7.368 8.67-15.589 16.255-24.638 22.762l-0.407 0.278c-20.778 15.018-46.765 24.021-74.854 24.021-0.039 0-0.078 0-0.117 0h0.006c-66.432 0-133.547-69.803-133.547-154.539 0-56.747 40.704-128.597 108.587-204.928 56.576-63.701 121.045-121.429 190.080-174.379 69.035 52.949 133.504 110.677 190.123 174.379 67.84 76.331 108.544 148.096 108.544 204.928 0 84.736-67.115 154.539-133.547 154.539-27.776 0-53.504-8.789-74.965-24.021-9.473-6.784-17.709-14.369-24.928-22.847l-0.16-0.193c-13.653-16.128-35.328-32.213-54.571-62.379zM512 42.667c-91.435 65.408-178.603 139.136-253.867 223.829-69.419 78.080-130.133 170.837-130.133 261.632 0 120.661 94.848 239.872 218.88 239.872 40.064 0 77.568-11.051 109.824-30.293 4.992-2.987 7.893-9.003 12.629-12.373 15.061-10.667 21.333-21.333 42.667-42.667 21.333 21.333 22.912 29.568 42.283 43.307 4.736 3.413 8.021 8.747 13.013 11.733 31.31 19.030 69.165 30.293 109.65 30.293 0.076 0 0.153 0 0.229 0h-0.012c123.989 0 218.837-119.211 218.837-239.872 0-90.795-60.715-183.552-130.133-261.632-75.264-84.736-162.432-158.421-253.867-223.829z" />
<glyph unicode="&#xe975;" glyph-name="Link" d="M801.92 651.392l-42.667 73.899c-15.029 25.685-42.482 42.664-73.899 42.664-15.709 0-30.427-4.245-43.069-11.65l0.403 0.218-258.688-149.333c-25.554-14.951-42.488-42.192-42.667-73.404v-0.026l-77.824-50.603c-4.764 14.98-7.509 32.209-7.509 50.080 0 62.852 33.958 117.772 84.528 147.415l0.805 0.436 258.645 149.333c24.49 14.393 53.944 22.893 85.382 22.893 62.83 0 117.73-33.952 147.355-84.51l0.436-0.805 42.667-73.899c14.374-24.478 22.864-53.914 22.864-85.332 0-62.836-33.958-117.74-84.523-147.363l-0.805-0.436-77.525-44.757 11.947-20.779c14.381-24.483 22.875-53.925 22.875-85.35 0-62.823-33.944-117.717-84.492-147.344l-0.805-0.436-258.688-149.376c-24.478-14.374-53.914-22.864-85.332-22.864-62.836 0-117.74 33.958-147.363 84.523l-0.436 0.805-42.667 73.899c-14.374 24.478-22.864 53.914-22.864 85.332 0 62.836 33.958 117.74 84.523 147.363l0.805 0.436 258.645 149.333c24.488 14.405 53.942 22.914 85.384 22.914 29.020 0 56.346-7.248 80.268-20.033l-0.916 0.447-85.589-58.027 5.248-7.723c-15.394-0.17-29.763-4.411-42.125-11.694l0.397 0.216-104.277-60.16c15.292-14.633 36.072-23.641 58.956-23.641 15.713 0 30.435 4.247 43.079 11.656l-0.403-0.218 258.645 149.333c25.685 15.029 42.664 42.482 42.664 73.899 0 15.709-4.245 30.427-11.65 43.069l0.218-0.403zM335.019 354.134l-79.019-45.611c-25.685-15.029-42.664-42.482-42.664-73.899 0-15.709 4.245-30.427 11.65-43.069l-0.218 0.403 42.667-73.899c15.029-25.685 42.482-42.664 73.899-42.664 15.709 0 30.427 4.245 43.069 11.65l-0.403-0.218 258.645 149.333c25.685 15.029 42.664 42.482 42.664 73.899 0 15.709-4.245 30.427-11.65 43.069l0.218-0.403-11.989 20.779-107.221-61.867c-24.494-14.398-53.953-22.903-85.399-22.903-54.372 0-102.806 25.426-134.059 65.037l-0.275 0.362z" />
<glyph unicode="&#xe976;" glyph-name="Microphone" d="M512 853.334c-94.257 0-170.667-76.41-170.667-170.667v0-213.333c0-94.257 76.41-170.667 170.667-170.667s170.667 76.41 170.667 170.667v0 213.333c0 94.257-76.41 170.667-170.667 170.667v0zM256 512v-42.667c0-141.385 114.615-256 256-256s256 114.615 256 256v0 42.667h85.333v-42.667c-0.003-173.479-129.406-316.733-296.951-338.506l-1.715-0.182v-45.312h85.333v-85.333h-256v85.333h85.333v45.312c-169.261 21.956-298.664 165.21-298.667 338.688v0 42.667h85.333z" />
<glyph unicode="&#xe977;" glyph-name="More" d="M341.333 426.667c0-47.128-38.205-85.333-85.333-85.333s-85.333 38.205-85.333 85.333v0c0 47.128 38.205 85.333 85.333 85.333s85.333-38.205 85.333-85.333v0zM597.333 426.667c0-47.128-38.205-85.333-85.333-85.333s-85.333 38.205-85.333 85.333v0c0 47.128 38.205 85.333 85.333 85.333s85.333-38.205 85.333-85.333v0zM768 341.334c47.128 0 85.333 38.205 85.333 85.333s-38.205 85.333-85.333 85.333v0c-47.128 0-85.333-38.205-85.333-85.333s38.205-85.333 85.333-85.333v0z" />
<glyph unicode="&#xe978;" glyph-name="No-Eye" d="M143.104 825.771c-3.865 3.865-9.206 6.256-15.104 6.256-11.797 0-21.36-9.563-21.36-21.36 0-5.898 2.391-11.239 6.256-15.104v0l768-768c3.865-3.865 9.206-6.256 15.104-6.256 11.797 0 21.36 9.563 21.36 21.36 0 5.898-2.391 11.239-6.256 15.104l-768 768zM41.984 426.667c34.225 88.177 90.256 161.535 161.608 215.781l1.208 0.881 117.205-117.205c-16-29.781-24.021-62.933-24.021-99.456 0-58.667 20.693-109.355 62.037-152.021 42.667-41.301 93.312-61.995 151.979-61.995 36.523 0 69.675 8.021 99.456 24.021l93.013-92.928c-59.989-24.747-124.117-37.077-192.469-37.077-105.344 0-200.661 29.355-285.995 88.021s-146.688 135.979-184.021 231.979zM384 426.667c0 11.605 1.408 22.656 4.267 33.237l156.971-157.013c-9.807-2.683-21.067-4.225-32.688-4.225-0.193 0-0.386 0-0.58 0.001h0.030c-34.688 0-64.683 12.672-90.027 37.973-25.259 25.387-37.973 55.381-37.973 90.027zM478.763 550.4l157.013-156.971c2.816 10.581 4.224 21.632 4.224 33.237 0 34.688-12.672 64.683-37.973 90.027-25.387 25.259-55.381 37.973-90.027 37.973-0.186 0.001-0.406 0.002-0.626 0.002-11.597 0-22.829-1.558-33.5-4.475l0.889 0.207zM726.016 426.667c0.007-0.648 0.012-1.414 0.012-2.181 0-35.534-8.993-68.967-24.828-98.148l0.539 1.086 117.461-117.419c72.552 55.134 128.58 128.49 161.67 213.323l1.146 3.338c-37.333 96-98.688 173.355-184.021 232.021-85.333 58.624-180.608 87.979-285.995 87.979-68.352 0-132.48-12.373-192.427-37.077l93.184-93.184c28.095 15.296 61.528 24.289 97.062 24.289 0.767 0 1.533-0.004 2.298-0.013l-0.117 0.001c58.667 0 108.672-21.333 150.016-64 42.667-41.387 64-91.349 64-150.016z" />
<glyph unicode="&#xe979;" glyph-name="Print" d="M149.376 597.334h725.333c24.32 0 20.352 25.941 8.235 30.165-12.16 4.224-146.901 55.168-170.411 55.168h-29.867v128h-341.333v-128h-29.824c-23.467 0-158.251-50.944-170.368-55.168s-16.085-30.165 8.235-30.165zM896 554.667h-768c-23.467 0-42.667-19.2-42.667-42.667v-213.333c0-23.509 19.2-42.667 42.667-42.667h97.408l-37.632-213.333h648.491l-37.675 213.333h97.408c23.509 0 42.667 19.157 42.667 42.667v213.333c0 23.467-19.157 42.667-42.667 42.667zM281.728 128l51.115 298.795h358.357l51.157-298.795h-460.629z" />
<glyph unicode="&#xe97a;" glyph-name="Reload" d="M256 426.667h128l-169.984-169.984-172.032 169.984h128c0 93.355 33.365 173.355 100.011 240 68.011 68.011 148.651 101.973 242.005 101.973 66.688 0 127.317-17.963 182.016-53.973l-61.995-61.995c-36.011 20.011-76.075 29.995-120.021 29.995-70.656 0-131.328-25.344-182.016-75.989-49.323-49.365-73.984-109.355-73.984-180.011zM809.984 596.651l172.032-169.984h-128c0-93.355-34.005-173.995-102.016-242.005-66.688-66.645-146.688-100.011-240-100.011-66.688 0-127.317 18.005-182.016 54.016l62.037 61.995c35.968-20.011 75.947-29.995 119.979-29.995 70.656 0 130.688 24.661 180.011 73.984 50.645 50.688 75.989 111.36 75.989 182.016h-128l169.984 169.984z" />
<glyph unicode="&#xe97b;" glyph-name="Send" d="M853.333 426.667l-682.667 341.333v-256l426.667-85.333-426.667-85.333v-256l682.667 341.333z" />
<glyph unicode="&#xe97c;" glyph-name="Share" d="M853.333 682.667c0-0.006 0-0.013 0-0.020 0-70.692-57.308-128-128-128-29.982 0-57.556 10.308-79.371 27.573l0.267-0.204-219.733-148.224c0.118-2.072 0.185-4.495 0.185-6.934 0-8.41-0.797-16.634-2.32-24.6l0.13 0.815 220.715-132.565c21.719 17.532 49.66 28.143 80.079 28.143 70.692 0 128-57.308 128-128s-57.308-128-128-128c-70.692 0-128 57.308-128 128 0 9.681 1.075 19.111 3.112 28.178l-0.161-0.855-218.539 131.285c-22.201-19.011-51.264-30.582-83.029-30.582-70.692 0-128 57.308-128 128s57.308 128 128 128c37.004 0 70.34-15.702 93.709-40.807l0.072-0.078 208.085 140.331c-2.034 8.546-3.2 18.358-3.2 28.442 0 70.692 57.308 128 128 128 70.657 0 127.942-57.249 128-127.892v-0.006z" />
<glyph unicode="&#xe97d;" glyph-name="Star1" d="M512 853.334l121.301-281.344 305.365-28.288-230.4-202.197 67.413-298.837-263.68 156.416-263.68-156.416 67.413 298.837-230.4 202.197 305.365 28.288 121.301 281.344z" />
<glyph unicode="&#xe97e;" glyph-name="Story" d="M516.565 762.667c-0.049 0-0.108 0-0.166 0-121.491 0-227.913-64.521-286.868-161.167l-0.838-1.478-82.219 49.579c76.897 126.133 213.72 209.067 369.913 209.067 0.063 0 0.125 0 0.188 0h-0.010c238.635 0 432-193.408 432-432s-193.365-432-432-432c-0.053 0-0.115 0-0.178 0-156.193 0-293.016 82.934-368.836 207.168l-1.077 1.899 82.219 49.579c59.843-98.128 166.301-162.645 287.827-162.645 185.568 0 336 150.432 336 336 0 185.537-150.382 335.95-335.907 336h-0.005zM464 682.667h96v-236.117l145.92-145.92-67.84-67.883-174.080 174.037v275.883zM112 778.667h96v-144h144v-96h-240v240z" />
<glyph unicode="&#xe97f;" glyph-name="Timelapse" d="M269.995 184.662c68.011-66.645 148.651-100.011 242.005-100.011s173.355 33.365 240 100.011c68.011 68.011 101.973 148.693 101.973 242.005 0 93.355-33.963 173.355-101.973 240-66.688 68.011-146.688 101.973-240 101.973-93.355 0-173.995-33.963-242.005-101.973-66.645-66.688-100.011-146.688-100.011-240 0-93.355 33.365-173.995 100.011-242.005zM210.005 726.656c83.968 84.011 184.661 125.995 301.995 125.995s217.344-41.984 299.989-125.995c84.011-82.645 125.995-182.656 125.995-299.989s-41.984-218.027-125.995-301.995c-82.645-82.688-182.656-123.989-299.989-123.989s-218.027 41.301-301.995 123.989c-82.688 83.968-123.989 184.661-123.989 301.995s41.301 217.344 123.989 299.989zM512 682.667c69.333 0 129.323-25.344 180.011-75.989 50.645-50.731 75.989-110.677 75.989-180.011s-24.661-129.323-73.984-180.011c-49.365-50.645-109.355-75.989-180.053-75.989-70.613 0-131.285 25.344-181.973 75.989l180.011 180.011v256z" />
<glyph unicode="&#xe980;" glyph-name="Trash-Bin" d="M682.667 719.616v5.717c0 70.692-57.308 128-128 128v0h-85.333c-70.692 0-128-57.308-128-128v0-5.717c-106.069-10.624-170.667-32.213-170.667-57.131v-42.709c0-11.819 16.981-22.869 46.592-32.384 59.221-18.987 169.045-31.744 294.741-31.744 117.803 0 221.696 11.221 283.051 28.245 4.096 1.152 7.979 2.347 11.691 3.499 29.611 9.515 46.592 20.608 46.592 32.384v42.709c0 24.917-64.597 46.507-170.667 57.131zM597.333 725.334c0 23.564-19.103 42.667-42.667 42.667v0h-85.333c-23.564 0-42.667-19.103-42.667-42.667v0-41.472h170.667v41.472zM771.2 490.582c8.96 1.707 17.92 3.541 26.709 5.547l-35.584-367.915c0-70.827-112.085-128.213-250.325-128.213s-250.325 57.429-250.325 128.213l-35.541 368c8.789-2.048 17.707-3.883 26.709-5.547 69.205-13.013 160.853-20.48 259.2-20.48 98.389 0 189.995 7.467 259.2 20.48z" />
<glyph unicode="&#xe981;" glyph-name="Turn-Off" d="M512 853.334c-23.564 0-42.667-19.103-42.667-42.667v0-298.667c0-23.564 19.103-42.667 42.667-42.667s42.667 19.103 42.667 42.667v0 298.667c0 23.564-19.103 42.667-42.667 42.667v0zM384 725.334c0 7.296 0.597 14.507 1.792 21.461-151.362-53.8-257.792-195.805-257.792-362.667 0-212.077 171.923-384 384-384s384 171.923 384 384c0 166.863-106.43 308.868-255.109 361.834l-2.683 0.834c1.195-6.997 1.792-14.165 1.792-21.461v-213.333c0-70.692-57.308-128-128-128s-128 57.308-128 128v0 213.333z" />
<glyph unicode="&#xe982;" glyph-name="Turn" d="M768 810.667h85.333v-256h-256v85.333h123.563l-0.341 0.427c-53.773 52.496-127.385 84.88-208.56 84.88-164.949 0-298.667-133.718-298.667-298.667s133.718-298.667 298.667-298.667c82.482 0 157.155 33.436 211.204 87.493l0.001 0.001 60.331-60.331c-69.502-69.52-165.527-112.52-271.596-112.52-212.101 0-384.043 171.942-384.043 384.043s171.942 384.043 384.043 384.043c98.551 0 188.431-37.121 256.422-98.142l-0.358 0.316v97.792z" />
<glyph unicode="&#xe983;" glyph-name="Agent-Circle" d="M512-42.666c259.2 0 469.333 210.133 469.333 469.333s-210.133 469.333-469.333 469.333-469.333-210.133-469.333-469.333 210.133-469.333 469.333-469.333zM384 426.667h22.784c31.061-26.155 66.987-42.667 105.216-42.667 38.272 0 74.155 16.512 105.216 42.667h22.784c70.692 0 128-57.308 128-128v0-49.365c0-31.189-10.752-62.080-34.475-82.347-40.812-35.054-90.668-60.768-145.562-73.209l-2.278-0.434-31.019 248.021-42.667 42.667-42.667-42.667-31.019-248.021c-57.172 12.875-107.028 38.588-148.293 74.023l0.453-0.38c-23.723 20.267-34.475 51.157-34.475 82.347v49.365c0 70.692 57.308 128 128 128v0zM640 639.872c0-70.784-57.301-170.539-128-170.539s-128 99.755-128 170.539c0 0.013 0 0.028 0 0.043 0 70.71 57.297 128.037 127.995 128.085h0.005c70.699 0 128-57.387 128-128.128z" />
<glyph unicode="&#xe984;" glyph-name="User-Circle" d="M981.333 426.667c0-259.2-210.133-469.333-469.333-469.333s-469.333 210.133-469.333 469.333 210.133 469.333 469.333 469.333 469.333-210.133 469.333-469.333zM406.784 426.667h-22.784c-70.692 0-128-57.308-128-128v0-49.365c0-31.189 10.752-62.080 34.475-82.347 59.043-50.733 136.416-81.622 221.003-81.622 0.184 0 0.367 0 0.551 0h-0.029c0.15 0 0.328 0 0.506 0 84.592 0 161.97 30.888 221.471 82.001l-0.452-0.379c23.723 20.267 34.475 51.157 34.475 82.347v49.365c0 70.692-57.308 128-128 128v0h-22.784c-31.061-26.155-66.987-42.667-105.216-42.667-38.272 0-74.155 16.512-105.216 42.667zM512 469.334c70.699 0 128 99.755 128 170.539 0 0.013 0 0.028 0 0.043 0 70.71-57.297 128.037-127.995 128.085h-0.005c-70.699 0-128-57.387-128-128.128 0-70.784 57.301-170.539 128-170.539z" />
<glyph unicode="&#xe985;" glyph-name="Customers" d="M512 725.334c-70.187 0-128-57.813-128-128s57.813-128 128-128 128 57.813 128 128-57.813 128-128 128zM213.333 640c-47.128 0-85.333-38.205-85.333-85.333s38.205-85.333 85.333-85.333v0c47.128 0 85.333 38.205 85.333 85.333s-38.205 85.333-85.333 85.333v0zM810.667 640c-47.128 0-85.333-38.205-85.333-85.333s38.205-85.333 85.333-85.333v0c47.128 0 85.333 38.205 85.333 85.333s-38.205 85.333-85.333 85.333v0zM213.333 384c-93.227 0-170.667-38.784-170.667-94.592v-76.075h128v33.408c0 53.547 22.485 99.84 62.251 136.277-6.485 0.384-12.885 0.981-19.584 0.981zM512 384c-150.699 0-256-56.448-256-137.259v-118.741h512v118.741c0 80.811-105.301 137.259-256 137.259zM810.667 384c-6.699 0-13.099-0.597-19.584-0.981 39.765-36.437 62.251-82.773 62.251-136.277v-33.408h128v76.075c0 55.808-77.44 94.592-170.667 94.592z" />
<glyph unicode="&#xe986;" glyph-name="Login" d="M128 810.667h384v-341.333l158.165 158.165 60.331-60.331-97.749-97.835h305.92v-85.333h-306.005l97.835-97.835-60.331-60.331-158.165 158.165v-341.333h-384v768z" />
<glyph unicode="&#xe987;" glyph-name="Logout" d="M128 810.667h384v-341.333h259.669l-97.835 97.835 60.331 60.331 200.832-200.832-200.832-200.832-60.331 60.331 97.835 97.835h-259.669v-341.333h-384v768z" />
<glyph unicode="&#xe988;" glyph-name="Chevron-Up" d="M444.032 568.534l-271.957-283.733 68.011-70.912 271.915 283.733 271.915-283.733 67.968 70.912-339.883 354.645-68.011-70.912z" />
<glyph unicode="&#xe989;" glyph-name="Arrow-Back" d="M341.333 682.667v170.667l-213.333-213.333 213.333-213.333v170.667h256c117.821 0 213.333-95.513 213.333-213.333s-95.513-213.333-213.333-213.333v0h-213.333v-85.333h213.333c164.949 0 298.667 133.718 298.667 298.667s-133.718 298.667-298.667 298.667v0h-256z" />
<glyph unicode="&#xe98a;" glyph-name="Arrow-Down" d="M851.627 397.568l-339.925-354.603-339.883 354.645 67.968 70.869 229.248-239.147v581.035h85.333v-581.035l229.291 239.147 67.968-70.912z" />
<glyph unicode="&#xe98b;" glyph-name="Arrow-Expand" d="M170.667 554.667v213.333h213.333l-76.501-76.501 149.333-149.333-60.331-60.331-149.333 149.333-76.501-76.501zM170.667 298.667v-213.333h213.333l-76.501 76.501 149.333 149.333-60.331 60.331-149.333-149.333-76.501 76.501zM853.333 768v-213.333l-76.501 76.501-149.333-149.333-60.331 60.331 149.333 149.333-76.501 76.501h213.333zM853.333 298.667v-213.333h-213.333l76.501 76.501-149.333 149.333 60.331 60.331 149.333-149.333 76.501 76.501z" />
<glyph unicode="&#xe98c;" glyph-name="Arrow-Left-Right" d="M256 597.334v-128h170.667v-85.333h-170.667v-128l-170.667 170.667 170.667 170.667zM768 469.334h-170.667v-85.333h170.667v-128l170.667 170.667-170.667 170.667v-128z" />
<glyph unicode="&#xe98d;" glyph-name="Arrow-Left" d="M483.2 86.742l-354.645 339.925 354.645 339.925 70.912-68.011-239.232-229.248h581.12v-85.333h-581.077l239.189-229.248-70.912-68.011z" />
<glyph unicode="&#xe98e;" glyph-name="Arrow-Right" d="M540.8 766.592l354.603-339.925-354.645-339.925-70.912 68.011 239.232 229.248h-581.077v85.333h581.077l-239.189 229.248 70.912 68.011z" />
<glyph unicode="&#xe98f;" glyph-name="Arrow-Up-Down" d="M682.667 597.334h-128v-128h-85.333v128h-128l170.667 170.667 170.667-170.667zM554.667 256v128h-85.333v-128h-128l170.667-170.667 170.667 170.667h-128z" />
<glyph unicode="&#xe990;" glyph-name="Arrow-Up" d="M171.819 455.766l339.883 354.56 339.925-354.645-67.968-70.869-229.291 239.147v-581.035h-85.333v581.077l-229.248-239.147-67.968 70.912z" />
<glyph unicode="&#xe991;" glyph-name="Chevron-Double-Down" d="M512 230.998l-213.333 213.333-60.331-60.331 273.664-273.664 273.664 273.664-60.331 60.331-213.333-213.333zM512 529.664l-213.333 213.333-60.331-60.331 273.664-273.664 273.664 273.664-60.331 60.331-213.333-213.333z" />
<glyph unicode="&#xe992;" glyph-name="Chevron-Double-Left" d="M316.331 426.667l213.333 213.333-60.331 60.331-273.664-273.664 273.664-273.664 60.331 60.331-213.333 213.333zM614.997 426.667l213.333 213.333-60.331 60.331-273.664-273.664 273.664-273.664 60.331 60.331-213.333 213.333z" />
<glyph unicode="&#xe993;" glyph-name="Chevron-Double-Right" d="M707.669 426.667l-213.333 213.333 60.331 60.331 273.664-273.664-273.664-273.664-60.331 60.331 213.333 213.333zM409.003 426.667l-213.333 213.333 60.331 60.331 273.664-273.664-273.664-273.664-60.331 60.331 213.333 213.333z" />
<glyph unicode="&#xe994;" glyph-name="Chevron-Double-Up" d="M512 622.336l213.333-213.333 60.331 60.331-273.664 273.664-273.664-273.664 60.331-60.331 213.333 213.333zM512 323.67l213.333-213.333 60.331 60.331-273.664 273.664-273.664-273.664 60.331-60.331 213.333 213.333z" />
<glyph unicode="&#xe995;" glyph-name="Chevron-Down-Circle" d="M512 853.334c-235.642 0-426.667-191.025-426.667-426.667 0-235.639 191.025-426.667 426.667-426.667 235.639 0 426.667 191.027 426.667 426.667 0 235.642-191.027 426.667-426.667 426.667zM308.054 502.208c12.515 13.056 32.806 13.056 45.321 0l158.625-165.491 158.626 165.487c12.514 13.059 32.806 13.059 45.321 0 12.514-13.056 12.514-34.223 0-47.279l-181.286-189.133c-12.514-13.056-32.806-13.056-45.321 0l-0.124 0.128-181.162 189.005c-12.515 13.056-12.515 34.227 0 47.283z" />
<glyph unicode="&#xe996;" glyph-name="Chevron-Down-Small" d="M512 379.392l-181.291 189.141-45.269-47.317 226.56-236.416 226.603 236.416-45.312 47.317-181.291-189.141z" />
<glyph unicode="&#xe997;" glyph-name="Chevron-Down" d="M579.968 284.843l271.915 283.691-67.968 70.912-271.915-283.733-271.915 283.733-68.011-70.912 339.925-354.603 67.968 70.912z" />
<glyph unicode="&#xe998;" glyph-name="Chevron-Left-Circle" d="M938.667 426.667c0 235.642-191.027 426.667-426.667 426.667-235.642 0-426.667-191.025-426.667-426.667 0-235.639 191.025-426.667 426.667-426.667 235.639 0 426.667 191.027 426.667 426.667zM587.541 630.613c13.056-12.515 13.056-32.806 0-45.321l-165.492-158.625 165.487-158.626c13.060-12.514 13.060-32.806 0-45.321-13.056-12.514-34.223-12.514-47.279 0l-189.133 181.286c-13.057 12.514-13.057 32.806 0 45.321l0.13 0.124 189.003 181.162c13.056 12.515 34.227 12.515 47.283 0z" />
<glyph unicode="&#xe999;" glyph-name="Chevron-Left-Small" d="M464.725 426.667l189.141-181.291-47.317-45.312-236.416 226.603 236.416 226.603 47.317-45.312-189.141-181.291z" />
<glyph unicode="&#xe99a;" glyph-name="Chevron-Left" d="M339.84 387.755l314.027-301.013 70.912 68.011-283.733 271.915 283.733 271.915-70.912 68.011-354.645-339.925 40.107-38.485 0.512-0.427z" />
<glyph unicode="&#xe99b;" glyph-name="Chevron-Right-Circle" d="M85.333 426.667c0-235.639 191.025-426.667 426.667-426.667 235.639 0 426.667 191.027 426.667 426.667 0 235.642-191.027 426.667-426.667 426.667-235.642 0-426.667-191.025-426.667-426.667zM436.459 222.72c-13.056 12.514-13.056 32.806 0 45.321l165.491 158.626-165.487 158.626c-13.059 12.515-13.059 32.806 0 45.321 13.056 12.515 34.223 12.515 47.279 0l189.133-181.287c13.056-12.514 13.056-32.806 0-45.321l-0.128-0.124-189.005-181.163c-13.056-12.514-34.227-12.514-47.283 0z" />
<glyph unicode="&#xe99c;" glyph-name="Chevron-Right-Small" d="M559.275 426.667l-189.141-181.291 47.317-45.312 236.416 226.603-236.416 226.603-47.317-45.269 189.141-181.333z" />
<glyph unicode="&#xe99d;" glyph-name="Chevron-Right" d="M653.824 494.635l-283.691 271.957-70.912-68.011 283.733-271.915-283.733-271.915 70.912-68.011 354.603 339.925-70.912 67.968z" />
<glyph unicode="&#xe99e;" glyph-name="Chevron-Up-Circle" d="M512-0c235.639 0 426.667 191.027 426.667 426.667 0 235.642-191.027 426.667-426.667 426.667-235.642 0-426.667-191.025-426.667-426.667 0-235.639 191.025-426.667 426.667-426.667zM715.947 351.126c-12.514-13.056-32.806-13.056-45.321 0l-158.626 165.492-158.626-165.487c-12.515-13.060-32.806-13.060-45.321 0-12.515 13.056-12.515 34.223 0 47.279l181.287 189.133c12.514 13.057 32.806 13.057 45.321 0l0.124-0.13 181.163-189.003c12.514-13.056 12.514-34.227 0-47.283z" />
<glyph unicode="&#xe99f;" glyph-name="Chevron-Up-Small" d="M512 473.942l181.291-189.141 45.312 47.317-226.603 236.416-226.603-236.416 45.312-47.317 181.291 189.141z" />
<glyph unicode="&#xe9a0;" glyph-name="Analytics" d="M906.197 589.952c20.534-48.24 32.469-104.355 32.469-163.257 0-0.010 0-0.020 0-0.030v0.002h-426.667v426.667c0.003 0 0.007 0 0.012 0 176.728 0 328.361-107.448 393.134-260.581l1.052-2.8zM237.013 625.152c53.266 36.028 118.933 57.515 189.619 57.515 0.012 0 0.024 0 0.036 0h-0.002v-341.333h341.333c-0.013-188.503-152.828-341.31-341.333-341.31-188.513 0-341.333 152.82-341.333 341.333 0 117.813 59.687 221.685 150.472 283.027l1.208 0.769z" />
<glyph unicode="&#xe9a1;" glyph-name="Apps" d="M469.333 810.667h-341.333v-341.333h341.333v341.333zM469.333 384h-341.333v-341.333h341.333v341.333zM554.667 810.667h341.333v-341.333h-341.333v341.333zM896 384h-341.333v-341.333h341.333v341.333z" />
<glyph unicode="&#xe9a2;" glyph-name="Billing" d="M853.333 853.334v-853.333l-85.333 85.333-85.333-85.333-85.333 85.333-85.333-85.333-85.333 85.333-85.333-85.333-85.333 85.333-85.333-85.333v853.333h682.667zM725.333 512h-426.667v-85.333h426.667v85.333zM298.667 341.334v-85.333h426.667v85.333h-426.667zM725.333 682.667h-426.667v-85.333h426.667v85.333z" />
<glyph unicode="&#xe9a3;" glyph-name="Calculating-Cost" d="M512 810.667l-469.333-422.4h128v-0.171l341.333 307.755 256-230.357v-375.893h-170.667v128h112.213l-304.213 270.379-304.213-270.379h112.213v-213.333h640v384h128l-469.333 422.4z" />
<glyph unicode="&#xe9a4;" glyph-name="Calendar1" d="M384 853.334h-128v-128h-128v-128h768v128h-128v128h-128v-128h-256v128zM896 512h-768v-469.333h768v469.333z" />
<glyph unicode="&#xe9a5;" glyph-name="Clients" d="M512 469.334c94.257 0 170.667 76.41 170.667 170.667s-76.41 170.667-170.667 170.667v0c-94.257 0-170.667-76.41-170.667-170.667s76.41-170.667 170.667-170.667v0zM384 384l-256-128v-213.333h768v213.333l-256 128h-256z" />
<glyph unicode="&#xe9a6;" glyph-name="Document-Designer" d="M85.333 853.334v-853.333h562.005l-178.005 178.005v205.995h205.995l92.672-92.672v306.005l-256 256h-426.667zM554.667 298.667v-85.333l219.563-219.563 85.333 85.333-219.563 219.563h-85.333zM889.771 48.896l-85.333-85.333 42.667-42.667c3.86-3.859 9.193-6.246 15.083-6.246s11.222 2.387 15.083 6.246l55.168 55.168c3.859 3.86 6.246 9.193 6.246 15.083s-2.387 11.222-6.246 15.083l-42.667 42.667z" />
<glyph unicode="&#xe9a7;" glyph-name="Electronic-Registration" d="M469.333 810.667h-341.333v-682.667h768v298.667h-384v85.333h384v128h-341.333l-85.333 170.667z" />
<glyph unicode="&#xe9a8;" glyph-name="Favorites" d="M258.133 266.496c75.264-84.736 162.432-158.421 253.867-223.829 91.435 65.408 178.603 139.136 253.867 223.829 69.419 78.080 130.133 170.837 130.133 261.632 0 120.661-94.848 239.872-218.88 239.872-0.036 0-0.078 0-0.121 0-45.986 0-88.485-14.933-122.912-40.214l0.579 0.406c-15.061-10.667-30.72-31.403-42.667-45.525-11.947 14.123-27.605 34.816-42.667 45.525-33.848 24.875-76.346 39.808-122.333 39.808-0.042 0-0.085 0-0.127 0h0.007c-124.075 0-218.88-119.211-218.88-239.872 0-90.795 60.715-183.552 130.133-261.632z" />
<glyph unicode="&#xe9a9;" glyph-name="Inspection-Property" horiz-adv-x="1067" d="M512 896l-469.333-422.4h128v-384h353.92c-3.691 11.783-6.965 26.133-9.18 40.83l-0.206 1.666h0.213c-2.072 12.805-3.31 27.634-3.413 42.732l-0.001 0.105c0 164.949 133.718 298.667 298.667 298.667v0h170.667l-469.333 422.4zM810.837 388.736c-117.812-0.012-213.312-95.52-213.312-213.333 0-117.821 95.513-213.333 213.333-213.333 0.007 0 0.015 0 0.022 0h-0.001c117.812 0.012 213.312 95.52 213.312 213.333 0 117.821-95.513 213.333-213.333 213.333-0.007 0-0.015 0-0.022 0h0.001zM898.304 275.67l59.733-59.733-168.533-168.533-125.867 125.867 59.733 59.733 66.133-66.133 108.8 108.8z" />
<glyph unicode="&#xe9aa;" glyph-name="M2-Pattern" d="M896 810.667h-597.333v-170.667h-170.667v-597.333h597.333v170.667h170.667v597.333z" />
<glyph unicode="&#xe9ab;" glyph-name="Messages" d="M938.667 853.334h-597.333v-128h469.333v-341.333h128v469.333zM128 640h597.333v-469.333h-298.667l-170.667-170.667v170.667h-128v469.333z" />
<glyph unicode="&#xe9ac;" glyph-name="Mortgage" d="M512-0c235.648 0 426.667 191.019 426.667 426.667s-191.019 426.667-426.667 426.667-426.667-191.019-426.667-426.667 191.019-426.667 426.667-426.667zM469.333 554.667c0-47.128-38.205-85.333-85.333-85.333s-85.333 38.205-85.333 85.333v0c0 47.128 38.205 85.333 85.333 85.333s85.333-38.205 85.333-85.333v0zM725.333 298.667c0-47.128-38.205-85.333-85.333-85.333s-85.333 38.205-85.333 85.333v0c0 47.128 38.205 85.333 85.333 85.333s85.333-38.205 85.333-85.333v0zM662.869 637.867l60.331-60.331-362.069-362.069-60.331 60.331 362.069 362.069z" />
<glyph unicode="&#xe9ad;" glyph-name="My-Searches" d="M853.333 810.667h-682.667v-128h682.667v128zM853.333 597.334h-682.667v-554.667l341.333 225.877 341.333-225.877v554.667z" />
<glyph unicode="&#xe9ae;" glyph-name="New-Messages" d="M341.333 640c0-117.821-95.513-213.333-213.333-213.333v0-256h128v-170.667l170.667 170.667h298.667v469.333h-384zM938.667 853.334h-597.333v-128h469.333v-341.333h128v469.333zM128 512c70.692 0 128 57.308 128 128s-57.308 128-128 128v0c-70.692 0-128-57.308-128-128s57.308-128 128-128v0z" />
<glyph unicode="&#xe9af;" glyph-name="Offers" d="M128 810.667v-768h562.005l-135.339 135.339v205.995h205.995l135.339-135.339v562.005h-768zM256 682.667h512v-85.333h-512v85.333zM640 298.667v-85.333l256-256 85.248 85.333-255.915 256h-85.333zM966.187 57.771l-85.248-85.333 57.728-57.771 85.248 85.333-57.771 57.771z" />
<glyph unicode="&#xe9b0;" glyph-name="Profile" d="M512-0c235.648 0 426.667 191.019 426.667 426.667s-191.019 426.667-426.667 426.667-426.667-191.019-426.667-426.667 191.019-426.667 426.667-426.667zM640 597.334c0-70.692-57.308-128-128-128s-128 57.308-128 128v0c0 70.692 57.308 128 128 128s128-57.308 128-128v0zM237.653 308.395l189.013 75.605h170.667l189.013-75.605c-47.007-107.066-152.103-180.487-274.347-180.487s-227.34 73.421-273.595 178.571l-0.752 1.916z" />
<glyph unicode="&#xe9b1;" glyph-name="Realtor" d="M554.667 128h-426.667v298.667l213.333 192 98.773-88.917 221.227 238.251 277.333-298.667v-341.333h-170.667v192h-170.667v-192h-42.667zM426.667 128v170.667h-170.667v-170.667h170.667z" />
<glyph unicode="&#xe9b2;" glyph-name="Repair" d="M853.333 661.334v-106.667h-682.667v298.667h682.667v-106.667h128v-234.667c0-70.692-57.308-128-128-128v0h-298.667v-42.667h42.667v-341.333h-170.667v341.333h42.667v128h384c23.564 0 42.667 19.103 42.667 42.667v0 149.333h-42.667z" />
<glyph unicode="&#xe9b3;" glyph-name="SBR" d="M640 640v0c0 70.692-57.308 128-128 128s-128-57.308-128-128v-128h256v128zM256 512v128c0 141.385 114.615 256 256 256s256-114.615 256-256v0-128h128v-512h-768v512h128zM469.333 341.334v-170.667c0-23.564 19.103-42.667 42.667-42.667s42.667 19.103 42.667 42.667v170.667c0 23.564-19.103 42.667-42.667 42.667s-42.667-19.103-42.667-42.667z" />
<glyph unicode="&#xe9b4;" glyph-name="Search" d="M597.333 170.667c188.498 0.020 341.299 152.832 341.299 341.333 0 188.513-152.82 341.333-341.333 341.333s-341.333-152.82-341.333-341.333c0-73.703 23.36-141.95 63.079-197.741l-0.708 1.048-190.336-190.336 90.496-90.496 191.915 191.872c52.508-34.896 117.013-55.68 186.373-55.68 0.193 0 0.386 0 0.579 0h-0.030z" />
<glyph unicode="&#xe9b5;" glyph-name="Services" d="M512 853.334l121.301-281.344 305.365-28.288-230.4-202.197 67.413-298.837-263.68 156.416-263.68-156.416 67.413 298.837-230.4 202.197 305.365 28.288 121.301 281.344z" />
<glyph unicode="&#xe9b6;" glyph-name="Settings1" d="M406.016 320.683c26.302-27.177 63.111-44.048 103.86-44.048 0.747 0 1.492 0.006 2.237 0.017l-0.113-0.001c41.344 0 76.672 14.677 105.984 44.032 27.177 26.302 44.048 63.111 44.048 103.86 0 0.747-0.006 1.492-0.017 2.237l0.001-0.113c0 41.344-14.677 76.672-44.032 105.984-26.302 27.177-63.111 44.048-103.86 44.048-0.747 0-1.492-0.006-2.237-0.017l0.113 0.001c-41.344 0-76.672-14.677-105.984-44.032-27.177-26.302-44.048-63.111-44.048-103.86 0-0.747 0.006-1.492 0.017-2.237l-0.001 0.113c0-41.344 14.677-76.672 44.032-105.984zM829.995 384.683l90.027-70.016c9.301-6.656 10.667-16 3.968-27.989l-85.973-148.011c-5.333-9.344-13.995-11.989-26.027-8.021l-105.984 42.027c-27.989-20.011-52.011-34.005-72.021-42.027l-16-112c-2.645-11.947-9.301-17.963-19.968-17.963h-172.032c-10.667 0-17.323 5.973-19.968 18.005l-16 112c-27.494 11.768-51.204 25.838-72.771 42.542l0.75-0.558-105.984-42.027c-12.032-3.968-20.693-1.28-26.027 8.021l-85.973 148.011c-6.656 11.989-5.333 21.333 4.011 27.989l89.984 69.973c-1.308 10.918-2.055 23.562-2.055 36.381 0 1.985 0.018 3.966 0.054 5.943l-0.004-0.297c0 18.688 0.683 32.683 2.005 41.984l-90.027 70.016c-9.301 6.656-10.667 16-3.968 27.989l85.973 148.011c5.333 9.344 14.037 11.989 26.027 8.021l105.984-42.027c27.989 20.011 52.011 34.005 72.021 41.984l16 112c2.645 12.032 9.301 18.005 19.968 18.005h172.032c10.667 0 17.323-5.973 19.968-17.963l16-112.043c25.344-10.667 49.365-24.661 72.021-41.984l105.984 41.984c12.032 4.011 20.693 1.365 26.027-7.979l85.973-148.011c6.699-11.989 5.333-21.333-3.968-27.989l-90.027-69.973c1.323-9.387 2.005-23.339 2.005-42.027s-0.683-32.683-2.005-41.984z" />
<glyph unicode="&#xe9b7;" glyph-name="Staff" d="M512 469.334c94.293 0 170.667 128.256 170.667 219.264 0 90.923-76.373 164.736-170.667 164.736s-170.667-73.771-170.667-164.736c0-91.008 76.373-219.264 170.667-219.264zM128 298.667c0 70.692 57.308 128 128 128v0h201.131l-54.784-384h-274.347v256zM621.696 42.667l-54.827 384h201.131c70.692 0 128-57.308 128-128v0-256h-274.304z" />
</font>
</defs>
</svg>
