<?xml version="1.0" encoding="UTF-8"?>
<svg viewBox="0 0 44 44" xmlns="http://www.w3.org/2000/svg">
<rect width="44" height="44" rx="22" fill="#09ABB0"/>
<path d="M27.3543 17.6094c-.4892.0194-.3728-.5675-.3339-.6854 1.2363-4.6644 2.2338-6.0366 3.9192-5.8988.7258.0977 1.1749.1171 1.5095.5292.2748.3332.3736.3728.9017-.4315.3309-.548.5877-.9795.7838-1.31229.1763-.31365.6288-.72461-.0393-.8036-8.0163-.17667-8.1315 2.99849-10.8751 8.21089-.2942.4899-.6097.4704-1.5289.4704h-2.6856c-3.6254 0-5.5066 2.8417-5.721 4.4294-.1767.9589-.2755 1.782.1949 2.8024.3717.7635 1.2734 1.8025 2.6066 2.3902.3541.137.569-.1172.5876-.1366.3938-.3545 1.608-1.4313 1.961-1.7057.2148-.1965-.0408-.3137-.1973-.3324-2.2528-.2751-3.0767-.8825-3.4678-2.3734-.1179-1.1153.4106-3.604 4.4481-3.6441 1.6274.0401 2.9389-.1553 2.3318 1.2936-2.1944 5.4486-2.705 6.4487-4.9975 10.8563-1.3913 2.0388-3.1141 2.3334-5.9389 1.45-.7277-.2281-.95811.2713-1.0599.492l-.00208.0045c-.15034.322-.41363.9135-.51246 1.123-.15722.3197-.03053.4304.19727.4285 3.93977-.0401 7.84457-.7933 10.84297-4.2031 2.8031-3.5865 3.4499-6.4671 5.2914-10.1119.2946-.6464.7281-1.2344 1.4752-1.2344h4.076c.2094 0 .3383-.0104.5625-.3148s-.081.1179.7052-1.0274c.1484-.2161.1119-.265-.1663-.265h-4.8687z" fill="#fff"/>
</svg>
