<svg width="627" height="603" viewBox="0 0 627 603" fill="none" xmlns="http://www.w3.org/2000/svg">
<path fill-rule="evenodd" clip-rule="evenodd" d="M498.719 0H288.306V116.548H498.719V0Z" fill="white"/>
<path fill-rule="evenodd" clip-rule="evenodd" d="M355.575 12.5151H299.256V68.0516H355.575V12.5151Z" fill="#2B48C0"/>
<path d="M363.006 12.9064H424.017M459.216 12.9064H484.325M363.006 27.7682H484.247M363.006 43.4123H484.247M363.006 58.2742H445.919M363.006 73.1361H445.919M363.006 88.7802H414.631M427.929 88.7802H461.564M363.006 103.642H397.423" stroke="#232323" stroke-miterlimit="10" stroke-linecap="round" stroke-linejoin="round"/>
<path fill-rule="evenodd" clip-rule="evenodd" d="M498.719 132.974H288.306V249.523H498.719V132.974Z" fill="white"/>
<path fill-rule="evenodd" clip-rule="evenodd" d="M355.575 145.49H299.256V201.026H355.575V145.49Z" fill="#2B48C0"/>
<path d="M363.006 145.881H424.017M459.216 145.881H484.325M363.006 160.743H484.247M363.006 176.387H484.247M363.006 191.249H445.919M363.006 206.11H445.919M363.006 221.755H414.631M427.929 221.755H461.564M363.006 236.616H397.423" stroke="#232323" stroke-miterlimit="10" stroke-linecap="round" stroke-linejoin="round"/>
<path fill-rule="evenodd" clip-rule="evenodd" d="M498.719 265.949H288.306V382.498H498.719V265.949Z" fill="white"/>
<path fill-rule="evenodd" clip-rule="evenodd" d="M355.575 278.465H299.256V334.001H355.575V278.465Z" fill="#2B48C0"/>
<path d="M363.006 278.855H424.017M459.216 278.855H484.325M363.006 293.717H484.247M363.006 309.361H484.247M363.006 324.223H445.919M363.006 339.085H445.919M363.006 354.729H414.631M427.929 354.729H461.564M363.006 369.591H397.423" stroke="#232323" stroke-miterlimit="10" stroke-linecap="round" stroke-linejoin="round"/>
<path d="M221.273 251.086C221.273 251.086 228 337.676 236.526 357.857C221.664 372.876 77.5035 386.721 77.5035 386.721C77.5035 386.721 43.3994 368.573 33.7783 338.302C43.3212 335.095 60.2168 329.385 76.1738 313.741C84.5434 305.528 92.3654 293.951 96.5893 280.184C101.517 264.149 101.283 243.499 103.394 226.916C109.496 180.375 140.94 167.078 164.876 163.401C181.693 160.82 211.495 170.285 223.072 191.326C236.76 216.044 231.05 241.935 221.273 251.086Z" fill="#232323"/>
<path d="M21.4172 534.635C19.3052 528.3 15.0031 470.416 14.2991 447.498C11.7961 361.847 46.5259 341.118 68.193 337.755C82.4291 335.565 87.5916 335.408 101.984 334L141.564 344.482L185.915 339.397L212.275 346.985C262.649 362.081 263.666 480.429 264.135 484.34C268.515 488.172 328.119 557.789 336.176 569.287L303.167 603H0.454102C0.454102 603 16.2546 564.75 21.4172 534.635Z" fill="#F9B42B"/>
<path d="M148.215 233.487C143.444 227.933 134.527 226.603 128.347 230.358C122.168 234.191 119.352 242.717 122.09 249.444C124.827 256.171 131.007 259.143 135.465 258.439C132.024 281.123 133.275 293.638 127.8 311.081C126.235 315.931 124.358 320.781 121.229 324.848C113.329 335.173 106.211 331.888 93.4609 334.469C97.8413 338.771 112.468 358.483 129.912 363.02C168.005 372.954 178.643 358.874 188.029 340.023C175.592 334.86 175.358 315.071 177 304.198C179.582 304.902 197.103 311.785 213.138 272.675C217.597 261.802 218.066 253.589 219.396 243.812C221.195 230.123 225.575 223.866 218.457 202.746C212.434 209.786 193.427 221.128 184.901 224.57C155.568 236.537 157.915 230.671 148.215 233.487Z" fill="#F2BAC7"/>
<path d="M173.557 232.235C173.557 232.235 176.607 229.576 180.205 228.95C184.742 228.246 187.558 229.498 187.558 229.498M199.056 237.398C197.805 241.231 197.883 245.376 198.665 249.287C199.448 253.198 201.012 256.953 202.655 260.551C202.889 261.02 203.046 261.49 202.967 261.959C202.733 262.819 201.638 262.976 200.777 263.054C196.945 263.132 191.469 262.663 192.095 262.663" stroke="#232323" stroke-miterlimit="10" stroke-linecap="round" stroke-linejoin="round"/>
<path d="M183.413 273.144C182.083 281.827 192.251 286.755 197.883 275.022L183.413 273.144Z" fill="#232323"/>
<path d="M183.414 273.144C184.431 274.318 192.722 279.011 197.885 275.022L183.414 273.144Z" fill="white"/>
<path d="M206.881 233.017C208.289 231.922 214.312 230.045 218.849 233.33" stroke="#232323" stroke-miterlimit="10" stroke-linecap="round" stroke-linejoin="round"/>
<path d="M179.578 240.84C179.5 242.561 180.83 243.969 182.473 244.047C184.193 244.125 185.601 242.795 185.68 241.153C185.758 239.432 184.428 238.024 182.786 237.946C181.065 237.867 179.657 239.119 179.578 240.84Z" fill="#232323"/>
<path d="M209.303 243.421C209.225 245.142 210.555 246.55 212.197 246.628C213.918 246.706 215.326 245.376 215.404 243.734C215.483 242.013 214.153 240.605 212.51 240.527C210.868 240.448 209.381 241.7 209.303 243.421Z" fill="#232323"/>
<path d="M137.968 244.203L146.26 238.571C144.617 235.99 141.723 234.347 138.672 234.113C135.622 233.878 132.571 235.051 130.225 237.007C129.286 237.867 128.425 238.806 127.956 239.979C127.565 241.152 127.487 242.404 127.956 243.577" stroke="#232323" stroke-miterlimit="10" stroke-linecap="round" stroke-linejoin="round"/>
<path d="M182.942 305.919C172.852 304.042 161.979 297.08 156.895 293.169C158.615 300.209 167.924 331.81 188.104 340.101C196.005 337.755 182.942 305.919 182.942 305.919Z" fill="#232323"/>
<path d="M88.2959 324.301C91.2683 335.252 120.053 373.814 162.058 365.053C177.467 361.846 183.959 349.018 190.843 334.86" stroke="#232323" stroke-miterlimit="10" stroke-linecap="round" stroke-linejoin="round"/>
<path d="M107.619 328.446C107.228 328.055 94.3215 330.011 91.7402 330.48C93.774 338.068 104.568 349.331 111.217 354.337C123.654 363.724 142.74 367.244 142.583 365.758C108.479 353.555 103.786 329.698 103.63 322.345L107.619 328.446Z" fill="#232323"/>
<path d="M199.996 596.429C219.942 596.038 217.205 596.351 242.704 589.39C242 592.362 242.704 594.239 245.599 595.178C255.376 598.307 263.667 598.698 269.925 595.96C270.786 595.569 271.177 593.926 271.959 593.222C273.445 593.222 274.697 592.44 275.557 591.814C277.591 590.25 278.138 589.311 279.077 588.998C282.128 587.903 285.413 585.948 286.899 583.054C289.715 577.656 289.793 572.338 288.229 565.923C299.414 569.834 312.79 570.695 325.149 566.315C330.702 565.298 330.546 558.101 324.367 559.588C305.907 559.822 297.693 559.666 291.67 555.911C285.256 551.922 288.385 551.844 280.798 552C269.456 552.235 251.622 556.068 241.531 560.996C234.726 564.359 205.784 565.923 203.047 563.655L201.169 579.299L199.996 596.429Z" fill="#F2BBC8"/>
<path d="M203.985 560.761C203.672 570.304 199.446 587.747 206.173 601.436C196.239 602.374 198.351 601.436 198.351 601.436C197.145 587.527 199.449 573.866 203.985 560.761Z" fill="#232323"/>
<path d="M203.985 559.901C198.275 578.204 198.273 580.864 198.351 600.654M321.863 567.41C313.415 569.444 297.614 570.93 288.228 566.002C289.01 572.181 290.184 574.919 287.993 580.707C286.038 585.948 283.065 587.591 278.529 589.312M242.626 589.546C243.564 588.138 245.676 586.887 248.414 586.105C251.152 585.322 254.437 585.088 257.409 585.401M282.362 570.148C283.457 572.729 283.691 576.405 282.753 580.473C282.049 583.68 280.641 586.574 278.529 589.233C277.512 590.563 273.523 593.535 271.88 593.223M273.601 573.12C274.539 576.953 275.165 578.908 274.696 583.289C274.227 587.747 272.819 592.128 270.081 595.647C269.064 596.977 258.583 597.603 256.94 597.29M69.2109 511.091C75.7032 507.884 83.2124 506.789 90.3304 508.119C97.4485 509.449 104.097 513.125 109.025 518.444M88.2967 519.617C94.085 518.366 100.108 517.192 105.896 518.366C110.433 519.304 114.422 521.651 118.49 523.919C136.324 533.697 155.253 541.597 174.026 549.419C184.43 553.721 192.956 557.711 204.063 559.979M261.086 483.636C256.94 482.932 252.638 483.479 248.805 485.122C243.955 487.234 239.966 491.223 237.854 495.995M201.794 479.334C206.488 476.987 222.523 461.499 213.684 428.334M86.8105 442.805C86.967 464.237 85.7937 485.748 83.2906 507.024L86.8105 442.805Z" stroke="#232323" stroke-miterlimit="10" stroke-linecap="round" stroke-linejoin="round"/>
<path d="M28.4588 568.818C40.0431 590.495 74.6649 599.462 106.051 603C117.002 603 131.082 603 138.904 603C117.133 598.9 73.4061 588.488 50.4388 568.27C32.1352 552.157 22.9834 541.049 21.3408 534.401C20.5586 535.183 18.5249 548.871 28.4588 568.818Z" fill="#232323"/>
<path d="M219.628 537.451C207.425 526.97 206.721 495.056 204.062 494.352C200.385 493.335 195.066 530.724 205.626 538.859C228.232 556.459 230.578 549.732 230.578 549.732C229.874 549.106 219.628 537.451 219.628 537.451Z" fill="#FF784B"/>
<path d="M182.708 603H316.465C316.465 603 316.465 596.307 316.465 594.495C316.465 592.684 314.981 591.267 313.263 591.267H185.909C184.113 591.267 182.708 592.763 182.708 594.495C182.708 596.307 182.708 603 182.708 603Z" fill="#7F63FF"/>
<path d="M159.792 164.966C124.671 169.659 107.072 195.941 103.004 214.401C97.3722 240.057 106.446 246.628 94.8691 288.789M224.793 304.824C228.235 322.58 232.693 341.274 237.934 356.919M229.643 210.099C231.677 216.513 234.649 230.045 229.956 242.951C227.296 250.226 223.62 255.545 217.519 261.333" stroke="#232323" stroke-miterlimit="10" stroke-linecap="round" stroke-linejoin="round"/>
<path d="M538.61 603H300.82L389.992 445.777H626.999L538.61 603Z" fill="#7F63FF"/>
<path d="M303.793 597.838L389.991 445.386H507.713" stroke="#232323" stroke-miterlimit="10" stroke-linecap="round" stroke-linejoin="round"/>
</svg>
