<svg width="489" height="555" viewBox="0 0 489 555" fill="none" xmlns="http://www.w3.org/2000/svg">
<path d="M96.3548 417.39C93.8318 410.325 91.3848 403.123 87.1922 396.935C82.9995 390.748 76.7429 385.563 69.193 384.33C61.7743 383.055 52.4505 384.672 52.7284 385.153C65.7353 403.92 79.712 416.558 97.1884 418.834L96.3548 417.39Z" fill="#54C0C0"/>
<path d="M88.9401 502.969C96.5534 485.994 100.16 476.165 103.766 467.231C106.571 460.083 107.372 454.424 108.174 449.362C108.975 441.023 105.77 418.686 85.334 410.347" stroke="#242424" stroke-miterlimit="1.8889" stroke-linecap="round" stroke-linejoin="round"/>
<path d="M97.3869 462.308C75.9764 468.111 67.0629 448.635 67.0629 448.635C67.0629 448.635 84.2608 444.826 94.2924 452.324C98.5061 455.301 97.3869 462.308 97.3869 462.308Z" fill="#54C2C2"/>
<path d="M115.43 446.392C118.181 422.179 152.604 434.946 152.604 434.946C152.604 434.946 138.426 449.591 123.724 448.719C117.264 448.285 115.037 447.435 115.037 447.435L115.43 446.392Z" fill="#54C2C2"/>
<path d="M90.6093 456.858C90.6093 456.858 100.835 461.27 99.9519 476.233" stroke="#242424" stroke-miterlimit="8.8379" stroke-linecap="round" stroke-linejoin="round"/>
<path d="M121.542 440.833C121.542 440.833 107.143 453.348 105.191 462.236" stroke="#242424" stroke-miterlimit="7.6695" stroke-linecap="round" stroke-linejoin="round"/>
<path d="M103.166 421.446C100.912 412.682 98.3989 403.868 97.6415 394.782C96.884 385.696 97.6925 374.472 101.484 366.665C103.816 370.364 108.027 376.659 108.926 381.302C110.783 392.834 109.711 404.821 105.132 415.727C103.889 418.536 102.516 421.727 103.744 424.604L103.166 421.446Z" fill="#54C0C0"/>
<path d="M103.115 396.98C102.261 400.271 102.188 403.711 102.374 407.201C102.421 414.323 102.795 421.303 103.688 428.384" stroke="#232323" stroke-miterlimit="8.3324" stroke-linecap="round" stroke-linejoin="round"/>
<path d="M133.646 496.151H43.7707L50.7512 514.475H55.9866L63.8397 554.613L113.576 554.613L121.43 514.475H126.665L133.646 496.151Z" fill="#2B47C2"/>
<path d="M55.9863 514.475H121.429L118.698 528.436L55.9863 514.475Z" fill="#232323"/>
<path fill-rule="evenodd" clip-rule="evenodd" d="M101.627 296.163C100.7 320.26 90.0478 356.061 90.0478 356.061C90.0478 356.061 80.7851 332.653 83.564 312.687C86.8061 292.377 102.553 272.066 101.627 296.163Z" fill="#242424"/>
<path d="M37.5162 154.205C32.8846 160.057 27.7892 162.811 26.3997 163.844C26.3997 163.844 40.2949 191.039 47.7054 204.465C55.1159 217.546 75.0314 240.955 87.9998 257.134C94.9472 265.74 99.1151 273.658 99.1151 274.002C96.3362 278.477 101.431 345.605 91.2417 344.228C80.5891 342.851 66.2312 321.164 58.8207 309.804C48.1681 293.624 4.16796 187.253 1.85218 178.991C0.462705 175.205 0 171.074 0 166.943C0.463157 162.123 2.31533 157.303 4.16796 152.484C12.0416 133.55 19.4521 114.962 27.3258 96.0283C29.6416 90.5204 25.4732 84.6686 29.6416 80.8819C30.5679 80.1935 31.4942 79.8485 31.9574 80.1928C32.4205 80.537 32.421 80.8814 32.421 81.2257C33.3473 83.2911 33.8107 86.0454 33.8107 88.4551C34.2738 95.34 34.7372 98.7819 32.8846 104.29C33.8109 103.601 34.2741 102.569 35.2004 101.537C36.1267 100.504 37.5159 100.159 38.4422 100.504C39.8317 101.192 39.8315 102.913 39.3683 104.634C38.442 109.11 36.5894 113.585 34.7368 117.716C35.6631 116.339 36.5898 115.65 37.5162 114.962C38.4425 114.273 39.8317 114.617 40.758 114.962C42.1475 115.65 41.6837 117.715 41.2205 119.092C40.2942 121.502 38.9056 123.568 37.5162 126.322C36.5898 129.076 36.1267 132.174 35.2004 134.928" fill="#F2BAC7"/>
<path d="M35.4061 136.109C35.4061 135.765 35.4066 135.42 35.8698 135.076C39.1119 131.289 48.375 120.274 52.0802 119.585C52.5434 119.585 53.0068 119.241 53.4699 119.585C54.8594 119.929 55.7857 121.651 55.7857 123.372C56.2489 129.224 51.6173 131.634 46.5226 134.044C46.5226 129.225 42.8173 134.388 41.891 129.569C41.891 129.913 44.2068 124.749 44.2068 125.093L46.5226 133.011C45.5963 136.798 44.6697 142.994 42.8171 146.436C41.4276 149.19 37.2597 155.043 34.0176 157.108" fill="#F2BAC7"/>
<path d="M52.7675 156.933C54.6202 156.589 56.0089 154.179 55.5458 152.114L34.7037 69.4952C34.2406 67.4297 31.9248 66.0526 30.0722 66.7411C28.2195 67.4296 26.8307 69.4955 27.2939 71.561L48.136 154.179C48.5991 155.901 50.4517 157.278 52.7675 156.933Z" fill="#242424"/>
<path d="M169.163 196.678C165.921 199.432 156.194 219.054 157.121 237.987C157.121 244.872 163.605 247.97 164.531 257.265C167.31 286.526 169.626 299.951 173.331 342.293C220.11 350.555 213.163 357.095 259.942 364.324C268.742 340.571 266.889 282.394 277.079 251.757C283.1 233.856 335.436 253.134 339.141 237.299C340.068 232.823 342.384 196.678 337.289 183.941C332.658 172.925 328.952 164.319 320.615 155.713C313.205 148.14 303.941 142.975 293.752 139.533C279.394 134.025 223.352 133.681 223.352 133.681C182.131 133.337 146.931 140.222 126.089 176.368C113.121 198.399 98.3005 234.2 88.5742 258.297C88.5742 258.297 99.2268 298.918 90.89 356.062C119.606 356.407 152.026 268.28 168.699 228.348" fill="#54C1C1"/>
<path d="M296.391 323.651L282.38 343.573C282.38 343.573 257.404 374.361 251.921 365.306C231.818 328.178 202.578 198.685 205.624 198.685C262.887 194.157 252.531 150.238 272.634 136.202C272.634 136.202 312.23 135.297 332.942 176.499C332.942 176.499 353.655 256.187 360.965 270.676C379.24 306.445 369.494 342.214 347.563 347.648C304.312 358.061 296.391 323.651 296.391 323.651Z" fill="#54C1C1"/>
<path d="M291.462 303.447C291.462 303.447 290.992 356.308 343.28 346.018C357.531 343.172 373.782 322.608 366.047 290.141C357.995 256.338 308.613 265.775 311.083 278.754C313.341 290.845 291.462 303.447 291.462 303.447Z" fill="#242424"/>
<path d="M354.574 282.847C368.941 305.103 364.191 324.397 353.159 332.304C329.678 348.984 306.731 338.991 283.476 321.576C266.196 308.123 204.591 253.237 204.591 253.237C195.475 243.58 175.748 232.207 176.419 214.233C176.498 207.159 172.964 194.68 171.286 191.022C168.145 185.328 169.471 178.665 172.264 180.471C175.445 182.628 187.15 205.34 187.15 205.34C189.334 198.736 187.695 191.54 184.167 185.498C180.639 179.455 175.137 175.204 169.72 170.315C169.334 169.966 168.173 168.919 168.73 167.993C169.203 167.704 169.203 167.704 169.675 167.416C171.951 166.612 175.046 169.406 177.066 170.514C179.86 172.321 186.437 178.257 189.06 181.339C187.808 174.492 175.387 166.855 171.387 161.101C170.613 160.402 171.341 158.201 172.286 157.624C172.758 157.336 172.758 157.336 173.617 157.397C175.335 157.519 176.497 158.567 178.13 159.326C181.31 161.482 192.059 171.898 195.239 174.054C194.505 169.818 180.491 157.884 178.983 152.95C179.148 145.239 198.067 165.887 203.313 172.051C202.88 168.803 197.247 162.289 195.011 159.557C192.086 155.488 195.438 156.369 196.211 157.067C206.914 164.583 212.895 174.983 216.428 187.462C220.821 200.001 224.197 226.628 224.197 226.628C226.262 230.636 228.885 233.718 232.839 236.572C264.18 264.858 272.379 258.681 310.882 275.568C309.465 276.433 337.196 257.159 354.574 282.847Z" fill="#F2BAC7"/>
<path d="M223.999 226.5C226.065 230.508 228.044 233.645 231.999 236.5C263.344 264.787 287.5 264 326.5 282" stroke="#242424" stroke-miterlimit="3.829" stroke-linecap="round" stroke-linejoin="round"/>
<path d="M208.639 147.286C224.725 148.282 245.636 140.112 261.454 142.702C277.272 145.293 290.142 149.478 309.177 140.311C308.104 136.924 300.329 124.768 299.257 121.381C300.865 124.171 308.372 136.326 311.589 135.529C314.807 134.732 327.943 126.362 330.088 119.587C301.938 121.381 283.707 77.9403 282.367 71.3644C281.294 66.582 281.561 61.6005 281.293 56.6188C281.025 46.6554 280.221 31.5109 274.591 23.5402C268.96 15.3702 259.041 9.79058 249.121 10.9862C249.121 10.9862 248.317 8.3957 246.977 6.00449C243.759 1.02279 224.724 -3.56037 207.833 4.01181C201.131 7.00083 183.705 14.573 179.147 37.8873C178.075 43.6661 180.219 49.0466 182.364 54.6261C182.632 54.2276 180.488 90.8926 164.402 102.649C159.04 106.435 147.242 110.82 147.242 110.82C163.06 157.448 187.726 145.094 198.987 146.688" fill="#232323"/>
<path d="M190.509 49.4055C188.096 41.6341 191.046 33.2646 195.335 26.2903C199.357 19.7144 204.986 13.537 212.225 10.7473C217.319 8.75461 223.218 8.55525 228.58 10.1494L192.654 56.9773L190.509 49.4055Z" fill="#232323"/>
<path d="M219.871 111.258C219.603 111.059 227.378 110.063 230.059 108.867C230.059 109.265 229.791 109.465 229.255 109.664C220.944 112.653 209.683 112.653 201.639 109.265C193.596 105.878 186.894 101.095 183.409 92.9255C180.46 86.1504 180.728 79.3755 182.337 72.2018C184.214 65.0282 187.699 58.2529 191.452 52.0756C191.988 51.0792 192.793 50.0832 193.061 48.8876C193.597 47.8913 193.597 46.6953 193.865 45.4996C195.473 37.1304 199.227 30.9533 207.002 24.776C207.002 24.776 217.994 16.4066 228.45 23.1818C235.152 27.5656 236.761 35.935 239.174 43.7064C241.05 50.083 238.638 49.6846 239.174 56.2604C239.442 58.6516 244.268 65.2272 244.804 66.4228C244.804 66.4228 247.753 58.4522 255.26 58.6515C258.477 58.8508 261.963 63.8327 261.427 67.818C261.159 69.6114 260.891 71.4046 259.818 72.9987C257.137 76.9841 252.848 79.5747 248.022 80.1725C249.899 102.092 252.58 123.812 256.065 145.532L256.332 144.935C253.651 149.717 249.361 153.304 244.267 155.496C241.05 156.891 237.834 157.488 234.348 157.887C223.892 158.883 209.682 156.691 205.393 148.521C205.125 147.924 204.857 146.927 204.857 146.329C204.857 145.732 205.125 144.934 205.393 144.337C208.074 133.377 211.023 122.019 213.704 111.059L219.871 111.258Z" fill="#F2BBC8"/>
<path d="M227.273 60.9877L237.183 55.6306" stroke="#232323" stroke-width="1.17136" stroke-miterlimit="1.0617" stroke-linecap="round" stroke-linejoin="round"/>
<path d="M206.971 55.7219C205.095 61.1022 200.805 67.8769 196.516 71.2644C200.537 73.4564 204.558 74.4531 205.631 74.6524" stroke="#232323" stroke-width="1.3" stroke-miterlimit="8.4257" stroke-linecap="round" stroke-linejoin="round"/>
<path d="M225.765 17.5421C219.062 31.0923 230.322 64.1707 245.336 66.7611C248.017 59.189 259.277 49.8233 261.958 42.2511C263.031 38.8636 264.372 35.4758 263.836 32.0883C263.299 29.4978 261.958 27.1066 260.35 25.1139C258.473 22.7227 256.06 20.5308 253.379 18.7374C249.893 16.3462 246.141 14.752 242.387 13.1578C238.634 11.5637 234.88 10.1689 231.127 8.77402C228.446 7.77768 225.764 6.98052 222.815 7.17978C219.866 7.57832 217.186 9.37173 216.649 12.1615C216.649 11.9622 216.65 11.5639 216.918 11.3646" fill="#232323"/>
<path d="M197.695 43.0485C199.036 41.4543 201.449 41.0562 203.594 41.4547C205.739 41.8532 207.616 43.0489 209.224 44.4437" stroke="#232323" stroke-width="1.3" stroke-miterlimit="8.4257" stroke-linecap="round" stroke-linejoin="round"/>
<path d="M219.224 45.6401C221.368 45.0423 223.781 45.2412 225.926 46.2375C228.071 47.2339 229.68 49.0276 230.484 51.0202" stroke="#232323" stroke-width="1.3" stroke-miterlimit="8.4257" stroke-linecap="round" stroke-linejoin="round"/>
<path d="M206.097 87.0968C210.112 87.6303 216.234 85.0012 217.377 82.7564" stroke="#232323" stroke-width="1.3" stroke-miterlimit="8.4257" stroke-linecap="round" stroke-linejoin="round"/>
<path d="M171.935 340.456C171.935 340.456 166.036 346.036 158.261 356.199C144.856 372.937 131.72 396.649 124.481 444.474C122.873 454.836 122.068 466.791 121.532 478.947L118.81 554.613C148.477 554.613 179.016 554.613 200.831 554.613C208.027 515.417 217.183 471.252 222.606 472.371C226.673 473.267 227.555 516.752 227.88 554.613C244.895 554.613 295.504 554.613 310.774 554.613C315.548 505.042 319.784 435.86 311.079 409.004C296.87 365.166 282.661 344.043 282.661 344.043L171.935 340.456Z" fill="white"/>
<path d="M200.092 53.5914C200.132 52.0181 199.35 50.7456 198.267 50.622C197.184 50.4984 196.343 51.5855 196.303 53.1587C196.263 54.732 197.044 56.0048 198.127 56.1285C199.215 56.0554 200.057 54.968 200.092 53.5914Z" fill="#232323"/>
<path d="M217.673 56.955C217.714 55.3818 216.932 54.1087 215.849 53.9849C214.766 53.8611 213.923 54.9483 213.882 56.5215C213.842 58.0947 214.624 59.3673 215.707 59.4911C216.79 59.615 217.633 58.5282 217.673 56.955Z" fill="#232323"/>
<path d="M248.21 68.8938C248.478 66.7019 250.355 65.1074 252.231 64.1111C253.572 63.5133 254.913 63.115 256.253 62.9158" stroke="#232323" stroke-width="1.3" stroke-miterlimit="8.4257" stroke-linecap="round" stroke-linejoin="round"/>
<path d="M249.62 66.9649C251.207 67.9231 252.201 69.7814 251.983 71.6569" stroke="#232323" stroke-width="1.3" stroke-miterlimit="8.4257" stroke-linecap="round" stroke-linejoin="round"/>
<path d="M192.657 48.2865C187.163 57.8132 182.31 68.0422 181.377 79.0505C180.904 84.0471 181.704 89.4335 183.817 93.9997C186.734 99.6977 191.86 104.302 197.654 107.383C208.551 113.039 219.266 111.981 226.276 110.377" stroke="#232323" stroke-width="1.39886" stroke-miterlimit="8.4257" stroke-linecap="round" stroke-linejoin="round"/>
<path d="M211.585 115.443C209.976 124.808 207.831 134.771 205.686 143.738C205.15 145.731 204.882 146.927 205.686 148.72C206.491 150.115 207.831 152.108 209.171 152.905C214.801 156.292 221.236 158.883 227.938 158.883C229.815 158.883 231.425 158.684 233.033 158.485C237.859 157.887 242.684 156.89 247.242 154.698C251.532 152.506 255.285 149.916 256.626 145.133" stroke="#232323" stroke-miterlimit="8.4257" stroke-linecap="round" stroke-linejoin="round"/>
<path d="M250.226 82.7279C249.571 103.611 252.251 124.637 256.788 145.12" stroke="#232323" stroke-width="1.39573" stroke-miterlimit="8.4257" stroke-linecap="round" stroke-linejoin="round"/>
<path d="M158.521 205.812C153.875 217.796 153.883 231.418 158.886 243.247C160.488 246.728 162.335 249.99 163.419 253.712C164.446 257.037 164.832 263.618 165.341 267.184C168.412 292.588 169.608 314.532 172.679 339.936" stroke="#232323" stroke-miterlimit="8.4257" stroke-linecap="round" stroke-linejoin="round"/>
<path d="M171.702 340.426C205.954 342.419 239.467 342.811 273.767 343.618" stroke="#232323" stroke-miterlimit="8.4257" stroke-linecap="round" stroke-linejoin="round"/>
<path d="M163.808 349.163C198.929 350.757 238.876 353.547 275.338 352.949" stroke="#232323" stroke-miterlimit="8.4257" stroke-linecap="round" stroke-linejoin="round"/>
<path d="M213.216 351.854C211.071 362.416 209.731 411.834 213.753 421.598C214.557 423.392 215.36 425.185 216.969 426.181C219.382 427.775 221.795 427.575 223.94 425.782" stroke="#232323" stroke-miterlimit="8.4257" stroke-linecap="round" stroke-linejoin="round"/>
<path d="M225.722 352.128C225.143 376.238 224.792 401.352 223.929 425.654C223.467 441.394 222.757 456.529 222.029 472.062" stroke="#232323" stroke-miterlimit="8.4257" stroke-linecap="round" stroke-linejoin="round"/>
<path d="M184.823 354.408C180.939 376.297 162.948 394.967 141.045 399.449" stroke="#232323" stroke-miterlimit="8.4257" stroke-linecap="round" stroke-linejoin="round"/>
<path d="M245.208 360.048C248.017 383.118 265.554 403.93 287.925 410.176" stroke="#232323" stroke-miterlimit="8.4257" stroke-linecap="round" stroke-linejoin="round"/>
<path d="M171.929 340.356C143.51 369.848 130.105 396.151 122.599 457.326C122.062 460.714 121.526 475.46 120.721 494.59C120.143 509.204 119.514 526.43 118.873 543.27" stroke="#232323" stroke-miterlimit="8.4257" stroke-linecap="round" stroke-linejoin="round"/>
<path d="M40.4552 190.308C40.9914 190.108 41.7954 189.71 42.8679 189.511C42.8679 189.511 34.557 204.456 10.964 210.234C10.964 210.234 10.6954 209.836 13.1083 207.245" stroke="#232323" stroke-miterlimit="8.4257" stroke-linecap="round" stroke-linejoin="round"/>
<path d="M88.0808 257.119C92.7227 273.709 98.4177 317.199 89.5161 355.571" stroke="#232323" stroke-miterlimit="8.4257" stroke-linecap="round" stroke-linejoin="round"/>
<path d="M41.957 118.392C39.276 122.576 37.6676 127.159 36.8633 131.942C36.5952 133.934 27.7476 155.057 16.4873 158.644" stroke="#232323" stroke-miterlimit="8.4257" stroke-linecap="round" stroke-linejoin="round"/>
<path d="M212.654 496.662C212.654 496.662 220.429 461.59 224.182 475.34C226.123 482.347 227.276 517.277 227.936 549.377" stroke="#232323" stroke-miterlimit="8.4257" stroke-linecap="round" stroke-linejoin="round"/>
<path d="M235.365 106.536C235.365 106.536 219.277 139.216 208.821 133.835C198.365 128.455 210.162 110.92 210.162 110.92C216.596 111.717 229.466 109.525 235.365 106.536Z" fill="#232323"/>
<path d="M209.674 49.8915L226.835 53.6819V64.2656L209.674 60.4752V49.8915Z" stroke="#232323" stroke-width="1.47745" stroke-miterlimit="1.5" stroke-linecap="round" stroke-linejoin="round"/>
<path d="M185.966 44.6071L203.126 48.3975V58.9812L185.966 55.1908V44.6071Z" stroke="#232323" stroke-width="1.47745" stroke-miterlimit="1.5" stroke-linecap="round" stroke-linejoin="round"/>
<path d="M203.075 52.2561L209.607 53.4282" stroke="#232323" stroke-width="1.17136" stroke-miterlimit="1.0617" stroke-linecap="round" stroke-linejoin="round"/>
<path d="M384.385 414.687C385.659 397.881 386.614 380.601 383.429 364.031C380.244 347.462 371.963 331.128 357.632 321.897C343.619 312.665 322.918 307.694 323.236 308.878C333.428 359.534 351.262 398.355 385.021 418.712L384.385 414.687Z" fill="#54C0C0"/>
<path d="M407.03 337.59C403.846 320.31 411.488 302.557 420.724 287.645C444.929 248.114 486.332 232.017 486.332 232.017C492.383 255.452 483.147 281.016 467.86 299.717C457.032 312.972 443.974 327.412 429.324 333.33L407.03 337.59Z" fill="#54C0C0"/>
<path d="M388.685 293.847C388.685 293.847 370.917 281.547 366.242 263.251C364.836 257.732 362.596 250.07 364.297 245.77C367.24 247.669 369.421 252.108 370.213 253.219C379.386 267.905 380.553 281.657 388.685 293.847Z" fill="#54C0C0"/>
<path d="M420.204 230.402C431.673 222.133 453.633 223.084 463.248 230.155C445.349 231.422 444.951 233.543 425.35 246.131C417.51 251.166 402.379 255.096 399.325 259.999C399.007 259.992 405.125 241.432 420.204 230.402Z" fill="#54C0C0"/>
<path d="M391.043 267.928C387.782 255.248 384.146 242.496 383.05 229.35C381.954 216.204 383.124 199.964 388.609 188.67C391.983 194.021 398.076 203.129 399.376 209.846C402.063 226.532 400.513 243.874 393.887 259.654C392.089 263.719 390.102 268.336 391.879 272.499L391.043 267.928Z" fill="#54C0C0"/>
<path d="M375.629 450.36C371.171 433.554 359.068 418.878 343.463 411.54C327.857 404.202 308.749 403.965 292.825 411.303C302.379 423.612 317.667 430.24 331.999 436.395L360.662 448.466C363.528 449.65 366.394 450.833 369.579 451.307C372.763 451.78 377.222 452.017 377.859 455.331L375.629 450.36Z" fill="#54C0C0"/>
<path d="M415.852 323.743C403.749 339.366 401.838 360.433 401.201 380.08C400.246 408.723 401.202 437.365 404.069 466.007" stroke="#232323" stroke-miterlimit="10.009" stroke-linecap="round" stroke-linejoin="round"/>
<path d="M413.815 247.493C404.739 251.61 397.53 259.015 393.989 268.343C391.079 275.84 390.512 284.275 390.414 292.311C389.893 313.203 388.912 330.589 404.251 353.792" stroke="#232323" stroke-miterlimit="10.009" stroke-linecap="round" stroke-linejoin="round"/>
<path d="M390.955 232.534C389.72 237.295 389.613 242.273 389.883 247.323C389.952 257.627 390.49 267.726 391.782 277.971" stroke="#232323" stroke-miterlimit="12.0558" stroke-linecap="round" stroke-linejoin="round"/>
<path d="M375.125 273.356C377.335 278.535 379.768 283.619 383.226 287.921C385.753 291.066 389.126 293.954 390.449 297.844" stroke="#232323" stroke-miterlimit="5.7392" stroke-linecap="round" stroke-linejoin="round"/>
<path d="M373.078 391.964C378.492 403.326 383.907 414.688 389.002 426.287C394.735 439.306 399.83 452.562 404.607 466.054" stroke="#232323" stroke-miterlimit="10.009" stroke-linecap="round" stroke-linejoin="round"/>
<path d="M384.734 470.031C382.505 463.166 379.956 456.302 375.816 450.621C373.905 448.017 371.676 445.65 369.765 443.283C367.854 440.915 366.261 438.312 364.35 435.945C362.121 433.104 359.574 430.5 357.026 428.133C352.567 424.109 347.79 420.322 343.013 416.771" stroke="#232323" stroke-miterlimit="10.009" stroke-linecap="round" stroke-linejoin="round"/>
<path d="M455.622 465.611H333.464L343.934 494.406H351.787L363.13 554.613H425.955L438.171 494.406H445.151L455.622 465.611Z" fill="#F9B42B"/>
<path d="M352.399 494.555H438.783L434.112 514.472L352.399 494.555Z" fill="#232323"/>
</svg>
