<svg width="34" height="32" viewBox="0 0 34 32" fill="none" xmlns="http://www.w3.org/2000/svg">
<path fill-rule="evenodd" clip-rule="evenodd" d="M10 1H34V25H24V31H0V7H10V1Z" fill="#3216B5"/>
<path d="M21.95 15.0004H26V16.8004H19V15.1004C19 15.1004 20.43 14.4404 21.36 13.9404C22.57 13.3004 23.89 12.4304 23.99 11.2404C24.07 10.3204 23.28 9.62035 22.31 9.62035C21.2 9.62035 20.6 10.2504 20.26 11.2704L18.75 10.7004C19.21 9.47035 20.25 8.11035 22.29 8.11035C24.33 8.11035 25.78 9.55035 25.78 11.2304C25.78 13.1597 23.7862 13.9815 22.3701 14.5651C22.2228 14.6257 22.0819 14.6838 21.95 14.7404V15.0004Z" fill="white"/>
<path d="M7 23.0004V15.0004H9.6L12 20.7004L14.4 15.0004H17V23.0004H15.2V17.0004H15L12.69 23.0004H11.3L9 17.0004H8.8V23.0004H7Z" fill="white"/>
</svg>
