<svg width="136" height="32" viewBox="0 0 136 32" fill="none" xmlns="http://www.w3.org/2000/svg">
<path fill-rule="evenodd" clip-rule="evenodd" d="M72.12 7.83961H72.26C72.53 8.20961 72.84 8.60961 73.3 8.80961C73.82 9.01961 74.27 9.11961 74.67 9.11961C75.81 9.11961 76.74 8.71961 77.47 7.88961C78.21 7.06961 78.58 6.08961 78.58 4.96961C78.58 3.90961 78.23 2.94961 77.5 2.10961C76.79 1.26961 75.86 0.849609 74.71 0.849609C74.27 0.849609 73.8 0.94961 73.28 1.17961C72.84 1.36961 72.48 1.85961 72.21 2.23961H71.95V0.999609H70.36V12.9996H72.12V7.83961ZM72.74 3.18961C73.18 2.69961 73.76 2.45961 74.45 2.45961C75.14 2.45961 75.72 2.69961 76.15 3.18961C76.59 3.67961 76.81 4.27961 76.81 4.98961C76.81 5.68961 76.59 6.28961 76.15 6.78961C75.72 7.26961 75.15 7.50961 74.45 7.50961C73.76 7.50961 73.18 7.26961 72.74 6.78961C72.31 6.29961 72.09 5.69961 72.09 4.98961C72.09 4.27961 72.31 3.68961 72.74 3.18961Z" fill="#1F1F2E"/>
<path d="M43.71 3.00961L46.16 9.00961H47.46L49.86 3.00961V9.00961H51.59V1.00961H49.1L46.79 6.74961L44.48 1.00961H42V9.00961H43.71V3.00961Z" fill="#1F1F2E"/>
<path fill-rule="evenodd" clip-rule="evenodd" d="M57.55 9.15961C58.97 9.15961 60.25 8.46961 60.91 7.22961L59.64 6.37961C59.21 7.19961 58.5 7.61961 57.52 7.61961C56.92 7.61961 56.38 7.42961 55.93 7.03961C55.47 6.63961 55.24 6.13961 55.22 5.53961H61.19C61.1919 5.5154 61.1941 5.48945 61.1964 5.4617C61.2068 5.34047 61.22 5.18491 61.22 4.98961C61.22 3.74961 60.88 2.75961 60.2 1.98961C59.52 1.22961 58.58 0.849609 57.38 0.849609C56.24 0.849609 55.3 1.24961 54.55 2.05961C53.8 2.86961 53.41 3.83961 53.41 4.99961C53.41 6.17961 53.81 7.18961 54.59 7.97961C55.4 8.76961 56.38 9.15961 57.55 9.15961ZM57.39 2.36961C58.51 2.36961 59.38 3.05961 59.44 4.17961H55.31C55.47 3.08961 56.31 2.36961 57.39 2.36961Z" fill="#1F1F2E"/>
<path d="M64.54 9.00961H66.31V2.60961H68.88V1.00961H61.99V2.60961H64.54V9.00961Z" fill="#1F1F2E"/>
<path d="M126.5 13.4996H131.5V14.9996H126.5V13.4996Z" fill="#1F1F2E"/>
<path fill-rule="evenodd" clip-rule="evenodd" d="M91.44 16.8396C89.83 16.8396 88.71 17.5096 88.09 18.8796L89.43 19.6596C89.83 18.8096 90.49 18.3896 91.39 18.3896C92.38 18.3896 92.94 18.9296 92.94 19.5896C92.94 20.0396 92.69 20.2596 92.2 20.2596H91.23C89.84 20.2596 87.96 20.8396 87.96 22.6996V22.7896C87.96 23.4796 88.21 24.0496 88.71 24.4796C89.21 24.9096 89.85 25.1396 90.61 25.1396C91.6 25.1396 92.3 24.6296 92.79 23.9096H93.05V24.9996H94.65V19.9096C94.65 19.3596 94.56 18.8796 94.38 18.4696C93.91 17.3796 92.92 16.8396 91.44 16.8396ZM92.93 21.7596C92.93 22.9596 92.16 23.7096 90.97 23.7096C90.22 23.7096 89.72 23.2796 89.72 22.6196C89.72 22.2796 89.88 22.0096 90.19 21.8096C90.51 21.6196 90.87 21.5096 91.24 21.5096H92.94V21.7596H92.93Z" fill="#1F1F2E"/>
<path fill-rule="evenodd" clip-rule="evenodd" d="M82.75 16.8496C82.31 16.8496 81.84 16.9496 81.32 17.1796C80.88 17.3696 80.52 17.8596 80.25 18.2396H79.99V16.9996H78.4V28.9996H80.16V23.8296H80.3C80.57 24.1996 80.88 24.5996 81.34 24.7996C81.86 25.0096 82.31 25.1096 82.71 25.1096C83.85 25.1096 84.78 24.7096 85.51 23.8796C86.25 23.0596 86.62 22.0796 86.62 20.9596C86.62 19.8996 86.27 18.9396 85.54 18.0996C84.83 17.2696 83.9 16.8496 82.75 16.8496ZM84.19 22.7896C83.76 23.2696 83.19 23.5096 82.49 23.5096C81.8 23.5096 81.22 23.2696 80.78 22.7896C80.35 22.2996 80.13 21.6996 80.13 20.9896C80.13 20.2896 80.35 19.6896 80.78 19.1896C81.22 18.6996 81.8 18.4596 82.49 18.4596C83.18 18.4596 83.76 18.6996 84.19 19.1896C84.63 19.6796 84.85 20.2796 84.85 20.9896C84.85 21.6896 84.63 22.2896 84.19 22.7896Z" fill="#1F1F2E"/>
<path d="M46.96 16.9996H49.29L45.69 20.8396L49.54 24.9996H47.16L43.83 21.2996H43.76V24.9996H42V16.9996H43.76V20.3696H43.83L46.96 16.9996Z" fill="#1F1F2E"/>
<path fill-rule="evenodd" clip-rule="evenodd" d="M57.2 19.0096C57.2 19.8296 56.77 20.4496 55.93 20.8196C56.36 20.8996 56.74 21.1196 57.05 21.4996C57.36 21.8696 57.52 22.3096 57.52 22.8296C57.52 23.5696 57.24 24.1196 56.68 24.4796C56.12 24.8196 55.44 24.9996 54.64 24.9996H50.64V16.9996H54.57C56.11 16.9996 57.2 17.7296 57.2 19.0096ZM52.37 20.2796H54.19C55.81 20.3096 55.72 18.3196 54.23 18.4396H52.37V20.2796ZM52.38 23.5296H54.4C55.21 23.5296 55.72 23.1696 55.73 22.5096C55.73 21.8996 55.14 21.5696 54.33 21.5696H52.38V23.5296Z" fill="#1F1F2E"/>
<path fill-rule="evenodd" clip-rule="evenodd" d="M59.03 18.8796C59.65 17.5096 60.77 16.8396 62.38 16.8396C63.85 16.8396 64.84 17.3796 65.32 18.4696C65.5 18.8796 65.59 19.3596 65.59 19.9096V24.9996H63.99V23.9096H63.73C63.24 24.6296 62.54 25.1396 61.55 25.1396C60.79 25.1396 60.15 24.9096 59.65 24.4796C59.15 24.0496 58.9 23.4796 58.9 22.7896V22.6996C58.9 20.8396 60.78 20.2596 62.17 20.2596H63.14C63.63 20.2596 63.88 20.0396 63.88 19.5896C63.88 18.9296 63.32 18.3896 62.33 18.3896C61.43 18.3896 60.77 18.8096 60.37 19.6596L59.03 18.8796ZM61.91 23.7096C63.1 23.7096 63.87 22.9596 63.87 21.7596H63.88V21.5096H62.18C61.81 21.5096 61.45 21.6196 61.13 21.8096C60.82 22.0096 60.66 22.2796 60.66 22.6196C60.66 23.2796 61.16 23.7096 61.91 23.7096Z" fill="#1F1F2E"/>
<path d="M95.73 16.9996H102.61V18.5996H100.05V24.9996H98.28V18.5996H95.73V16.9996Z" fill="#1F1F2E"/>
<path d="M109.2 16.9996H110.96V24.9996H109.2V21.7296H105.63V24.9996H103.88V16.9996H105.63V20.1796H109.2V16.9996Z" fill="#1F1F2E"/>
<path d="M121.48 16.9996H123.24V24.9996H121.48V16.9996Z" fill="#1F1F2E"/>
<path d="M130.89 16.9996H132.59V24.9996H130.88V19.6696L127.14 24.9996H125.45V16.9996H127.16V22.3496L130.89 16.9996Z" fill="#1F1F2E"/>
<path fill-rule="evenodd" clip-rule="evenodd" d="M115.07 19.6396H117.14C119.07 19.6396 120.36 20.5096 120.34 22.2396C120.34 23.9096 119.25 24.9996 117.26 24.9996H113.31V16.9996H115.07V19.6396ZM115.08 23.4996H117.04C118.07 23.4996 118.59 23.0796 118.59 22.2296C118.59 21.4296 117.95 21.0296 117.01 21.0296H115.08V23.4996Z" fill="#1F1F2E"/>
<path fill-rule="evenodd" clip-rule="evenodd" d="M75.37 16.9996H69.5C69.5 16.9996 69.26 19.6896 68.91 21.4696C68.72 22.4296 68.41 23.2396 68.34 23.3896H67.2V27.4696H68.93V24.9996H74.64V27.4696H76.37V23.3996H75.37V16.9996ZM73.58 23.3996H70C70.09 23.1796 70.37 22.3896 70.56 21.4396C70.84 20.0896 71.06 18.6096 71.06 18.6096H73.58V23.3996Z" fill="#1F1F2E"/>
<path fill-rule="evenodd" clip-rule="evenodd" d="M10 1H34V25H24V31H0V7H10V1Z" fill="#3216B5"/>
<path d="M21.95 15.0004H26V16.8004H19V15.1004C19 15.1004 20.43 14.4404 21.36 13.9404C22.57 13.3004 23.89 12.4304 23.99 11.2404C24.07 10.3204 23.28 9.62035 22.31 9.62035C21.2 9.62035 20.6 10.2504 20.26 11.2704L18.75 10.7004C19.21 9.47035 20.25 8.11035 22.29 8.11035C24.33 8.11035 25.78 9.55035 25.78 11.2304C25.78 13.1597 23.7862 13.9815 22.3701 14.5651C22.2228 14.6257 22.0819 14.6838 21.95 14.7404V15.0004Z" fill="white"/>
<path d="M7 23.0004V15.0004H9.6L12 20.7004L14.4 15.0004H17V23.0004H15.2V17.0004H15L12.69 23.0004H11.3L9 17.0004H8.8V23.0004H7Z" fill="white"/>
</svg>
