<svg width="146" height="32" viewBox="0 0 146 32" fill="none" xmlns="http://www.w3.org/2000/svg">
<path d="M146 1H41V7H0V31H51V25H146V1Z" fill="#3216B5"/>
<path d="M137.5 5.5H132.5V7H137.5V5.5Z" fill="white"/>
<path fill-rule="evenodd" clip-rule="evenodd" d="M94.09 10.88C94.71 9.51 95.83 8.84 97.44 8.84C98.92 8.84 99.91 9.38 100.38 10.47C100.56 10.88 100.65 11.36 100.65 11.91V17H99.05V15.91H98.79C98.3 16.63 97.6 17.14 96.61 17.14C95.85 17.14 95.21 16.91 94.71 16.48C94.21 16.05 93.96 15.48 93.96 14.79V14.7C93.96 12.84 95.84 12.26 97.23 12.26H98.2C98.69 12.26 98.94 12.04 98.94 11.59C98.94 10.93 98.38 10.39 97.39 10.39C96.49 10.39 95.83 10.81 95.43 11.66L94.09 10.88ZM96.97 15.71C98.16 15.71 98.93 14.96 98.93 13.76H98.94V13.51H97.24C96.87 13.51 96.51 13.62 96.19 13.81C95.88 14.01 95.72 14.28 95.72 14.62C95.72 15.28 96.22 15.71 96.97 15.71Z" fill="white"/>
<path fill-rule="evenodd" clip-rule="evenodd" d="M88.75 8.85C88.31 8.85 87.84 8.95 87.32 9.18C86.88 9.37 86.52 9.86 86.25 10.24H85.99V9H84.4V21H86.16V15.83H86.3C86.57 16.2 86.88 16.6 87.34 16.8C87.86 17.01 88.31 17.11 88.71 17.11C89.85 17.11 90.78 16.71 91.51 15.88C92.25 15.06 92.62 14.08 92.62 12.96C92.62 11.9 92.27 10.94 91.54 10.1C90.83 9.27 89.9 8.85 88.75 8.85ZM90.19 14.79C89.76 15.27 89.19 15.51 88.49 15.51C87.8 15.51 87.22 15.27 86.78 14.79C86.35 14.3 86.13 13.7 86.13 12.99C86.13 12.29 86.35 11.69 86.78 11.19C87.22 10.7 87.8 10.46 88.49 10.46C89.18 10.46 89.76 10.7 90.19 11.19C90.63 11.68 90.85 12.28 90.85 12.99C90.85 13.69 90.63 14.29 90.19 14.79Z" fill="white"/>
<path d="M55.29 9H52.96L49.83 12.37H49.76V9H48V17H49.76V13.3H49.83L53.16 17H55.54L51.69 12.84L55.29 9Z" fill="white"/>
<path fill-rule="evenodd" clip-rule="evenodd" d="M63.2 11.01C63.2 11.83 62.77 12.45 61.93 12.82C62.36 12.9 62.74 13.12 63.05 13.5C63.36 13.87 63.52 14.31 63.52 14.83C63.52 15.57 63.24 16.12 62.68 16.48C62.12 16.82 61.44 17 60.64 17H56.64V9H60.57C62.11 9 63.2 9.73 63.2 11.01ZM58.37 12.28H60.19C61.81 12.31 61.72 10.32 60.23 10.44H58.37V12.28ZM58.38 15.53H60.4C61.21 15.53 61.72 15.17 61.73 14.51C61.73 13.9 61.14 13.57 60.33 13.57H58.38V15.53Z" fill="white"/>
<path fill-rule="evenodd" clip-rule="evenodd" d="M68.38 8.84C66.77 8.84 65.65 9.51 65.03 10.88L66.37 11.66C66.77 10.81 67.43 10.39 68.33 10.39C69.32 10.39 69.88 10.93 69.88 11.59C69.88 12.04 69.63 12.26 69.14 12.26H68.17C66.78 12.26 64.9 12.84 64.9 14.7V14.79C64.9 15.48 65.15 16.05 65.65 16.48C66.15 16.91 66.79 17.14 67.55 17.14C68.54 17.14 69.24 16.63 69.73 15.91H69.99V17H71.59V11.91C71.59 11.36 71.5 10.88 71.32 10.47C70.84 9.38 69.85 8.84 68.38 8.84ZM69.87 13.76C69.87 14.96 69.1 15.71 67.91 15.71C67.16 15.71 66.66 15.28 66.66 14.62C66.66 14.28 66.82 14.01 67.13 13.81C67.45 13.62 67.81 13.51 68.18 13.51H69.88V13.76H69.87Z" fill="white"/>
<path d="M101.73 9H108.61V10.6H106.05V17H104.28V10.6H101.73V9Z" fill="white"/>
<path d="M116.96 9H115.2V12.18H111.63V9H109.88V17H111.63V13.73H115.2V17H116.96V9Z" fill="white"/>
<path d="M127.48 9H129.24V17H127.48V9Z" fill="white"/>
<path d="M138.59 9H136.89L133.16 14.35V9H131.45V17H133.14L136.88 11.67V17H138.59V9Z" fill="white"/>
<path fill-rule="evenodd" clip-rule="evenodd" d="M121.07 11.64H123.14C125.07 11.64 126.36 12.51 126.34 14.24C126.34 15.91 125.25 17 123.26 17H119.31V9H121.07V11.64ZM121.08 15.5H123.04C124.07 15.5 124.59 15.08 124.59 14.23C124.59 13.43 123.95 13.03 123.01 13.03H121.08V15.5Z" fill="white"/>
<path fill-rule="evenodd" clip-rule="evenodd" d="M75.5 9H81.37V15.4H82.37V19.47H80.64V17H74.93V19.47H73.2V15.39H74.34C74.41 15.24 74.72 14.43 74.91 13.47C75.26 11.69 75.5 9 75.5 9ZM76 15.4H79.58V10.61H77.06C77.06 10.61 76.84 12.09 76.56 13.44C76.37 14.39 76.09 15.18 76 15.4Z" fill="white"/>
<path d="M7 23V15H9.6L12 20.7L14.4 15H17V23H15.2V17H15L12.69 23H11.3L9 17H8.8V23H7Z" fill="white"/>
<path fill-rule="evenodd" clip-rule="evenodd" d="M22.97 23.16C24.39 23.16 25.67 22.47 26.33 21.23L25.06 20.38C24.63 21.2 23.92 21.62 22.94 21.62C22.34 21.62 21.8 21.43 21.35 21.04C20.89 20.64 20.66 20.14 20.64 19.54H26.61L26.6112 19.5236L26.6164 19.4621C26.6267 19.3409 26.64 19.1853 26.64 18.99C26.64 17.75 26.3 16.76 25.62 15.99C24.94 15.23 24 14.85 22.8 14.85C21.66 14.85 20.72 15.25 19.97 16.06C19.22 16.87 18.83 17.84 18.83 19C18.83 20.18 19.23 21.19 20.01 21.98C20.82 22.77 21.8 23.16 22.97 23.16ZM22.81 16.37C23.93 16.37 24.8 17.06 24.86 18.18H20.73C20.89 17.09 21.73 16.37 22.81 16.37Z" fill="white"/>
<path fill-rule="evenodd" clip-rule="evenodd" d="M37.54 21.84H37.68C37.95 22.21 38.26 22.61 38.72 22.81C39.24 23.02 39.6899 23.12 40.09 23.12C41.2299 23.12 42.16 22.72 42.89 21.89C43.63 21.07 44 20.09 44 18.97C44 17.91 43.65 16.95 42.92 16.11C42.21 15.27 41.28 14.85 40.13 14.85C39.6899 14.85 39.2199 14.95 38.7 15.18C38.2599 15.37 37.8999 15.86 37.63 16.24H37.3699V15H35.78V27H37.54V21.84ZM38.16 17.19C38.6 16.7 39.1799 16.46 39.8699 16.46C40.56 16.46 41.14 16.7 41.57 17.19C42.01 17.68 42.2299 18.28 42.2299 18.99C42.2299 19.69 42.01 20.29 41.57 20.79C41.14 21.27 40.5699 21.51 39.8699 21.51C39.1799 21.51 38.6 21.27 38.16 20.79C37.7299 20.3 37.5099 19.7 37.5099 18.99C37.5099 18.28 37.7299 17.69 38.16 17.19Z" fill="white"/>
<path d="M31.7299 23H29.96V16.61H27.41V15H34.3V16.61H31.7299V23Z" fill="white"/>
</svg>
