<svg width="180" height="34" viewBox="0 0 180 34" fill="none" xmlns="http://www.w3.org/2000/svg">
<path fill-rule="evenodd" clip-rule="evenodd" d="M10 4H34V28H24V34H0V10H10V4Z" fill="#1E22AA"/>
<path d="M21.95 18H26V19.8H19V18.1C19 18.1 20.43 17.44 21.36 16.94C22.57 16.3 23.89 15.43 23.99 14.24C24.07 13.32 23.28 12.62 22.31 12.62C21.2 12.62 20.6 13.25 20.26 14.27L18.75 13.7C19.21 12.47 20.25 11.11 22.29 11.11C24.33 11.11 25.78 12.55 25.78 14.23C25.78 16.1594 23.7862 16.9811 22.3701 17.5647C22.2228 17.6254 22.0819 17.6835 21.95 17.74V18Z" fill="white"/>
<path d="M7 26V18H9.6L12 23.7L14.4 18H17V26H15.2V20H15L12.69 26H11.3L9 20H8.8V26H7Z" fill="white"/>
<path d="M174.5 0.5H169.5V2H174.5V0.5Z" fill="#1F1F2E"/>
<path fill-rule="evenodd" clip-rule="evenodd" d="M131.09 5.88C131.71 4.51 132.83 3.84 134.44 3.84C135.92 3.84 136.91 4.38 137.38 5.47C137.56 5.88 137.65 6.36 137.65 6.91V12H136.05V10.91H135.79C135.3 11.63 134.6 12.14 133.61 12.14C132.85 12.14 132.21 11.91 131.71 11.48C131.21 11.05 130.96 10.48 130.96 9.79V9.7C130.96 7.84 132.84 7.26 134.23 7.26H135.2C135.69 7.26 135.94 7.04 135.94 6.59C135.94 5.93 135.38 5.39 134.39 5.39C133.49 5.39 132.83 5.81 132.43 6.66L131.09 5.88ZM133.97 10.71C135.16 10.71 135.93 9.96 135.93 8.76H135.94V8.51H134.24C133.87 8.51 133.51 8.62 133.19 8.81C132.88 9.01 132.72 9.28 132.72 9.62C132.72 10.28 133.22 10.71 133.97 10.71Z" fill="#1F1F2E"/>
<path fill-rule="evenodd" clip-rule="evenodd" d="M125.75 3.85C125.31 3.85 124.84 3.95 124.32 4.18C123.88 4.37 123.52 4.86 123.25 5.24H122.99V4H121.4V16H123.16V10.83H123.3C123.57 11.2 123.88 11.6 124.34 11.8C124.86 12.01 125.31 12.11 125.71 12.11C126.85 12.11 127.78 11.71 128.51 10.88C129.25 10.06 129.62 9.08 129.62 7.96C129.62 6.9 129.27 5.94 128.54 5.1C127.83 4.27 126.9 3.85 125.75 3.85ZM127.19 9.79C126.76 10.27 126.19 10.51 125.49 10.51C124.8 10.51 124.22 10.27 123.78 9.79C123.35 9.3 123.13 8.7 123.13 7.99C123.13 7.29 123.35 6.69 123.78 6.19C124.22 5.7 124.8 5.46 125.49 5.46C126.18 5.46 126.76 5.7 127.19 6.19C127.63 6.68 127.85 7.28 127.85 7.99C127.85 8.69 127.63 9.29 127.19 9.79Z" fill="#1F1F2E"/>
<path d="M92.29 4H89.96L86.83 7.37H86.76V4H85V12H86.76V8.3H86.83L90.16 12H92.54L88.69 7.84L92.29 4Z" fill="#1F1F2E"/>
<path fill-rule="evenodd" clip-rule="evenodd" d="M100.2 6.01C100.2 6.83 99.77 7.45 98.93 7.82C99.36 7.9 99.74 8.12 100.05 8.5C100.36 8.87 100.52 9.31 100.52 9.83C100.52 10.57 100.24 11.12 99.68 11.48C99.12 11.82 98.44 12 97.64 12H93.64V4H97.57C99.11 4 100.2 4.73 100.2 6.01ZM95.37 7.28H97.19C98.81 7.31 98.72 5.32 97.23 5.44H95.37V7.28ZM95.38 10.53H97.4C98.21 10.53 98.72 10.17 98.73 9.51C98.73 8.9 98.14 8.57 97.33 8.57H95.38V10.53Z" fill="#1F1F2E"/>
<path fill-rule="evenodd" clip-rule="evenodd" d="M105.38 3.84C103.77 3.84 102.65 4.51 102.03 5.88L103.37 6.66C103.77 5.81 104.43 5.39 105.33 5.39C106.32 5.39 106.88 5.93 106.88 6.59C106.88 7.04 106.63 7.26 106.14 7.26H105.17C103.78 7.26 101.9 7.84 101.9 9.7V9.79C101.9 10.48 102.15 11.05 102.65 11.48C103.15 11.91 103.79 12.14 104.55 12.14C105.54 12.14 106.24 11.63 106.73 10.91H106.99V12H108.59V6.91C108.59 6.36 108.5 5.88 108.32 5.47C107.84 4.38 106.85 3.84 105.38 3.84ZM106.87 8.76C106.87 9.96 106.1 10.71 104.91 10.71C104.16 10.71 103.66 10.28 103.66 9.62C103.66 9.28 103.82 9.01 104.13 8.81C104.45 8.62 104.81 8.51 105.18 8.51H106.88V8.76H106.87Z" fill="#1F1F2E"/>
<path d="M138.73 4H145.61V5.6H143.05V12H141.28V5.6H138.73V4Z" fill="#1F1F2E"/>
<path d="M153.96 4H152.2V7.18H148.63V4H146.88V12H148.63V8.73H152.2V12H153.96V4Z" fill="#1F1F2E"/>
<path d="M164.48 4H166.24V12H164.48V4Z" fill="#1F1F2E"/>
<path d="M175.59 4H173.89L170.16 9.35V4H168.45V12H170.14L173.88 6.67V12H175.59V4Z" fill="#1F1F2E"/>
<path fill-rule="evenodd" clip-rule="evenodd" d="M158.07 6.64H160.14C162.07 6.64 163.36 7.51 163.34 9.24C163.34 10.91 162.25 12 160.26 12H156.31V4H158.07V6.64ZM158.08 10.5H160.04C161.07 10.5 161.59 10.08 161.59 9.23C161.59 8.43 160.95 8.03 160.01 8.03H158.08V10.5Z" fill="#1F1F2E"/>
<path fill-rule="evenodd" clip-rule="evenodd" d="M112.5 4H118.37V10.4H119.37V14.47H117.64V12H111.93V14.47H110.2V10.39H111.34C111.41 10.24 111.72 9.43 111.91 8.47C112.26 6.69 112.5 4 112.5 4ZM113 10.4H116.58V5.61H114.06C114.06 5.61 113.84 7.09 113.56 8.44C113.37 9.39 113.09 10.18 113 10.4Z" fill="#1F1F2E"/>
<path fill-rule="evenodd" clip-rule="evenodd" d="M72.26 10.84H72.12V16H70.36V3.99998H71.95V5.23997H72.21C72.48 4.85998 72.84 4.36998 73.28 4.17998C73.8 3.94998 74.27 3.84998 74.71 3.84998C75.86 3.84998 76.79 4.26998 77.5 5.10998C78.23 5.94998 78.58 6.90998 78.58 7.96997C78.58 9.08998 78.21 10.07 77.47 10.89C76.74 11.72 75.81 12.12 74.67 12.12C74.27 12.12 73.82 12.02 73.3 11.81C72.84 11.61 72.53 11.21 72.26 10.84ZM74.45 5.45998C73.76 5.45998 73.18 5.69998 72.74 6.18998C72.31 6.68998 72.09 7.27998 72.09 7.98997C72.09 8.69997 72.31 9.29998 72.74 9.78998C73.18 10.27 73.76 10.51 74.45 10.51C75.15 10.51 75.72 10.27 76.15 9.78998C76.59 9.28998 76.81 8.68998 76.81 7.98997C76.81 7.27998 76.59 6.67998 76.15 6.18998C75.72 5.69998 75.14 5.45998 74.45 5.45998Z" fill="#1F1F2E"/>
<path d="M46.16 12.01L43.71 6.00998V12.01H42V4.00998H44.48L46.79 9.74998L49.1 4.00998H51.59V12.01H49.86V6.00998L47.46 12.01H46.16Z" fill="#1F1F2E"/>
<path fill-rule="evenodd" clip-rule="evenodd" d="M57.55 12.16C58.97 12.16 60.25 11.47 60.91 10.23L59.64 9.37998C59.21 10.2 58.5 10.62 57.52 10.62C56.92 10.62 56.38 10.43 55.93 10.04C55.47 9.63998 55.24 9.13998 55.22 8.53998H61.19C61.1919 8.51576 61.1941 8.48981 61.1964 8.46206C61.2068 8.34084 61.22 8.18527 61.22 7.98997C61.22 6.74998 60.88 5.75998 60.2 4.98997C59.52 4.22997 58.58 3.84998 57.38 3.84998C56.24 3.84998 55.3 4.24998 54.55 5.05997C53.8 5.86997 53.41 6.83998 53.41 7.99998C53.41 9.17998 53.81 10.19 54.59 10.98C55.4 11.77 56.38 12.16 57.55 12.16ZM57.39 5.36998C58.51 5.36998 59.38 6.05997 59.44 7.17998H55.31C55.47 6.08998 56.31 5.36998 57.39 5.36998Z" fill="#1F1F2E"/>
<path d="M66.31 12.01H64.54V5.60998H61.99V4.00998H68.88V5.60998H66.31V12.01Z" fill="#1F1F2E"/>
<path d="M42 22.39V28H43.254V23.49H45.63V28H46.884V22.39H42Z" fill="#77738C"/>
<path d="M51.3503 22.258C50.4593 22.258 49.8873 22.665 49.6123 23.116V22.39H48.4023V30.101H49.6563V27.373C49.9203 27.78 50.4923 28.132 51.3173 28.132C52.6483 28.132 53.8363 27.12 53.8363 25.195C53.8363 23.27 52.6593 22.258 51.3503 22.258ZM51.1083 27.021C50.2173 27.021 49.6233 26.317 49.6233 25.217V25.173C49.6233 24.073 50.2173 23.369 51.1083 23.369C51.9883 23.369 52.5713 24.106 52.5713 25.195C52.5713 26.295 51.9883 27.021 51.1083 27.021Z" fill="#77738C"/>
<path d="M57.4723 22.258C55.8223 22.258 54.7113 23.457 54.7113 25.195C54.7113 26.933 55.8223 28.132 57.4723 28.132C59.1223 28.132 60.2333 26.933 60.2333 25.195C60.2333 23.457 59.1223 22.258 57.4723 22.258ZM57.4723 27.021C56.5483 27.021 55.9873 26.273 55.9873 25.195C55.9873 24.117 56.5483 23.369 57.4723 23.369C58.3963 23.369 58.9573 24.117 58.9573 25.195C58.9573 26.273 58.3963 27.021 57.4723 27.021Z" fill="#77738C"/>
<path d="M66.3496 25.558V25.041C66.3496 23.347 65.3486 22.258 63.8086 22.258C62.2246 22.258 61.1136 23.38 61.1136 25.206C61.1136 27.021 62.2246 28.132 63.8856 28.132C65.4146 28.132 66.1406 27.197 66.2836 26.482H65.0516C64.9636 26.735 64.5786 27.087 63.9076 27.087C63.0056 27.087 62.4006 26.427 62.4006 25.58V25.558H66.3496ZM63.7976 23.303C64.5786 23.303 65.0626 23.798 65.0956 24.612H62.4116C62.4886 23.82 63.0056 23.303 63.7976 23.303Z" fill="#77738C"/>
<path d="M68.7989 28V25.382L70.9549 28H72.4729L70.0199 25.019L72.4399 22.39H70.9549L68.7989 24.722V22.39H67.5449V28H68.7989Z" fill="#77738C"/>
<path d="M72.9057 23.49H74.6987V28H75.9527V23.49H77.7457V22.39H72.9057V23.49Z" fill="#77738C"/>
<path d="M85.0697 23.49V22.39H81.2197V28H82.4737V23.49H85.0697Z" fill="#77738C"/>
<path d="M89.1306 22.258C88.2396 22.258 87.6676 22.665 87.3926 23.116V22.39H86.1826V30.101H87.4366V27.373C87.7006 27.78 88.2726 28.132 89.0976 28.132C90.4286 28.132 91.6166 27.12 91.6166 25.195C91.6166 23.27 90.4396 22.258 89.1306 22.258ZM88.8886 27.021C87.9976 27.021 87.4036 26.317 87.4036 25.217V25.173C87.4036 24.073 87.9976 23.369 88.8886 23.369C89.7686 23.369 90.3516 24.106 90.3516 25.195C90.3516 26.295 89.7686 27.021 88.8886 27.021Z" fill="#77738C"/>
<path d="M96.3551 22.39L94.8811 26.405L93.4071 22.39H92.0541L94.2101 27.901L93.3411 30.101H94.6831L97.7081 22.39H96.3551Z" fill="#77738C"/>
<path d="M98.5791 22.39V28H99.8331V23.49H102.209V28H103.463V22.39H98.5791Z" fill="#77738C"/>
<path d="M104.981 22.39V28H106.235V23.49H108.611V28H109.865V22.39H104.981Z" fill="#77738C"/>
<path d="M112.627 22.39H111.384V28H113.749C115.003 28 115.806 27.153 115.806 26.031C115.806 24.92 115.014 24.095 113.749 24.095H112.627V22.39ZM117.764 22.39H116.521V28H117.764V22.39ZM113.595 25.151C114.211 25.151 114.563 25.514 114.563 26.031C114.563 26.548 114.211 26.955 113.595 26.955H112.627V25.151H113.595Z" fill="#77738C"/>
<path d="M121.523 28H123.95C125.163 28 125.901 27.303 125.901 26.3436C125.901 25.5236 125.368 25.1054 124.926 24.9742C125.303 24.8102 125.68 24.4084 125.68 23.736C125.68 22.9078 125.081 22.2272 123.851 22.2272H121.523V28ZM123.794 25.54C124.302 25.54 124.63 25.8106 124.63 26.2534C124.63 26.6962 124.294 26.9586 123.786 26.9586H122.769V25.54H123.794ZM123.655 23.2686C124.147 23.2686 124.417 23.5064 124.417 23.9164C124.417 24.2772 124.179 24.5642 123.687 24.5642H122.769V23.2686H123.655Z" fill="#77738C"/>
<path d="M126.359 23.3424H128.081V28H129.336V23.3424H131.049V22.2272H126.359V23.3424Z" fill="#77738C"/>
<path d="M135.697 23.3342V22.2272H131.909V28H134.221C135.386 28 136.14 27.221 136.14 26.196C136.14 25.0972 135.41 24.4002 134.221 24.4002H133.163V23.3342H135.697ZM134.041 25.417C134.566 25.417 134.877 25.7122 134.877 26.1714C134.877 26.6306 134.566 26.9422 134.041 26.9422H133.163V25.417H134.041Z" fill="#77738C"/>
</svg>
