<?xml version="1.0" encoding="UTF-8"?>
<svg fill="none" viewBox="0 0 248 100" xmlns="http://www.w3.org/2000/svg">
<rect width="248" height="100" fill="#fff"/>
<g clip-path="url(#a)" fill="#00984A">
<path d="m107.53 45.127v-7.8557h2.353c2.969 0 4.308 1.7016 4.308 3.801 0 1.9186-1.194 4.0543-4.308 4.0543h-2.353v4e-4zm-5.14-11.838v25.34h5.14v-9.5207h3.295c6.48 0 8.797-4.5611 8.797-7.8918 0-1.5929-0.543-7.9277-9.738-7.9277h-7.494z" clip-rule="evenodd" fill-rule="evenodd"/>
<path d="m136.78 33.29v4.4887h-9.991v5.72h9.086v4.1631h-9.086v6.4797h9.991v4.4887h-15.132v-25.34h15.132z" clip-rule="evenodd" fill-rule="evenodd"/>
<path d="m157.99 57.833c-2.244 0.7604-4.525 1.0864-6.552 1.0864-6.299 0-13.177-3.5838-13.177-12.815 0-8.7246 6.154-13.105 14.118-13.105 1.991 0 3.693 0.2536 5.611 0.8689l-0.217 4.3439c-1.484-0.5793-3.114-0.9413-5.032-0.9413-5.684 0-9.05 3.5839-9.05 8.7606 0 6.1177 4.127 8.6159 8.688 8.6159 2.244 0 4.018-0.5433 5.285-1.1221l0.326 4.3075z" clip-rule="evenodd" fill-rule="evenodd"/>
<path d="m171.58 36.62c1.919 0 6.987 0.7601 6.987 9.3399 0 8.5794-5.068 9.3395-6.987 9.3395s-6.987-0.7601-6.987-9.3395c1e-3 -8.5798 5.069-9.3399 6.987-9.3399zm0-3.6202c-6.263 0-12.417 3.7651-12.417 12.96 0 9.1947 6.154 12.96 12.417 12.96s12.417-3.765 12.417-12.96c0-9.195-6.154-12.96-12.417-12.96z" clip-rule="evenodd" fill-rule="evenodd"/>
<path d="m105.3 62.328v0.8541h-1.973v3.9682h-0.972v-4.8223h2.945z" clip-rule="evenodd" fill-rule="evenodd"/>
<path d="m113.61 65.27 0.665-1.9708h0.014l0.705 1.9708h-1.384zm0.158-2.9416-1.912 4.8226h1.042l0.404-1.0817h1.98l0.404 1.0817h1.096l-1.905-4.8226h-1.109z" clip-rule="evenodd" fill-rule="evenodd"/>
<path d="m124.73 64.581v-1.4949h0.445c0.562 0 0.815 0.3239 0.815 0.7237 0 0.3653-0.226 0.7716-0.815 0.7716h-0.445v-4e-4zm-0.973-2.2524v4.8226h0.973v-1.8115h0.623c1.226 0 1.665-0.8682 1.665-1.5022 0-0.3033-0.103-1.5086-1.843-1.5086h-1.418v-3e-4z" clip-rule="evenodd" fill-rule="evenodd"/>
<path d="m135.54 65.27 0.664-1.9708h0.014l0.705 1.9708h-1.383zm0.157-2.9416-1.911 4.8226h1.041l0.404-1.0817h1.98l0.404 1.0817h1.096l-1.904-4.8226h-1.11z" clip-rule="evenodd" fill-rule="evenodd"/>
<path d="m146.66 62.328v1.9427h1.945v-1.9427h0.973v4.8223h-0.973v-2.0875h-1.945v2.0875h-0.972v-4.8223h0.972z" clip-rule="evenodd" fill-rule="evenodd"/>
<path d="m160.29 62.328v0.8541h-1.384v3.9682h-0.972v-3.9682h-1.384v-0.8541h3.74z" clip-rule="evenodd" fill-rule="evenodd"/>
<path d="m168.24 62.328v2.4797l-0.02 1.1715h0.02l0.342-0.7028 1.679-2.9484h1.164v4.8223h-0.972v-2.487l0.02-1.1646h-0.02l-0.329 0.7305-1.693 2.9211h-1.164v-4.8223h0.973z" clip-rule="evenodd" fill-rule="evenodd"/>
<path d="m181.21 64.602h-0.548c-0.124 0-0.904-0.0072-0.904-0.7579 0-0.2619 0.102-0.7579 0.897-0.7579h0.555v1.5158zm0.972-2.2734h-1.555c-0.335 0-1.898-0.0209-1.898 1.4881 0 0.8955 0.569 1.2334 0.946 1.3505l-1.144 1.9841h1.164l0.932-1.7914h0.582v1.7914h0.973v-4.8227z" clip-rule="evenodd" fill-rule="evenodd"/>
<path d="m82.688 50.159v-12.246c-2.2413 0.4982-4.0975 1.348-5.5942 2.5266-1.9067 1.5014-3.2687 3.5677-4.1365 6.144l-3.448-1.1542c1.0983-3.2614 2.854-5.9011 5.3334-7.8539 2.4575-1.9355 5.5885-3.166 9.4555-3.6249l2.0378-0.2417v16.45h-3.648z"/>
<path d="m80.303 48.097h-12.098c0.4982 2.2417 1.3479 4.0975 2.5269 5.5943 1.5018 1.9066 3.5677 3.2686 6.1443 4.1364l-1.1541 3.4481c-3.2618-1.0987-5.9012-2.8544-7.8543-5.3339-1.9358-2.457-3.1664-5.5885-3.6253-9.4551l-0.2417-2.0378h16.303v3.648z"/>
<path d="m78.389 50.499v12.083c2.2413-0.4982 4.0976-1.3487 5.5939-2.5273 1.9067-1.5018 3.2687-3.5677 4.1365-6.1443l3.448 1.1541c-1.0983 3.2615-2.8537 5.9012-5.3334 7.854-2.4578 1.9354-5.5889 3.1663-9.4555 3.6249l-2.0378 0.2421v-16.286h3.6483z"/>
<path d="m80.891 52.396h11.982c-0.4978-2.241-1.3487-4.0976-2.5273-5.5939-1.5018-1.9067-3.5677-3.2687-6.1443-4.1365l1.1541-3.448c3.2615 1.0987 5.9016 2.854 7.8543 5.3338 1.9355 2.4574 3.1664 5.5885 3.6249 9.4555l0.2418 2.0374h-16.186v-3.6483z"/>
</g>
<defs>
<clipPath id="a">
<rect x="64" y="33" width="120" height="34.151" fill="#fff"/>
</clipPath>
</defs>
</svg>
