<?xml version="1.0" encoding="UTF-8"?>
<svg fill="none" viewBox="0 0 248 100" xmlns="http://www.w3.org/2000/svg">
<rect width="248" height="100" fill="#fff"/>
<g clip-path="url(#e)">
<path d="m141.23 64.027c-0.16 0.4514-0.501 0.4689-0.669 0.4689-0.153 0-3.965-0.0064-3.965-0.0064v-4.1536h3.834v-1.2014h-3.834v-3.5326s3.765-0.0065 3.896-0.0065c0.17 0 0.511 0.0189 0.668 0.4695h0.408v-1.6654h-6.821v0.4059c0.134 0.0473 0.226 0.111 0.294 0.1809 0.15 0.1724 0.167 0.3998 0.175 0.4858v9.149c-0.013 0.1205-0.025 0.4437-0.454 0.6592-5e-3 0.0012-8e-3 0.0036-0.015 0.0054v0.407h6.889v-1.6657h-0.406z" fill="#373535"/>
<path d="m158.9 64.027c-0.161 0.4514-0.501 0.4689-0.672 0.4689-0.151 0-3.962-0.0064-3.962-0.0064v-4.1536h3.833v-1.2014h-3.833v-3.5326s3.764-0.0065 3.897-0.0065c0.169 0 0.507 0.0189 0.667 0.4695h0.407v-1.6654h-6.819v0.4059c0.133 0.0473 0.226 0.111 0.293 0.1809 0.152 0.1724 0.166 0.3998 0.175 0.4858v9.149c-0.012 0.1205-0.026 0.4437-0.455 0.6592-5e-3 0.0012-8e-3 0.0036-0.013 0.0054v0.407h6.888v-1.6657h-0.406z" fill="#373535"/>
<path d="m132.72 54.807v-0.4077h-8.899v0.4077c0.449 0.1595 0.467 0.4992 0.469 0.6685v9.1415c0 0.1701-0.02 0.509-0.469 0.6687v0.4068h2.315v-0.4068c-0.451-0.1597-0.469-0.4986-0.469-0.6687 0-0.1633 1e-3 -9.0086 1e-3 -9.0086h5.204s-2e-3 8.7624-2e-3 9.0086c0 0.1701-0.016 0.509-0.467 0.6687v0.4068h2.317v-0.4068c-0.454-0.1597-0.47-0.4986-0.47-0.6687v-9.1415c0-0.1693 0.018-0.509 0.47-0.6685z" fill="#373535"/>
<path d="m43.539 40.92c-1.6045 4.5484 0.7823 9.5307 5.33 11.134 4.5466 1.6027 9.532-0.7809 11.134-5.3289 1.6024-4.5476-0.7836-9.531-5.3289-11.134-0.9601-0.3383-1.9395-0.4991-2.9027-0.4991-3.5979 3e-4 -6.9664 2.2415-8.2321 5.8286z" fill="url(#d)"/>
<path d="m43.041 58.107 0.0028 0.8806c0.0067 1.6784 3.9182 3.024 8.739 3.0085 4.8225-0.0186 8.7234-1.3936 8.7175-3.0709l-0.0016-0.8839-17.458 0.0657z" fill="url(#c)"/>
<path d="m51.761 55.034c-4.822 0.0175-8.7255 1.3916-8.7198 3.0725 0.0046 1.6757 3.9184 3.0203 8.74 3.0038 4.8194-0.016 8.7224-1.3908 8.7178-3.0696-0.0065-1.6678-3.8739-3.007-8.6538-3.007-0.0279 0-0.056 0-0.0842 3e-4z" fill="url(#b)"/>
<path d="m43.041 64.79v0.5244c0 0.2434 3.9084 0.487 8.7299 0.487 4.8205 0 8.7281-0.2436 8.7281-0.487v-0.5244c0-0.2462-3.9076-0.4894-8.7281-0.4894-4.8215 0-8.7299 0.2432-8.7299 0.4894z" fill="url(#a)"/>
<path d="m121.47 60.328h-4.76v-1.1825h4.76v1.1825z" fill="#373535"/>
<path d="m75.804 63.952c-0.1499 0.4878-0.5167 0.5154-0.6408 0.5345 0 0-0.7103 0.0656-1.5999 0.0656-0.8584 0-1.5173-0.2914-1.9697-0.8695-0.4532-0.5791-0.6369-1.4365-0.6369-2.5746v-2.1137c0-2.3027 0.8403-3.4514 2.6066-3.4514 0.7665 0 1.5697 0.0761 1.5697 0.0761 0.1236 0.0163 0.4878 0.0692 0.6429 0.5338h0.4196l0.0013-1.5555s-0.4842-0.1043-1.1103-0.1838c-0.6263-0.0784-1.0416-0.1189-1.5353-0.1189-1.2478 0-2.2293 0.3982-2.9432 1.1923-0.7167 0.7949-1.0739 1.9632-1.0739 3.5074v2.1137c0 1.5335 0.3613 2.6987 1.0806 3.497 0.7201 0.7933 1.6987 1.1947 2.9365 1.1947 0.7443 0 1.2096-0.0251 1.6757-0.086 0.431-0.0575 0.9993-0.1708 0.9993-0.1708v-1.5909h-0.4222z" fill="#373535"/>
<path d="m188.23 54.399h-2.522v0.399c0.336 0.1334 0.499 0.3479 0.3 0.871-0.198 0.5255-1.986 5.2967-1.986 5.2967s-0.293-0.0343-0.422-0.2932c-0.161-0.3226-1.993-4.8889-2.111-5.1805-0.12-0.2919-0.034-0.6008 0.323-0.694v-0.399h-2.603v0.4078c0.477 0.0686 0.672 0.3964 0.779 0.6465 0.123 0.2898 2.139 5.2984 2.292 5.6825 0.154 0.3827 0.276 0.5711 0.419 0.7099 0.236 0.2326 0.503 0.2994 0.822 0.4065 0 0-0.282 0.7781-0.53 1.3872-0.277 0.6847-0.775 0.9154-1.248 0.9154-0.181 0-0.531-0.1089-0.631-0.4658h-0.441v1.494s0.287 0.2179 1.146 0.2179c0.742 0 1.062-0.1536 1.487-0.4401 0.341-0.2268 0.677-0.6952 0.955-1.3404 0.277-0.645 3.07-8.1764 3.219-8.5452 0.151-0.3696 0.319-0.5923 0.752-0.6684v-0.4078z" fill="#373535"/>
<path d="m81.57 44.565s1.3821-4.9606 1.4283-5.0884c0.0459-0.1277 0.135-0.1961 0.2583-0.1961 0.1298 0 0.2186 0.0735 0.2612 0.2173 0.0431 0.144 1.4094 5.0672 1.4094 5.0672h-3.3572zm5.8061 3.76c-0.0325-0.0978-2.5834-9.0881-2.5834-9.0881-0.2191-0.7619-0.7301-1.1421-1.5361-1.1421-0.8171 0-1.3345 0.3838-1.55 1.1565 0 0-2.3728 8.4414-2.5819 9.0737-0.1585 0.4842-0.4142 0.6499-0.7619 0.7564v0.4096h2.617v-0.4096s-0.5353-0.192-0.3967-0.7466c0.261-1.0486 0.6989-2.5659 0.6989-2.5659h3.9327s0.6351 2.2895 0.7048 2.5659c0.1378 0.5546-0.3979 0.7466-0.3979 0.7466v0.4096h2.6156v-0.4096c-0.3476-0.1065-0.6026-0.2722-0.7611-0.7564z" fill="#373535"/>
<path d="m80.465 60.767s1.3818-4.9601 1.429-5.0873c0.0449-0.1272 0.1339-0.1974 0.2573-0.1974 0.1311 0 0.2199 0.074 0.2622 0.2173 0.0421 0.144 1.4084 5.0674 1.4084 5.0674h-3.3569zm5.8061 3.7608c-0.032-0.0991-2.5824-9.0884-2.5824-9.0884-0.2207-0.7626-0.7317-1.1425-1.5374-1.1425-0.8174 0-1.334 0.3838-1.5503 1.1562 0 0-2.3728 8.4427-2.5806 9.0747-0.1585 0.4834-0.414 0.6504-0.7629 0.7557v0.4096h2.6175v-0.4096s-0.535-0.1923-0.3977-0.7456c0.2627-1.0496 0.6999-2.5669 0.6999-2.5669h3.9332s0.6346 2.29 0.7033 2.5669c0.1388 0.5533-0.3977 0.7456-0.3977 0.7456v0.4096h2.6169v-0.4096c-0.3478-0.1053-0.6028-0.2723-0.7618-0.7557z" fill="#373535"/>
<path d="m97.776 39.274c0-0.1696 0.0184-0.5105 0.4692-0.6685v-0.4083h-2.3165v0.4083c0.4495 0.158 0.4684 0.4989 0.4684 0.6685v3.6611h-5.2027v-3.6611c0-0.1696 0.0183-0.5105 0.4692-0.6685v-0.4083h-2.3166v0.4083c0.4514 0.158 0.4695 0.4989 0.4695 0.6685v9.142c0 0.1691-0.0181 0.509-0.4695 0.6685v0.4067h2.3166v-0.4067c-0.4509-0.1595-0.4692-0.4994-0.4692-0.6685v-4.2754h5.2027v4.2754c0 0.1691-0.0189 0.509-0.4684 0.6685v0.4067h2.3165v-0.4067c-0.4508-0.1595-0.4692-0.4994-0.4692-0.6685v-9.142z" fill="#373535"/>
<path d="m96.64 55.476c0-0.1693 0.0163-0.509 0.4684-0.6685v-0.4077h-2.3168v0.4077c0.4511 0.1595 0.4687 0.4992 0.4687 0.6685v3.6601h-5.2017v-3.6601c0-0.1693 0.0183-0.509 0.4684-0.6685v-0.4077h-2.3163v0.4077c0.452 0.1595 0.4685 0.4992 0.4685 0.6685v9.1413c0 0.1703-0.0165 0.5092-0.4685 0.6687v0.407h2.3163v-0.407c-0.4501-0.1595-0.4684-0.4984-0.4684-0.6687v-4.2744h5.2017v4.2744c0 0.1703-0.0176 0.5092-0.4687 0.6687v0.407h2.3168v-0.407c-0.4521-0.1595-0.4684-0.4984-0.4684-0.6687v-9.1413z" fill="#373535"/>
<path d="m108.2 48.412-3.999-5.4974 3.23-3.6434c0.398-0.4584 0.606-0.5487 1.03-0.6677v-0.407h-1.781l-4.507 5.251v-4.174c0-0.1695 0.016-0.5105 0.467-0.6687v-0.4083h-2.316v0.4083c0.451 0.1582 0.468 0.4992 0.468 0.6687v9.1421c0 0.1693-0.017 0.5089-0.468 0.6684v0.4068h2.316v-0.4068c-0.451-0.1595-0.467-0.4991-0.467-0.6684v-3.2108l1.103-1.2453 3.994 5.5302h2.037v-0.4088c-0.445-0.0916-0.752-0.2769-1.107-0.6689z" fill="#373535"/>
<path d="m107.06 64.615-4.001-5.4977 3.23-3.6431c0.398-0.4591 0.606-0.5497 1.03-0.6682v-0.4059h-1.78l-4.508 5.2496v-4.1734c0-0.1709 0.017-0.5105 0.468-0.6695v-0.4067h-2.3157v0.4067c0.4508 0.159 0.4673 0.4986 0.4673 0.6695v9.1413c0 0.1701-0.0165 0.5102-0.4673 0.6687v0.407h2.3157v-0.407c-0.451-0.1585-0.468-0.4986-0.468-0.6687v-3.2106l1.102-1.2455 3.997 5.5307h2.036v-0.4088c-0.445-0.0911-0.752-0.2779-1.106-0.6684z" fill="#373535"/>
<path d="m76.134 46.256c0 0.7125-0.2294 1.2328-0.6896 1.5611-0.4599 0.3309-1.1593 0.496-2.3663 0.496-0.406 0-0.9149 0.0047-1.5965-0.0467v-4.1546c0.672-0.039 1.2049-0.0609 1.5965-0.0609 1.1169 0 1.9064 0.1647 2.3663 0.4942 0.4602 0.3299 0.6896 0.8481 0.6896 1.5552v0.1557zm-3.0559-3.376c-0.4605 0-0.9955 0.0191-1.5965 0.0583l5e-4 -3.545h3.9213c0.1698 0 0.51 0.018 0.6689 0.4689h0.407v-1.6657h-6.8474v0.4083c0.4444 0.1634 0.4679 0.4682 0.4679 0.6615 0 0.1646 5e-4 8.9521 5e-4 9.149 0 0.1691-0.0168 0.509-0.4684 0.6685v0.4067h3.5202c2.8645 0 4.3639-1.1066 4.3639-3.2345v-0.1394c0-2.1594-1.4813-3.2366-4.4379-3.2366z" fill="#373535"/>
<path d="m176.99 62.458c0 0.7138-0.229 1.2331-0.69 1.5621-0.459 0.3306-1.158 0.4956-2.366 0.4956-0.406 0-0.914 0.0046-1.595-0.0468v-4.1538c0.672-0.0395 1.203-0.0619 1.595-0.0619 1.117 0 1.907 0.1651 2.366 0.4947 0.461 0.3296 0.69 0.8486 0.69 1.5549v0.1552zm-3.056-3.376c-0.459 0-0.994 0.0193-1.595 0.0578v-3.544h3.921c0.17 0 0.509 0.0188 0.67 0.4694h0.406v-1.6654h-6.848v0.4068c0.445 0.1644 0.469 0.4694 0.469 0.6619v9.1491c0 0.1688-0.018 0.5089-0.469 0.6682v0.4072h3.521c2.864 0 4.363-1.1061 4.363-3.235v-0.1392c0-2.1591-1.48-3.2368-4.438-3.2368z" fill="#373535"/>
<path d="m108.3 54.4v1.6654h0.407c0.159-0.4506 0.499-0.4695 0.669-0.4695h2.187s-1e-3 8.7754-1e-3 9.0216c0 0.1703-0.018 0.5092-0.468 0.6687v0.407h2.316v-0.407c-0.45-0.1595-0.469-0.4984-0.469-0.6687 0-0.1802 3e-3 -9.0216 3e-3 -9.0216h2.183c0.169 0 0.509 0.0189 0.669 0.4695h0.406v-1.6654h-7.902z" fill="#373535"/>
<path d="m143.08 54.4v1.6654h0.406c0.161-0.4506 0.501-0.4695 0.671-0.4695h2.186v9.0216c0 0.1703-0.018 0.5092-0.468 0.6687v0.407h2.317v-0.407c-0.453-0.1595-0.468-0.4984-0.468-0.6687 0-0.1802 2e-3 -9.0216 2e-3 -9.0216h2.181c0.169 0 0.51 0.0189 0.668 0.4695h0.408v-1.6654h-7.903z" fill="#373535"/>
<path d="m167.5 57.791c0 0.8107-0.223 1.3921-0.673 1.7343-0.449 0.342-1.18 0.5134-2.2 0.5134-0.084 0-0.576-0.0271-1.506-0.0669v-4.4424c0.52-0.0389 1.011-0.0609 1.506-0.0609 1.009 0 1.742 0.1657 2.194 0.502 0.452 0.3327 0.679 0.8731 0.679 1.6213v0.1992zm-2.873-3.4962c-0.416 0-0.96 0.0247-1.635 0.0464-0.856 0.0258-1.718 0.0586-1.718 0.0586v0.406c0.448 0.16 0.468 0.4994 0.468 0.6681 0 0.1846-3e-3 8.8975-3e-3 9.1437 0 0.1701-0.017 0.5089-0.469 0.6687v0.4067h2.317v-0.4067c-0.449-0.1598-0.467-0.4986-0.467-0.6687 0-0.192 1e-3 -3.5035 1e-3 -3.5035 0.653 0.0511 1.144 0.0831 1.506 0.0831 2.835 0 4.253-1.134 4.253-3.4062v-0.1992c0-2.1958-1.418-3.297-4.253-3.297z" fill="#373535"/>
<path d="m195.52 57.791c0 0.8107-0.221 1.3921-0.671 1.7343-0.449 0.342-1.18 0.5134-2.2 0.5134-0.084 0-0.576-0.0271-1.505-0.0669v-4.4424c0.519-0.0389 1.01-0.0609 1.505-0.0609 1.01 0 1.742 0.1657 2.193 0.502 0.452 0.3327 0.678 0.8731 0.678 1.6213v0.1992zm-2.871-3.4962c-0.416 0-0.962 0.0247-1.635 0.0464-0.857 0.0258-1.719 0.0586-1.719 0.0586v0.406c0.45 0.16 0.47 0.4994 0.47 0.6681 0 0.1846-4e-3 8.8975-4e-3 9.1437 0 0.1701-0.018 0.5089-0.468 0.6687v0.4067h2.315v-0.4067c-0.449-0.1598-0.468-0.4986-0.468-0.6687 0-0.192 4e-3 -3.5035 4e-3 -3.5035 0.652 0.0511 1.143 0.0831 1.505 0.0831 2.835 0 4.254-1.134 4.254-3.4062v-0.1992c0-2.1958-1.419-3.297-4.254-3.297z" fill="#373535"/>
<path d="m198.34 54.4v0.4067c0.451 0.159 0.467 0.5002 0.467 0.6695v9.1413c0 0.1703-0.016 0.5092-0.467 0.6687v0.407h2.317v-0.407c-0.451-0.1595-0.469-0.4984-0.469-0.6687 0-0.1631 1e-3 -9.0262 1e-3 -9.0262s3.297 0.0046 3.548 0.0046c0.171 0 0.51 0.0189 0.669 0.4695h0.408v-1.6654h-6.474z" fill="#373535"/>
</g>
<defs>
<linearGradient id="d" x1="49.645" x2="62.918" y1="46.678" y2="28.859" gradientUnits="userSpaceOnUse">
<stop stop-color="#DC3442" offset="0"/>
<stop stop-color="#DC3442" offset=".025996"/>
<stop stop-color="#F58336" offset="1"/>
</linearGradient>
<linearGradient id="c" x1="54.729" x2="62.258" y1="59.987" y2="60.183" gradientUnits="userSpaceOnUse">
<stop stop-color="#A43342" offset="0"/>
<stop stop-color="#A43342" offset=".025996"/>
<stop stop-color="#C43543" offset="1"/>
</linearGradient>
<linearGradient id="b" x1="50.675" x2="68.724" y1="58.621" y2="49.603" gradientUnits="userSpaceOnUse">
<stop stop-color="#DC3442" offset="0"/>
<stop stop-color="#DC3442" offset=".025996"/>
<stop stop-color="#F89736" offset="1"/>
</linearGradient>
<linearGradient id="a" x1="49.94" x2="38.696" y1="65.124" y2="65.572" gradientUnits="userSpaceOnUse">
<stop stop-color="#A43342" offset="0"/>
<stop stop-color="#A43342" offset=".025996"/>
<stop stop-color="#C43543" offset="1"/>
</linearGradient>
<clipPath id="e">
<rect x="43" y="35" width="161.82" height="30.97" fill="#fff"/>
</clipPath>
</defs>
</svg>
