<?xml version="1.0" encoding="UTF-8"?>
<svg viewBox="0 0 248 100" xmlns="http://www.w3.org/2000/svg">
<rect width="248" height="100" fill="#fff"/>
<path d="m41.066 50.27h30.171v-14.266h-30.171v14.266z" fill="#EE293D"/>
<path d="m41.066 63.977h30.173v-13.986h-30.173v13.986z" fill="#231F20"/>
<path d="m46.328 50.842h19.631v-1.7025h-19.631v1.7025z" fill="#fff"/>
<path d="m90.488 42.989c3.2832 0 5.3446 1.9895 5.3446 4.7387 0 2.8628-2.0614 4.5112-5.3446 4.5112h-6.5306v4.6796h-2.7824v-13.93h9.313zm0.1594 6.9474c1.4411 0 2.3437-0.9259 2.3437-2.1714 0-1.3736-0.9026-2.4709-2.5031-2.4709h-6.5306v4.6423h6.69z" fill="#231F20"/>
<path d="m106.15 57.308c-4.786 0-8.7513-2.9506-8.7513-7.3715 0-4.3634 3.9653-7.3727 8.7513-7.3727 4.807 0 8.71 3.0093 8.71 7.3727 0 4.4209-3.903 7.3715-8.71 7.3715zm0-12.366c-3.487 0-5.871 2.19-5.871 4.9943 0 2.8795 2.285 5.0125 5.871 5.0125 3.565 0 5.825-2.1509 5.825-5.0125 0-2.8043-2.26-4.9943-5.825-4.9943z" fill="#231F20"/>
<path d="m126.39 57.292c-5.028 0-8.813-2.9532-8.813-7.3719 0-4.3463 3.843-7.3556 8.813-7.3556 2.966 0 5.086 0.7821 6.991 2.0785l-1.487 2.046c-1.379-0.9872-3.121-1.7096-5.423-1.7096-3.668 0-5.95 2.1535-5.95 4.9407 0 2.8787 2.304 4.955 5.989 4.955 2.302 0 4.124-0.6868 5.506-1.6677l1.482 2.0417c-1.901 1.299-4.142 2.0429-7.108 2.0429z" fill="#231F20"/>
<path d="m157.56 53.539-1.721 3.3818h-3.006l7.309-13.931h2.922l7.333 13.931h-3.006l-1.72-3.3818h-8.111zm1.161-2.2645h5.791l-2.886-5.6466-2.905 5.6466z" fill="#231F20"/>
<path d="m185.13 56.919v-5.9593h-9.833v5.9593h-2.784v-13.93h2.784v5.6857h9.833v-5.6857h2.785v13.93h-2.785z" fill="#231F20"/>
<path d="m192.04 56.919v-13.93h2.788v6.5003l7.548-6.5003h3.419l-7.765 6.7072 8.087 7.2223h-3.741l-7.548-6.7598v6.7598h-2.788z" fill="#231F20"/>
<path d="m145.95 48.096h-6.523v-2.9368h10.746v-2.1817h-13.53v13.918h9.307c3.279 0 5.54-1.6537 5.54-4.3995 0-2.8571-2.261-4.4-5.54-4.4zm0.161 6.497h-6.684v-4.1927h6.684c1.744 0 2.736 0.8532 2.736 2.0957 0 1.3723-0.788 2.097-2.736 2.097z" fill="#231F20"/>
</svg>
