<?xml version="1.0" encoding="UTF-8"?>
<svg fill="none" viewBox="0 0 248 100" xmlns="http://www.w3.org/2000/svg">
<rect width="248" height="100" fill="#fff"/>
<path d="m72.153 28-2.0395 5.5867h28.263l2.0392-5.5867h-28.263zm-3.0599 8.3787-2.0395 5.5854h28.263l2.0395-5.5854h-28.263zm-3.0536 8.3788-2.0395 5.5854h28.263l2.0383-5.5854h-28.262z" clip-rule="evenodd" fill="#009FDF" fill-rule="evenodd"/>
<mask id="a" x="106" y="36" width="78" height="35" mask-type="alpha" maskUnits="userSpaceOnUse">
<path d="m106.4 70.708h77.368v-34.222h-77.368v34.222z" fill="#fff"/>
</mask>
<g mask="url(#a)">
<path d="m124.09 52.472v0.1179c1.292 0.4741 2.526 1.3031 3.172 1.8355 1.997 1.658 2.879 3.8484 2.879 6.6904 0 4.6787-2.468 8.053-6.521 9.1191-1.234 0.3549-2.526 0.4741-4.936 0.4741h-12.276v-34.223h10.868c2.232 0 3.759 0.1179 5.11 0.4728 3.937 1.066 6.521 3.7901 6.521 8.1113 0 2.3096-0.822 4.2643-2.173 5.5661-0.588 0.5919-1.41 1.3031-2.644 1.8354zm-10.868 3.6114v9h4.7c1.409 0 2.702-0.1179 3.643-1.0065 0.939-0.8886 1.35-2.0129 1.35-3.4935 0-1.1243-0.294-2.1904-0.881-2.9598-0.999-1.2435-2.233-1.5402-4.347-1.5402h-4.465zm-0.059-5.9209h3.819c1.174 0 1.762 0 2.349-0.1775 1.587-0.4741 2.586-1.8938 2.586-3.8484 0-2.3083-1.058-3.3161-2.586-3.7888-0.647-0.1775-1.292-0.2371-2.585-0.2371h-3.583v8.0518zm27.199 20.546v-28.48h-9.81v-5.7422h27.258l-1.938 5.7422h-8.696v28.48h-6.814zm19.563 0v-34.223h22.089l-1.939 5.7422h-13.394v7.579h5.463c4.406 0 6.698 1.066 8.284 2.4274 1.233 1.0661 3.348 3.4339 3.348 8.1127 0 4.6178-2.174 7.1631-3.995 8.4662-2.114 1.4793-4.346 1.8951-8.87 1.8951h-10.986zm6.756-5.7435h5.111c1.938 0 3.113-0.4741 3.936-1.5401 0.411-0.5324 0.998-1.4806 0.998-3.2565s-0.587-3.0194-1.762-3.908c-0.704-0.5324-1.645-0.8277-3.231-0.8277h-5.052v9.5323z" clip-rule="evenodd" fill="#0A2973" fill-rule="evenodd"/>
</g>
</svg>
