<?xml version="1.0" encoding="UTF-8"?>
<svg viewBox="0 0 248 100" xmlns="http://www.w3.org/2000/svg">
<rect width="248" height="100" fill="#fff"/>
<path d="m42.748 43.158c0-1.8213 0.8182-3.7481 2.138-5.0415l6.2821-6.3085v5.2791c0 1.7949-0.871 3.9857-2.1116 5.2263l-6.3085 6.3348v-5.4902zm8.4201 25.102-6.3349-6.3085c-1.2406-1.267-3.4314-2.1116-5.2263-2.1116h-5.279l6.3349 6.282c1.2933 1.2934 3.2202 2.1117 5.0415 2.1117h5.4638v0.0264zm-12.063-12.116 3.6426 3.6954v-8.4202c0-1.6365-0.8975-3.6425-2.0061-4.7511l-3.5897-3.6426v8.4201c-0.0264 1.5838 0.871 3.6162 1.9532 4.6984z" clip-rule="evenodd" fill="#F26522" fill-rule="evenodd"/>
<path d="m196.45 47.83h3.009v12.01h-3.009v-5.1734h-5.886v5.1734h-3.009v-12.01h3.009v4.4344h5.886v-4.4344zm-15.098 0h-7.575v2.4019h6.968c0.66 0 1.214 0.5279 1.214 1.1878v1.0822h-5.411c-1.979 0-3.59 1.6102-3.59 3.6162v0.132c0 1.9796 1.611 3.6161 3.59 3.6161h8.42v-8.4201c0-2.006-1.61-3.6161-3.616-3.6161zm0.607 9.6079h-4.804c-0.66 0-1.214-0.5279-1.214-1.2142v-0.132c0-0.6599 0.528-1.2142 1.214-1.2142h4.804v2.5604zm24.231-2.7715h-1.108v5.1734h-3.009v-12.01h3.009v4.4344h1.108l3.986-4.4344h3.378l-5.067 5.6486 5.411 6.3612h-3.775l-3.933-5.1734zm-39.83-5.807h-5.57v-3.4314h9.265v-2.402h-12.274v16.84h8.579c2.745 0 4.962-2.2172 4.962-4.9359v-1.0822c0-2.7715-2.217-4.9887-4.962-4.9887zm1.583 6.0445c0 1.399-1.135 2.534-2.534 2.534h-4.592v-6.1765h4.592c1.399 0 2.534 1.135 2.534 2.5339v1.1086zm-81.904-3.4842v4.804c0 0.6599 0.5279 1.2142 1.2142 1.2142h5.9389v2.4019h-6.546c-1.9797 0-3.6162-1.6101-3.6162-3.6161v-4.804c0-1.9796 1.6101-3.6161 3.6162-3.6161h6.546v2.4019h-5.9389c-0.6863 0.0264-1.2142 0.5543-1.2142 1.2142zm17.13-3.5897h-4.8037c-1.9797 0-3.6162 1.6101-3.6162 3.6161v4.804c0 1.9796 1.6101 3.6161 3.6162 3.6161h4.8037c2.006 0 3.616-1.6101 3.616-3.6161v-4.804c0-2.006-1.636-3.6161-3.616-3.6161zm0.607 8.3937c0 0.6599-0.554 1.2142-1.214 1.2142h-3.616c-0.6599 0-1.2142-0.5279-1.2142-1.2142v-4.804c0-0.6599 0.5279-1.1878 1.2142-1.1878h3.616c0.66 0 1.214 0.5279 1.214 1.1878v4.804zm-26.316-8.3937h-3.2994c-0.7919 0-1.5046 0.2639-2.1116 0.6862v-1.874c0-0.6599 0.5279-1.1878 1.2141-1.1878h6.3613v-2.402h-6.9684c-1.9796 0-3.6161 1.6101-3.6161 3.6162v9.6343c0 1.9796 1.6101 3.6161 3.6161 3.6161h4.804c1.9796 0 3.6162-1.6101 3.6162-3.6161v-4.804c-0.0264-2.0588-1.6366-3.6689-3.6162-3.6689zm0.6071 8.3937c0 0.6599-0.5543 1.2142-1.2142 1.2142h-3.6162c-0.6598 0-1.2141-0.5279-1.2141-1.2142v-4.804c0-0.6599 0.5279-1.1878 1.2141-1.1878h3.6162c0.6599 0 1.2142 0.5279 1.2142 1.1878v4.804zm64.088-8.3937h10.611v2.4019h-3.801v9.6079h-3.009v-9.6079h-3.801v-2.4019zm-84.175-4.8304-6.8099 16.84h3.7217l1.2934-3.6161h7.3115l1.3197 3.6161h3.5898l-6.81-16.84h-3.6162zm-0.9502 10.822 2.7451-7.7074 2.8243 7.7074h-5.5694zm56.117-5.9917h7.654v12.01h-3.009v-9.6079h-4.065c-0.66 0-1.214 0.5279-1.214 1.1878v4.804c0 1.9796-1.61 3.6161-3.616 3.6161h-0.977v-2.4019h0.37c0.66 0 1.188-0.5279 1.188-1.2142v-4.804c0.053-1.9796 1.663-3.5897 3.669-3.5897zm24.31-0.0264h-4.593c-1.98 0-3.616 1.6101-3.616 3.6161v0.8447h-2.534v-4.4344h-3.009v12.01h3.009v-5.1734h2.534v1.5573c0 1.9796 1.61 3.6161 3.616 3.6161h4.593c1.979 0 3.616-1.6101 3.616-3.6161v-4.804c0-1.9796-1.637-3.6161-3.616-3.6161zm0.607 8.4201c0 0.6599-0.528 1.2142-1.214 1.2142h-3.485c-0.659 0-1.214-0.5279-1.214-1.2142v-4.804c0-0.6599 0.555-1.1878 1.214-1.1878h3.485c0.66 0 1.214 0.5279 1.214 1.1878v4.804z" clip-rule="evenodd" fill="#636466" fill-rule="evenodd"/>
</svg>
