<?xml version="1.0" encoding="UTF-8"?>
<svg fill="none" viewBox="0 0 248 100" xmlns="http://www.w3.org/2000/svg">
<rect x=".00073242" y="-.00073242" width="248" height="100" fill="#fff"/>
<g clip-path="url(#a)">
<path d="m47.001 33.272c0-0.6459 0.5245-1.1736 1.1658-1.1736h34.678c0.6415 0 1.166 0.5277 1.166 1.1736v34.385c0 0.6449-0.5245 1.1729-1.166 1.1729h-34.678c-0.6413 0-1.1658-0.528-1.1658-1.1729v-34.385z" clip-rule="evenodd" fill="#13366D" fill-rule="evenodd"/>
<path d="m62.843 39.258c0.1199 0 0.1758-0.0877 0.1241-0.1951l-0.2655-0.553c-0.0514-0.1075-0.1912-0.1952-0.3111-0.1952h-9.7877c-0.1197 0-0.1757 0.0877-0.124 0.1952l0.2654 0.553c0.0517 0.1074 0.1918 0.1951 0.3113 0.1951h9.7875z" fill="#fff"/>
<path d="m63.602 40.386c-0.0511-0.1069-0.1911-0.195-0.3111-0.195h-9.7876c-0.1195 0-0.1756 0.0881-0.1238 0.195l0.2653 0.5535c0.0515 0.107 0.1915 0.1948 0.3112 0.1948h9.7876c0.1199 0 0.1756-0.0878 0.1243-0.1948l-0.2659-0.5535z" fill="#fff"/>
<path d="m64.507 42.272c-0.0519-0.1073-0.1918-0.1949-0.3114-0.1949h-9.7876c-0.1198 0-0.1753 0.0876-0.1242 0.1949l0.2657 0.5534c0.0513 0.1073 0.1911 0.1951 0.311 0.1951h9.7879c0.1195 0 0.1755-0.0878 0.1237-0.1951l-0.2651-0.5534z" fill="#fff"/>
<path d="m65.412 44.158c-0.0512-0.1072-0.1912-0.1948-0.3111-0.1948h-9.7879c-0.1194 0-0.1753 0.0876-0.1242 0.1948l0.2663 0.5537c0.0513 0.1074 0.1913 0.1949 0.3107 0.1949h9.7878c0.1198 0 0.1759-0.0875 0.1241-0.1949l-0.2657-0.5537z" fill="#fff"/>
<path d="m66.317 46.045c-0.0513-0.1073-0.1916-0.1951-0.3111-0.1951h-9.7879c-0.1193 0-0.1753 0.0878-0.1242 0.1951l0.266 0.5532c0.0513 0.1076 0.191 0.1952 0.311 0.1952h9.7878c0.1193 0 0.1753-0.0876 0.1242-0.1952l-0.2658-0.5532z" fill="#fff"/>
<path d="m67.222 47.932c-0.0518-0.1074-0.1914-0.195-0.3112-0.195h-9.7878c-0.1196 0-0.1752 0.0876-0.1241 0.195l0.2658 0.5533c0.0518 0.1075 0.1915 0.195 0.311 0.195h9.788c0.1199 0 0.1752-0.0875 0.1239-0.195l-0.2656-0.5533z" fill="#fff"/>
<path d="m68.127 49.817c-0.0512-0.1068-0.1915-0.1949-0.3111-0.1949h-9.7877c-0.1198 0-0.1755 0.0881-0.1242 0.1949l0.2656 0.554c0.0517 0.1072 0.1918 0.1948 0.3111 0.1948h9.7878c0.12 0 0.1756-0.0876 0.1244-0.1948l-0.2659-0.554z" fill="#fff"/>
<path d="m78.054 50.566c1.311 0 2.3752-1.0567 2.3752-2.3586 0-1.3015-1.0642-2.3577-2.3752-2.3577-1.3131 0-2.3758 1.0562-2.3758 2.3577 0 1.3019 1.0627 2.3586 2.3758 2.3586z" clip-rule="evenodd" fill="#ED1834" fill-rule="evenodd"/>
<path d="m65.327 37.37c0.1194 0 0.2172-0.0972 0.2172-0.2159v-0.5113c0-0.1187-0.0978-0.2159-0.2172-0.2159h-15.186c-0.1197 0-0.2175 0.0972-0.2175 0.2159v0.5113c0 0.1187 0.0978 0.2159 0.2175 0.2159h15.186z" fill="#fff"/>
<path d="m58.845 51.508c-0.1193 0-0.1747 0.0873-0.123 0.1945l6.1851 12.718c0.0523 0.1073 0.1774 0.1076 0.2292 0l5.6501-11.773c0.0513-0.1074 0.1912-0.195 0.3111-0.195h9.1151c0.1196 0 0.2174-0.0971 0.2174-0.2159v-0.5127c0-0.1188-0.0978-0.2159-0.2174-0.2159h-21.368z" fill="#fff"/>
<path d="m80.212 36.426-7.829 3e-4c-0.1199 0-0.2176 0.0974-0.2176 0.2161v0.5113c0 0.1188 0.0977 0.2162 0.2176 0.2162h1.1606c0.2886 0.0172 1.9555 0.0253 1.3203 1.9573l-5.2037 11.043c-0.0508 0.1078 0.0058 0.196 0.1257 0.196h1.7795c0.1194 0 0.2599-0.0879 0.311-0.1951l5.6194-11.662c0.2572-0.5254 0.5665-0.8818 0.9265-1.0646 0.3605-0.1822 0.8308-0.2765 1.443-0.2765h0.3467c0.1199 3e-4 0.2175-0.0968 0.2175-0.2158v-0.511c0-0.1187-0.0976-0.2159-0.2175-0.2159z" fill="#fff"/>
<path d="m118.62 43.848h-1.547c-0.07 0.0054-0.127 0.0613-0.132 0.1317v3.4309h-4.536v-3.433c-7e-3 -0.0693-0.063-0.1242-0.132-0.1296h-1.547c-0.072 0.0054-0.129 0.0625-0.133 0.1344v8.3353c4e-3 0.073 0.063 0.1308 0.137 0.1347h1.538c0.072-0.0034 0.13-0.0595 0.137-0.1302v-3.5183h4.536v3.5166c5e-3 0.0718 0.064 0.1285 0.136 0.1319h1.539c0.074-0.0039 0.133-0.0625 0.136-0.1361v-8.3327c-3e-3 -0.0719-0.06-0.1302-0.132-0.1356z" fill="#13366D"/>
<path d="m96.517 50.834c-0.238 0.2257-0.5444 0.2257-0.841 0.2257l-2.7497 2e-4c-0.1801 6e-4 -0.4524 0.0012-0.5546-0.133-0.013-0.0193-0.0518-0.0741-0.0518-0.4369l-3e-4 -1.6864h3.3561c0.2986 0 0.6088 0.0165 0.8294 0.2147 0.2413 0.2178 0.2618 0.5401 0.2618 0.8774v0.0319c6e-4 0.2547 0.0015 0.6686-0.2499 0.9064zm1.6383-2.7705c-0.3635-0.4396-0.8981-0.6529-1.6348-0.6529h-4.2009v-1.7088c0-0.1005 0-0.2872 0.1068-0.3782 0.0988-0.0728 0.2839-0.0825 0.4336-0.0825h4.3048c0.0753-0.0036 0.1359-0.0643 0.1379-0.1403v-1.1124c-2e-3 -0.0765-0.0634-0.1381-0.1408-0.1405h-5.3766c-0.4967 0-0.7915 0.1807-0.9508 0.3315-0.2925 0.2902-0.3266 0.6896-0.3266 0.9652v6.1202c0 0.2513 0.0295 0.5726 0.2589 0.828 0.2186 0.239 0.5351 0.3599 0.9415 0.3599h4.8377c0.9076 0 1.3799-0.3616 1.5806-0.5771 0.3336-0.3632 0.5024-1.0174 0.5024-1.9439 0-0.8699-0.1549-1.4733-0.4737-1.8682z" fill="#13366D"/>
<path d="m102.73 48.804 1.396-3.367s0.106-0.293 0.24-0.293c0.139 0 0.242 0.2935 0.242 0.2935l1.394 3.3665h-3.272zm6.478 3.4539-4e-3 -0.0104-3.216-7.5023c-0.341-0.7337-0.79-0.9942-1.622-0.9942-0.853 0-1.27 0.2418-1.62 0.9938l-3.2171 7.4997-0.0075 0.0159c-0.0061 0.0155-0.0098 0.0318-0.0098 0.0489 0 0.0772 0.0634 0.1395 0.1433 0.1437h1.4651c0.056-0.0028 0.104-0.0348 0.127-0.0805 3e-3 -0.0049 5e-3 -0.0096 7e-3 -0.015l0.898-2.1611h4.427l0.899 2.1651c2e-3 0.0026 3e-3 0.0053 5e-3 0.0084 0.022 0.0472 0.071 0.0803 0.128 0.0831h1.465c0.079-0.0042 0.143-0.0665 0.143-0.1437 0-0.018-4e-3 -0.0351-0.011-0.0514z" fill="#13366D"/>
<path d="m128.79 52.213-4.079-3.4425c-0.193-0.1649-0.554-0.4724-0.554-0.7292 0-0.1749 0.218-0.3963 0.454-0.61l3.718-3.3465c0.022-0.0254 0.036-0.0579 0.036-0.0943 0-0.0758-0.058-0.1368-0.133-0.1428h-1.862c-0.029 0.0024-0.055 0.0127-0.078 0.0295l-3.507 3.1623c-0.15 0.1425-0.257 0.2818-0.333 0.4114v-3.4731c-6e-3 -0.0694-0.061-0.1244-0.132-0.1301h-1.546c-0.072 6e-3 -0.128 0.0631-0.133 0.1349v8.3351c5e-3 0.0719 0.061 0.1286 0.133 0.1348h1.546c0.071-6e-3 0.126-0.0607 0.132-0.1301v-3.6917c0.096 0.1669 0.241 0.3527 0.462 0.5464l3.802 3.2478c0.022 0.016 0.049 0.0259 0.077 0.0278h1.899c0.076-0.0048 0.136-0.0668 0.136-0.1434 0-0.0371-0.014-0.0705-0.038-0.0963z" fill="#13366D"/>
<path d="m191.31 33.686c0-0.1791 0-0.597-0.188-0.9511-0.225-0.4225-0.642-0.6369-1.243-0.6369-0.678 0-1.083 0.255-1.548 0.9732l-3.615 5.5708c-0.049 0.0785-0.101 0.1701-0.151 0.1701-0.031 0-0.045-0.0094-0.052-0.0169-0.041-0.0408-0.041-0.1633-0.041-0.2711l4e-3 -6.2959c-6e-3 -0.0693-0.062-0.1242-0.132-0.1302h-1.547c-0.072 6e-3 -0.129 0.0632-0.133 0.1348v6.9547c0 0.4533 0 1.5148 1.379 1.5148 0.937 0 1.219-0.4358 1.468-0.821 4e-3 -0.0066 3.705-5.6437 3.705-5.6437 0.073-0.1162 0.166-0.2607 0.217-0.2607 0.031 0 0.067 0.0247 0.067 0.2178l-3e-3 6.3729c5e-3 0.0718 0.062 0.129 0.134 0.1347h1.547c0.07-0.0057 0.125-0.0603 0.131-0.1299l1e-3 -6.8864z" fill="#13366D"/>
<path d="m96.512 39.027c-0.2482 0.2822-0.7148 0.2822-0.9392 0.2822l-2.6901 3e-4c-0.1277 6e-4 -0.3652 2e-3 -0.4787-0.1147-0.0559-0.0641-0.0851-0.2175-0.0851-0.4549v-1.6863h3.3689c0.5293 0 0.7662 0.2052 0.8601 0.3273 0.1173 0.1621 0.1795 0.4487 0.1795 0.8255 0 0.2624-0.0371 0.6182-0.2154 0.8206zm-4.1931-3.3663v-1.7575c0-0.1498 0.0344-0.2656 0.099-0.3343 0.0745-0.0796 0.1793-0.0788 0.3003-0.0776h2.8033c0.2778 0 0.565 0 0.7912 0.2023 0.243 0.2196 0.274 0.578 0.274 0.8646 0 0.5392-0.1109 0.745-0.177 0.8206-0.2149 0.2819-0.5508 0.2819-0.8757 0.2819h-3.2151zm5.8319 1.0977c-0.2024-0.2139-0.4903-0.3616-0.8083-0.4294 0.2563-0.0595 0.466-0.1909 0.6693-0.422 0.4043-0.4567 0.4373-0.9326 0.4373-1.4212 0-0.5568-0.0603-1.3549-0.5815-1.8614-0.4796-0.4662-1.1434-0.526-1.6681-0.526h-4.4022c-0.4402 0-0.7738 0.1251-0.9933 0.3717-0.1856 0.2112-0.2968 0.5524-0.2968 0.9125v6.0597c0 0.4797 0.203 0.7708 0.3237 0.9014 0.3403 0.3685 0.7266 0.3588 1.1269 0.3588l4.4209 1e-4c0.5668 0 1.1529 0 1.6829-0.5646 0.5285-0.5626 0.5285-1.261 0.5285-1.8227 0-0.4656 0-1.1028-0.4393-1.5569z" fill="#13366D"/>
<path d="m102.3 34.088c0.591-0.6936 1.538-0.6936 2.231-0.6936 0.843 0 1.711 0.0535 2.244 0.6933 0.375 0.4466 0.549 1.1819 0.549 2.3123 0 1.104-0.179 1.8564-0.549 2.3005-0.578 0.7056-1.581 0.7056-2.244 0.7056-1.073 0-1.747-0.1127-2.231-0.705v-6e-4c-0.389-0.4697-0.562-1.179-0.562-2.3005 0-1.1543 0.168-1.8458 0.562-2.312zm5.856-1.1736v-2e-4c-0.99-0.9132-2.568-0.9132-3.612-0.9132-1.096 0-2.596 0-3.612 0.9126-0.9747 0.8746-1.0564 2.2582-1.0564 3.4864 0 0.9439 0 2.5232 1.0564 3.4867 1.003 0.9126 2.573 0.9126 3.612 0.9126 1.049 0 2.635 0 3.612-0.9132 1.031-0.9629 1.031-2.7311 1.031-3.4861 0-1.175-0.117-2.6331-1.031-3.4856z" fill="#13366D"/>
<path d="m131.59 34.088c0.59-0.6936 1.539-0.6936 2.231-0.6936 0.843 0 1.71 0.0535 2.243 0.6933 0.375 0.4466 0.55 1.1819 0.55 2.3123 0 1.104-0.18 1.8564-0.55 2.3005-0.577 0.7056-1.58 0.7056-2.243 0.7056-1.074 0-1.747-0.1127-2.231-0.705v-6e-4c-0.389-0.4694-0.562-1.179-0.562-2.3005 0-1.1543 0.167-1.8458 0.562-2.312zm5.856-1.1736v-2e-4c-0.99-0.9132-2.568-0.9132-3.613-0.9132-1.095 0-2.595 0-3.611 0.9126-0.975 0.8746-1.057 2.2582-1.057 3.4864 0 0.9439 0 2.5232 1.057 3.4867 1.002 0.9126 2.572 0.9126 3.611 0.9126 1.05 0 2.635 0 3.613-0.9132 1.03-0.9626 1.03-2.7311 1.03-3.4861 0-1.175-0.117-2.6331-1.03-3.4856z" fill="#13366D"/>
<path d="m170.9 39.309h-4.708c-0.229 0-0.443-0.0069-0.533-0.0923-0.065-0.0514-0.109-0.1693-0.109-0.2831v-1.8809h4.342c0.076-0.0037 0.136-0.0643 0.138-0.1402v-1.112c-2e-3 -0.0765-0.063-0.1383-0.141-0.1406h-4.339v-1.6966c0-0.1176 0-0.2633 0.119-0.3665 0.11-0.0934 0.267-0.1063 0.421-0.1063l4.761 3e-4c0.076-0.0038 0.136-0.0644 0.138-0.1403v-1.1126c-2e-3 -0.0767-0.064-0.1383-0.141-0.1406l-5.667 3e-4c-0.406 0-0.823 0.0417-1.119 0.3455-0.2 0.2153-0.324 0.5697-0.324 0.9267v6.0111c0 0.3733 0.043 0.7575 0.353 1.0386 0.312 0.2824 0.678 0.2824 1.065 0.2824l5.746 3e-4c0.076-0.0038 0.136-0.0649 0.138-0.1403v-1.1126c-2e-3 -0.0768-0.063-0.138-0.14-0.1403z" fill="#13366D"/>
<path d="m200.15 39.309h-4.707c-0.23 0-0.444-0.0069-0.534-0.0923-0.065-0.0514-0.109-0.1693-0.109-0.2831v-1.8809h4.343c0.075-0.0037 0.135-0.0643 0.137-0.1402v-1.112c-2e-3 -0.0765-0.063-0.1383-0.14-0.1406h-4.34v-1.6966c0-0.1176 0-0.2633 0.12-0.3665 0.109-0.0934 0.267-0.1063 0.42-0.1063l4.761 3e-4c0.076-0.0038 0.136-0.0644 0.138-0.1403v-1.1126c-2e-3 -0.0767-0.063-0.1383-0.14-0.1406l-5.667 3e-4c-0.407 0-0.824 0.0417-1.119 0.3455-0.201 0.2153-0.324 0.5697-0.324 0.9267v6.0111c0 0.3733 0.042 0.7575 0.352 1.0386 0.312 0.2824 0.678 0.2824 1.065 0.2824l5.746 3e-4c0.076-0.0038 0.137-0.0649 0.138-0.1403v-1.1126c-1e-3 -0.0768-0.063-0.138-0.14-0.1403z" fill="#13366D"/>
<path d="m180.78 32.098h-1.547c-0.07 0.0054-0.127 0.0612-0.132 0.1316v3.4307h-4.536v-3.4327c-7e-3 -0.0693-0.063-0.1242-0.132-0.1296h-1.548c-0.071 0.0054-0.128 0.0624-0.132 0.1342v8.3346c4e-3 0.073 0.063 0.131 0.137 0.1349h1.538c0.072-0.0036 0.13-0.0595 0.137-0.1302v-3.5184h4.536v3.5166c5e-3 0.0717 0.063 0.1284 0.136 0.132h1.538c0.075-0.0039 0.134-0.0625 0.137-0.1362v-8.3319c-3e-3 -0.0721-0.06-0.1302-0.132-0.1356z" fill="#13366D"/>
<path d="m125.66 36.008c-0.277 0.2958-0.69 0.2958-1.056 0.2958h-3.152v-2.3646c0-0.1423 0-0.265 0.097-0.3564 0.099-0.0943 0.22-0.0934 0.325-0.0923h2.756c0.232 0 0.717 0 1.006 0.2736 0.27 0.2673 0.302 0.7683 0.302 1.1207 0 0.2032 0 0.822-0.278 1.1232zm1.442-3.3858c-0.567-0.5251-1.351-0.5251-1.82-0.5251h-4.262c-0.464 0-0.808 0.1124-1.053 0.3441-0.325 0.3084-0.325 0.6699-0.325 0.9887v5.0698h-1e-3v2.067c4e-3 0.0718 0.061 0.129 0.133 0.1347h1.547c0.069-0.0054 0.125-0.0603 0.132-0.1299v-1.5329h-1e-3v-1.342h4.137c0.533 0 1.06-0.1589 1.407-0.4251 0.541-0.4193 0.804-1.1959 0.804-2.3746 0-0.764-0.079-1.7133-0.698-2.2747z" fill="#13366D"/>
<path d="m151.52 40.464-3.511-3.4411c-0.207-0.1966-0.454-0.4868-0.454-0.7559 0-0.2288 0.178-0.4104 0.354-0.5889l3.169-3.351c0.019-0.0242 0.03-0.0541 0.03-0.0868 0-0.0736-0.057-0.134-0.129-0.142h-1.852c-0.031 0.0029-0.058 0.0158-0.08 0.0348-7e-3 8e-3 -2.803 3.1366-2.803 3.1369-0.126 0.1451-0.226 0.2842-0.302 0.4187v-3.4608c-6e-3 -0.0693-0.062-0.1242-0.132-0.1299h-1.547c-0.072 0.0057-0.128 0.0632-0.133 0.1345v3.4568c-0.075-0.1348-0.175-0.2739-0.302-0.4193 0-3e-4 -2.795-3.1289-2.803-3.1369-0.022-0.019-0.049-0.0319-0.079-0.0348h-1.853c-0.072 8e-3 -0.129 0.0684-0.129 0.142 0 0.0327 0.012 0.0626 0.03 0.0868l3.169 3.351c0.176 0.1785 0.355 0.3601 0.355 0.5889 0 0.2691-0.247 0.5593-0.455 0.7559l-3.511 3.4411c-0.023 0.0257-0.037 0.0586-0.037 0.0948 0 0.0764 0.06 0.138 0.135 0.1432h1.932c0.033-0.0024 0.062-0.0145 0.085-0.0345l0.022-0.0237 3.009-3.1961c0.205-0.2161 0.341-0.4107 0.432-0.5794v3.699c5e-3 0.0718 0.061 0.129 0.133 0.1347h1.547c0.07-0.0057 0.126-0.0603 0.132-0.1299v-3.7032c0.091 0.1687 0.228 0.363 0.432 0.5788l3.009 3.1961 0.023 0.0237c0.023 0.02 0.051 0.0321 0.084 0.0345h1.932c0.075-0.0052 0.135-0.0668 0.135-0.1432 0-0.0362-0.014-0.0691-0.037-0.0948z" fill="#13366D"/>
<path d="m157.24 33.686s0.104-0.2923 0.235-0.2923c0.137 0 0.238 0.2929 0.238 0.2929l2.285 5.6228h-5.046l2.288-5.6234zm5.185 5.6234h-0.705l-2.654-6.3155c-0.335-0.7335-0.775-0.9933-1.591-0.9933-0.836 0-1.244 0.2411-1.587 0.9933l-2.656 6.3152-0.705 3e-4c-0.078 0.0023-0.142 0.0646-0.143 0.1405v1.1117c1e-3 0.0758 0.063 0.1365 0.14 0.1401h9.904c0.077-0.0036 0.138-0.0643 0.14-0.1401v-1.112c-2e-3 -0.0761-0.065-0.1379-0.143-0.1402z" fill="#13366D"/>
<path d="m117.51 36.758c-0.202-0.2138-0.49-0.3615-0.808-0.4294 0.256-0.0595 0.466-0.1908 0.669-0.4219 0.404-0.4567 0.437-0.9327 0.437-1.4213 0-0.5567-0.059-1.3549-0.581-1.8613-0.48-0.4662-1.143-0.526-1.668-0.526h-4.899c-0.077 0.0023-0.138 0.0641-0.141 0.1402v1.1124c3e-3 0.0753 0.063 0.1362 0.138 0.1402h4.224c0.278 0 0.565 0 0.791 0.2024 0.243 0.2196 0.274 0.578 0.274 0.8645 0 0.5392-0.111 0.745-0.177 0.8203-0.215 0.2823-0.551 0.2823-0.876 0.2823h-3.274c-0.077 0.0026-0.138 0.0641-0.14 0.1408v1.1117c2e-3 0.0759 0.062 0.1366 0.138 0.1406l3.43 3e-4c0.53 0 0.766 0.2049 0.86 0.3271 0.118 0.1624 0.18 0.4481 0.18 0.8246 0 0.2627-0.037 0.6191-0.216 0.8214-0.248 0.2823-0.714 0.2823-0.939 0.2823l-4.323 3e-4c-0.077 2e-3 -0.139 0.0638-0.14 0.1396v1.1126c1e-3 0.0758 0.062 0.1365 0.137 0.1401h5.132c0.567 0 1.153 0 1.683-0.5645 0.529-0.5628 0.529-1.2607 0.529-1.8223 0-0.4656 0-1.1028-0.44-1.557z" fill="#13366D"/>
</g>
<defs>
<clipPath id="a">
<rect x="47.001" y="31.999" width="153.29" height="36.83" fill="#fff"/>
</clipPath>
</defs>
</svg>
