<?xml version="1.0" encoding="UTF-8"?>
<svg fill="none" viewBox="0 0 248 100" xmlns="http://www.w3.org/2000/svg">
<rect width="248" height="100" fill="#fff"/>
<g clip-path="url(#a)" fill="#000">
<path d="m73.532 30.154c-4.5419 0.8342-10.402 4.0269-16.118 8.8056-1.3389 1.1123-4.6861 4.2226-4.6861 4.3462 0 0.0412 0.3811 0.0824 0.8549 0.0824l0.8445-0.0103 1.0299-0.9372c7.8993-7.1887 16.314-11.051 20.608-9.4442 1.0196 0.3811 1.8024 1.102 2.307 2.101 1.205 2.3894 0.5871 6.2618-1.7096 10.732-3.2854 6.3957-10.896 14.82-17.24 19.094-0.618 0.4223-1.1226 0.793-1.1329 0.8342 0 0.0515 0.8651 0.0824 1.9156 0.0824h1.9259l1.1947-0.9578c10.927-8.7953 19.228-21.638 18.826-29.167-0.0412-0.6282-0.1338-1.3903-0.2162-1.6993-0.5459-1.9774-1.9053-3.2957-3.9342-3.8106-0.9579-0.2472-3.2442-0.2678-4.4698-0.0515z"/>
<path d="m69.875 34.49c-2.2555 0.484-5.3452 1.9053-8.1053 3.7385-1.8023 1.1947-4.2637 3.1206-5.5923 4.3771l-0.8239 0.7724 0.9681 0.0103h0.9578l0.793-0.6489c3.6252-2.997 7.1372-4.9229 10.227-5.5923 1.102-0.2369 2.5644-0.2369 3.3059 0 0.7725 0.2472 1.514 0.9166 1.8847 1.6787 0.2369 0.4738 0.2884 0.7416 0.3296 1.6479 0.0309 0.6488 0 1.3903-0.0824 1.8229-0.4325 2.482-2.0289 5.7159-4.274 8.6614-3.9446 5.1907-8.9499 9.5575-13.584 11.854-3.893 1.9362-6.5707 2.1834-8.1362 0.7519-0.8033-0.7313-1.0196-1.2874-1.0711-2.7499-0.0412-1.2152 0.1442-2.3481 0.6077-3.7076 0.1133-0.3193 0.1751-0.587 0.1442-0.6179-0.0515-0.0618-9.4236 9.1455-9.4236 9.269 0 0.0412 3.9239 0.0824 8.7335 0.0824h8.7233l1.1328-0.6282c7.0548-3.893 14.388-11.422 18.085-18.579 3.306-6.3854 2.9249-11.133-0.9887-12.153-0.7827-0.1957-2.8322-0.1957-3.8106 0.0103z"/>
<path d="m50.688 45.273c-0.3501 0.3502-0.6385 0.6797-0.6385 0.7209s1.9774 0.0721 4.3977 0.0721h4.4079l1.6685 1.6684 1.6787 1.6788 0.5149-0.515 0.515-0.5149-3.7591-3.7591h-8.1465l-0.6386 0.6488z"/>
<path d="m48.628 47.333c-0.3501 0.3502-0.6385 0.6797-0.6385 0.7209s2.2555 0.0721 5.0156 0.0721h5.0259l1.6993 1.6993-0.6179 0.618-0.618 0.6282 0.515 0.5047 0.5149 0.5149 2.3173-2.3173-1.5448-1.5448-1.5449-1.5448h-9.4853l-0.6386 0.6488z"/>
<path d="m51.44 52.349-3.6047 3.6047h2.0598l7.2093-7.2093h-2.0598l-3.6046 3.6046z"/>
<path d="m54.272 52.4-3.5532 3.5532h2.0598l6.1794-6.1794-0.4634-0.4635c-0.2472-0.2575-0.5047-0.4634-0.5665-0.4634-0.0515 0-1.6993 1.5963-3.6561 3.5531z"/>
<path d="m61.739 50.701-1.8538 1.8538h-2.894l-0.6592 0.6694-0.6591 0.6695h4.9332l1.9877-1.9878c1.0814-1.0917 1.9774-2.0186 1.9774-2.0804 0-0.1029-0.8239-0.9784-0.9269-0.9784-0.0309 0-0.8857 0.8343-1.9053 1.8539z"/>
<path d="m62.872 52.349-2.1628 2.1628h-5.6747l-0.7106 0.7209-0.7106 0.721h7.7139l2.3687-2.3688 2.3688-2.3688-1.0299-1.0299-2.1628 2.1628z"/>
<path d="m151.94 51.164c-1.082 0.2369-2.328 0.9681-2.946 1.7508-0.329 0.412-0.793 1.2565-0.793 1.4419 0 0.1133 2.348 1.1432 2.42 1.0608 0.011-0.0206 0.124-0.2163 0.237-0.4429 0.731-1.4418 2.874-1.9259 4.161-0.9475 0.639 0.4841 0.917 1.1123 0.978 2.1731l0.062 0.8857h-4.459v2.2658h4.449l-0.041 0.9475c-0.072 1.6169-0.69 2.5645-1.875 2.9146-1.39 0.412-2.657-0.0927-3.337-1.3491l-0.278-0.5253-1.174 0.4944c-0.638 0.278-1.194 0.5252-1.225 0.5458-0.031 0.0309 0.103 0.3708 0.288 0.7518 0.917 1.8538 2.863 2.8322 5.304 2.6778 2.472-0.1648 4.12-1.4831 4.758-3.7901 0.278-0.9784 0.268-6.3132 0-7.3019-0.422-1.5346-1.112-2.4821-2.235-3.0794-1.112-0.5974-2.853-0.7827-4.294-0.4738z"/>
<path d="m84.551 58.425v7.3123h2.6777v-12.153h6.0764v-2.4717h-8.7541v7.3122z"/>
<path d="m193.84 55.243c-1.751 0.2266-3.131 1.4315-3.584 3.1206-0.371 1.3388-0.278 3.8518 0.185 5.0774 0.577 1.5448 1.978 2.3996 3.945 2.3996 1.514 0 2.677-0.4531 3.522-1.3697 0.886-0.9784 1.236-2.3791 1.133-4.6449-0.062-1.4212-0.299-2.3584-0.793-3.0279-0.855-1.1844-2.596-1.8023-4.408-1.5551zm1.339 2.2555c0.473 0.1338 1.06 0.7827 1.236 1.3594 0.195 0.6901 0.175 2.6984-0.052 3.3369-0.196 0.5664-0.669 1.0917-1.133 1.2668-0.484 0.1853-1.215 0.1339-1.668-0.1236-0.309-0.1648-0.495-0.3811-0.721-0.8445-0.289-0.5871-0.309-0.6901-0.309-1.8539 0-1.4418 0.175-2.1009 0.7-2.6056 0.598-0.5767 1.195-0.7415 1.947-0.5355z"/>
<path d="m96.941 55.418c-0.2884 0.103-0.69 0.3193-0.896 0.4737l-0.3708 0.2781v-0.8342h-2.4717v14.522h2.4717v-4.8611l0.309 0.2575c0.5252 0.4429 1.2462 0.6179 2.307 0.5664 1.1225-0.0618 1.7509-0.3295 2.3999-1.0402 0.947-1.0196 1.205-1.9671 1.205-4.2946 0-1.8332-0.114-2.5336-0.598-3.4811-0.288-0.5767-1.05-1.3079-1.5857-1.5345-0.5973-0.2575-2.1216-0.2884-2.7704-0.0515zm1.5654 2.379c0.1648 0.0927 0.4223 0.4017 0.5665 0.6798 0.2369 0.484 0.2574 0.5973 0.2574 2.0598 0 1.4006-0.0205 1.586-0.2265 1.9671-0.5974 1.1123-1.792 1.4006-2.6571 0.6488-0.5665-0.5046-0.721-1.0608-0.721-2.6159 0-1.1741 0.0309-1.4007 0.2472-1.8744 0.2781-0.6283 0.4738-0.824 1.0093-1.0196 0.4531-0.1648 1.0711-0.103 1.5242 0.1544z"/>
<path d="m136.8 55.387c-0.721 0.1545-1.751 0.6695-2.091 1.0299l-0.226 0.2472 0.628 0.7724c0.35 0.4326 0.669 0.7828 0.71 0.7828 0.042 0 0.248-0.1133 0.454-0.2575 0.535-0.3605 1.544-0.6076 2.265-0.5356 1.174 0.103 1.731 0.6283 1.731 1.6376v0.4737l-1.978 0.0412c-1.936 0.0309-2.008 0.0412-2.575 0.3193-1.215 0.5973-1.802 1.6684-1.709 3.1103 0.113 1.7302 1.205 2.6983 3.172 2.8116 1.256 0.0721 2.266-0.1854 2.863-0.7312l0.227-0.206v0.8548h2.471v-3.6973c0-2.0701-0.041-3.9342-0.103-4.2432-0.206-1.102-1.009-1.9465-2.193-2.3173-0.742-0.2265-2.822-0.2883-3.646-0.0927zm3.45 6.6429c-0.072 0.9681-0.536 1.4624-1.555 1.6581-1.267 0.2266-2.338-0.2884-2.338-1.1226 0-0.8857 0.577-1.1432 2.564-1.1535h1.37l-0.041 0.618z"/>
<path d="m171.63 55.418c-0.793 0.206-1.668 0.6386-2.008 0.999l-0.206 0.2266 0.628 0.7827c0.639 0.8033 0.793 0.9063 1.01 0.6489 0.206-0.2472 1.133-0.5871 1.792-0.6489 0.803-0.0721 1.678 0.1545 2.029 0.5356 0.195 0.2059 0.257 0.4016 0.288 0.9269l0.041 0.6694h-1.74c-2.379 0-3.234 0.2678-3.945 1.2565-1.102 1.5242-0.649 3.8106 0.917 4.6036 1.287 0.6591 3.646 0.4944 4.511-0.3193l0.236-0.2162v0.8548h2.472v-3.8415c0-4.2123-0.031-4.5007-0.607-5.2937-0.67-0.9269-1.556-1.2771-3.409-1.3286-0.999-0.0309-1.452 0-2.009 0.1442zm3.553 6.5399c0 0.7415-0.257 1.1946-0.865 1.5036-0.978 0.5047-2.605 0.2575-2.924-0.4531-0.176-0.3811-0.155-0.7828 0.061-1.0608 0.309-0.4017 0.876-0.5253 2.369-0.5356h1.359v0.5459z"/>
<path d="m102.19 55.459c0.02 0.0721 0.875 2.2658 1.884 4.8714 1.01 2.6057 1.823 4.82 1.813 4.9229-0.031 0.5253-0.577 1.8539-0.896 2.1834-0.299 0.3296-0.381 0.3605-0.917 0.3605h-0.576v2.0804l1.06-0.0412c0.886-0.0309 1.133-0.0824 1.586-0.3193 0.587-0.2986 0.948-0.7106 1.257-1.4212 0.196-0.4429 4.521-12.225 4.614-12.585 0.051-0.1545-0.052-0.1751-1.236-0.1751h-1.287l-0.227 0.6386c-0.124 0.3604-0.659 1.9465-1.184 3.5325-0.845 2.5645-0.958 2.8425-1.03 2.5336-0.093-0.4429-1.246-3.9445-1.803-5.4997l-0.432-1.205h-1.339c-1.03 0-1.329 0.0309-1.287 0.1236z"/>
<path d="m113.08 60.536v5.201h2.471v-8.2392h3.708v8.2392h2.472v-10.402h-8.651v5.2009z"/>
<path d="m123.79 60.536v5.201h2.472v-8.2392h3.811v8.2392h2.471v-10.402h-8.754v5.2009z"/>
<path d="m159.73 56.417v1.0814h3.09v8.2392h2.471v-8.2392h3.193v-2.1627h-8.754v1.0813z"/>
<path d="m180.83 59.012c-0.031 3.8724-0.051 4.0578-0.504 4.3462-0.124 0.0617-0.443 0.1544-0.721 0.1853l-0.505 0.0618v2.1628l0.958-0.0515c1.071-0.0618 1.503-0.206 2.08-0.7106 0.793-0.7003 0.979-1.6787 0.979-5.3246v-2.1834h2.883v8.2392h2.472v-10.402h-7.611l-0.031 3.6767z"/>
<path d="m200.72 60.536v5.201h2.368v-4.3256h4.017v4.3256h2.369v-10.402h-2.369v4.1195h-4.017v-4.1195h-2.368v5.2009z"/>
</g>
<defs>
<clipPath id="a">
<rect x="38" y="30" width="171.48" height="39.96" fill="#fff"/>
</clipPath>
</defs>
</svg>
