<?xml version="1.0" encoding="UTF-8"?>
<svg fill="none" viewBox="0 0 248 100" xmlns="http://www.w3.org/2000/svg">
<rect width="248" height="100" fill="#fff"/>
<mask id="a" x="98" y="24" width="52" height="51" mask-type="alpha" maskUnits="userSpaceOnUse">
<path d="m124 74.64c13.91 0 25.2-11.29 25.2-25.2s-11.29-25.2-25.2-25.2-25.2 11.29-25.2 25.2 11.29 25.2 25.2 25.2z" fill="#fff"/>
</mask>
<g mask="url(#a)">
<path d="m152.56 80.24v-47.04s-7 10.08-28.28 10.08-28.28-10.08-28.28-10.08v47.04h56.56z" fill="#EE3524"/>
<path d="m131.84 27.824c0 1.792-1.456 3.304-3.304 3.304-1.792 0-3.304-1.456-3.304-3.304 0-1.792 1.456-3.304 3.304-3.304s3.304 1.456 3.304 3.304z" fill="#EE3524"/>
<path d="m121.76 29.616-2.128-1.008c-1.4-1.848-3.92-2.632-6.216-1.792-1.568 0.56-2.688 1.736-3.248 3.136-0.448 1.176-0.504 2.576-0.056 3.864l-2.576 0.952c0.952 2.632 3.36 4.312 5.992 4.48v6.888h1.568v-6.944c0.392-0.056 0.84-0.168 1.232-0.336 3.024-1.12 4.816-4.144 4.48-7.224l0.952-2.016zm-3.528 2.408c-0.56 0.224-1.176-0.112-1.4-0.672s0.112-1.176 0.672-1.4 1.176 0.112 1.4 0.672c0.168 0.616-0.112 1.232-0.672 1.4z" fill="#EE3524"/>
<path d="m130.83 37.68c0.28-0.784 0.28-1.568 0-2.296-0.336-0.84-1.008-1.568-1.904-1.904-1.344-0.504-2.856 0-3.696 1.064l-1.288 0.616 0.56 1.232c-0.224 1.848 0.84 3.64 2.688 4.312l0.672 0.168v5.936h1.568v-5.992c1.344-0.28 2.464-1.232 2.968-2.576l-1.568-0.56zm-3.976-1.456c-0.112 0.336-0.504 0.504-0.84 0.392s-0.504-0.504-0.392-0.84 0.504-0.504 0.84-0.392c0.336 0.168 0.504 0.504 0.392 0.84z" fill="#EE3524"/>
<path d="m140.07 35.944c0.28-0.784 0.224-1.568-0.056-2.296-0.336-0.84-1.008-1.568-1.904-1.904-1.344-0.504-2.856 0-3.696 1.064l-1.288 0.616 0.56 1.232c-0.224 1.848 0.84 3.64 2.688 4.312l0.672 0.168v5.88h1.568v-5.88c1.344-0.28 2.464-1.232 2.968-2.576l-1.512-0.616zm-3.976-1.456c-0.112 0.336-0.504 0.504-0.84 0.392s-0.504-0.504-0.392-0.84 0.504-0.504 0.84-0.392c0.336 0.168 0.504 0.504 0.392 0.84z" fill="#EE3524"/>
<path d="m115.21 60.584h2.352l-4.816-10.64c-0.168-0.336-0.504-0.616-0.952-0.616-0.392 0-0.728 0.224-0.896 0.56l-4.816 10.696h2.352l1.064-2.408h4.648l1.064 2.408zm-4.872-4.256 1.512-3.472 1.512 3.472h-3.024z" fill="#fff"/>
<path d="m126.91 60.024c-1.456-1.064-2.184-2.856-2.184-4.928 0-1.008 0.168-1.96 0.56-2.8 0.728-1.736 2.24-2.912 4.2-2.912 1.456 0 2.576 0.56 3.472 1.68 0.84 1.12 1.288 2.464 1.288 4.032s-0.448 2.912-1.288 4.032-2.016 1.68-3.472 1.68c-1.008 0.056-1.848-0.224-2.576-0.784zm2.576-1.288c0.784 0 1.344-0.336 1.792-1.064s0.672-1.568 0.672-2.576-0.224-1.848-0.672-2.576-1.064-1.064-1.792-1.064-1.344 0.336-1.792 1.064c-0.448 0.672-0.672 1.568-0.672 2.576s0.224 1.848 0.672 2.576 1.008 1.064 1.792 1.064z" fill="#fff"/>
<path d="m140.02 50.56c0-0.672-0.504-1.232-1.12-1.232-0.168 0-0.336 0.056-0.448 0.112l-0.616 0.336-2.856 1.568 0.896 1.736 1.96-0.952v8.512h2.184v-10.08z" fill="#fff"/>
<path d="m122.38 50.56c0-0.672-0.504-1.232-1.12-1.232-0.168 0-0.336 0.056-0.448 0.112l-0.616 0.336-2.912 1.568 0.896 1.736 1.96-0.952v8.512h2.24v-10.08z" fill="#fff"/>
<path d="m117.78 32.192c0.672 0 1.176-0.56 1.176-1.176 0-0.672-0.56-1.176-1.176-1.176-0.672 0-1.176 0.56-1.176 1.176 0 0.672 0.56 1.176 1.176 1.176z" fill="#fff"/>
<path d="m126.24 36.728c0.392 0 0.784-0.336 0.784-0.784 0-0.392-0.336-0.784-0.784-0.784-0.392 0-0.784 0.336-0.784 0.784 0.056 0.448 0.392 0.784 0.784 0.784z" fill="#fff"/>
<path d="m135.59 34.992c0.392 0 0.784-0.336 0.784-0.784 0-0.392-0.336-0.784-0.784-0.784-0.392 0-0.784 0.336-0.784 0.784 0.056 0.448 0.392 0.784 0.784 0.784z" fill="#fff"/>
</g>
</svg>
