<?xml version="1.0" encoding="UTF-8"?>
<svg fill="none" viewBox="0 0 248 100" xmlns="http://www.w3.org/2000/svg">
<rect width="248" height="100" fill="#fff"/>
<g clip-path="url(#a)">
<path d="m81.808 62.804v0.6506h-1.8108v3.5861h-0.896v-4.2367h2.7068zm51.599-24.756c5.128 0 9.378 4.2424 9.378 9.7855 0 5.5465-4.25 9.7886-9.378 9.7886-5.129 0-9.382-4.2421-9.382-9.7886 0-5.5431 4.253-9.7855 9.382-9.7855zm0 18.158c3.524 0 4.877-3.9592 4.877-8.3724 0-4.4115-1.353-8.3712-4.877-8.3712-3.527 0-4.879 3.9597-4.879 8.3712 0 4.4132 1.352 8.3724 4.879 8.3724zm-35.325-18.158c5.1262 0 9.3762 4.2424 9.3762 9.7855 0 5.5465-4.25 9.7886-9.3762 9.7886-5.0761 0-9.2913-4.1557-9.3771-9.6181h-3.444v7.695h2.2386v1.5817h-8.5827v-1.5817h2.2363v-15.757h-2.2363v-1.5836h8.5827v1.5836h-2.2386v6.4776h3.5367c0.6513-4.8345 4.6016-8.3716 9.2844-8.3716zm0 18.158c3.5252 0 4.8762-3.9592 4.8762-8.3724 0-4.4115-1.351-8.3712-4.8762-8.3712-3.5282 0-4.8786 3.9597-4.8786 8.3712 0 4.4132 1.3504 8.3724 4.8786 8.3724zm103.34-0.5069h2.237v1.5817h-8.582v-1.5817h2.236v-6.0533c-2.035-0.2272-2.467 0.5073-3.071 1.6969l-2.495 4.7797c-0.749 1.4449-2.499 1.4998-2.96 1.4998-1.177 0-2.553-0.1694-3.414-0.3414v-1.5246c1.864-0.0871 2.123-0.5101 3.042-2.0648l1.781-3.0572c0.687-1.1585 1.262-1.5576 2.036-1.6686v-0.1697c-3.243-0.7063-4.592-2.7718-4.592-4.9482 0-2.9162 2.498-5.4892 6.918-5.4892h9.101v1.5836h-2.237v15.757zm-5.714-15.757c-2.154 0-3.645 1.6702-3.645 4.1879 0 2.574 1.174 4.2409 5.25 4.0147v-8.2026h-1.605zm-18.779 0.7341v-0.7341h-2.237v-1.5836h8.584v1.5836h-2.241v15.757h2.241v1.5817h-8.584v-1.5817h2.237v-12.389l-8.585 11.37v1.0197h2.242v1.5817h-8.584v-1.5817h2.239v-15.757h-2.239v-1.5836h8.584v1.5836h-2.242v12.077l8.585-11.343zm-26.194 15.023h2.297v1.5817h-8.641v-1.5817h2.24v-15.757h-2.24v-1.5836h7.176c3.102 0 5.715 0.2265 7.322 2.573 0.632 0.9063 0.947 2.0399 0.947 3.1401 0 1.1604-0.314 2.32-0.974 3.2816-1.612 2.3197-4.423 2.7999-8.127 2.6885v5.6574zm0-7.0736c2.556 0.2007 4.018-0.7612 4.709-2.4594 0.257-0.6525 0.372-1.3287 0.372-2.0105 0-0.7912-0.115-1.5827-0.488-2.2591-0.546-0.9912-1.806-2.1228-4.593-1.9544v8.6834zm-39.329 7.0736v-15.757h-2.238v-1.5836h14.44v3.8181h-1.866v-1.9511h-6.229v15.474h2.469v1.5817h-8.814v-1.5817h2.238zm-52.682-22.104 1.4576-1.4094c0.1277-0.1261-0.0638-0.2717-0.2417-0.392l-0.9058-0.6138c-0.1585-0.1051-0.2142-0.2471-0.0799-0.3859l0.3894-0.3998c0.1549-0.1593 0.3366-0.0858 0.52 0.023l0.9506 0.5601c0.2338 0.1378 0.3616 0.0826 0.4903-0.0255l0.8625-0.7402c0.2302-0.2023 0.4759-0.2865 0.7477-0.2733l0.5459 0.0016c0.3111 0 0.4381 0.2049 0.1254 0.5079l-3.1045 3.0018c-0.0746 0.0694-0.0864 0.1917 0.0151 0.1917h1.0886c0.1532 0 0.2992-0.0462 0.4197-0.1601l3.5672-3.4529c0.091-0.09 0.2099-0.1123 0.3638-0.1091l0.9156 0.0181c0.262 0.0042 0.1575 0.314 0.0049 0.4643l-4.2856 4.2054-4.3773-0.0026-4.3838-0.0016-4.286-4.2054c-0.1542-0.1493-0.2548-0.4575 0.0066-0.4633l0.9143-0.0207c0.1548-0.0019 0.2718 0.0223 0.3657 0.1101l3.5669 3.4551c0.1159 0.1149 0.2655 0.1604 0.4175 0.1604l1.0888-0.0016c0.1016 0 0.0901-0.1207 0.0164-0.1927l-3.107-3.0018c-0.3121-0.3016-0.1834-0.5056 0.1247-0.5056l0.5485-0.0016c0.2718-0.0133 0.5168 0.071 0.7463 0.2717l0.8649 0.7396c0.1287 0.1097 0.2548 0.1649 0.4876 0.0271l0.951-0.5608c0.1833-0.1091 0.3654-0.1827 0.5207-0.0227l0.389 0.4002c0.1336 0.1378 0.0776 0.2791-0.0799 0.3866l-0.9042 0.613c-0.1784 0.1187-0.3893 0.2482-0.2613 0.373l1.4563 1.4085c0.1309 0.1264 0.947 0.1601 1.0875 0.0232zm-0.5354-6.8438c0.9811 0 1.8177 0.2049 2.553 0.8169 0.9044 0.7484 1.618 0.4554 2.1691-0.1816 0.4319-0.4982 1.8325-0.3898 2.3493 0.3104 0.7958 1.0749 2.0313 0.7402 2.8851 0.6699 1.1346-0.0965 2.042 1.5688 1.1517 2.5023l-5.1335 5.3889h-5.9731l-5.974-0.0039-5.1338-5.3892c-0.8894-0.9341 0.0206-2.5978 1.1521-2.5019 0.8543 0.0719 2.0912 0.4055 2.885-0.6683 0.5187-0.7006 1.9193-0.8096 2.3506-0.3114 0.5501 0.635 1.2633 0.9316 2.1675 0.1816 0.7364-0.6121 1.5696-0.8137 2.551-0.8137zm0.0043 1.07c0.8049 0 2.009 0.3552 2.6125 0.8553 0.7417 0.6148 1.4124 0.5677 1.8738 0.0546 0.7182-0.797 1.6927-0.6005 2.1204-0.0265 0.6517 0.8825 1.6743 0.6544 2.3682 0.5496 1.341-0.204 1.9102 0.6872 0.7896 1.8685-1.3993 1.4753-2.7308 2.8795-4.1307 4.3547l-5.5677 0.0149-5.5657-0.02c-1.3993-1.4726-2.8716-2.8776-4.2699-4.3528-1.1209-1.1797-0.5518-2.0718 0.7892-1.8686 0.6946 0.1049 1.7169 0.333 2.368-0.5495 0.4253-0.5747 1.4022-0.7721 2.12 0.0258 0.4604 0.5128 1.133 0.5615 1.8748-0.0539 0.6028-0.5004 1.8118-0.8521 2.6175-0.8521zm-0.1959 24.71c1.2097 0 2.197 0.6956 2.197 1.5462 0 0.849-0.9873 1.544-2.197 1.544-1.2116 0-2.2012-0.695-2.2012-1.544 0-0.8506 0.9896-1.5462 2.2012-1.5462zm2.8084 2.1538 3.9408-0.0519c0.115-2e-3 0.1863-0.0481 0.188-0.1733l0.0072-0.7947c0-0.0978-0.0661-0.1914-0.1805-0.1914l-3.9421 0.0113c-0.1604 0-0.222-0.2042-0.0933-0.2872l1.9943-1.2981c0.1608-0.1032 0.1985-0.2258 0.0969-0.3597l-0.4882-0.6402c-0.0812-0.1032-0.189-0.1394-0.3154-0.0555l-2.1259 1.4139c-0.1202 0.0791-0.2728-0.0887-0.2299-0.1926l0.7067-1.6711c0.0271-0.0656 0.0295-0.1414-0.0341-0.17l-1.0708-0.4915c-0.0985-0.0442-0.206-0.0513-0.2548 0.0517l-0.9025 1.8989c-0.0363 0.079-0.1585 0.0697-0.1913 0l-0.9005-1.8941c-0.0504-0.1036-0.1548-0.0984-0.2551-0.0532l-1.0721 0.491c-0.0616 0.03-0.0583 0.1055-0.0327 0.1714l0.7069 1.6708c0.0426 0.1039-0.1113 0.2736-0.2312 0.1926l-2.1256-1.4149c-0.1276-0.0843-0.2358-0.0458-0.3133 0.0548l-0.4903 0.6428c-0.1005 0.1317-0.0622 0.2549 0.0969 0.3582l1.995 1.2977c0.128 0.0817 0.0658 0.2876-0.093 0.2876l-3.9434-0.0113c-0.112 0-0.1804 0.0936-0.1804 0.1929l0.0098 0.7931c0 0.1249 0.0707 0.1723 0.1866 0.1746l3.9405 0.05c0.1595 0 0.2106 0.1875 0.0835 0.2695l-1.995 1.2996c-0.1587 0.1033-0.1994 0.2269-0.0955 0.3585l0.4889 0.6409c0.0775 0.1012 0.1869 0.1387 0.3133 0.0545l2.1247-1.4136c0.1205-0.0794 0.2751 0.0887 0.2309 0.192l-0.7054 1.6724c-0.0269 0.0661-0.0295 0.1403 0.0337 0.1694l1.0689 0.4914c0.0998 0.0462 0.2075 0.0523 0.2563-0.0523l0.901-1.896c0.0347-0.0697 0.1532-0.0784 0.1919 0l0.9015 1.9009c0.0485 0.1016 0.1562 0.0965 0.2557 0.0513l1.0692-0.4931c0.0655-0.0274 0.0619-0.1026 0.034-0.1681l-0.7059-1.6714c-0.0433-0.1056 0.1116-0.2727 0.2311-0.1929l2.1257 1.4132c0.1261 0.0855 0.2351 0.0471 0.314-0.0555l0.4872-0.6382c0.1032-0.1327 0.0636-0.2569-0.0949-0.3601l-1.9949-1.2987c-0.1261-0.083-0.0832-0.2776 0.0769-0.2763zm-15.008 7.5972c3.2508 1.6318 6.4237 3.3639 9.8149 4.7914 1.3155 0.5579 2.3788 0.8896 3.7847 0.1175 2.1681-1.1907 5.0561-2.303 7.6373-3.8443 1.5178-0.909 0.5805-1.7608-1.0054-1.1545-4.5797 1.7498-9.5491 2.3503-8.584-0.3292 0.2708-0.7573 2.4049-0.4717 4.0692-0.4384 2.5081 0.0457 1.8417-1.5731-0.149-1.5583-2.2367 0.0159-3.5626-0.9573-6.709-0.9573-1.3635 0-3.3287 1.6917-4.9628 0.3159-1.1638-0.9802-2.6652-2.0835-3.9162-3.0695l-0.0075-16.89h24.755l-0.0042 6.6925c-3.2891-1.6469-6.4973-3.4048-9.9276-4.852-1.3171-0.5543-2.3791-0.8863-3.7853-0.1129-2.1691 1.1893-5.0584 2.3003-7.6369 3.8443-1.5191 0.9076-0.5839 1.7582 1.0027 1.1522 4.5797-1.7498 9.552-2.351 8.5859 0.3294-0.2727 0.7561-2.4062 0.4734-4.07 0.4396-2.5082-0.0478-1.8404 1.5707 0.1489 1.5555 2.2374-0.0145 3.5648 0.9587 6.7089 0.9587 1.3636 0 3.3297-1.6908 4.9602-0.3159 1.1953 1.0029 2.7416 2.1377 4.009 3.1421l-0.0063 9.8137c-0.0036 5.6842-10.806 5.6129-12.373 9.4017-1.5332-3.7046-11.878-3.7198-12.34-9.0323zm-1.3361-24.429 0.0115 25.071c0.0026 6.2915 11.907 6.335 13.637 10.528 1.7278-4.1931 13.65-4.236 13.654-10.528l0.0135-25.071h-27.316zm159.22 29.188h-0.896v-1.7192h-0.508l-0.83 1.7192h-0.897l0.939-1.8273c-0.269-0.0704-0.457-0.2171-0.568-0.3568-0.225-0.2679-0.25-0.5635-0.25-0.8148 0-0.2443 0.045-0.5695 0.299-0.8489 0.332-0.3501 0.815-0.3889 1.115-0.3889h1.596v4.2367zm-1.311-3.5861c-0.145 0-0.285 0-0.438 0.0655-0.347 0.1393-0.347 0.4736-0.347 0.5623 0 0.335 0.207 0.4812 0.388 0.5393 0.06 0.0161 0.181 0.0484 0.449 0.0484h0.363v-1.2155h-0.415zm-4.77-0.6506v2.0606c0 0.0894-0.01 0.3027-0.034 0.4569 0.024-0.049 0.155-0.2782 0.207-0.3513l1.172-1.7108v-0.4554h0.896v4.2367h-0.896v-2.0622c0-0.0468 0-0.129 0.036-0.4982-0.122 0.2149-0.131 0.2149-0.206 0.3375l-1.175 1.7202v0.5027h-0.897v-4.2367h0.897zm-4.097 0v1.7112h1.219v-1.7112h0.896v4.2367h-0.896v-1.8408h-1.219v1.8408h-0.895v-4.2367h0.895zm-2.733 0 1.233 4.2367h-0.906l-0.285-1.0258h-1.216l-0.283 1.0258h-0.846l1.339-4.2367h0.964zm-0.55 0.8719-0.448 1.6869h0.904l-0.456-1.6869zm-2.331-0.8719v4.2367h-0.897v-3.5523h-1.217v3.5523h-0.898v-4.2367h3.012zm-6.916 0 0.752 2.917 0.79-2.917h1.276v4.2367h-0.835v-3.3987l-0.956 3.3987h-0.647l-0.924-3.3893v3.3893h-0.751v-4.2367h1.295zm-2.761 0.3343c0.555 0.5131 0.589 1.4336 0.589 1.7837 0 0.3411-0.034 1.2794-0.589 1.7918-0.264 0.2478-0.674 0.4082-1.157 0.4082-0.394 0-0.854-0.1271-1.155-0.3985-0.472-0.4224-0.602-1.23-0.602-1.8015 0-0.7159 0.188-1.4175 0.602-1.7933 0.261-0.2359 0.683-0.3973 1.182-0.3973 0.527 0 0.907 0.2017 1.13 0.4069zm-1.658 0.4569c-0.222 0.2604-0.29 0.7247-0.29 1.3504 0 0.1313 0 0.9545 0.287 1.2968 0.093 0.1149 0.246 0.2275 0.504 0.2275 0.252 0 0.406-0.1126 0.494-0.2185 0.221-0.2707 0.284-0.9299 0.284-1.3294 0-0.4262-0.041-1.0425-0.284-1.3268-0.14-0.1639-0.292-0.2142-0.501-0.2142-0.197 0-0.345 0.0503-0.494 0.2142zm-3.998 0.9586h0.085c0.158 0 0.361-0.0247 0.519-0.1451 0.137-0.1156 0.188-0.2759 0.215-0.4091 0.024-0.1049 0.035-0.2108 0.041-0.314 0.011-0.1252 0.019-0.2456 0.046-0.3682 0.102-0.4746 0.501-0.5376 0.8-0.5376 0.138 0 0.267 0.0065 0.398 0.0242v0.6425c-0.096-0.0065-0.226 0.018-0.292 0.058-0.106 0.0559-0.122 0.1633-0.141 0.2698-0.04 0.2675-0.04 0.3746-0.075 0.505-0.069 0.2926-0.226 0.4878-0.621 0.5773v0.0171c0.256 0.0483 0.585 0.2032 0.715 0.5307 0.051 0.1291 0.067 0.2746 0.095 0.5699 8e-3 0.1361 0.027 0.2358 0.077 0.3004 0.051 0.0661 0.146 0.1113 0.335 0.0971v0.6521c-0.134 0.0271-0.308 0.0416-0.456 0.0416-0.156 0-0.345-0.0096-0.503-0.121-0.153-0.1161-0.212-0.2768-0.249-0.4172-0.033-0.131-0.042-0.2849-0.075-0.593-0.026-0.2788-0.035-0.457-0.241-0.5876-0.12-0.0742-0.336-0.1068-0.474-0.1068h-0.199v1.8008h-0.898v-4.2367h0.898v1.7498zm-3.994 2.4869h-0.897v-1.7192h-0.508l-0.828 1.7192h-0.899l0.941-1.8273c-0.266-0.0704-0.458-0.2171-0.569-0.3568-0.223-0.2679-0.25-0.5635-0.25-0.8148 0-0.2443 0.043-0.5695 0.301-0.8489 0.329-0.3501 0.814-0.3889 1.113-0.3889h1.596v4.2367zm-1.31-3.5861c-0.146 0-0.286 0-0.442 0.0655-0.345 0.1393-0.345 0.4736-0.345 0.5623 0 0.335 0.208 0.4812 0.39 0.5393 0.059 0.0161 0.183 0.0484 0.447 0.0484h0.363v-1.2155h-0.413zm-3.277-0.6506 1.231 4.2367h-0.906l-0.285-1.0258h-1.213l-0.284 1.0258h-0.847l1.339-4.2367h0.965zm-0.554 0.8719-0.449 1.6869h0.907l-0.458-1.6869zm-3.761-0.8719c0.398 0 0.736 0.0152 0.994 0.1639 0.266 0.1543 0.483 0.4867 0.483 0.9516 0 0.6057-0.391 0.8134-0.57 0.8893 0.105 0.0245 0.243 0.0729 0.387 0.2117 0.269 0.252 0.328 0.5537 0.328 0.8237 0 0.3572-0.093 0.7325-0.542 0.9913-0.344 0.1981-0.718 0.2052-1.06 0.2052h-1.46v-4.2367h1.44zm-0.135 1.7112c0.135 0 0.369-0.0194 0.517-0.1227 0.103-0.0726 0.181-0.21 0.181-0.4294 0-0.2388-0.097-0.3533-0.173-0.4166-0.156-0.1249-0.337-0.1065-0.457-0.1065h-0.477v1.0752h0.409zm0.129 1.8921c0.138 0 0.345-0.0355 0.472-0.1149 0.078-0.05 0.244-0.1981 0.244-0.5133 0-0.2369-0.105-0.4247-0.233-0.516-0.157-0.1058-0.399-0.112-0.554-0.112h-0.467v1.2562h0.538zm-2.935-3.269c0.552 0.5131 0.586 1.4336 0.586 1.7837 0 0.3411-0.034 1.2794-0.586 1.7918-0.269 0.2478-0.669 0.4082-1.156 0.4082-0.394 0-0.851-0.1271-1.154-0.3985-0.474-0.4224-0.604-1.23-0.604-1.8015 0-0.7159 0.191-1.4175 0.604-1.7933 0.258-0.2359 0.682-0.3973 1.183-0.3973 0.524 0 0.904 0.2017 1.127 0.4069zm-1.655 0.4569c-0.222 0.2604-0.292 0.7247-0.292 1.3504 0 0.1313 0 0.9545 0.283 1.2968 0.095 0.1149 0.252 0.2275 0.508 0.2275 0.253 0 0.407-0.1126 0.493-0.2185 0.224-0.2707 0.285-0.9299 0.285-1.3294 0-0.4262-0.043-1.0425-0.285-1.3268-0.137-0.1639-0.294-0.2142-0.498-0.2142-0.202 0-0.346 0.0503-0.494 0.2142zm-3.794-0.7912 0.61 1.2378 0.674-1.2378h0.846l-1.088 1.9289 1.244 2.3078h-1.002l-0.724-1.5072-0.83 1.5072h-0.852l1.251-2.1996-1.112-2.0371h0.983zm-2.39 0 1.235 4.2367h-0.906l-0.283-1.0258h-1.219l-0.284 1.0258h-0.846l1.338-4.2367h0.965zm-0.552 0.8719-0.448 1.6869h0.905l-0.457-1.6869zm-3.336-0.8719c0.484 0 0.976 0.0152 1.338 0.3569 0.268 0.2533 0.387 0.6366 0.387 0.9797 0 0.3552-0.138 0.6682-0.319 0.8621-0.327 0.3517-0.831 0.4237-1.388 0.4237h-0.338v1.6143h-0.898v-4.2367h1.218zm-0.32 1.9719h0.32c0.232 0 0.491-0.0088 0.64-0.2221 0.085-0.1197 0.117-0.3316 0.117-0.4552 0-0.121-0.012-0.4634-0.301-0.5941-0.12-0.058-0.266-0.0645-0.456-0.0645h-0.32v1.3359zm-1.45-1.9719v0.6844h-0.955v3.5523h-0.897v-3.5523h-1.002v-0.6844h2.854zm-3.052 2.8347c-0.085 0.4888-0.206 0.8635-0.534 1.1348-0.267 0.2275-0.665 0.3485-1.07 0.3485-0.551 0-0.939-0.2184-1.165-0.4227-0.595-0.5618-0.611-1.5805-0.611-1.8095 0-0.9703 0.354-1.524 0.699-1.8015 0.37-0.302 0.791-0.3569 1.122-0.3569 0.301 0 0.639 0.0484 0.929 0.2597 0.466 0.3334 0.588 0.922 0.612 1.2462l-0.843 0.1059c-0.019-0.1943-0.079-0.5689-0.232-0.758-0.08-0.0887-0.216-0.2042-0.46-0.2042-0.222 0-0.389 0.0978-0.489 0.1961-0.304 0.2834-0.372 0.8067-0.372 1.3205 0 0.7272 0.13 1.0931 0.301 1.3125 0.12 0.1617 0.275 0.2598 0.509 0.2598 0.216 0 0.414-0.0839 0.527-0.2185 0.137-0.1639 0.209-0.4975 0.232-0.7092l0.845 0.0965zm-6.303 1.402h-0.898v-1.7192h-0.508l-0.831 1.7192h-0.895l0.939-1.8273c-0.265-0.0704-0.457-0.2171-0.566-0.3568-0.225-0.2679-0.252-0.5635-0.252-0.8148 0-0.2443 0.042-0.5695 0.301-0.8489 0.33-0.3501 0.811-0.3889 1.114-0.3889h1.596v4.2367zm-1.312-3.5861c-0.146 0-0.284 0-0.44 0.0655-0.343 0.1393-0.343 0.4736-0.343 0.5623 0 0.335 0.207 0.4812 0.388 0.5393 0.06 0.0161 0.181 0.0484 0.446 0.0484h0.363v-1.2155h-0.414zm-3.276-0.6506 1.232 4.2367h-0.904l-0.287-1.0258h-1.215l-0.285 1.0258h-0.843l1.336-4.2367h0.966zm-0.555 0.8719-0.447 1.6869h0.905l-0.458-1.6869zm-4.438-0.8719v1.7112h1.213v-1.7112h0.898v4.2367h-0.898v-1.8408h-1.213v1.8408h-0.898v-4.2367h0.898zm-4.098 0v1.7112h1.215v-1.7112h0.899v4.2367h-0.899v-1.8408h-1.215v1.8408h-0.899v-4.2367h0.899zm-1.708 0v0.6506h-1.786v1.0857h1.397v0.6512h-1.397v1.1945h1.821v0.6547h-2.717v-4.2367h2.682zm-5.199 0c0.395 0 0.731 0.0152 0.992 0.1639 0.266 0.1543 0.48 0.4867 0.48 0.9516 0 0.6057-0.388 0.8134-0.568 0.8893 0.102 0.0245 0.242 0.0729 0.389 0.2117 0.268 0.252 0.327 0.5537 0.327 0.8237 0 0.3572-0.095 0.7325-0.544 0.9913-0.345 0.1981-0.717 0.2052-1.061 0.2052h-1.455v-4.2367h1.44zm-0.14 1.7112c0.14 0 0.374-0.0194 0.519-0.1227 0.101-0.0726 0.181-0.21 0.181-0.4294 0-0.2388-0.094-0.3533-0.174-0.4166-0.152-0.1249-0.337-0.1065-0.455-0.1065h-0.475v1.0752h0.404zm0.129 1.8921c0.141 0 0.345-0.0355 0.477-0.1149 0.076-0.05 0.24-0.1981 0.24-0.5133 0-0.2369-0.103-0.4247-0.233-0.516-0.155-0.1058-0.396-0.112-0.55-0.112h-0.467v1.2562h0.533zm-1.983-3.6033v0.6844h-0.955v3.5523h-0.9v-3.5523h-0.997v-0.6844h2.852zm-3.052 2.8347c-0.085 0.4888-0.207 0.8635-0.537 1.1348-0.266 0.2275-0.661 0.3485-1.067 0.3485-0.551 0-0.941-0.2184-1.165-0.4227-0.595-0.5618-0.61-1.5805-0.61-1.8095 0-0.9703 0.349-1.524 0.696-1.8015 0.372-0.302 0.793-0.3569 1.121-0.3569 0.301 0 0.638 0.0484 0.932 0.2597 0.465 0.3334 0.587 0.922 0.61 1.2462l-0.841 0.1059c-0.017-0.1943-0.078-0.5689-0.234-0.758-0.079-0.0887-0.217-0.2042-0.459-0.2042-0.224 0-0.387 0.0978-0.491 0.1961-0.304 0.2834-0.371 0.8067-0.371 1.3205 0 0.7272 0.129 1.0931 0.302 1.3125 0.121 0.1617 0.276 0.2598 0.51 0.2598 0.216 0 0.413-0.0839 0.526-0.2185 0.139-0.1639 0.205-0.4975 0.231-0.7092l0.847 0.0965zm-5.649-2.8347c0.48 0 0.976 0.0152 1.336 0.3569 0.265 0.2533 0.387 0.6366 0.387 0.9797 0 0.3552-0.136 0.6682-0.318 0.8621-0.328 0.3517-0.83 0.4237-1.387 0.4237h-0.337v1.6143h-0.897v-4.2367h1.216zm-0.319 1.9719h0.319c0.233 0 0.494-0.0088 0.637-0.2221 0.088-0.1197 0.121-0.3316 0.121-0.4552 0-0.121-0.017-0.4634-0.302-0.5941-0.121-0.058-0.267-0.0645-0.456-0.0645h-0.319v1.3359zm-2.7332-1.9719 1.2312 4.2367h-0.9057l-0.2826-1.0258h-1.2149l-0.2858 1.0258h-0.8462l1.3383-4.2367h0.9657zm-0.5537 0.8719-0.4457 1.6869h0.9044l-0.4587-1.6869zm-2.3172-0.8719v3.582h0.4447v1.6663h-0.8622v-1.0116h-2.3971v1.0116h-0.8701v-1.6663h0.3032c0.1529-0.2097 0.3845-0.5844 0.5571-1.2187 0.1156-0.4002 0.1915-0.8296 0.218-1.3068 0.0335-0.6495 0.0335-0.7625 0.0335-0.9274l0.0105-0.1291h2.5624zm-1.7631 0.889c-0.0154 0.1959-0.0672 0.7496-0.207 1.3436-0.1352 0.5785-0.2842 0.9683-0.5004 1.3494h1.5715v-2.9314h-0.8474l-0.0167 0.2384zm-4.2771-0.889 1.0092 2.2393h0.0194l0.8013-2.2393h0.8102l-1.1389 3.1303c-0.1022 0.2839-0.285 0.6924-0.5267 0.9112-0.1713 0.1494-0.4398 0.2849-0.8435 0.2849-0.1994 0-0.3917-0.0407-0.449-0.0484v-0.7008c0.1107 0.0406 0.2063 0.0503 0.337 0.0503 0.1195 0 0.3176-0.0181 0.4657-0.122 0.0681-0.0493 0.127-0.1332 0.1624-0.2381l-1.5618-3.2674h0.9147zm-1.1641 2.8347c-0.0852 0.4888-0.208 0.8635-0.5348 1.1348-0.2663 0.2275-0.6651 0.3485-1.0682 0.3485-0.5525 0-0.9405-0.2184-1.1649-0.4227-0.5956-0.5618-0.612-1.5805-0.612-1.8095 0-0.9703 0.354-1.524 0.6988-1.8015 0.3721-0.302 0.7952-0.3569 1.1216-0.3569 0.3023 0 0.6389 0.0484 0.9311 0.2597 0.4652 0.3334 0.5851 0.922 0.6119 1.2462l-0.8438 0.1059c-0.0196-0.1943-0.0792-0.5689-0.2338-0.758-0.0757-0.0887-0.2149-0.2042-0.4589-0.2042-0.2219 0-0.3884 0.0978-0.4925 0.1961-0.297 0.2834-0.3687 0.8067-0.3687 1.3205 0 0.7272 0.1297 1.0931 0.3033 1.3125 0.1178 0.1617 0.276 0.2598 0.5079 0.2598 0.2151 0 0.412-0.0839 0.5262-0.2185 0.1372-0.1639 0.2079-0.4975 0.2328-0.7092l0.844 0.0965zm-4.7075-2.5004c0.5521 0.5131 0.5865 1.4336 0.5865 1.7837 0 0.3411-0.0344 1.2794-0.5865 1.7918-0.2701 0.2478-0.6716 0.4082-1.1569 0.4082-0.3963 0-0.8534-0.1271-1.1504-0.3985-0.4778-0.4224-0.6071-1.23-0.6071-1.8015 0-0.7159 0.1909-1.4175 0.6071-1.7933 0.2544-0.2359 0.6772-0.3973 1.1785-0.3973 0.5243 0 0.9036 0.2017 1.1288 0.4069zm-1.6579 0.4569c-0.2227 0.2604-0.2919 0.7247-0.2919 1.3504 0 0.1313 0 0.9545 0.2869 1.2968 0.094 0.1149 0.2476 0.2275 0.506 0.2275 0.2512 0 0.406-0.1126 0.4925-0.2185 0.2234-0.2707 0.2852-0.9299 0.2852-1.3294 0-0.4262-0.0436-1.0425-0.2852-1.3268-0.1385-0.1639-0.2934-0.2142-0.4997-0.2142-0.2001 0-0.3465 0.0503-0.4938 0.2142z" clip-rule="evenodd" fill="#0250A3" fill-rule="evenodd"/>
</g>
<defs>
<clipPath id="a">
<rect x="44" y="26" width="160.12" height="47.91" fill="#fff"/>
</clipPath>
</defs>
</svg>
