<?xml version="1.0" encoding="UTF-8"?>
<svg fill="none" viewBox="0 0 248 100" xmlns="http://www.w3.org/2000/svg">
<rect x=".00073242" y="-.00073242" width="248" height="100" fill="#fff"/>
<g clip-path="url(#a)">
<path d="m55.012 50c0-4.6794 3.1593-8.4901 7.7009-8.4901 3.4875 0 6.3835 1.9084 7.1072 4.7388h7.8975c-0.4104-6.5662-6.4062-11.846-14.823-11.846-8.8185 0-15.457 6.4217-15.457 15.6 0 9.1783 6.6389 15.594 15.457 15.594 8.5651 0 14.618-5.2565 14.823-12.438h-7.8975c-0.6154 3.2825-3.3564 5.3303-7.1072 5.3303-4.1467 6e-4 -7.7009-3.6891-7.7009-8.4885zm51.132 1.4919c-4.781 1.1347-8.1105 5.2021-8.8803 11.754-0.7687-6.5517-4.0984-10.619-8.8795-11.754-0.8215-5.1282 3.7052-9.6127 8.8795-9.6204 5.1753 0.0083 9.7023 4.4922 8.8803 9.6204zm6.717-1.4919c0-8.6145-6.983-15.598-15.597-15.598-8.614 0-15.598 6.9827-15.598 15.598 0 8.6146 6.9834 15.597 15.598 15.597 8.6143 0 15.597-6.9828 15.597-15.597zm12.379-7.4954h12.049v-6.9177h-20.336v28.826h8.286v-21.908h1e-3zm36.571 7.4954c0 4.5595-3.413 7.8976-7.503 7.8976-4.03 0-7.502-3.3381-7.502-7.8976 0-4.5594 3.472-7.8975 7.502-7.8975 4.089-5e-4 7.503 3.3375 7.503 7.8975zm-0.577 14.413h8.292v-28.825h-8.292v3.1525c-2.136-2.6549-4.951-3.7463-8.012-3.7463-7.792 0-13.998 6.0019-13.998 15.005 0 9.0033 6.206 15.005 13.998 15.005 3.061 0 5.876-1.0914 8.012-3.7457v3.1536zm38.976-20.962c0-4.795-4.073-8.654-12.339-8.654-8.798 0-13.321 4.921-13.321 11.002h8.079c0-3.1575 1.758-4.8038 5.124-4.8038 3.188 0 4.546 1.1453 4.546 2.9582 0 1.8112-1.004 3.0459-3.483 3.0459l-4.571 0.0033v5.1971l4.453-0.0033c2.834 0 4.015 1.2286 4.015 3.217 0 1.8706-1.24 3.6491-4.841 3.6491-3.898 0-5.668-1.9884-5.668-5.2632h-8.057c0 7.426 5.222 11.403 13.725 11.403 8.383 0 13.047-3.5086 13.047-9.1228 0-2.9226-1.536-5.0282-4.487-6.2557 2.538-1.3436 3.778-3.8002 3.778-6.3723z" fill="#122364"/>
</g>
<defs>
<clipPath id="a">
<rect x="47.001" y="33.999" width="154.4" height="32" fill="#fff"/>
</clipPath>
</defs>
</svg>
