<?xml version="1.0" encoding="UTF-8"?>
<svg fill="none" viewBox="0 0 248 100" xmlns="http://www.w3.org/2000/svg">
<rect width="248" height="100" fill="#fff"/>
<g clip-path="url(#a)" clip-rule="evenodd" fill-rule="evenodd">
<path d="M64 38.5515H95.539V70.269H64V38.5515Z" fill="#000"/>
<path d="m64.912 39.468h29.715v29.884h-29.715v-29.884z" fill="#FFF200"/>
<path d="m66.489 63.314 3.8762 3.9737 9.0819-9.2665 9.3857 9.4574 3.9329-3.9167-9.2915-9.3427 1.7862-1.7387v-3.7066l1.1211-0.9551v2.9039l1.4441 1.1845 4.3126-4.337 1.3867 1.0698c0.8174-3.0377-3.9137-9.9352-7.8275-6.114l-4.5604 4.5471 0.9313 1.1275-2.3181 2.2735-2.2416-2.2165 1.1778-1.0705-4.9967-4.8527c-3.7615-3.1146-7.6186 1.6247-7.7518 6.248l1.3677-1.1461 4.1985 4.5478 1.5008-1.2607v-2.7899l0.9306 0.7065v3.6496l1.8238 1.8341-9.2703 9.1903z" fill="#000"/>
<path d="m103.6 42.353v2.7515h1.178c1.614-0.3056 1.177-2.6368 0-2.7515h-1.178zm-3.344-2.7322v12.458h3.344v-4.0506l2.85 4.0506h3.952l-3.515-4.9865c4.066-1.9872 2.547-7.4139-1.728-7.4709h-4.903v-7e-4zm15.465 6.2287c1.102 0 1.995 0.8405 1.995 1.8725 0 1.0314-0.893 1.8725-1.995 1.8725-1.083 0-1.976-0.8411-1.976-1.8725 0-1.032 0.893-1.8725 1.976-1.8725zm-0.703-2.7514c0.912 0 1.767 0.3055 2.47 0.802v-0.4773h3.268l0.019 8.6554h-3.306l0.019-0.5349c-0.703 0.4964-1.558 0.7835-2.47 0.7835-2.432 0-4.426-2.0634-4.426-4.6048 0-2.5413 1.995-4.6239 4.426-4.6239zm7.486 0.3247h3.477v8.6554h-3.477v-8.6554zm1.748-4.9487c1.007 0 1.824 0.8405 1.824 1.8533s-0.817 1.8533-1.824 1.8533c-1.026 0-1.843-0.8412-1.843-1.8533 0-1.0122 0.817-1.8533 1.843-1.8533zm26.39 4.9487h3.477v8.6554h-3.477v-8.6554zm1.729-4.9487c1.026 0 1.843 0.8405 1.843 1.8533s-0.817 1.8533-1.843 1.8533c-1.007 0-1.824-0.8412-1.824-1.8533 0-1.0122 0.817-1.8533 1.824-1.8533zm-25.744 4.9487v2.7515h1.197v5.9039h3.363v-5.9039h3.154v5.9039h3.477v-5.9417h2.166v-2.6752h-2.262v-1.9295c-0.056-0.7066 1.597-0.9936 2.167-0.4203v-2.8283c-3.192-1.0128-5.776 0.8027-5.757 3.6111v1.5285h-2.964v-1.891c-0.039-0.7066 1.406-0.9936 2.241-0.4203v-2.8283c-2.774-0.8213-5.737 0.5349-5.718 3.5919v1.5285l-1.064 0.0192zm18.315 8.904c2.983-0.0193 4.085-1.2607 4.731-3.0763h-3.02c-1.369 1.7579-3.364 0.4779-3.268-0.9551h6.384c0-3.5157-1.863-5.1781-4.826-5.1781s-4.825 2.1018-4.825 4.6624 2.165 4.5663 4.824 4.5471zm-1.121-6.0756c0.038-1.0513 2.318-1.0513 2.47 0h-2.47zm24.795 6.0756c3.001-0.0193 4.104-1.2607 4.749-3.0763h-3.04c-1.367 1.7579-3.362 0.4779-3.267-0.9551h6.384c0-3.5157-1.843-5.1781-4.826-5.1781-2.964 0-4.825 2.1018-4.825 4.6624s2.164 4.5663 4.825 4.5471zm-1.122-6.0756c0.039-1.0513 2.319-1.0513 2.47 0h-2.47zm-4.616-2.656-1.026 2.1019c-1.292-0.4017-2.546-0.3248-2.508 0.0377 0.038 0.2294-0.171 0.6304 1.843 0.9174 3.001 0.4772 2.755 6.0948-2.28 5.6746-1.387-0.0955-2.508-0.4587-3.439-1.0129l1.121-2.2549c1.578 0.7834 3.097 1.2421 3.211 0.4586 0.133-0.9743-1.653-0.6303-2.736-1.4522-1.938-1.2038-0.836-4.9296 2.337-4.968 1.121-0.0756 2.28 0.1153 3.477 0.4978zm11.894-0.1724v8.6554h3.249v-5.2928c0.095-1.3184 2.679-1.5477 2.698 0v5.2928h3.286v-5.426c-0.076-3.0378-3.249-4.5093-6.118-2.5798v-0.6496h-3.115zm-72.597 13.948-2.166 12.84h6.137c4.161 0 5.871-5.1966 2.907-6.9737 2.527-2.3504 1.235-5.8847-1.482-5.9231l-5.396 0.057zm2.489 7.6617-0.437 2.1211h1.425c1.614 0.0762 1.425-2.1211 0.494-2.1211h-1.482zm0.721-4.6047-0.36 1.7201 0.437 0.0185c1.311 0.0762 2.071-1.7386 0.493-1.7386h-0.57zm5.054 9.8021h3.724l1.121-2.255h4.218l0.627 2.2934h3.438l-2.982-12.821h-3.515l-6.631 12.783zm6.061-4.9488h2.319l-0.741-3.3825-1.578 3.3825zm8.246 4.9872h3.439l0.873-8.0442 4.921 8.0058h3.686l1.539-12.86h-3.438l-0.969 8.0442-4.922-8.0827h-3.553l-1.576 12.937zm16.928-12.936-2.413 12.898h3.63l0.968-4.8156 3.249 4.8156h4.769l-4.655-6.7643 5.947-6.1525h-4.617l-4.066 4.5471 0.646-4.5471-3.458 0.0192z" fill="#000"/>
</g>
<defs>
<clipPath id="a">
<rect x="64" y="38" width="120" height="32.269" fill="#fff"/>
</clipPath>
</defs>
</svg>
