<?xml version="1.0" encoding="UTF-8"?>
<svg viewBox="0 0 248 100" xmlns="http://www.w3.org/2000/svg">
<rect width="248" height="100" fill="#fff"/>
<path d="m104.34 37.294v14.8c0 3.2614-2.802 5.7414-6.5035 5.7414-3.7011 0-6.5035-2.48-6.5035-5.7414v-11.322c0-1.9141 1.5077-3.4776 3.3839-3.4776h0.2386v14.773c0 1.7519 1.5323 2.8307 3.0135 2.8307 1.4272 0 2.961-0.9977 2.961-2.8307v-11.484c0-1.8069 1.454-3.2893 3.225-3.2893h0.185z"/>
<path d="m111.48 42.523c4.943 0 5.737 2.8306 5.737 4.5294v10.567h-0.159c-1.824 0-3.383-1.5636-3.383-3.4245v-7.0886c0-0.9977-0.397-2.1845-2.327-2.1845-0.899 0-1.428 0.1081-2.009 0.3235v12.374h-3.543v-13.991c1.507-0.6741 3.94-1.1058 5.684-1.1058z"/>
<path d="m122.27 42.524v11.7c0 1.8591-1.481 3.3966-3.33 3.3966h-0.159v-15.097h3.489zm-1.744-5.2296c1.057 0 1.903 0.8084 1.903 1.806 0 0.9705-0.846 1.7519-1.903 1.7519-1.058 0-1.93-0.7814-1.93-1.7519 0-0.9976 0.872-1.806 1.93-1.806z"/>
<path d="m132.34 36.997c1.665 0 3.225 0.3776 4.52 1.186v3.5587c-0.792-1.0517-1.93-1.7798-3.754-1.7798-3.595 0-5.816 3.6128-5.816 7.3599 0 3.5318 2.327 7.3861 5.816 7.3861 1.534 0 2.935-0.4578 3.754-1.5906v3.5047c-1.031 0.7822-2.643 1.213-4.547 1.213-5.709 0-8.724-5.3368-8.724-10.486 0-5.0683 3.015-10.352 8.751-10.352z"/>
<path d="m143.12 42.524c0.582 0 1.322 0.0541 1.984 0.1612v2.8846c-1.217-0.8894-2.83-0.5929-3.543-0.2154v8.8695c0 1.8591-1.507 3.3966-3.331 3.3966h-0.186v-13.938c1.375-0.6741 2.776-1.159 5.076-1.159"/>
<path d="m154.3 48.185c-0.106-2.9929-1.93-3.3155-2.909-3.3155h-0.131c-1.984 0.0531-2.909 1.4825-2.909 4.1509l5.949-0.8354zm3.066 2.0483-8.804 1.2401c0.291 2.453 1.507 3.7471 3.728 3.7471 2.459 0 3.701-0.8084 4.6-1.4554v2.9919c-0.899 0.4857-2.565 1.0787-4.944 1.0787-4.309 0-6.873-2.9658-6.873-7.7105 0-4.6095 2.379-7.6015 6.292-7.6015 3.86 0 6.001 2.6153 6.001 7.1437v0.5659z"/>
<path d="m166.6 45.435c-0.371-0.1081-0.767-0.1612-1.216-0.1612-2.909 0-3.517 2.8567-3.517 5.2295 0 3.3155 1.084 4.9601 3.279 4.9601 0.369 0 1.189-0.0811 1.454-0.1353v-9.8931zm3.463-8.1413v20.137c-0.847 0.1892-3.623 0.4046-4.786 0.4046h-0.237c-4.309-0.0541-6.662-2.5882-6.662-7.1436 0-4.6095 2.459-7.5753 6.265-7.5753 0.741 0 1.375 0.0811 1.93 0.2164v-2.6153c0-1.887 1.48-3.4235 3.331-3.4235l0.159-2e-4z"/>
<path d="m175.2 42.524v11.7c0 1.8591-1.48 3.3966-3.331 3.3966h-0.159v-15.097h3.49zm-1.745-5.2296c1.057 0 1.904 0.8084 1.904 1.806 0 0.9705-0.847 1.7519-1.904 1.7519s-1.93-0.7814-1.93-1.7519c0-0.9976 0.873-1.806 1.93-1.806z"/>
<path d="m181.38 37.294v5.2295h2.274v2.8847h-2.274v8.007c0 0.9697 0.317 1.2661 1.348 1.2661 0.264 0 0.661-0.0811 0.926-0.1884v2.9919c-0.159 0.0542-0.847 0.3506-1.772 0.3506-2.59 0-4.018-1.2932-4.018-3.639v-8.7883h-1.534v-2.8847h1.534v-1.833c0-1.86 1.48-3.3965 3.305-3.3965l0.211 1e-4z"/>
<path d="m76.338 41.419 0.021-0.0307c0.1774-0.2648 0.1033-0.4606-0.0156-0.5659l-1.8624-1.1712c-0.1289-0.0885-0.2139-0.2386-0.2139-0.4102 0-0.2703 0.1582-0.4746 0.5184-0.5762 1.1484-0.3217 5.1877-0.4904 6.5601-0.4904 0.4764 0 1.2965-0.0019 2.0325 0.0185l-0.032-0.0317c-2.0124-1.7538-4.6245-2.812-7.4799-2.812-6.3644 0-11.523 5.2603-11.523 11.75 0 2.853 0.9966 5.4682 2.6551 7.5035 1.4473-2.122 5.0204-7.3553 5.804-8.4237 0.9024-1.2317 2.9596-3.9719 3.3079-4.4362l0.0174-0.0211 0.2103-0.3031z" clip-rule="evenodd" fill="#E2001A" fill-rule="evenodd"/>
<path d="m68.84 56.416c1.9447 1.5272 4.3813 2.4362 7.0264 2.4362 6.3644 0 11.523-5.2603 11.523-11.75 0-1.9644-0.4718-3.8152-1.3075-5.4421l9e-4 9e-4c0.3968-0.3897 0.854-1.0069 0.5532-1.7798-0.0933-0.2302-0.5413-0.7525-0.6565-0.8792l0.0156 0.0446c0.2807 0.8634-0.2743 1.4041-0.6729 1.7724-0.2185 0.2022-3.1443 3.0152-6.5757 6.0752-3.0245 2.6964-6.4074 5.4403-8.3667 6.9367-2.7567 2.1043-3.2934 2.4101-3.2934 2.4101-0.0722 0.0402-0.1938 0.0746-0.2834 0.0746-0.1682 0-0.3145-0.0775-0.4068-0.1996l-0.0029-0.0053-0.0065 0.0904c0.2953 0.4876 0.7854 1.0536 1.0707 1.0536 0.0896 0 0.2112-0.0344 0.2843-0.0738 0 0 0.2158-0.1231 1.0981-0.7654" clip-rule="evenodd" fill="#E2001A" fill-rule="evenodd"/>
<path d="m76.353 41.388c0.1774-0.2637 0.1033-0.4606-0.0155-0.5659l-1.8625-1.1701c-0.1289-0.0885-0.2139-0.2386-0.2139-0.4112 0-0.2694 0.1581-0.4736 0.5184-0.5761 1.1493-0.3217 5.1877-0.4895 6.5601-0.4895 0.6482 0 1.931-0.0053 2.7758 0.052 0.9472 0.0635 1.6668 0.263 1.8451 0.731 0.3501 0.9156-0.2295 1.4806-0.6419 1.861-0.2185 0.2032-3.1443 3.0161-6.5747 6.0752-3.0254 2.6963-6.4083 5.4412-8.3677 6.9376-2.7566 2.1033-3.2924 2.4091-3.2924 2.4091-0.0731 0.0402-0.1947 0.0746-0.2834 0.0746-0.2862 0-0.5102-0.2228-0.5102-0.5147 0-0.111 0.0329-0.2143 0.0896-0.2983 0 0 5.4291-7.9744 6.4166-9.3226 0.9874-1.3481 3.3591-4.5023 3.3591-4.5023s0.0274-0.0362 0.1975-0.2899" clip-rule="evenodd" fill="#fff" fill-rule="evenodd"/>
</svg>
