<?xml version="1.0" encoding="UTF-8"?>
<svg viewBox="0 0 248 100" xmlns="http://www.w3.org/2000/svg">
<rect width="248" height="100" fill="#fff"/>
<path d="m232.82 42.743v5.6429l2.707-5.6429h4.04l-3.463 7.236 3.597 8.3259h-4.041l-2.84-6.6885v6.6885h-3.906v-15.562h3.906zm-13.538 0v5.916h2.929v-5.916h3.906v15.562h-3.906v-5.7326h-2.929v5.7326h-3.951v-15.562h3.951zm-11.142 10.147-0.932-3.7754-1.022 3.7754h1.954zm-7.058 5.4153 3.862-15.562h4.528l3.861 15.562h-3.861l-0.578-2.2303h-3.373l-0.577 2.2303h-3.862zm-7.546-6.0069v2.2302h0.977c0.665 0 0.976-0.3629 0.976-1.1367 0-0.3652-0.089-0.6384-0.266-0.8192-0.178-0.1833-0.4-0.2743-0.71-0.2743h-0.977zm0-3.7755h2.396c1.11 0 2.042 0.4084 2.752 1.2277 0.8 0.866 1.155 2.0027 1.155 3.5035 0 1.5021-0.355 2.7311-1.11 3.6857-0.755 0.9104-1.687 1.3655-2.797 1.3655h-6.347v-15.562h9.099v3.2773h-5.148v2.5022zm-15.003-5.7795h8.655v4.2319h-2.353v11.33h-3.949v-11.33h-2.353v-4.2319zm-3.729 5.0069c-0.71 0-1.244 0.2719-1.642 0.7726-0.357 0.5006-0.533 1.1833-0.533 2.0027 0 0.7726 0.176 1.4553 0.577 2.0015 0.354 0.4996 0.888 0.7738 1.598 0.7738 0.444 0 0.754 0 0.976-0.0922 0.266-0.0444 0.489-0.1366 0.666-0.2276v5.3242c-0.089 0.0455-0.309 0.0922-0.533 0.1366-0.22 0.0467-0.621 0.0467-1.109 0.0467-2.041 0-3.684-0.775-4.928-2.4579-1.108-1.5021-1.642-3.3215-1.642-5.5051 0-2.1393 0.534-3.9599 1.642-5.4608 1.198-1.6385 2.841-2.4579 4.928-2.4579 0.355 0 0.665 0 0.932 0.0455 0.267 0.091 0.489 0.1378 0.71 0.1821v5.2788c-0.177-0.0911-0.4-0.1821-0.533-0.2277-0.355-0.091-0.71-0.1353-1.109-0.1353zm-8.966-5.0069v3.9133h-3.951v2.0027h3.906v3.9133h-3.906v1.865h3.951v3.8676h-7.858v-15.562h7.858zm-16.336 9.2818v2.2758h1.022c0.621 0 0.976-0.364 0.976-1.1367 0-0.364-0.089-0.6372-0.267-0.8193-0.177-0.182-0.443-0.3198-0.709-0.3198h-1.022zm0-5.9147v2.2303h0.666c0.577 0 0.888-0.3642 0.888-1.0912 0-0.775-0.311-1.1391-0.888-1.1391h-0.666zm2.043-3.3671c1.065 0 1.908 0.4097 2.529 1.138 0.62 0.7738 0.932 1.7751 0.932 2.9574 0 0.9558-0.132 1.6841-0.399 2.2302-0.267 0.5007-0.621 0.8649-1.065 1.0002 0.71 0.1821 1.243 0.5929 1.686 1.1834 0.489 0.6828 0.709 1.5477 0.709 2.549 0 1.4098-0.309 2.5477-0.974 3.3214-0.711 0.8182-1.643 1.1823-2.886 1.1823h-6.525v-15.562h5.993zm-15.582 0v5.916h2.975v-5.916h3.905v15.562h-3.905v-5.7326h-2.975v5.7326h-3.904v-15.562h3.904zm-6.747 0v15.562h-3.95v-7.1436l-3.64 7.1436h-3.906v-15.562h3.906v7.5079l3.907-7.5079h3.683zm-16.334 0 3.151 15.562h-3.95l-1.688-11.603h-0.31l-1.731 11.603h-3.907l3.063-15.562h5.372zm-12.651 0 3.107 15.562h-3.9506l-1.6871-11.603h-0.3108l-1.7304 11.603h-3.9068l3.0187-15.562h5.46zm-14.738 10.238-0.9318-3.9576-1.021 3.9576h1.9528zm-7.1019 5.3242 3.8618-15.562h4.5715l3.8622 15.562h-3.8622l-0.6207-2.2303h-3.3295l-0.5772 2.2303h-3.9059zm-10.077-15.562h8.6119v4.2319h-2.3526v11.33h-3.9506v-11.33h-2.3087v-4.2319zm-2.1305 0v3.9133h-3.9503v2.0027h2.7963v3.9133h-2.7963v1.865h3.9503v3.8676h-7.8565v-15.562h7.8565zm-13.45 15.562-0.9763-7.8264-1.598 7.8264h-2.2193l-1.7759-7.8264-1.0653 7.8264h-3.9066l2.2639-15.562h4.0396l1.4646 6.8719 1.554-6.8719h3.9062l2.2193 15.562h-3.9062z" clip-rule="evenodd" fill="#1B3675" fill-rule="evenodd"/>
<path d="m18.134 45.446c0.2279-0.0011 0.4149 0.1739 0.4166 0.3887s-0.1836 0.3909-0.4111 0.3922c-0.2284 0.0023-0.4152-0.1717-0.4163-0.3864-0.0015-0.2159 0.1826-0.3922 0.4108-0.3945zm2.8719-7.3456c6.614 0.2463 11.892 5.6849 11.938 12.358 0.0473 6.8601-5.5168 12.494-12.386 12.542-6.8697 0.0479-12.511-5.5086-12.558-12.369-0.04638-6.6851 5.2375-12.205 11.864-12.526l0.0167 3.5374c-4.6923 0.3-8.4106 4.2331-8.378 8.9854 0.0193 2.7963 1.334 5.2903 3.3695 6.9173l3.3842-8.9095-2.3496 0.0174s-0.464-0.0909-0.7271 0.1285c-0.263 0.252-0.5585 0.5356-0.5585 0.5356s-0.0438-1.4682 0.021-1.6233c0.0648-0.1891 0.2539-1.6585 0.9104-2.4112 0.6568-0.7236 1.715-0.8252 1.715-0.8252l7.5128-0.0513-1.084 1.132 2.609 11.79c1.9166-1.656 3.1258-4.1047 3.1068-6.8239-0.0321-4.7337-3.7747-8.6015-8.4441-8.8652l0.0368-3.5386z" clip-rule="evenodd" fill="#1B3675" fill-rule="evenodd"/>
</svg>
