<?xml version="1.0" encoding="UTF-8"?>
<svg fill="none" viewBox="0 0 248 100" xmlns="http://www.w3.org/2000/svg">
<rect width="248" height="100" fill="#fff"/>
<g clip-path="url(#a)">
<path d="m58.352 34.664h8.8546v35.207h-8.8546v-35.207z" fill="#263F80"/>
<path d="m58.353 56.266c-1.5185 3.3186-4.8647 5.624-8.7476 5.624-5.3186 0-9.6247-4.3083-9.6247-9.6211 0-5.3171 4.3061-9.6247 9.6247-9.6247 3.8829 0 7.2291 2.3047 8.7476 5.6211v-11.27c-2.5774-1.4793-5.5614-2.3309-8.7476-2.3309-9.7236 0-17.605 7.8814-17.605 17.604 0 9.7186 7.8815 17.602 17.605 17.602 3.1862 0 6.1702-0.8509 8.7476-2.3324v-11.273z" fill="#5FBBE9"/>
<path d="m82.4 65.077c0 2.8153-2.2829 5.0945-5.0945 5.0945-2.8146 0-5.0982-2.2792-5.0982-5.0945s2.2836-5.0967 5.0982-5.0967c2.8116 0 5.0945 2.2814 5.0945 5.0967z" fill="#263F80"/>
<path d="m137.29 41.643c-1.684 0-2.62 1.4967-2.62 3.0742 0 1.5752 0.936 3.0734 2.62 3.0734 1.703 0 2.64-1.4982 2.64-3.0734 0-1.5775-0.937-3.0742-2.64-3.0742zm0-2.336c2.982 0 5.643 1.8305 5.643 5.4102 0 3.5774-2.661 5.4102-5.643 5.4102-2.963 0-5.646-1.8328-5.646-5.4102 0-3.5797 2.683-5.4102 5.646-5.4102z" fill="#263F80"/>
<path d="m100.14 54.894c1.434 0 2.828 0.3281 4.038 0.963v1.7229c-1.045-0.6975-2.399-1.0466-3.751-1.0466-2.9735 0-6.0695 1.7833-6.0898 5.8837-0.0197 3.8349 3.1782 5.68 6.1508 5.68 1.475 0 2.808-0.3499 3.792-1.0473v1.7229c-1.189 0.6153-2.624 0.9636-4.162 0.9636-3.6077 0-7.5437-2.5425-7.5226-7.3192 0.0211-4.9804 3.8131-7.523 7.5446-7.523z" fill="#5FBBE9"/>
<path d="m107.84 69.49v-8.3237h-3.629v-1.517h8.877v1.517h-3.608v8.3237h-1.64z" fill="#5FBBE9"/>
<path d="m120.27 60.921c-1.764 0-3.076 1.1476-3.628 2.4196v2.4596c0.552 1.2713 1.864 2.419 3.628 2.419 1.906 0 3.464-1.395 3.464-3.6495 0-2.2538-1.558-3.6487-3.464-3.6487zm0.184-1.5164c2.808 0 4.92 2.2138 4.92 5.1651 0 2.952-2.112 5.1665-4.92 5.1665-1.886 0-3.095-0.8807-3.812-1.7214v5.9854h-1.641v-14.35h1.476v1.64c0.882-1.0044 2.091-1.8851 3.977-1.8851z" fill="#5FBBE9"/>
<path d="m172.44 64.57c0 2.2545 1.558 3.6494 3.464 3.6494 1.763 0 3.076-1.1476 3.628-2.4189v-2.4596c-0.552-1.272-1.865-2.4196-3.628-2.4196-1.906 0-3.464 1.3949-3.464 3.6487zm7.257-3.28v-1.64h1.476v9.8407h-1.641v-1.4756c-0.717 0.8407-1.926 1.7214-3.812 1.7214-2.81 0-4.92-2.2145-4.92-5.1665 0-2.9513 2.11-5.1651 4.92-5.1651 1.886 0 3.095 0.8807 3.977 1.8851z" fill="#5FBBE9"/>
<path d="m128.24 64.57c0 2.2545 1.558 3.6494 3.465 3.6494 1.762 0 3.074-1.1476 3.628-2.4189v-2.4596c-0.554-1.272-1.866-2.4196-3.628-2.4196-1.907 0-3.465 1.3949-3.465 3.6487zm7.257-3.28v-1.64h1.476v9.8407h-1.64v-1.4756c-0.717 0.8407-1.927 1.7214-3.813 1.7214-2.809 0-4.92-2.2145-4.92-5.1665 0-2.9513 2.111-5.1651 4.92-5.1651 1.886 0 3.096 0.8807 3.977 1.8851z" fill="#5FBBE9"/>
<path d="m148.26 59.65-3.608 4.7768 3.813 5.064h-1.886l-2.87-3.8953-2.89 3.8953h-1.887l3.835-5.064-3.629-4.7768h1.886l2.685 3.6291 2.666-3.6291h1.885z" fill="#5FBBE9"/>
<path d="m153.76 60.962c-2.009 0-3.606 1.3323-3.606 3.608 0 2.2756 1.597 3.608 3.606 3.608 2.01 0 3.61-1.3324 3.61-3.608 0-2.2757-1.6-3.608-3.61-3.608zm0-1.5571c2.686 0 5.249 1.8036 5.249 5.1651 0 3.3622-2.563 5.1665-5.249 5.1665-2.665 0-5.247-1.8043-5.247-5.1665 0-3.3615 2.582-5.1651 5.247-5.1651z" fill="#5FBBE9"/>
<path d="m162.5 68.056h3.689c1.025 0 1.764-0.3084 1.764-1.3949 0-1.1688-0.882-1.4342-1.702-1.4342h-3.751v2.8291zm0-4.2444h3.586c0.861 0 1.538-0.3273 1.538-1.3324 0-1.1061-0.841-1.3949-1.538-1.3949h-3.586v2.7273zm-1.641 5.6793v-9.8408h5.392c1.721 0 3.034 0.9222 3.034 2.6662 0 1.0248-0.574 1.8451-1.313 2.1717 0.8 0.2669 1.62 1.0451 1.62 2.2756 0 1.6204-1.046 2.7273-3.177 2.7273h-5.556z" fill="#5FBBE9"/>
<path d="m183.65 69.49v-9.8408h1.641v4.1615h5.697v-4.1615h1.641v9.8408h-1.641v-4.1622h-5.697v4.1622h-1.641z" fill="#5FBBE9"/>
<path d="m194.94 69.49v-9.8408h1.64v7.1957l6.027-7.1957h1.394v9.8408h-1.639v-7.1964l-6.027 7.1964h-1.395z" fill="#5FBBE9"/>
<path d="m210.94 60.921c-1.682 0-3.239 1.0036-3.362 2.9301h6.374c0.144-1.0443-0.513-2.9301-3.012-2.9301zm-0.103-1.5164c3.793 0 5.186 3.096 4.571 5.8836h-7.83c0.204 2.0698 2.07 2.9309 4.059 2.9309 1.209 0 2.398-0.328 3.239-0.7985v1.5978c-0.902 0.472-2.194 0.7178-3.486 0.7178-2.911 0-5.452-1.6603-5.452-5.1665 0-3.4444 2.562-5.1651 4.899-5.1651z" fill="#5FBBE9"/>
<path d="m114.57 47.82c-1.702 0-2.651-1.2218-2.651-2.672 0-1.4509 0.949-2.7992 2.651-2.7992 1.723 0 2.672 1.3483 2.672 2.7992 0 1.4502-0.949 2.672-2.672 2.672zm0.108-7.6509c-0.99 0-1.952 0.2873-2.791 0.7477 0.291-0.7811 0.906-1.544 2.099-1.9724 1.852-0.664 4.862-0.7869 5.304-1.5244v-2.5178c-1.006 0.9768-4.84 0.7426-7.256 2.2931-1.758 1.1287-3.077 3.7651-2.902 7.5637 0 3.4836 2.528 5.368 5.546 5.368 2.895 0 5.479-1.6859 5.479-4.979 0-3.2938-2.584-4.9789-5.479-4.9789z" fill="#263F80"/>
<path d="m176.33 49.829v-7.7324h-3.259v-2.4923h9.458v2.4923h-3.26v7.7324h-2.939z" fill="#263F80"/>
<path d="m166.91 47.79c-1.683 0-2.621-1.4982-2.621-3.0734 0-1.5775 0.938-3.0742 2.621-3.0742 1.704 0 2.641 1.4967 2.641 3.0742 0 1.5752-0.937 3.0734-2.641 3.0734zm0-8.4836c-2.595 0-4.977 1.4065-5.526 4.1644h-1.614v-3.8662h-2.962v10.225h2.962v-3.8676h1.613c0.55 2.7571 2.932 4.1651 5.527 4.1651 2.982 0 5.645-1.8328 5.645-5.4102 0-3.5797-2.663-5.4102-5.645-5.4102z" fill="#263F80"/>
<path d="m151.44 39.604h-5.095l-1.14 6.4604c-0.155 0.8829-0.783 1.4029-1.621 1.2545v2.5389c0.053 0.0109 0.103 0.0233 0.154 0.0328 2.377 0.4181 3.949-0.8648 4.377-3.2873l0.794-4.5069h2.531v7.7323h2.961v-10.225h-2.961z" fill="#263F80"/>
<path d="m98.749 43.912c1.096-2.8647 2.1857-5.7513 2.2377-6.0334 0.053 0.2821 1.137 3.1687 2.228 6.0334h-4.4657zm6.7327 5.9171h3.302l-6.071-14.912h-3.4517l-6.0924 14.912h3.3019s0.5789-1.4945 1.3221-3.4247h6.3741c0.738 1.9302 1.315 3.4247 1.315 3.4247z" fill="#263F80"/>
<path d="m127.28 39.285c1.129 0 2.133 0.256 3.05 0.7462v2.408c-0.725-0.5128-1.644-0.7964-2.624-0.7964-1.618 0-3.173 1.008-3.173 3.0742 0 1.96 1.533 3.0734 3.131 3.0734 1.086 0 2.026-0.2865 2.773-0.7738v2.4284c-1 0.4269-2.049 0.6822-3.347 0.6822-2.792 0-5.581-1.619-5.581-5.2619 0-3.9185 2.939-5.5803 5.771-5.5803z" fill="#263F80"/>
</g>
<defs>
<clipPath id="a">
<rect x="32" y="34" width="184" height="40" fill="#fff"/>
</clipPath>
</defs>
</svg>
