<?xml version="1.0" encoding="UTF-8"?>
<svg fill="none" viewBox="0 0 248 100" xmlns="http://www.w3.org/2000/svg">
<rect width="248" height="100" fill="#fff"/>
<g clip-path="url(#a)">
<path d="m76.037 47.736h9.4375c4.234 7.3643 10.366 13.496 17.731 17.732v9.437c-12.748-4.3279-22.838-14.419-27.168-27.168z" fill="#30B9AD"/>
<path d="m103.2 47.736v17.732c-7.3646-4.2352-13.497-10.367-17.731-17.732h17.731z" fill="#1757A0"/>
<path d="m103.2 47.736h-17.731c-2.2116-3.8472-3.9061-8.0303-4.9837-12.453h10.264c6.8769 0 12.45 5.5764 12.45 12.453z" fill="#30B9AD"/>
<path d="m115.66 60.19v10.256c-4.423-1.0733-8.608-2.7691-12.454-4.9788v-17.732c6.877 0 12.454 5.5764 12.454 12.454z" fill="#F7911B"/>
<path d="m103.11 35.284c1.375 6.2533 6.297 11.175 12.55 12.55v-12.55h-12.55z" fill="#30B9AD"/>
<path d="m136.35 50.66v12.677h-3.868v-12.677h-4.108v-2.9758h12.082v2.9758h-4.106zm24.282-1.5473c1.072-0.8339 2.68-1.6667 4.584-1.6667 4.464 0 6.607 3.1546 6.607 7.6776 0 5.7134-3.214 8.6297-7.856 8.6297-4.583 0-7.084-2.9163-7.084-9.6412 0-5.5939 1.31-9.4036 3.215-11.248 1.368-1.3691 2.916-2.0242 5.534-2.6788 1.608-0.4169 3.156-0.6539 3.751-0.8927l1.427 3.2139c-0.772 0.4764-2.201 0.774-5.058 1.3697-3.274 0.6546-4.763 1.7849-5.12 5.237zm3.572 11.486c2.559 0 3.512-2.0818 3.512-5.0582 0-2.6782-0.774-4.8806-3.393-4.8806-1.428 0-2.5 0.357-3.273 1.0115-0.178 1.0127-0.12 2.6182-0.12 3.6303 0 3.2152 1.012 5.297 3.274 5.297zm-12.498 2.7382-5.238-7.32v7.32h-3.928v-15.653h3.928v6.8449l4.642-6.8449h4.286l-5.06 7.0824 5.952 8.5704h-4.582z" fill="#1757A0"/>
</g>
<defs>
<clipPath id="a">
<rect x="76" y="35" width="95.909" height="40" fill="#fff"/>
</clipPath>
</defs>
</svg>
