<?xml version="1.0" encoding="UTF-8"?>
<svg fill="none" viewBox="0 0 248 100" xmlns="http://www.w3.org/2000/svg">
<rect width="248" height="100" fill="#fff"/>
<g clip-path="url(#a)" fill="#00377B">
<path d="m112.11 50.576h-4.284l-4.285 10.093-4.203-10.093h-4.3985l-4.1273 9.7895-0.9925 2.3321h4.1652l0.9546-2.522h4.3605l0.955 2.522h6.616l3.135-8.7536 3.059 8.7536h4.209l-0.537-1.2257-4.627-10.896zm-14.985 6.8445h-1.2203l1.2203-3.4385v0.0379l1.2636 3.4006h-1.2636z"/>
<path d="m116.73 53.9c-0.304 0.8406-0.499 1.7951-0.499 2.907 0 0.9545 0.189 1.8331 0.499 2.6358 0.84 1.9904 2.641 3.2487 4.778 3.2487h5.391v-3.0209h-3.477c-2.104 0-3.248-0.461-3.248-2.945 0-2.5219 1.149-3.1348 3.248-3.1348h3.477v-3.0209h-5.353c-2.137 0.0054-3.976 1.1932-4.816 3.3301z"/>
<path d="m166.32 47.403h-0.84v18.277h0.84v-18.277z"/>
<path d="m90.814 57.957c0.9925-1.1498 0.9925-2.7172 0.9925-3.2108 0-0.4989 0-1.9524-0.9925-3.0209-0.6129-0.6508-1.5674-1.1443-3.1728-1.1443h-8.1082v12.116h3.8995v-3.5199h4.2087c1.6054 0 2.5599-0.5369 3.1728-1.2202zm-4.5504-1.7627h-2.8311v-2.6413h2.8691c0.4176 0 1.5674 0 1.5674 1.2637 0 1.3776-1.1498 1.3776-1.6054 1.3776z"/>
<path d="m131.65 58.912v-8.3359h-3.937v12.122h4.702l4.626-8.5638v8.5638h3.938v-12.122h-4.816l-4.513 8.3359z"/>
<path d="m149.73 55.164h-4.051v-1.5674h7.609v-3.0209h-11.508v12.122h7.994c4.089 0 4.089-2.484 4.089-3.8616 0-1.3016 0-3.6717-4.133-3.6717zm-0.688 4.7022h-3.363v-1.8711h3.363c0.878 0 0.878 0.6128 0.878 0.8786 6e-3 0.3037 6e-3 0.9925-0.878 0.9925z"/>
<path d="m189.73 52.067h-0.993l-3.633 9.0248h1.99l0.765-2.0284h3.742l0.727 2.0284h2.104l-3.634-9.0248h-1.068zm0 5.5049h-1.302l1.264-3.7097 0.038 0.076 1.301 3.6337h-1.301z"/>
<path d="m181.2 55.544h-1.492v-1.9091h3.976v-1.5674h-5.771v9.0248h3.287c2.598 0 3.211-1.6813 3.211-2.6358 5e-3 -1.1498-0.532-2.9125-3.211-2.9125zm-0.076 4.1328h-0.271-1.15v-2.7118h1.15 0.271c0.841 0.0759 1.377 0.5369 1.377 1.3776 0 0.8406-0.531 1.2582-1.377 1.3342z"/>
<path d="m47.3 49.008h-0.6508c-0.3797 10.245-1.3396 16.097-3.1348 19.156 1.1877 0.3851 2.484 0.5749 3.7856 0.5749 1.3017 0 2.5599-0.1898 3.7477-0.5749-1.7572-3.0589-2.7172-8.9109-3.0969-19.156h-0.6508z"/>
<path d="m208.69 56.156 3.786-4.0894h-2.18l-3.287 3.8616h-0.038v-3.8616h-1.833v9.0248h1.833v-4.4744h0.038l3.368 4.4744h2.327l-4.014-4.9354z"/>
<path d="m49.936 44.8c-0.2658-3.8995-0.2658-5.4669-0.3037-7.4194h-0.9546c0 0.038 0.038 5.429 0.0759 7.1862-0.3416-0.038-0.6887-0.038-1.0304-0.0759v-12.122h-0.8461v12.122c-0.3417 0.0379-0.6888 0.0379-1.0305 0.0759 0.038-1.7572 0.076-7.1482 0.076-7.1862h-0.9546c-0.0379 1.9525-0.0379 3.5199-0.3037 7.4194-5.4344 1.1878-9.4857 6.0418-9.4857 11.818 0 4.2466 2.1802 7.9509 5.4669 10.131 4.3985-4.3984 5.0872-16.824 5.0872-17.664-0.6508 0.038-1.4914 0.2278-1.6053 0.2658-0.9925 5.814-3.4819 10.706-6.3076 13.347-1.0684-1.5674-1.6433-3.2867-1.6433-4.9734 0-5.353 5.1252-9.4803 11.129-9.4803 6.0038 0 11.086 4.1273 11.086 9.4803 0 1.6813-0.537 3.4005-1.6054 4.9734-2.8311-2.6359-5.353-7.5333-6.3076-13.342-0.1139-0.038-0.9545-0.2278-1.6053-0.2658 0 0.8407 0.6888 13.266 5.0872 17.664 3.2867-2.1803 5.467-5.89 5.467-10.131-0.0055-5.7815-4.0568-10.636-9.4912-11.823z"/>
<path d="m72.384 55.739-2.5274-5.1632h-4.393l4.892 8.6776-1.9471 3.444h4.2412l6.5408-12.122h-4.2466l-2.5599 5.1632z"/>
<path d="m201.08 55.701h-3.666v-3.6338h-1.839v9.0248h1.839v-3.8995h3.666v3.8995h1.839v-9.0248h-1.839v3.6338z"/>
</g>
<defs>
<clipPath id="a">
<rect x="35" y="32" width="177.89" height="36.88" fill="#fff"/>
</clipPath>
</defs>
</svg>
