<?xml version="1.0" encoding="UTF-8"?>
<svg fill="none" viewBox="0 0 248 100" xmlns="http://www.w3.org/2000/svg">
<rect width="248" height="100" fill="#fff"/>
<g clip-path="url(#a)">
<path d="m42.619 39.231v5.674h-2.2324c-2.8202 0-5.0925 2.2387-5.0925 5.018 0 2.7783 2.2723 5.0171 5.0914 5.0171h2.2335v5.6739c5.0915-0.9649 8.8922-5.3649 8.8922-10.692 0-5.2873-3.7997-9.6873-8.8922-10.691z" fill="#003791"/>
<path d="m40.387 56.715c-3.7997 0-6.8954-3.0485-6.8954-6.7917 0-3.7431 3.0946-6.7927 6.8933-6.7927h0.4316v-4.1308h-0.4306c-6.1097 0-11.085 4.9018-11.085 10.922 0 6.0605 4.9751 10.962 11.086 10.962h0.4306v-4.1675h-0.4306v-0.0021zm26.793-2.971c-0.8975 0.7261-2.0176 1.1212-3.1721 1.1188-2.7815 0-5.0139-2.2-5.0139-4.9405 0-2.7395 2.2314-4.9395 5.0139-4.9395 1.2106-0.0052 2.381 0.4339 3.2895 1.234l1.7631-1.7359c-1.3864-1.2481-3.1872-1.9362-5.0526-1.9307-4.1528 0-7.4821 3.3199-7.4821 7.3721 0 4.0532 3.3293 7.4108 7.4821 7.4108 1.9192 0 3.6425-0.6945 4.9353-1.8522l-1.7632-1.7369zm79.716-10.614-5.523 6.5613-5.563-6.5613-0.039 0.0775v-0.0775h-2.233v13.587h2.233v-9.9587l5.602 6.5613 5.523-6.4062v9.8036h2.194v-13.587h-2.194zm-61.226 6.7928c0 4.092-3.3692 7.3721-7.4821 7.3721-4.1517 0-7.4811-3.3189-7.4811-7.3721 0-4.0522 3.3681-7.3721 7.4811-7.3721 4.1129 0 7.4821 3.3199 7.4821 7.3721zm-2.507 0c0-2.7395-2.2325-4.9395-5.0139-4.9395s-5.0139 2.2-5.0139 4.9395c0 2.7405 2.2325 4.9405 5.0139 4.9405s5.0139-2.2 5.0139-4.9405zm48.104 0c0 4.092-3.37 7.3721-7.483 7.3721-4.152 0-7.482-3.3189-7.482-7.3721 0-4.0522 3.37-7.3721 7.482-7.3721 4.152 0 7.483 3.3199 7.483 7.3721zm-2.469 0c0-2.7395-2.232-4.9395-5.014-4.9395-2.781 0-5.013 2.2-5.013 4.9395 0 2.7405 2.232 4.9405 5.013 4.9405 2.742 0 5.014-2.2 5.014-4.9405zm-12.534-6.7928h-3.018l-5.679 5.7127h-2.311v-5.7127h-2.193v13.587h2.193v-5.6739h2.271l5.681 5.6739h2.977l-6.737-6.7551 6.816-6.8315z" fill="#FF4B5F"/>
<path d="m209.18 43.13h-2.975l-5.72 5.7126h-2.311v-5.7126h-2.194v13.587h2.194v-5.674h2.311l5.64 5.674h2.977l-6.698-6.7551 6.776-6.8315zm-32.434 13.586h2.43l-6.073-13.586h-2.507l-6.071 13.587h2.429l1.331-2.9334h7.13l1.331 2.9334v-0.0011zm-7.48-5.0946 2.584-5.7116 2.586 5.7116h-5.171 1e-3z" fill="#003791"/>
<path d="m100.24 52.779c1e-3 -0.5371-0.111-1.0683-0.3268-1.56-0.2158-0.4918-0.5314-0.9334-0.9267-1.2969 0.7438-0.7333 1.2535-1.7369 1.2535-2.8558-3e-3 -1.0466-0.4215-2.049-1.1634-2.7872s-1.7464-1.1517-2.793-1.1498h-8.0688v13.624h8.0688c2.1937-0.0377 3.9564-1.8134 3.9564-3.9746zm-9.7927-7.4486h5.7975c0.9796 0 1.7621 0.771 1.7621 1.7359s-0.7825 1.7369-1.7621 1.7369h-5.7975v-3.4739 0.0011zm5.7975 9.2232h-5.7975v-3.5116h5.8363c0.9795 0 1.7631 0.8098 1.7631 1.737-0.0398 0.9638-0.8223 1.7746-1.8019 1.7746z" fill="#FF4B5F"/>
<path d="m191 43.169v5.6739h-8.03v-5.6739h-2.233v13.509h2.233v-5.6362h8.03v5.6362h2.233v-13.509h-2.233zm-27.263 9.6109c0-2.1623-1.802-3.937-3.996-3.937h-5.798v-3.5126h8.462v-2.2h-10.694v13.624h8.03c2.194-0.0377 3.996-1.8135 3.996-3.9747zm-3.996 1.7747h-5.798v-3.5117h5.798c0.979 0 1.763 0.8099 1.763 1.737 0 0.9638-0.784 1.7747-1.763 1.7747z" fill="#003791"/>
</g>
<defs>
<clipPath id="a">
<rect x="29.301" y="39" width="188.57" height="22" fill="#fff"/>
</clipPath>
</defs>
</svg>
