<?xml version="1.0" encoding="UTF-8"?>
<svg fill="none" viewBox="0 0 248 100" xmlns="http://www.w3.org/2000/svg">
<rect width="248" height="100" fill="#fff"/>
<g clip-path="url(#a)">
<path d="m105.95 45.142h5.9v15.384h6.323v-15.384h5.9v-5.6903h-18.123v5.6903z" fill="#DD1E26"/>
<path d="m137.56 45.142h9.273v-5.6903h-9.272c-8.52 0-13.068 4.2361-13.068 10.537 0 6.3013 4.548 10.537 13.068 10.537h9.272v-5.6895h-9.273c-3.942 0-6.535-1.4092-6.535-4.8472 0-3.4373 2.593-4.8469 6.535-4.8469z" fill="#DD1E26"/>
<path d="m93.091 39.452-3.3704 12.579-3.3704-12.579h-11.169v21.074h6.3222v-17.141l4.593 17.141h7.2488l4.5956-17.152v17.152h6.3225v-21.074h-11.172z" fill="#DD1E26"/>
<path d="m60.43 61.79c-5.8275 0-8.4295-4.6747-8.4295-9.3097 0-3.1663 1.0702-6.8124 2.8633-9.7576 1.7204-2.8436 3.8068-4.5353 5.5662-4.5353 1.7545 0 3.8398 1.6917 5.5757 4.5353 1.7843 2.9452 2.8537 6.5913 2.8537 9.7576 0 4.635-2.6072 9.3097-8.4294 9.3097z" fill="#DD1E26"/>
<path d="m158.36 45.559h-2.23v2.0619h2.23c0.566 0 0.901-0.29 0.901-0.8249v-0.3817c0-0.5498-0.289-0.8553-0.901-0.8553zm0.566 4.4297h-5.774v-10.54h8.493v2.5203h-5.515v1.375h2.796c2.337 0 3.467 1.1608 3.467 3.2075 0 2.1538-1.13 3.4369-3.467 3.4369z" fill="#DB1E26"/>
<path d="m166.92 45.681h2.352l-1.176-3.8952-1.176 3.8952zm3.62-6.2322 3.253 10.54h-3.222l-0.612-2.0165h-3.727l-0.596 2.0165h-2.779l3.253-10.54h4.43z" fill="#DB1E26"/>
<path d="m181.32 49.988v-4.0785h-3.406v4.0785h-3.055v-10.54h3.055v3.8644h3.406v-3.8644h3.056v10.54h-3.056z" fill="#DB1E26"/>
<path d="m189.27 43.314h0.535l2.734-3.8644h3.223l-3.513 5.0253 3.819 5.5145h-3.529l-2.826-4.0789h-0.443v4.0789h-3.055v-10.54h3.055v3.8644z" fill="#DB1E26"/>
</g>
<defs>
<clipPath id="a">
<rect x="52" y="38" width="144.23" height="23.79" fill="#fff"/>
</clipPath>
</defs>
</svg>
