<?xml version="1.0" encoding="UTF-8"?>
<svg viewBox="0 0 248 100" xmlns="http://www.w3.org/2000/svg">
<rect width="248" height="100" fill="#fff"/>
<path d="m92.799 28.238c0-0.1248-0.0412-0.2497-0.0823-0.4577l-2.5903-7.1571c-0.329-0.8738-0.7813-1.2483-1.4802-1.2483-0.7401 0-1.1924 0.3745-1.4802 1.2483l-2.6315 7.1571c-0.0823 0.2496-0.1234 0.3745-0.1234 0.4577 0 0.3745 0.2879 0.6658 0.699 0.6658 0.329 0 0.5757-0.1665 0.7401-0.5826l0.8635-2.455h3.8649l0.8635 2.455c0.1233 0.4161 0.37 0.5826 0.699 0.5826 0.37 0.0416 0.6579-0.2913 0.6579-0.6658zm-5.6742-3.6201 1.2747-3.7034c0.0411-0.1248 0.0822-0.1664 0.2055-0.1664 0.0823 0 0.1234 0.0416 0.1645 0.1664l1.2746 3.7034h-2.9193zm17.474 4.2443h2.796c1.81 0 2.92-1.0819 2.92-2.9544 0-1.7893-1.069-2.7879-2.92-2.7879h-2.467v-2.2886h4.112c0.452 0 0.74-0.2497 0.74-0.7074 0-0.4161-0.288-0.6658-0.74-0.6658h-4.482c-0.699 0-1.11 0.3745-1.11 1.1235v7.1571c0.082 0.749 0.452 1.1235 1.151 1.1235zm0.371-4.4524h2.302c1.069 0 1.562 0.5826 1.562 1.5396 0 0.9987-0.493 1.5812-1.562 1.5812h-2.302v-3.1208zm-16.159 13.024h-2.7548v-2.9128h4.564c0.2878 0 0.5345-0.1664 0.5345-0.4577s-0.2056-0.4577-0.5345-0.4577h-4.6873c-0.5346 0-0.8224 0.2913-0.8224 0.8322v7.7812c0 0.5409 0.2878 0.8322 0.8224 0.8322h2.8781c1.768 0 2.796-1.0403 2.796-2.8295 0-1.7893-1.028-2.7879-2.796-2.7879zm-0.1233 4.6604h-2.6315v-3.7866h2.6315c1.3568 0 1.9325 0.6658 1.9325 1.8725s-0.5346 1.9141-1.9325 1.9141zm6.7842-6.2416c-0.8223 0-1.6035 0.208-2.0147 0.4161-0.2878 0.1248-0.4112 0.2496-0.4112 0.4993s0.2056 0.4161 0.4112 0.4161c0.1234 0 0.2467-0.0416 0.3701-0.1248 0.3289-0.1249 0.9457-0.3329 1.5624-0.3329 1.1924 0 1.768 0.4993 1.768 1.5812v0.6658c-0.7401-0.2081-1.2746-0.2913-1.9325-0.2913-1.768 0-2.6314 1.0403-2.6314 2.1637 0 1.3732 1.0279 2.247 2.5903 2.247 1.3158 0 2.3437-0.4577 2.7137-0.749 0.1645-0.1248 0.2056-0.208 0.2056-0.4161v-3.6617c-0.0411-1.6228-1.0279-2.4134-2.6315-2.4134zm1.6447 5.9087c-0.5345 0.2913-1.2335 0.4993-1.8502 0.4993-1.1513 0-1.8092-0.4993-1.8092-1.3731 0-0.7906 0.5757-1.3316 1.8092-1.3316 0.6167 0 1.1512 0.0832 1.8502 0.2913v1.9141zm24.506-20.056c-1.234 0-2.221 0.4577-2.591 0.6658-0.328 0.208-0.37 0.3329-0.37 0.8738v7.2403c0 0.4577 0.288 0.749 0.699 0.749 0.412 0 0.699-0.2913 0.699-0.749v-1.8725c0.412 0.208 1.069 0.3745 1.686 0.3745 1.645 0 2.755-1.0819 2.878-2.6631 0.041-0.5409 0.041-1.4148 0-1.9557-0.123-1.5812-1.233-2.6631-3.001-2.6631zm1.603 4.4108c-0.082 0.9154-0.658 1.4979-1.644 1.4979-0.535 0-1.193-0.1664-1.522-0.4161v-3.7449c0.329-0.2497 0.987-0.4161 1.522-0.4161 1.028 0 1.562 0.6241 1.644 1.4979 0.041 0.4994 0.041 1.0819 0 1.5813zm-23.642 1.5812-2.4259-2.4551 2.3026-2.3302c0.1644-0.1664 0.2878-0.3745 0.2878-0.5825 0-0.3329-0.2467-0.5826-0.6168-0.5826-0.2056 0-0.37 0.0832-0.5345 0.2913l-2.3848 2.3718c-0.1233 0.1248-0.2467 0.2081-0.4522 0.2081h-0.4934v-2.0806c0-0.4577-0.2879-0.749-0.699-0.749-0.4112 0-0.699 0.2913-0.699 0.749v5.6175c0 0.4577 0.2878 0.749 0.699 0.749 0.4111 0 0.699-0.2913 0.699-0.749v-2.247h0.4111c0.1645 0 0.329 0.0832 0.4523 0.2081l2.5081 2.5382c0.2056 0.2081 0.3701 0.2913 0.5757 0.2913 0.37 0 0.6167-0.2497 0.6167-0.6242 0-0.2496-0.0822-0.4161-0.2467-0.6241zm31.578-1.4148c-0.329 0-0.494 0.208-0.617 0.4161-0.247 0.5409-0.74 0.9154-1.48 0.9154-0.987 0-1.604-0.6241-1.686-1.4979-0.041-0.4994-0.041-1.0403 0-1.5396 0.082-0.9155 0.658-1.498 1.686-1.498 0.699 0 1.233 0.3745 1.48 0.9154 0.123 0.2081 0.288 0.4161 0.617 0.4161 0.411 0 0.699-0.2497 0.699-0.6658 0-0.208-0.082-0.4161-0.206-0.6657-0.411-0.7906-1.315-1.3732-2.59-1.3732-1.727 0-2.878 1.1235-3.043 2.7047-0.041 0.541-0.041 1.4148 0 1.9141 0.165 1.5812 1.316 2.7047 3.043 2.7047 1.275 0 2.179-0.6242 2.59-1.4148 0.124-0.2496 0.206-0.4577 0.206-0.6657-0.041-0.4161-0.288-0.6658-0.699-0.6658zm-16.981-4.5772c-0.782 0-1.481 0.2081-1.933 0.3745-0.37 0.1665-0.534 0.3745-0.534 0.6658 0 0.3329 0.246 0.6241 0.575 0.6241 0.165 0 0.329-0.0832 0.535-0.1248 0.288-0.1248 0.781-0.2497 1.274-0.2497 1.069 0 1.522 0.4162 1.522 1.2484v0.5825c-0.617-0.1664-1.152-0.2496-1.727-0.2496-1.768 0-2.632 1.0402-2.632 2.1221 0 1.2899 0.987 2.2886 2.673 2.2886 1.316 0 2.344-0.4577 2.755-0.749 0.205-0.1248 0.246-0.2497 0.246-0.5409v-3.4537c0.042-1.7477-0.986-2.5383-2.754-2.5383zm1.439 5.7007c-0.411 0.208-0.987 0.3745-1.522 0.3745-0.904 0-1.48-0.4161-1.48-1.0819 0-0.6242 0.494-1.1235 1.48-1.1235 0.535 0 0.987 0.0832 1.563 0.2497v1.5812h-0.041zm-5.839 12.026 2.673-2.7047c0.123-0.1248 0.164-0.2497 0.164-0.3745 0-0.2081-0.164-0.4161-0.411-0.4161-0.123 0-0.247 0.0416-0.37 0.1664l-2.631 2.6631c-0.165 0.1665-0.288 0.2497-0.494 0.2497h-0.452v-2.5383c0-0.3329-0.165-0.4993-0.452-0.4993-0.288 0-0.453 0.1664-0.453 0.4993v6.1584c0 0.3329 0.165 0.4993 0.453 0.4993 0.287 0 0.452-0.1664 0.452-0.4993v-2.7463h0.493c0.206 0 0.37 0.0832 0.494 0.2497l2.796 2.8295c0.123 0.1248 0.246 0.1664 0.37 0.1664 0.246 0 0.411-0.208 0.411-0.4161 0-0.1664-0.041-0.2496-0.206-0.4161l-2.837-2.8711zm-4.769-3.5369c-0.288 0-0.453 0.1664-0.453 0.4993v2.5383h-3.865v-2.5383c0-0.3329-0.164-0.4993-0.452-0.4993-0.2877 0-0.4522 0.1664-0.4522 0.4993v6.1584c0 0.3329 0.1645 0.4993 0.4522 0.4993 0.288 0 0.452-0.1664 0.452-0.4993v-2.7463h3.865v2.7463c0 0.3329 0.165 0.4993 0.453 0.4993 0.287 0 0.452-0.1664 0.452-0.4993v-6.1584c0-0.2913-0.165-0.4993-0.452-0.4993z" fill="#212121"/>
<path d="m131.78 61.859-6.291 1.1651c-1.028 0.2081-1.727 1.2067-1.563 2.247 0.206 1.0403 1.193 1.7476 2.221 1.5812l6.291-1.1651c1.48-0.2913 2.425 0.6242 2.795 1.5812 0.371 0.9571 0.288 2.247-0.986 3.0792l-9.21 6.0752c-0.864 0.5825-1.892 0.5825-2.796 0.1248-0.905-0.4993-1.439-1.4148-1.439-2.455v-14.938c0-2.4966-1.275-4.6604-3.454-5.8671-2.138-1.2067-4.688-1.0819-6.743 0.2497l-23.272 15.271c-2.6315 1.706-3.6183 4.8268-2.467 7.7812 1.1512 2.9544 3.9883 4.5356 7.0721 3.9946l20.311-3.7033c1.028-0.2081 1.727-1.2067 1.563-2.247-0.206-1.0403-1.193-1.7476-2.221-1.5812l-20.311 3.7034c-1.5213 0.2912-2.4259-0.6242-2.796-1.5813-0.37-0.957-0.2878-2.2469 0.9868-3.0792l23.272-15.271c0.863-0.5825 1.891-0.5825 2.796-0.1248 0.904 0.4993 1.439 1.4147 1.439 2.455v14.938c0 2.4966 1.274 4.6604 3.453 5.8671 0.987 0.5409 2.097 0.8322 3.166 0.8322 1.234 0 2.467-0.3745 3.578-1.0819l9.251-6.0752c2.631-1.706 3.618-4.8268 2.467-7.7812-1.193-2.9543-4.03-4.5771-7.113-3.9946zm32.564 3.953c-1.151-2.9543-3.988-4.5355-7.072-3.9946l-6.291 1.1651c-1.028 0.208-1.727 1.2067-1.562 2.247 0.205 1.0402 1.192 1.7476 2.22 1.5812l6.291-1.1651c1.48-0.2913 2.426 0.6241 2.796 1.5812 0.37 0.957 0.288 2.247-0.987 3.0792l-9.21 6.1168c-0.864 0.5825-1.891 0.5825-2.796 0.1248-0.905-0.4993-1.439-1.4148-1.439-2.455v-19.682c0-1.0819-0.864-1.9557-1.933-1.9557s-1.932 0.8738-1.932 1.9557v19.682c0 2.4966 1.275 4.6604 3.454 5.8671 0.987 0.5409 2.097 0.8322 3.166 0.8322 1.233 0 2.467-0.3745 3.577-1.0819l9.251-6.0752c2.632-1.7476 3.618-4.8684 2.467-7.8228z" fill="#009B3A"/>
</svg>
