<?xml version="1.0" encoding="UTF-8"?>
<svg fill="none" viewBox="0 0 248 100" xmlns="http://www.w3.org/2000/svg">
<rect width="248" height="100" fill="#fff"/>
<g clip-path="url(#a)" fill="#2E3F4B">
<path d="m103.76 34.001v0.0074l-3.557 3.5299v-3.5373h-3.5575v4e-4 -4e-4l-5.9285 5.8822v15.294h2.3714v-14.117l4.7433-4.706v18.823h2.3713v-14.117l4.743-4.706v18.823h2.372v-21.176h-3.558z"/>
<path d="m67.001 55.177h9.4864v-21.176h-3.558v5e-4l-3e-4 -0.0011-5.9295 5.883 0.0014 0.0014v15.292zm7.1146-18.823v16.47h-4.7429v-11.764l4.7429-4.7058z"/>
<path d="m88.345 34.001h-9.4859v21.176h9.4859v-21.176zm-7.1146 2.3529h4.743v16.47h-4.743v-16.47z"/>
<path d="m67.002 59.883h40.316v-2.3531h-40.316v2.3531z"/>
<path d="m67.002 62.236v11.764h2.3717v-2.3527h14.229v-9.4117h-16.601zm14.229 7.0587h-11.858v-4.7057h11.858v4.7057z"/>
<path d="m85.974 62.236v9.4117h9.4863v2.3527h2.3713v-2.3527h9.4865v-9.4117h-21.344zm2.3713 2.353h7.1146v4.7057h-7.1146v-4.7057zm16.601 4.7057h-7.1145v-4.7057h7.1145v4.7057z"/>
<path d="m144.79 60.47h-4.262v-10.586h7.042v1.8432h-4.963v2.1403h2.183c2.138 0 3.452 1.3695 3.452 3.3013 0 1.9335-1.3 3.3009-3.452 3.3009zm-0.105-4.7575h-2.078v2.915h2.078c0.927 0 1.48-0.58 1.48-1.4584 0-0.8615-0.553-1.4566-1.48-1.4566z"/>
<path d="m157.13 60.47-0.629-1.8725h-3.782l-0.644 1.8725h-2.166l3.872-10.586h1.629l3.887 10.586h-2.167zm-2.483-7.4633-1.345 3.8505h2.645l-1.3-3.8505z"/>
<path d="m167.16 60.47v-4.4316h-3.603v4.4316h-2.078v-10.586h2.078v4.3257h3.603v-4.3257h2.078v10.586h-2.078z"/>
<path d="m172.49 60.47v-10.586h2.078v5.0256l3.439-5.0256h2.482l-3.573 4.9667 3.931 5.619h-2.541l-3.738-5.5311v5.5311h-2.078z"/>
<path d="m126.29 73.996h-2.371v-39.99h2.371v39.99z"/>
</g>
<defs>
<clipPath id="a">
<rect x="67" y="34" width="113.85" height="40" fill="#fff"/>
</clipPath>
</defs>
</svg>
