<?xml version="1.0" encoding="UTF-8"?>
<svg fill="none" viewBox="0 0 116 116" xmlns="http://www.w3.org/2000/svg">
<path d="m41.967 89.709-0.9202-2.737c-4.04-0.5175-9.7611-1.0511-12.869-0.4412-5.142 1.0088-8.5728-3.5074-8.5728-3.5074 9.1032 1.7468 15.072-15 15.072-15s-8.497 0.7244-20.967-3.6534c-12.47-4.3781-4.2309 13.263-2.248 25.47 1.9826 12.207-3.0586 14.86-3.0586 14.86s28.125 3.582 37.146 0c0 0 1.1939-10.613-3.5819-14.991z" fill="#e5e6f0"/>
<path d="m40.377 48.807s12.165 11.533 24.917 9.9446l1.3427-8.3017s-18.706 1.6723-24.317-17.936" fill="#e5e6f0"/>
<path d="m40.377 48.807s12.165 11.533 24.917 9.9446l1.3427-8.3017s-18.706 1.6723-24.317-17.936" stroke="#daeaf2" stroke-miterlimit="10" stroke-width="5e-5"/>
<path d="m42.339 32.5139-.565 7.5094c2.2251 2.3487 10.1716 9.8704 23.0511 10.6188.7553.0439 1.3537.0118 1.8136-.0867l.017-.105s-18.7055 1.6722-24.3167-17.9365z" fill="#4d495f"/>
<path d="m72.3098 49.6831c-.1345.0273 1.4367.8017 1.7502 4.0103 1.0433-.4958 6.7343-4.0388 7.5798-10.0493.0834-.5917.0424-1.3716.1103-1.7147-.6555 1.8223-3.5512 6.5636-9.4403 7.7537z" fill="#e5e6f0"/>
<path d="m89.39 58.263s4.4165 17.911-4.9185 27.544c-0.6962 0.7184-0.8797 1.7908-0.4705 2.7037l6.8954 15.389-10.926 5.97-0.2045-3.677s-9.8779-7.8649-11.072-16.621c-1.194-8.7557 16.318-29.916 16.318-29.916z" fill="#9173fa"/>
<path d="m86.646 64.336-6.9006 2.1564c-5.0505 6.9695-11.808 17.502-11.051 23.051 0.2541 1.8639 0.9027 3.6874 1.765 5.4034 0.8821-1.0603 1.9239-1.9922 3.1024-2.7544 5.7634-3.7269 14.728-12.145 13.084-27.857z" fill="#4d495f"/>
<path d="m87.729 58.748-2.9843 0.3489c-4.4009 0.5147-8.6248 2.0344-12.345 4.4414 0 0-23.088 13.546-18.706 45.981l-2.1837 2.387h13.332l3.8121-16.697c0.8071-3.5357 2.9447-6.6351 5.99-8.6045 5.7633-3.7268 14.728-12.145 13.084-27.857z" fill="#9173fa"/>
<g fill="#4d495f">
<path d="m70.4829 34.1509c-.0611-.0212-.1062-.0371-.1738-.061-.0955-.0385-.1194-.0557-.2096-.0915l-.0186-.008-.0027-.0278c-.0106-.0863-.0172-.142-.0265-.2163-.0225-.3078-.0212-.6673-.0146-.9804.0226-.4125.0717-.9432.1977-1.4234.0159-.0796.0477-.1845.0597-.2389.1313-.4099.3383-.8782.5532-1.1966.0623-.0743.0955-.1353.1698-.2189.1075-.126.1592-.1538.26-.2494.0571-.053.1115-.0928.1407-.1127.0543-.0558.1472-.1168.2215-.1712.2149-.1326.5187-.2679.7509-.325-.0027.0067-.065.0279-.138.0531-.0372.0133-.077.0265-.1141.0398-.0358.0159-.069.0331-.0929.0477-.0504.0212-.0941.0412-.1313.0597-.0371.0199-.069.0412-.0982.0597-.057.0398-.1074.069-.1618.1101-.0743.0584-.0716.0995-.0862.1459-.0637.0571-.1473.1221-.1659.1672-.0716.0611-.0968.1101-.0995.1499-.0411.0557-.0623.0253-.1021.0982-.0518.1101-.1871.272-.1446.3608-.0345.016-.0677.0743-.0995.1354-.0358.0782-.0372.1459-.0358.2096-.0332.065-.0584.1366-.0889.2056-.0518.1008.057.122.0451.2043-.2043.4285-.203.8304-.325 1.2497.0225.2401-.0359.3913.0079.6102.0013.1818-.0716.4391-.0106.5758-.0438.0955-.057.2176-.0517.3409.0517.0292.1087.0504.1684.0703l.2004.0664.065.2374c.0239.0863.053.1765.0703.276.0252.1353.0398.2918.0597.4457l.0079.0571.008.0464c.0066.0305.0119.061.0186.0902.0106.0597.0384.1088.061.1566.0159.0689.065.1432.0438.1963.1167.1274.2149.264.3422.39.1247.1247.28.2335.4564.2919.012.0398.1035.0623.1433.0928.1114.0305.13-.0013.2189.0027.0132.0345.0597.0571.1207.0677.0597.0066.1327.0092.1977.0066.0995-.0279.1791-.0398.2481-.069.0689-.0252.1313-.0491.1989-.0942.0677-.0318.0889-.0305.1141-.0344.0491-.0332.1804-.0889.2733-.1354.004.0146-.2613.1619-.455.2693-.1446.0677-.3343.1473-.5307.1752-.1154.0185-.0849.0026-.1817.0105-.1486.0093-.2653-.0026-.3861-.0252-.1194-.0225-.2427-.061-.3993-.13-.1499-.0836-.2573-.1592-.3502-.2441-.0478-.0437-.0955-.0835-.138-.1353-.0451-.0504-.0928-.1034-.1379-.1698-.1115-.1645-.1446-.2613-.2176-.4431-.0252-.0809-.0491-.1552-.073-.2268-.0186-.065-.0371-.1287-.0557-.1924-.0292-.1592-.0743-.3661-.0942-.5001-.004-.0199-.0079-.0372-.0119-.0518z" clip-rule="evenodd" fill-rule="evenodd"/>
<path d="m71.3622 32.8684c.0411.1287.1629.2049.2724.1699.1093-.0347.1648-.1672.1238-.2959-.0409-.1287-.1627-.2048-.2721-.17-.1096.0348-.165.1673-.1241.296z"/>
<path d="m70.2753 32.1044 2.0757-.2583c.6559-.0816 1.261.3639 1.3778 1.0145l.5231 2.9107c.0423.2358.2838.3793.5112.3037l3.0545-1.0162c1.5881-.5283 2.4023-2.2865 1.7765-3.8387-.507-1.2578-1.4148-2.6371-3.0398-3.5656-2.1381-1.2218-7.8489-.7018-7.755 3.9382.0055.2737 1.2043.5455 1.476.5117z"/>
<path d="m41.8669 27.2445-.0014.0053c-.0039.0159-.0079.0398-.0119.0636-.0079.0465-.0119.1009-.0159.1552-.008.1088-.008.2256-.008.3437.0027.2361.0186.4816.0412.7349.0716.8663.2308 1.9077.4484 2.8802.2162.9737.4842 1.8785.7097 2.4953.2892.9565.723 2.0961 1.2908 3.2529.5652 1.1595 1.267 2.3336 2.0271 3.3829.8305 1.2219 1.9024 2.4556 3.2847 3.7053.9194.8304 2.047 1.6915 3.241 2.4171 1.1913.7283 2.445 1.316 3.5408 1.7233.1831.0743.3847.1419.585.2162.2003.0703.398.1513.5904.2096.3834.1221.715.2375.8968.3025.918.2481 1.8639.4683 2.831.6435.2415.0464.4869.0782.731.118l.3661.0583c.1234.0186.2468.0306.3702.0465.2467.0292.4935.0584.7415.0889.2481.0199.4975.0411.7469.0623.9977.069 2.0059.1035 3.0075.0545l.3768-.0133.3741-.0292c.2494-.0213.4988-.0345.7469-.0624.2467-.0305.4948-.061.7402-.0915.2481-.0265.4909-.0796.735-.1181.2176.0093 1.1754-.1977 1.5972-.2865.276-.0717.4949-.1314.6793-.1831s.3303-.1128.4723-.1619c.2825-.1035.5386-.1897.9565-.3608.0623-.004.2003-.0411.3887-.1021.0955-.0279.2003-.0677.3131-.1168.114-.0477.2361-.0995.3661-.1552.1287-.0571.268-.1114.4046-.1791.1353-.069.2746-.1406.4153-.2136.1393-.0717.2825-.1419.4192-.2175.134-.0796.2653-.1579.3927-.2348.4205-.2508.7575-.5201 1.0798-.7483.1606-.1154.2972-.2441.4378-.3582.1393-.1181.276-.2281.4033-.3422.2428-.2415.4829-.4657.7098-.7098.1074-.1273.2162-.2547.3276-.3873.1088-.134.2309-.2614.3317-.4166.207-.276.3409-.4418.4404-.5585.0531-.0584.0916-.1061.1261-.1526.0358-.0438.069-.0849.1048-.1287.1313-.2388.3927-.6155.6182-1.0732.2573-.4391.463-.9618.6553-1.393.0319.0213-.0132.1951-.1127.475-.0504.1406-.1141.3077-.1884.4948-.0836.1818-.1871.3807-.2932.5943-.4391.8491-1.1223 1.8613-1.8241 2.6068-.9472 1.1264-2.4543 2.2805-4.0529 3.099-.4789.2295-.6593.3025-.8212.3636-.1658.053-.3104.0968-.723.2613-1.2642.4882-2.299.7429-3.3869.9552-1.0904.2069-2.2446.3489-3.7954.4059-1.5575.0159-2.7289-.0876-3.8672-.2216-1.1369-.1419-2.2459-.3157-3.6601-.658-.8663-.2295-1.5071-.4391-2.1372-.6699-.3131-.1221-.6328-.2282-.9658-.3741-.337-.1406-.7005-.2839-1.1064-.4749-.1805-.081-.3582-.1566-.528-.2362-.1685-.0823-.333-.1632-.4949-.2414-.3237-.1526-.6248-.3157-.9167-.4683-.5797-.3157-1.1011-.6275-1.5946-.9393-.6076-.4444-1.2855-.987-1.9037-1.5508-.6195-.5612-1.178-1.1422-1.5853-1.6198-.3954-.4325-.6527-.7323-.8968-1.0109-.2388-.2826-.4617-.544-.7482-.93-.146-.199-.2601-.3635-.3569-.5121-.0982-.1472-.1791-.2772-.26-.4086-.0796-.13-.1605-.2613-.2494-.4125-.0916-.1513-.195-.3224-.3224-.5333-.4471-.7377-.6699-1.0932-1.0043-1.7207-.6434-1.2656-1.2244-2.693-1.6835-4.1616-.4576-1.4699-.8012-2.9783-.9856-4.4084-.0518-.5121-.0969-1.0414-.0717-1.6105.004-.0717.0093-.1447.0186-.2203.0066-.0398.0119-.0769.0212-.1194l.0173-.0663c.0066-.0239.0199-.0544.0305-.0809.0093-.0265.0623-.0969.0822-.1115l.0584-.0437.0584-.0411c.0199-.0133.0451-.0239.0676-.0346l.0717-.0305c.0252-.0079.0517-.0119.0783-.0172l.0795-.0133.0796.0027c.215.0159.3781.1234.5042.2321.1287.1128.2268.2388.3117.3715.1725.2653.2866.5546.3688.857.0544.2295.2149.4391.406.6394.3621.3675.8238.6872 1.2987.9552l.6103-.2732c.0332-.0133.0531-.0253.0968-.0412.0531-.0159.0995-.0371.1579-.0411.0597-.0013.1194-.0067.1751.0119.0279.0066.0557.0146.0836.0239.0239.0119.0464.0252.0703.0385.1804.1101.2653.252.3423.382.1459.2654.2228.5307.2958.796.0332.1327.065.2653.0916.3993.0278.1313.0504.2375.0928.3543.1566.4537.4564.8436.8676 1.1076.4338.2985.8663.5944 1.2962.8889.6235.4179 1.4393.983 1.8678 1.247.796.5665 1.6305 1.1621 2.4835 1.7445.2149.1407.4298.28.6461.4219.2215.1327.447.2561.6712.3847.2216.134.4577.2389.6886.3556l.3462.1698c.1168.0544.2362.1008.3542.1526.1181.0491.2362.0981.3542.1485.1181.0491.2348.0996.3569.1394.2388.0849.4776.1684.7151.252.4815.1406.9551.2892 1.4314.3834.4696.1181.9406.1778 1.393.2547.2281.0239.4523.0465.6725.069.1102.0093.219.0252.3277.0305.1088.004.2163.0093.3237.0133.2149.0199.4153.0398.6089.0504.1951.0013.3848.0039.5771.0066h.2932c.0982-.0013.2004-.0106.3052-.0159.2096-.012.4324-.0239.6779-.0384.3674-.0332.6752-.0584.9485-.077.2733-.0318.5108-.0597.7429-.0876.2335-.0199.455-.065.6978-.1061.2428-.0424.5068-.0849.8093-.1698.6819-.1751 1.2589-.3821 1.5787-.459.6487-.2468 1.6065-.5771 2.3919-.861.2732-.0862.5571-.1751.8503-.2667.2919-.0902.5904-.2003.8982-.2905.6142-.1897 1.2576-.3595 1.9077-.4842 1.2948-.256 2.6346-.3038 3.7105-.0452-.049.0438-.642-.0703-1.3598-.0689-.7163-.0133-1.5468.0889-2.043.1977-.9963.1724-1.6967.386-2.299.5863-.601.2083-1.1117.3914-1.718.5904-.8159.2812-.9976.3913-1.3465.5479-.7628.2547-1.7233.5757-2.1253.7097-.2162.0597-.4112.1128-.5837.1606-.1711.053-.3277.0782-.4617.114-.2693.065-.463.1181-.6009.1632-.3357.0584-.4829.0743-.6448.0942-.1632.0199-.3383.0478-.7363.0902-.1432.0173-.2985.0372-.4643.0571-.1658.0239-.3423.0238-.5227.0371-.1804.0106-.3661.0199-.5505.0305-.1858 0-.3702 0-.5506 0-.1804-.0013-.3555.0053-.52-.0026-.1645-.008-.3197-.0146-.4604-.0199-.1406-.0053-.2666-.0093-.3727-.0107-.1075 0-.1937-.0079-.2574-.0053-.1579-.0292-.402-.0623-.6912-.1008-.2892-.0451-.6222-.1101-.9644-.1698-.4113-.0876-.7642-.1658-1.0812-.2388-.3158-.0822-.5957-.1565-.8663-.2268l-.5294-.191c-.1764-.0664-.3568-.1208-.528-.1977l-.7787-.333-.252-.1234c-.2548-.1287-.4352-.2149-.5745-.2759-.1393-.0624-.2308-.1115-.3197-.1473-.1725-.0783-.3157-.1314-.6792-.3357-.2441-.1605-.4843-.3183-.723-.4748-.2362-.1566-.4591-.3171-.6846-.4723-.451-.3118-.8941-.6169-1.3279-.918-.873-.5983-1.7167-1.1781-2.5472-1.7486l-.9313-.6381-.1539-.1048c-.053-.0385-.1127-.0796-.1658-.1234-.4351-.3449-.7509-.8305-.8955-1.3624-.0185-.0664-.0331-.134-.0477-.2003l-.0358-.1778c-.0252-.118-.0531-.2348-.0849-.3502-.0624-.2282-.1407-.4537-.2428-.6328-.0504-.0876-.1168-.1539-.1473-.1671-.0079-.004-.0106-.0001-.0159-.0067-.0053.0053-.0066-.0013-.0146.0013-.0053.0027-.0093.004-.0146.0054-.0053.0026-.004-.0014-.0239.0066l-.0862.0384c-.2321.1009-.4643.2017-.6991.3025l-.1115.0491-.0995-.0557c-.122-.0664-.2374-.1353-.3555-.2109-.5001-.3052-.9392-.6249-1.2948-1.0349-.0438-.0517-.0875-.1021-.126-.1618-.0398-.057-.0823-.1101-.1141-.1751-.0319-.065-.0703-.1207-.0915-.195-.0239-.0663-.0531-.1499-.0637-.1937-.0571-.2083-.1367-.4086-.2375-.5891-.0995-.1791-.2282-.3448-.3635-.4337-.0663-.0438-.1273-.0637-.1698-.0611-.0106.004-.0199.0067-.0318.0067-.0106.0026-.0226.0119-.0345.0159-.0106.0013-.0226.0146-.0345.0239z" clip-rule="evenodd" fill-rule="evenodd"/>
<path d="m87.1987 47.6969c.0738-.0191.1488.2723.2235.4794.0663.1449.134.3335.1995.5149.0362.108.0015.0859.0287.1775.0927.2759.128.4368.2328.7542.0694.3278.113.4915.2099.7896.05.186.0517.2845.0975.4715.0467.163.0954.2905.1448.4074.0173.1609.0554.3681.0567.5055.0203.1244.0468.1639.069.2647.0196.1044.0034.1339.0231.2381.02.0906.044.1316.065.2053.0618.299.1276.6476.2056.9464.0654.4042.18.9154.2544 1.3964.0183.0793.0321.1861.0523.2379.0287.4245.1165.9171.204 1.2833-.0008.0963.0166.162.034.2691.0131.1622-.0141.221-.0121.359.0082.0765.0122.1426.0049.1793.0238.0727.0426.181.0628.2697.0008.2501.067.5707.0573.809-.0502-.0036-.0565-.2544-.0902-.3612-.0175-.2181-.0503-.3119-.0634-.449-.0145-.0922-.0413-.1113-.0649-.1496-.011-.086-.0184-.1954-.0358-.2388-.0068-.0966-.0199-.1503-.0372-.1791-.0124-.0718.0065-.0649-.0107-.149-.0311-.1196-.0478-.3393-.089-.3872.0045-.0353-.0052-.1054-.0162-.1787-.0149-.0885-.0333-.1509-.0524-.208l-.0323-.238c-.0143-.1209-.0474-.0908-.0662-.1775-.0542-.5081-.1459-.9112-.2023-1.3651-.0577-.2396-.0747-.4023-.13-.6204-.0359-.1877-.0717-.4531-.115-.5903-.0158-.219-.0865-.5222-.1604-.7956-.0205-.1602-.0714-.3303-.1134-.5293-.0597-.2637-.1227-.605-.1914-.8502-.0166-.085-.047-.1915-.0447-.2353-.1294-.3938-.2077-.8376-.3257-1.2522.0108-.0269-.0197-.1292-.0206-.1776-.024-.1224-.0504-.1354-.0749-.2308.0311-.036-.0059-.2002-.0287-.3273-.0645-.2025-.0838-.3134-.1519-.4598-.0215-.0723-.013-.0928-.0084-.1195-.0293-.0527-.0586-.1906-.088-.2887z" clip-rule="evenodd" fill-rule="evenodd"/>
<path d="m72.4196 63.5615c-.0301-.0266.0231-.1202.0905-.247.0678-.1268.1512-.2883.2079-.4312.0737-.2082.1596-.4741.2352-.7313.0426-.1531.0557-.1039.0948-.2317.1014-.394.1692-.6146.2598-1.0728.1189-.4536.1592-.6889.2176-1.1231.0444-.2659.0857-.396.1245-.6631.0254-.2367.0347-.4266.034-.6028.0499-.2204.0907-.5127.1368-.6977.023-.1751.0124-.2385.0249-.3826.015-.1483.0401-.182.0551-.3303.009-.1302-.002-.1942.0001-.3013.0256-.4273.0512-.925.034-1.3567.0145-.5731-.0239-1.3062-.1048-1.9782-.0157-.1122-.0392-.2592-.0611-.3322-.0506-.5861-.2768-1.2555-.5339-1.7056-.0425-.1252-.0929-.2048-.1648-.3358-.099-.2012-.1089-.2832-.1966-.454-.0581-.0902-.1035-.1704-.123-.2175-.0726-.0775-.1645-.1998-.2513-.292-.0936-.1463-.2248-.2986-.3585-.4447-.0682-.0719-.1359-.1431-.201-.2119-.0328-.0335-.0649-.0663-.0966-.0987l-.045-.0481-.0215-.0239-.0105-.0118-.0051-.0058-.0024-.0031-.0013-.0013-.0007-.0008-.0005-.0005c.0119-.0134-.027.0295.0268-.03l-.0268.0297.0001-.0001.0003-.0002.0005-.0004.0011-.0004.0023-.0008c.0018-.0004.0036-.0004.0056-.0002.0041.0002.009.0016.0145.0038.011.0044.0243.0123.0396.023.0308.0215.0692.0537.1102.0896.0822.0719.1691.1645.2316.212.2035.2321.3067.3243.4238.4803.0843.1017.1218.113.1704.1502.0735.0995.1547.2325.1991.2805.0726.1174.1141.1835.1495.2138.0563.0878.034.085.0978.1894.1017.1445.2237.4343.2853.4905.0127.0481.0522.1411.0916.2399.052.1177.0887.2024.1288.2788.0386.1081.0703.2189.1044.3287.0419.1695.0695.1252.1072.2477.0795.3604.1296.689.1669 1.0072.0386.3184.06.6281.0637.9535.0286.3495.0184.5818.0321.901.0029.2721-.0286.6509-.0206.8546-.0406.3078-.055.7486-.0784 1.1496-.033.2265-.0427.4778-.0765.7646-.0436.3816-.1249.8668-.172 1.225-.0203.121-.0439.2765-.067.333-.0721.5834-.2256 1.205-.3839 1.7974-.0259.0271-.0612.1747-.0921.2354-.0591.1671-.0436.2006-.0877.334-.0497.0236-.1268.2493-.2052.415-.1001.2844-.1743.4248-.2523.6401-.0487.096-.0722.1114-.0984.1365-.0144.0399-.0509.1012-.0914.1687-.0409.0676-.0968.1352-.1375.1961z" clip-rule="evenodd" fill-rule="evenodd"/>
<path d="m89.3971 57.4279c-.0083-.0369.1672-.1279.3948-.2705.2277-.1414.5061-.3351.7193-.5252.3-.2784.6527-.6603.9173-1.0782.0818-.1208.1086-.1669.1402-.2034.0294-.0376.0596-.0684.1163-.1777.171-.3331.2823-.6052.3733-.8979.088-.2932.1643-.606.2067-1.0328.0589-.4266.0512-.754.0397-1.0712-.024-.3183-.0549-.6261-.143-1.0247-.0454-.2462-.0742-.4318-.103-.6178-.0147-.093-.0293-.186-.0452-.2864-.0192-.0999-.0452-.2066-.0739-.3285-.1132-.4268-.1963-.7689-.3167-1.0718-.0512-.204-.1097-.4369-.1663-.6624-.0557-.2265-.1316-.4377-.1741-.6083-.0513-.1556-.0906-.259-.1283-.3554-.0368-.0965-.0727-.1854-.1262-.3084-.1031-.2562-.108-.326-.2115-.5825-.09-.2249-.1576-.3228-.2482-.4996-.0861-.179-.1759-.3651-.2675-.5551-.0979-.1865-.2044-.3733-.3078-.562l-.1566-.2817c-.0572-.0906-.1144-.1809-.1709-.2703-.1144-.1781-.2262-.3534-.3376-.5195-.1519-.2185-.3143-.4518-.4836-.6955-.1829-.2337-.3722-.4784-.572-.7222-.4121-.4775-.8544-.9627-1.316-1.3945-.1558-.1426-.3564-.3369-.4744-.4167-.7971-.7589-1.8779-1.5052-2.7456-1.9467-.2106-.1297-.3635-.2158-.6171-.3384-.3698-.2026-.4851-.2901-.8019-.4565-.1832-.0821-.3395-.1536-.4201-.2015-.187-.0612-.4534-.166-.6788-.2359-.5963-.2539-1.4212-.476-2.0154-.6151.0304-.0532.6679.1101.9482.1755.5481.1673.794.2349 1.1325.3618.2314.0802.2927.0845.4007.1057.2137.0808.4732.2065.5881.2414.2305.1082.3621.1676.4421.1892.1753.0789.1448.0845.3483.1823.2979.1285.7955.4256.935.4664.0725.0552.2316.1522.3994.2534.2039.1206.3469.2123.4849.288.178.1143.3481.2404.5192.3649.2577.1918.2296.1209.4166.2625 1.0506.8489 1.8509 1.6023 2.6131 2.5414.2126.2461.3743.4635.5383.6696.1593.21.301.4237.4793.6617.2847.4186.6369 1.032.8247 1.3605.066.1296.1379.2711.2145.4217.0727.1536.1495.3163.2287.4838.0773.1684.1715.3353.2422.513.0758.1754.1518.3512.226.523.039.0995.0784.2007.1192.3048.0373.1058.0756.2143.1152.3261.079.2236.1691.4585.2526.714.0971.3439.2149.7343.3136 1.1239.0907.3918.1801.7776.2562 1.1057.038.2247.0932.5119.0998.6232.1204.5296.1968 1.1067.1903 1.6891-.0052.5829-.0981 1.171-.2644 1.7246-.0373.0533-.1238.3257-.1873.4353-.1381.3019-.1457.3566-.2728.5877-.0322.0222-.1117.1257-.2048.2593-.0975.1308-.2169.287-.331.4133-.3582.4334-.5933.6171-.9109.8958-.1601.1197-.2077.1308-.2669.158-.1211.0989-.4434.283-.6965.3877z" clip-rule="evenodd" fill-rule="evenodd"/>
<path d="m39.0499 14.4087c.4736.3064.8902.6779 1.2444 1.0759.4577.5121.8185 1.0599 1.117 1.58.1154.2693.2308.4922.329.7323.0504.1194.1075.2388.1605.3701.0504.1313.1048.2706.1645.4259.1566.4709.2309.7946.2906 1.0997.0331.1526.057.3012.0849.4617.0278.1618.0636.3343.0981.5386.0995.4551.1566.8491.1725 1.064.1035.4431.2083 1.0971.2852 1.6384.1088 1.4951.2242 3.4611.081 4.8793-.0478-.0292-.0412-.4192-.0438-.8835.0013-.4656-.0067-1.0082-.0345-1.3372-.0279-1.3147-.1221-1.8932-.2017-2.7157-.069-.5572-.1419-.6832-.2096-.922-.0756-.5134-.1791-1.1608-.2627-1.4208-.053-.2839-.1034-.5055-.1525-.6753-.0491-.1711-.0876-.2932-.1247-.3781-.1274-.4165-.065-.3754-.2375-.8583-.0318-.0862-.065-.1804-.1021-.2812-.0385-.0982-.0796-.203-.1221-.3104-.0783-.2163-.1804-.4366-.2719-.6448-.0916-.2096-.199-.3967-.2813-.5545-.0862-.1552-.1725-.268-.2242-.329-.0424-.0929-.1101-.2322-.2123-.3834-.0995-.1553-.2135-.3356-.3515-.5041-.3197-.4192-.6089-.6647-.8769-.8783-.069-.069-.1473-.1234-.2229-.1817l-.2295-.1738c-.1579-.1075-.3263-.199-.4882-.3012l-.4391-.2733.7177-.2082c.719-.1858.5559-.2163 1.0785-.3503 1.523-.3184 2.9133-.5094 4.2705-.6208 1.3584-.1075 2.6837-.1221 4.0701-.0173.7469.0398 1.3664.1035 1.9674.1911.5996.0875 1.182.1897 1.8519.3303.2839.0676.597.1366.9128.2348.1592.0478.3197.0942.4815.1419.1606.0465.3184.1075.475.1593.1565.0543.3117.1061.4616.1578.1499.0544.2919.1141.4299.1658.2732.1075.5253.195.7256.2826.2959.1526.6342.2985.9764.4909.1725.0915.3516.1857.5347.2825.1777.1048.3595.2123.5439.3198.3754.2083.7336.4656 1.1064.7044.1844.1207.3569.26.536.3887.1751.1313.3568.2587.5226.3887.7363.6275 1.5933 1.255 2.5896 1.9555.6633.4617 1.4301.9764 2.2235 1.4075.3966.2136.8012.4047 1.1966.5493.394.1433.7867.2348 1.1223.2268.2269.0013.4577-.069.5811-.2016.1194-.1194.1685-.284.1897-.3848v-.0981l.4563-.0146c.0014.0451 0 .0809-.0026.1154.0676 2.4383.0133 5.073-.0093 7.6029-.0371.1393-.0371.7841-.065 1.0653-.0279.7509.0146.8689.004 1.4619-.0836.1579-.1101 1.1701-.1592 1.9435-.0186 1.2789-.065 1.9502-.0478 2.9133-.0159.4537-.0464.5559-.0756.7018.0159.3556-.0438 1.1993-.0677 1.8162-.1512-.0266-.0517-1.8308-.0398-3.1508-.0185-.9485-.0092-2.1478-.0145-3.302-.0014-.6832.0517-.4988.057-1.0719-.0093-1.7445.0172-2.7328-.008-4.7334.0319-1.8374.0292-2.8456-.0119-4.4389-.1167.0836-.2481.142-.3781.1738-.4365.1022-.8583.0278-1.3532-.1088-.5094-.1433-.9379-.3317-1.3332-.5081-.0982-.0451-.1937-.0889-.2892-.1327-.0929-.0464-.1831-.0915-.2733-.1366-.1818-.0876-.3542-.1778-.5214-.2667-.8198-.5359-1.8506-1.2828-2.4649-1.8148-.5983-.4656-.8318-.5996-1.3186-.9857-.4975-.4059-.5904-.524-1.0905-.9114-.2216-.1658-.4033-.2653-.5665-.3675-.0822-.0491-.1618-.0981-.2454-.1485-.0823-.0517-.1698-.1035-.2693-.1566-.7721-.4762-1.6504-.9166-2.5578-1.2947-.9074-.3768-1.8559-.6567-2.7474-.861-1.1767-.3052-2.5524-.5201-3.9945-.613-1.4434-.0862-2.9504-.0557-4.3938.0743-.4816.0478-1.1184.1221-1.4354.1898-1.0547.1154-2.1956.3104-3.2874.6036z" clip-rule="evenodd" fill-rule="evenodd"/>
<path d="m28.8297 78.5197c-.0568-.0516.1121-.3485.3627-.7339.1253-.1927.2711-.4078.4194-.6256.0743-.1089.1492-.2186.2224-.3264.0703-.1098.1358-.2201.1994-.3246.3354-.6201.8164-1.3678 1.2107-2.1276.2431-.4431.2227-.2979.433-.6669.0767-.1424.1537-.2743.2209-.4048.0668-.1307.1309-.2558.1932-.3776.1262-.2427.2457-.4726.3679-.7077.1213-.2358.2514-.4734.3812-.7408.1256-.2693.2624-.5629.419-.8991.1687-.3315.3194-.6208.45-.8927.1243-.275.2383-.5277.3512-.7775.2202-.5023.4379-.9922.6775-1.6454.3212-.7924.5333-1.169.828-1.9732.2537-.7105.436-1.2838.5739-1.8236.1381-.3296.2892-.7138.437-1.0839.1468-.3707.2768-.7318.3969-1.0074.1846-.529.2162-.7261.353-1.1642.1418-.4507.217-.5463.3591-.9973.1173-.3968.1513-.5955.2336-.9253.1781-.6559.3867-1.3608.5701-2.0742.1786-.7146.3685-1.428.5025-2.1014.4616-1.7635.9121-4.0509 1.3204-6.1783.0624-.3566.1501-.8269.1692-1.0696.4143-1.841.7258-4.0528.8723-5.7157.0816-.4168.1034-.7169.1595-1.1962.1012-.7159.204-.9486.3-1.5527.0399-.3407.0802-.632.1206-.7874.005-.3367.0443-.8243.0623-1.2275.162-1.0966.2157-2.5518.3286-3.5938.1016.0407.0001 1.1563.0023 1.6482-.084.9739-.0856 1.4086-.146 2.0214-.0327.416.0047.5199.0237.7065-.036.3866-.1037.8723-.1013 1.0765-.0566.4294-.0725.6747-.0631.815-.0333.3251-.0637.2786-.0971.6614-.0361.5497-.1901 1.5223-.1541 1.7689-.04.1496-.085.4629-.1306.7925-.0508.3989-.0743.6869-.0945.9532-.0554.3543-.111.7092-.1665 1.0638-.0962.5371-.0054.4398-.0598.8336-.4204 2.2514-.727 4.0779-1.1981 6.0738-.2141 1.0832-.3943 1.7924-.607 2.7777-.1871.8378-.5395 1.9858-.6655 2.6165-.1556.4642-.3254 1.0327-.4935 1.6396-.1722.6057-.3545 1.2466-.528 1.8574-.1142.3431-.2355.7025-.357 1.0869-.1222.3841-.2475.7924-.3916 1.2258-.2066.5711-.4423 1.2228-.675 1.8659-.2491.6371-.4926 1.2666-.686 1.8047-.1469.3591-.3352.8198-.4301.9846-.084.2168-.1687.4355-.2543.6563-.0438.1101-.0878.2205-.132.3314-.0478.1094-.0958.2193-.1439.3294-.1947.4397-.3958.8836-.5994 1.3289-.2037.4454-.4346.8808-.6506 1.3215-.1092.2199-.2182.4393-.327.658-.1112.2175-.2298.4304-.3424.6449-.08.0755-.3013.501-.4211.6755-.1394.2424-.2093.3882-.2717.5219-.0667.1311-.1246.2508-.2369.4413-.129.0627-.5187.7077-.8353 1.1892-.5026.8082-.7909 1.2177-1.1441 1.8427-.1944.2764-.2617.3234-.3445.399-.1299.2306-.5099.7327-.7735 1.1084z" clip-rule="evenodd" fill-rule="evenodd"/>
</g>
<path d="m55.6554 85.7639c.911-.2507 1.6495-.5801 2.2181-1.0126 1.2695-.9659 2.8568-5.6579 4.3376-11.4567-3.6192-.283-5.7619 4.6125-7.2584 7.9951-.5314 1.201-1.7857 2.7046.7027 4.4742z" fill="#fff"/>
<path d="m43.1984 101.177c.0345-.458.0438-.814.073-1.4764.0464-.1513.0915-.7137.1048-1.4275.0159-.7137-.0053-1.576-.0478-2.3229-.1034-1.2298-.2348-2.1651-.4046-3.0128-.1711-.8477-.3714-1.6132-.7004-2.4782-.077-.2043-.1367-.3687-.1844-.5067-.0531-.1353-.0956-.2428-.1287-.3343-.0664-.1831-.1022-.2985-.1552-.4298-.0836-.1486-.1765-.3596-.3145-.5891-.065-.1154-.1353-.2401-.2096-.3701-.0809-.1247-.1645-.256-.2507-.3914-.3542-.5319-.8079-1.0719-1.243-1.4765.0331-.0212.2109.1181.4908.3688.1287.1366.2852.2972.4497.4909.1526.2003.337.4165.4962.6726.6898.9963 1.259 2.429 1.6039 3.6641.5426 1.7671.8504 4.1046.9021 6.3506.0159.6647-.0027.9074-.0172 1.1236-.016.2163-.0306.4047-.0531.9632-.0186.4839-.0465.9369-.0836 1.3269l-.0093.101-.0928.033c-.3158.112-.6196.221-.9167.326-.3025.085-.5984.167-.8902.249-.2932.079-.5877.133-.8796.201-.2932.069-.589.118-.8915.17-.6009.114-1.2298.191-1.9116.286-.341.036-.6979.076-1.072.116-.3727.043-.7668.067-1.182.106-1.9488.12-3.4174.147-4.8541.172-1.4354.012-2.8403.02-4.6591-.008-2.2407-.061-3.3591-.156-5.5958-.277-1.9687-.1-3.5407-.179-4.9921-.252-1.8612-.19-4.2996-.438-5.85043-.655-1.45399-.168-1.97004-.192-3.16401-.332-.13531-.019-.26001-.035-.37277-.049l-.61689-.082.5479-.304c.07827-.045.17113-.105.24675-.161.07827-.055.14991-.111.21757-.167.13532-.11.25471-.219.37278-.336.23614-.236.47361-.5011.7721-.9495.28921-.4444.45636-.8039.60892-1.1409.14195-.3422.26798-.6646.40065-1.0812.55983-1.6583.7973-3.5672.79465-5.4736-.00133-.9552-.04378-1.9117-.1446-2.847-.0199-.2335-.04644-.467-.07696-.6978-.02918-.2308-.05968-.4603-.08754-.6885-.07429-.455-.13797-.9048-.21757-1.3426-.38074-2.3388-1.02284-4.9708-1.73126-7.701-.70577-2.7329-1.48583-5.5679-2.05893-8.3498-.20298-.9274-.40993-2.1678-.51208-2.7992-.1393-1.2312-.24145-2.5406-.07032-3.8738.09552-.662.26402-1.3399.62751-1.9435.18175-.2985.41391-.5718.69117-.7934.27462-.2255.59699-.386.92732-.4935.1645-.0623.33431-.0902.50279-.13.16849-.0199.33829-.053.50677-.057l.25339-.012.25074.004c.16715-.0013.33165.0186.49615.0305.65669.065 1.2855.2096 1.8878.3821.3038.0796.5956.1857.8862.2759.2865.0916.5691.1818.8464.272.5572.1751 1.0944.3556 1.6158.5068.524.1725.9751.3117 1.4447.4523.2362.0677.4749.1433.7323.2123.2587.069.5333.142.8371.2229.4537.1274.8305.2374 1.1648.3383.3356.0955.6288.1791.914.26.2853.0822.5625.1618.8624.2481.1512.0411.3077.0849.4749.1313.1685.0412.3462.0863.5399.1327.873.1937 1.6172.3727 2.0205.4696.4311.0703.9605.1645 1.511.2653.5519.0876 1.1263.1805 1.645.2627 2.8337.5453 6.6093.9512 9.3329 1.1449-.0491.0504-.804.0292-1.7021-.0372-.4497-.0292-.9353-.0782-1.3876-.1141-.4524-.0451-.873-.0835-1.1927-.1074-2.5299-.3078-3.6496-.459-5.2322-.7244-1.0719-.183-1.3386-.1724-1.8162-.2321-.4961-.0982-1.0586-.2109-1.5601-.3104-.5015-.1048-.9419-.203-1.2032-.2468-1.1025-.2454-1.7247-.398-2.0815-.455-.4153-.0995-.593-.15-.7894-.2057-.1963-.053-.4099-.1154-.8954-.2414-.6952-.1778-1.665-.4246-2.5246-.6899-.4312-.1273-.8385-.2467-1.1767-.3409-.3397-.0889-.6037-.1764-.7575-.207-.3742-.1446-1.1595-.4085-1.9794-.6818-.9817-.3277-1.71133-.4749-2.38127-.536-.44973-.0504-.9008-.0623-1.33859-.0026-.43646.0597-.85833.195-1.21387.4324-.065.0478-.12602.0929-.18174.1341-.05439.0437-.09817.0915-.14195.1313-.09021.0769-.14593.1645-.20165.2282-.05704.0663-.08887.1339-.12469.1883s-.06235.1035-.08358.1552c-.0451.0995-.08755.1857-.13001.3104-.04908.1208-.10348.2747-.17379.5069-.20961.6686-.27064 1.381-.28523 2.0735-.00796.6965.03979 1.3836.11276 2.0575.15123 1.3506.40065 2.648.67261 3.9216.55453 2.5458 1.21519 4.9947 1.85595 7.5843.37013 1.3877.66066 2.5471.92732 3.6814.26532 1.1343.51075 2.2421.76148 3.5355.20828 1.1011.39003 2.4383.49483 3.7106.10613 1.2735.12073 2.4821.10879 3.3272-.03449.6407-.09684 1.3505-.20032 2.1027-.11011.7509-.26798 1.5442-.50412 2.3428-.23482.8-.55984 1.6026-.98834 2.3574-.38207.658-.84109 1.284-1.42083 1.791 1.60522.202 3.36834.37 5.34364.56 3.1388.304 7.1678.639 10.1328.756 1.0056.056 2.2951.101 2.7846.141 2.4079.049 4.9218.089 7.4584.017.6341-.019 1.2695-.036 1.9037-.073.6354-.025 1.2695-.077 1.9023-.122.3171-.023.6315-.06.9459-.089.3158-.031.6302-.061.9419-.106.3131-.043.6262-.08.9367-.126.3091-.052.6168-.105.9246-.157.272-.008 1.4779-.273 2.0006-.412.264-.061.4736-.144.6606-.207z" clip-rule="evenodd" fill="#4d495f" fill-rule="evenodd"/>
<path d="m66.3 52.0281c.0728.0245.0208.7008-.0942 1.6124-.1138.9115-.2908 2.0577-.4383 3.0259-.183 1.3937-.472 3.1519-.7672 4.839-.1777.9972-.1806.719-.3399 1.5544-.4747 2.5459-.7899 3.9783-1.4202 6.881-.3515 1.4488-.6252 2.5381-.895 3.6032-.2708 1.0651-.5344 2.1067-.9017 3.4519-.2375.8245-.436 1.438-.6413 2.049-.2069.6108-.4191 1.2197-.7147 2.028-.2576.7136-.5039 1.3513-.762 1.9348-.263.5822-.5201 1.1149-.885 1.5976-.0616.0745-.1348.1466-.2099.2193-.0353.0373-.0824.0706-.1236.1059l-.0644.0517-.0632.0418c-.0846.0556-.1701.112-.2564.1688-.0867.056-.18.1004-.2706.1513-.1801.1059-.3752.1801-.5646.2683-.1943.0728-.388.1507-.5837.2107-.7814.248-1.5515.3788-2.1515.4519-1.1185.1549-1.5107.2208-2.4308.2943-.948.0593-1.1774.0249-2.1237.0549-.414.0154-.7209.0308-1.0096.0454-.2885.0162-.5586.0309-.8986.0404-2.7216.0428-5.8815-.0091-8.6238.0164-1.8212-.0226-3.8955-.028-6.0556-.0121-1.0798.0122-2.1812.0247-3.2831.0371l-.8261.0124c-.2758.0032-.5573-.0017-.8348-.0025-.2782-.0112-.5559-.0259-.8322-.0434-.2754-.0303-.5511-.0487-.823-.0889-.7327-.0726-1.6792-.3033-2.1582-.4186-.9168-.2811-1.8475-.6612-2.7444-1.135-.8992-.4705-1.7562-1.0461-2.5504-1.6745-1.595-1.2561-2.9009-2.7532-3.9035-4.1054-.4691-.7166-.8139-1.2151-1.3113-2.0524-.3596-.6343-.563-1.0774-.7532-1.4935-.1843-.4194-.354-.8135-.5936-1.3772-.2839-.6267-.5018-1.1744-.5989-1.4776-.2818-.6105-.634-1.5256-.9106-2.2855-.3285-1.0596-.6956-2.2885-1.00136-3.5191-.30646-1.2305-.55984-2.4585-.68243-3.5056.05373.0317.15403.5991.29544 1.2746.13864.6758.31787 1.4585.45491 1.929.22674.948.42464 1.6235.60664 2.2087.1822.5854.3504 1.0803.5454 1.662.2778.7838.3972.952.5589 1.2815.2709.722.6385 1.6242.8264 1.9815.3412.7892.5719 1.2201.7187 1.4533.1457.2891.2074.4156.2728.5564.065.1411.1394.2934.3294.6238.2777.4694.664 1.1244 1.0431 1.6926.381.5669.7421 1.0536.9143 1.22.1636.2564.5467.7514.9743 1.2502.5235.5976.9405.9865 1.3294 1.3374.5104.4867 1.0497.9444 1.6152 1.3657.866.6307.7358.4373 1.3983.8391.9605.5709 1.9366 1.0108 2.918 1.3252.9828.3106 1.9662.5037 2.9447.6008.9791.1036 1.9474.0778 2.9449.0672.9914-.0095 1.9877-.0117 3.0085-.005 2.1991-.0354 3.6561-.0035 5.6626-.021 1.7082.0054 4.0956.0654 5.3727.0366 1.9422.0574 4.7226.0541 7.2302-.1231.7145-.0314 1.4635-.0881 2.2502-.1952.785-.1096 1.6162-.2491 2.462-.5111.5611-.1718 1.1475-.4059 1.6689-.7589.0632-.0445.1338-.0881.1917-.1337.0543-.0452.1094-.0905.1607-.1475.106-.1062.2029-.2335.2973-.3627.1866-.2628.3519-.5524.506-.8473.6101-1.1883 1.0604-2.4543 1.4146-3.5268.251-.7259.5344-1.6706.6665-2.0213 1.0023-3.5445 1.9853-7.4343 2.7911-11.1959.0781-.1945.2698-1.1275.3772-1.5328.241-1.0848.2312-1.2644.4041-2.1255.1251-.2149.4218-1.6845.6576-2.8074.3299-1.8656.5197-2.845.6998-4.2593.105-.6637.1546-.8107.2117-1.022.0545-.5226.2571-1.7589.3724-2.6656z" clip-rule="evenodd" fill="#4d495f" fill-rule="evenodd"/>
</svg>
