<?xml version="1.0" encoding="UTF-8"?>
<svg fill="none" viewBox="0 0 116 116" xmlns="http://www.w3.org/2000/svg">
<mask id="g" fill="#fff">
<path d="m29.7846 19.8762c-.0006.0569-.0013.1106-.007.19-.0512.0202-.0871.0324-.1236.0449-.0404.0137-.0814.0277-.1449.0531l-.2672.1151-.0241.1151c-.0277.1031-.0593.2413-.0911.3802-.0221.0966-.0443.1935-.0653.2791-.0084.0513-.0163.1026-.0243.1544-.0055.0358-.0111.072-.0169.1085-.0185.0924-.0397.1905-.0682.2985-.0866.2387-.1407.3566-.2743.5698l-.0193.0318c-.0196.0326-.0384.0639-.0588.0918l-.0115.0149c-.0242.0316-.0477.0621-.071.0903-.0429.0614-.0933.11-.1437.1588l-.0239.0231c-.1151.1151-.2516.2131-.442.3225-.1947.1024-.351.1578-.5044.1947-.1535.0341-.3042.0569-.496.0583l-.026-.0014c-.0404-.0023-.0595-.0033-.0786-.0049-.0169-.0014-.0339-.0032-.0659-.0067l-.0653-.0069c-.2557-.0185-.5102-.1066-.7077-.1776-.1599-.0638-.3449-.1605-.4737-.2277-.092-.0481-.1553-.0812-.1601-.0764.1151.0753.2757.1776.3496.2074l.0111.0108c.0205.0204.0423.0422.1196.0844.0532.0232.1035.0429.1533.0626.042.0165.0837.033.1266.0512.0888.0423.1921.0715.3248.109l.0163.0046c.0419.0163.0878.0306.1336.0448s.0916.0284.1336.0447c.0838.0256.1535.0498.1705.0896.072.0106.1146.0029.1616-.0056.0477-.0085.1-.018.1923-.0101.0328.0103.0826.0095.1313.0088.0588-.0009.116-.0018.1401.0168.3212-.0568.6493-.1733.9349-.3623.2856-.1876.5259-.4491.6581-.7432.0668-.037.1477-.1919.2074-.3127.0128-.0451.0298-.0912.0472-.1386.0194-.0528.0394-.1072.0551-.164.0123-.0424.0254-.0849.0387-.128l.011-.0355.0257-.0838.0212-.0739c.0172-.0599.035-.1199.0526-.1795.0405-.1367.0802-.2709.1109-.3946l.0025-.0111c.009-.0401.0179-.0791.0244-.1182.0327-.0085.0654-.0156.0981-.0199l.4846-.2601v-.2796c-.0002-.3298-.0004-.626.0781-.8642-.0352-.1121-.0312-.2804-.0271-.4541.0032-.1347.0065-.2727-.0084-.39-.037-.1385-.0537-.2619-.0705-.3861-.0206-.1524-.0414-.306-.1001-.4908-.0113-.3225-.0838-.6238-.1705-.9307-.0757-.2682-.171-.5396-.2753-.837l-.0458-.1307c-.0313-.0481-.0652-.0602-.0992-.0724-.0433-.0154-.0865-.0309-.124-.1209-.019-.0355-.0372-.0715-.0553-.1074-.0333-.0659-.0666-.1318-.1052-.1952-.0739-.0583-.1392-.1251-.216-.2274-.0625-.0853-.1194-.1677-.1279-.2217-.0675-.0057-.1508-.0937-.2382-.1861-.0653-.0691-.1329-.1406-.198-.1819-.0466-.0395-.0599-.0634-.0723-.0856-.0121-.0218-.0233-.042-.0641-.0736-.0526-.0085-.1165-.0511-.2131-.1449-.0421-.0126-.1022-.0578-.1661-.1058-.0376-.0283-.0766-.0576-.114-.0819-.0127-.0008-.0247-.0009-.0364-.001-.05-.0006-.0966-.0012-.1852-.0529-.0547-.0403-.1109-.0648-.1696-.0904-.0222-.0097-.0447-.0195-.0677-.0304-.0308-.0149-.064-.0305-.1002-.0476l-.0377-.0178-.0482-.0196c-.0396-.0162-.0828-.0338-.1308-.0528-.1379-.054-.4619-.145-.4746-.1408.3026.0867.7119.2445.989.4307.0236.0153.0486.0311.0741.0472.083.0526.1713.1086.2299.1574.0162.0162.0407.0365.07.0608.0325.027.071.0589.1106.0955.1279.1307.1776.1847.314.351.0829.0889.1312.1565.1889.2371l.0327.0457c.3041.3936.6026 1.0032.749 1.5489.0256.0682.0682.2046.0952.3098.1691.6267.2686 1.3215.3012 1.8672.0384.4106.0441.8867.0285 1.2946-.0009.0324-.0013.0609-.0016.0885z"/>
<path d="m26.7383 24.6215-.7587 1.7543c.882.3726 1.6674.9243 2.3667 1.6147l-.0025-.0343.0103.0421c2.5688 2.5425 3.9738 6.9589 4.7387 11.2487l.9969-.2459c2.301-1.0513 4.7256-2.5644 5.8236-4.0299 0 0 1.7257 1.2477 2.1634 2.0605l4.4623-1.1003 1.3539 2.5315s-7.2796 6.7769-13.9284 9.6896c.011.383.018.7355.0221 1.0526.0048.3667.1097.6612.1887.883.1331.3737.1927.5411-.4237.4997l-11.8904-.3718c-.64-.043-1.2019-.4462-1.4463-1.0395-5.2279-12.6879-4.0557-19.2317-2.7733-22.1175.7383-1.6613 1.0416-3.4829.8283-5.2883l-.0172-.146z"/>
</mask>
<mask id="h" fill="#fff">
<path d="m45.0385 66.7065c-.8654.1706-1.738.3012-2.6218.4107-1.134.1364-2.2807.2273-3.4303.2686-2.2992.0767-4.6184-.0498-6.8565-.4846-.0767-.0256-.2259-.0626-.4163-.1066-.1087-.0268-.2304-.0573-.3595-.0896-.0968-.0242-.1986-.0497-.3013-.0752-.0775-.0221-.1562-.044-.2349-.0658-.1635-.0454-.3275-.0909-.4799-.1389-.0671-.0219-.1325-.0428-.1953-.0627-.1484-.0473-.2824-.09-.3902-.1319-.7015-.2371-1.1415-.4185-1.5189-.5742-.066-.0272-.1301-.0537-.1934-.0795l-.1137-.0509c-.3756-.1678-.7407-.331-1.2818-.6525-.0476-.0447-.1493-.1185-.2892-.22-.0603-.0438-.1277-.0927-.2009-.1467l-.0401-.0284c-.1125-.0796-.2386-.1688-.3692-.2728-.0471-.0371-.0961-.0744-.1462-.1126-.1071-.0814-.2191-.1667-.3285-.2625-.665-.5429-1.3954-1.2847-1.9268-2.0065-.1034-.1245-.1936-.2534-.2823-.38l-.0789-.1124c-.0854-.1215-.1692-.2407-.2414-.3631l-.2529-.4106c-.0422-.0788-.084-.1562-.1253-.2327l-.0922-.1709c-.0231-.0427-.0457-.0853-.068-.1276l-.0357-.0671c-.0312-.0654-.0625-.1307-.0923-.1961-.0225-.0487-.0449-.0969-.0672-.1448-.037-.0795-.0736-.158-.109-.236-.0741-.1703-.1404-.3393-.2055-.5053-.031-.0791-.0617-.1575-.0929-.235-.3525-.9734-.5826-1.8943-.7674-2.9899-.1102-.8679-.1048-1.1808-.0999-1.4571.0009-.0549.0019-.1083.0019-.1643-.0207-.1643-.0265-.375-.0332-.6187-.0016-.0577-.0033-.1173-.0052-.1785-.012-.2464-.0055-.5191.0013-.8068.0021-.0856.0042-.1725.0058-.2604.0014-.1918.0142-.3879.027-.584l.0384-.594c.0223-.2201.0437-.4384.0645-.6501.0163-.1656.0321-.3271.0477-.4824.0505.0198.0345.3819.009.9607-.0184.4157-.0416.9432-.0487 1.536l-.0043.5485c.0056.1861.0113.3794.017.5741.002.2707.0231.5468.0443.8256.0094.1237.0189.2479.0268.3723.0838.8072.206 1.6228.3893 2.3546.2643 1.0459.6964 2.1998 1.3301 3.3067.3254.5471.6878 1.09 1.1141 1.5888.4234.4973.8909.9634 1.3883 1.384.1122.088.2105.1668.2981.2369.1485.119.266.2132.367.2847.0815.0598.1476.112.2063.1583.057.045.107.0845.1574.1202.0298.0213.0589.0425.0887.0642.1744.127.3702.2696.8534.544.8711.4717 1.6925.8057 2.4868 1.0756.7958.2686 1.5675.469 2.3647.6338.7972.1634 1.6228.2871 2.5337.3752.9094.0881 1.9069.1407 3.048.1322 1.6967.0128 3.0851-.0882 4.3711-.2274 1.2818-.1478 2.474-.3311 3.7473-.621l.6208-.1421-.4035.4931c-.5758.7047-1.1916 1.4563-1.8884 2.3066l-.03.0366c-.8469 1.0203-1.4913 1.7784-2.1358 2.5366-.6443.758-1.2889 1.5163-2.1357 2.5365-1.4821 1.8061-2.6446 3.2627-3.7104 4.6126-.5615.6473-1.1862 1.3761-1.8125 2.1068-.992 1.1573-1.988 2.3193-2.7432 3.1695l-.1919.2273c.3947.5704.6864.9779.9777 1.3847.2601.3634.52.7264.8525 1.2045.4149.6024.6626.9829.9102 1.3633s.4954.7611.9103 1.3636c.4471.6425.7622 1.076 1.0787 1.5115.2014.2772.4036.5553.6406.8885l.5812.8357 1.0928-2.8109.0256-.0667.0626-.0384c2.4327-1.4935 4.8584-3.193 6.9914-4.8315 2.2552-1.6824 4.7433-3.7145 7.1505-6.0237 1.781-1.7094 3.5207-3.578 5.0338-5.5711-.1653-.2429-.3499-.5079-.5174-.7231.0341-.0213.1179.0426.2387.1662.1026.1063.2324.2566.367.4401.4959-.6588.9668-1.331 1.4061-2.0154.2899-.4732.6266-1.0232.9023-1.5532.2842-.5258.5131-1.0274.6538-1.3684.6025-1.3031 1.0941-2.7426 1.2689-4.2546.0895-.7517.1065-1.5233.0255-2.2778-.081-.7546-.2784-1.495-.5853-2.1813-.307-.6864-.722-1.3187-1.2037-1.8815-.4803-.5627-1.0274-1.0558-1.5987-1.4892-.5712-.4363-1.1722-.8086-1.7733-1.134s-1.2022-.611-1.7934-.8511c-.5883-.2729-1.107-.4704-1.6512-.6637-.5471-.1876-1.1198-.3709-1.8346-.5698-1.0139-.2974-1.714-.4804-2.3645-.6504l-.0995-.026c-.6793-.1748-1.3201-.3268-2.2452-.5045-.584-.1018-1.1226-.1876-1.5684-.2586-.3503-.0559-.6433-.1025-.8559-.1407-1.0303-.1051-2.5337-.2544-3.7771-.3254-1.701-.1663-3.6775-.26-5.6343-.2913-1.9553-.0312-3.8893-.0085-5.5078.0398.054-.0583.9449-.1194 2.0136-.1492.7098-.0217 1.4976-.029 2.1688-.0352.338-.0031.6464-.006.9005-.0103 1.5091.0242 2.599.0611 3.5483.0966.9492.0384 1.7593.081 2.7085.1592.9619.0745 1.3789.0844 1.7669.0936.1301.0031.257.0062.4002.0115.7921.081 1.7173.2095 2.4328.3089.3639.0505.6735.0935.8838.1189.5336.0919.9735.1699 1.3363.2342.5347.0948.9022.1599 1.1562.1963.4382.0879.6545.1448.8607.199l.0814.0213c.0566.0144.1145.0294.1779.0459.199.0515.452.1171.8906.2227.8285.1975 1.9725.5328 2.98.8966.7028.2494 1.3393.5113 1.7796.6924.1917.0789.3463.1425.4528.183.0513.0273.1094.0578.1735.0915.4631.2436 1.2374.6507 1.9936 1.1661 1.0444.702 1.7222 1.3187 2.2935 1.9383.378.4235.6976.8995.9847 1.3912.2885.4945.5003 1.0288.6765 1.573.039.1469.0744.2782.1063.3966l.0386.1434c.0167.0836.0322.1599.0465.2302l.0005.0024c.0122.0602.0236.116.034.1682.0359.1452.0544.2625.0708.3657.0089.0562.0172.1085.0272.1586.0063.0371.0131.0731.0199.1093.0192.1024.0386.2052.047.3312l.0054.0639c.0058.0688.0123.1457.0187.2316.0026.034.0046.0699.0067.1076.0015.0254.003.0517.0047.0786 0 .0668-.0001.1393-.0015.2189-.0313 1.8217-.4902 3.5085-1.1112 5.0346-.6224 1.5333-1.4296 2.9159-2.295 4.2176-.3603.5312-.7334 1.0483-1.1183 1.5537.223.3347.4473.7099.6517 1.0518.0253.0423.0502.084.0748.1251.4533.712.9564 1.6556 1.414 2.5735.1433.2959.1742.3946.2062.4967.027.0863.0549.1751.1518.3872.5336 1.1386.8447 1.8912 1.3071 3.0098.1078.2607.2237.5412.3526.8511.6139 1.6739.9266 2.5209 1.5235 4.0741.1894.5368.3126.9298.441 1.3392.1027.3275.2088.6656.3547 1.0964.3026.8498.5642 1.5219.8086 2.1415.0691.2611.1478.5469.2279.838.1737.6311.3543 1.2868.4583 1.7681.1013.3609.1768.5864.2513.8092.0091.0272.0182.0544.0274.0818.0923.054.1917.1137.3054.1847.238.1521.3794.2562.5208.3603s.2828.2082.5208.3602c.2565.1591.438.2587.6206.3588.1159.0636.2322.1274.3685.2068.1234.0772.2481.1544.3813.2368l.0422.0261.3509.2188-.3851.1549c-.19.0763-.3832.1537-.5788.232-1.2328.4937-2.5555 1.0234-3.7268 1.5287-1.1171.432-2.3975.9516-3.7243 1.49-.4538.1841-.913.3704-1.3729.5566l-.182.072-.115-.1576c-.2211-.3005-.4426-.6009-.663-.8998-.1861-.2524-.3714-.5037-.5549-.7529-.0847-.1103-.1768-.2334-.2692-.3568-.1941-.2595-.3894-.5204-.5194-.6677-1.2647-1.8644-2.8662-3.9917-4.1082-5.552-.215-.3325-.3997-.575-.6351-.8841-.0664-.0872-.1369-.1798-.2132-.2811-.2815-.4017-.439-.6651-.5965-.9288-.1201-.2008-.2402-.4018-.4153-.6641-.2401-.3312-.4405-.6196-.5315-.7873-.1667-.1939-.3711-.4532-.5757-.7129-.1163-.1475-.2326-.2952-.3423-.4311-.3579-.5386-.7984-1.1394-1.2354-1.7354-.391-.5332-.7791-1.0626-1.1028-1.5402-.374.2991-.761.6048-1.1678.923-1.0515.81-2.3389 1.7436-3.5795 2.5991-1.2391.8568-2.4285 1.6384-3.2598 2.1841l-.7731.4632c-.3795.9407-.7915 1.9837-1.2207 3.085l-.169.4306-.263-.3794c-1.2462-1.8005-2.6174-3.7529-3.9176-5.5988-.7219-1.0687-1.5007-2.187-2.3476-3.3991l-.1151-.1649.1294-.1548c.342-.4129.6953-.8386 1.0596-1.2774l.0011-.0013c.3513-.4232.7126-.8585 1.0836-1.3062.828-.9918 1.7393-2.0775 2.6698-3.186 1.1285-1.3444 2.2851-2.7222 3.3554-4.0069-.0793-.0505-.1702-.114-.2612-.1775-.0621-.0434-.1243-.0867-.1827-.1259-.1716-.1006-.3735-.2349-.5757-.3694l-.1173-.078c-.0755-.0508-.0951-.0736-.1147-.0964-.0172-.0199-.0343-.0398-.0886-.0783-.1813-.1219-.3203-.2212-.466-.3251-.1449-.1035-.2963-.2116-.5025-.3513-.3949-.3087-.6015-.4563-.9918-.7152-.1164-.0841-.2003-.1519-.2842-.2196-.0845-.0682-.1688-.1363-.2859-.2208-.2099-.143-.3847-.2468-.5488-.3388-.0716-.0634-.1537-.1322-.2359-.201-.1253-.1049-.2507-.2098-.3384-.2958-.086-.0682-.1439-.105-.2018-.1418-.0415-.0263-.083-.0527-.135-.0907-.0631-.0483-.0988-.0829-.1346-.1174-.0357-.0346-.0714-.0692-.1345-.1175-.0679-.0495-.118-.0791-.168-.1086-.0328-.0194-.0656-.0388-.1034-.0637-.0867-.0631-.1763-.1291-.2678-.1963-.2985-.2195-.6161-.453-.9104-.6489-.2589-.1988-.5625-.4185-.8777-.6467-.2767-.2002-.5623-.4069-.8345-.6115-.0328-.0225-.0686-.0482-.1043-.0739-.0736-.0529-.1473-.1058-.1965-.1315-.4841-.4116-1.0949-.8463-1.5682-1.1498-.0798-.0733-.1488-.1214-.2347-.1814-.0278-.0193-.0573-.0399-.0894-.0629-.1076-.0865-.1679-.1494-.2284-.2123-.0461-.0481-.0923-.0961-.1594-.1548-.0917-.07-.1682-.1327-.2034-.1745-.0639-.035-.1422-.0862-.2206-.1375-.0439-.0287-.0879-.0574-.1292-.0833-.1365-.1203-.304-.2451-.4703-.369-.175-.1303-.3486-.2596-.4831-.3816.0265-.0226.1522.0654.2778.1533.0728.0509.1455.1018.1989.1312.148.1143.2536.1861.3475.2498.0709.0482.1351.0918.2057.1457.0906.0632.1359.0761.1812.089.0121.0034.0242.0069.0371.0113.0273.0203.0563.0423.0852.0644.0816.0622.1633.1244.2092.1468.113.0913.1832.1348.2288.1512.0415.0292.0589.0464.0763.0635.0201.0198.0401.0396.0975.0781.0581.0359.1297.0869.2013.1379.1223.0871.2445.1741.2989.1856.0354.0389.1202.1026.2099.1689.1094.0785.1928.1282.2713.1722l.2882.2172c.0811.0635.1146.074.1481.0845.0259.0081.0519.0163.0998.0489.3079.2446.5925.4557.8692.6609.2633.1953.5194.3853.7816.5937.1482.1009.2689.1897.3859.2758.1245.0915.2448.1801.3896.2767.0883.0639.1878.1403.2873.2166.1629.125.3258.25.4397.3204.2462.2174.6285.4863.9789.7272.1197.0996.2545.1956.4008.2996.0813.0579.1661.1182.2539.1831.1135.084.237.1778.3631.2736.2365.1797.4823.3664.688.5078.0274.021.0572.0432.0869.0654.082.0611.1639.1221.195.1577.342.2268.6876.4882 1.0333.7497.1784.1349.3569.2699.5348.4001.0098.0207.0583.0609.1068.1011.0348.0288.0696.0576.0902.0793.0828.0676.1306.0961.1784.1246.0359.0214.0718.0428.1225.0808.0051.045.1273.1486.2499.2526.0349.0296.0697.0592.102.0874.0852.0606.1561.1132.2203.1608.1315.0976.2348.1743.3749.2557.0814.0597.0997.0878.1181.116l.0068.0103c.0411.0211.1042.0669.1728.1188.5875-.7053 1.1483-1.3819 1.6634-2.0087.2056-.2443.426-.5078.6461-.771.603-.721 1.2038-1.4394 1.4912-1.7527.7304-.8953 1.4764-1.8018 2.2338-2.717zm2.4923 17.0472c.1409.1644.3304.414.5194.6631.1897.2499.379.4992.5184.6615.3837.5346.6595.8919.9041 1.2089.1886.2443.3587.4646.5454.7237.238.3121.3571.4184.4766.525.0317.0283.0635.0566.0975.0889.075.1017.1544.2114.2335.3208.2105.2909.4193.5793.5381.7094.2956.4221.4804.6495.6011.766.1084.1431.1536.2161.1986.2889.0525.0847.1047.1691.2561.3633.1496.1853.3334.4299.5177.6754.3233.4303.6482.863.7939.9815.0924.1592.314.4633.5485.783.287.3822.5059.648.712.8896l.7545 1.0359c.2125.2983.301.3794.3896.4606.0684.0627.1369.1255.2626.2883.8049 1.1394 1.5497 2.1529 2.2737 3.1381.291.3959.5786.7872.8653 1.1803.4889-.1904.9821-.3808 1.4879-.5712.5885-.2503 1.0843-.4488 1.5653-.6413.5075-.2032.9983-.3997 1.5638-.6433.3628-.1474.7839-.3104 1.2044-.4732.6747-.2612 1.348-.5218 1.7769-.7162.3539-.1222.7516-.27 1.1765-.4348-.5854-.3624-1.202-.7347-1.7932-1.0899-.2003-.1336-.4079-.2686-.6253-.405l-.0838-.0526-.0284-.0967c-.116-.4049-.2492-.8301-.3909-1.2821-.0771-.2459-.1566-.4998-.2372-.7627-.0357-.116-.0722-.2349-.1094-.356-.4041-1.3157-.89-2.8977-1.3103-4.0662-.0406-.1238-.0855-.2571-.1301-.3895-.1132-.3357-.2246-.6661-.2593-.8241-.2603-.6894-.52-1.4016-.7833-2.1236-.5242-1.4375-1.0624-2.9136-1.6479-4.325-.0061-.078-.0921-.3031-.1753-.521-.0532-.1392-.1053-.2755-.1346-.3685-.139-.3578-.2284-.5327-.319-.71-.066-.1291-.1326-.2594-.2194-.4624.0192-.1566-.3136-.9282-.581-1.5482l-.0273-.0632c-.0761-.1567-.1496-.3-.2188-.4347-.043-.0839-.0844-.1646-.1237-.2431-.1009-.2047-.196-.388-.2912-.5614-.0938-.1748-.1834-.341-.2815-.5072-.0994-.1649-.2032-.3312-.3197-.5088-.1903-.3221-.226-.421-.2671-.535-.0028-.0077-.0056-.0155-.0085-.0234-.0238-.0337-.0515-.0739-.0823-.1193-.5239.6816-1.0694 1.342-1.6347 1.9871-1.0189 1.1595-2.1002 2.2722-3.2527 3.3635-1.2235 1.1922-2.2893 2.1329-3.3423 3.0268-.6877.5822-1.3713 1.1439-2.1032 1.73z" clip-rule="evenodd" fill="#fff" fill-rule="evenodd"/>
</mask>
<mask id="f" fill="#fff">
<path d="m83.535 40.9184.0842.0015c.6686.0113 1.3371.0226 1.9961.0199.0608.0437.2495.058.4381.0724.1346.0102.2691.0204.357.0413.3196.0213.4854-.0003.6511-.0218.1247-.0162.2493-.0324.4394-.0303.0925.1332.5729.1771 1.054.2211.1353.0124.2707.0248.3976.0392.3122-.0069.5761-.0057.8149-.0047.4912.0022.8766.0039 1.3596-.0658.3009-.0008.3952.046.4895.0928l.0141.007.0218.0105c.1801-.039.5308-.0304.8817-.0217.1638.004.3277.008.4742.0072-.0119.2568-.8492.2851-1.6858.3133-.2268.0077-.4536.0154-.6638.0276-.5975.0842-1.3302.1307-2.0628.1772-.1344.0086-.2687.0171-.4023.0259-.272.0154-.3597-.0114-.4475-.0382-.0767-.0234-.1534-.0468-.3529-.0421-.6524.0375-1.163.0477-1.6979.0583-.5335.0106-1.091.0216-1.8372.0609-1.4997-.0577-2.2597-.0428-3.6604.0487-.4305.0054-.7538-.0137-1.0769-.0329-.324-.0192-.6479-.0384-1.0795-.0329-.7595.0376-1.3653.1176-1.9244.2108-.2852-.0347-.6056-.0613-.926-.0879-.488-.0406-.9761-.0811-1.3401-.15-.328-.0155-.5324.0034-.7371.0223-.0191.0017-.0382.0035-.0575.0052.0204.2883.025.7596.0297 1.2318.0042.4313.0085.8632.0247 1.1568-.0089.905.0012 1.5221.0101 2.0708.0067.412.0128.7854.0098 1.2131.0056.531.0383.745.0706.9568.0089.058.0177.1159.026.18 0 .1732-.0012.3588-.0024.5438-.0031.4861-.0062.9678.0124 1.2055-.0128.702 0 1.0999.027 1.323.0027.2477-.0043.3644-.0113.482-.008.1341-.0161.2693-.01.6008.0109.3271.0136.7494.0163 1.172.0047.7269.0094 1.4546.0561 1.6999-.0213.2487-.0228.7603-.0228 1.2989.0029.6508.0214 1.1183.0442 1.5489l-.0086 1.7421c-.0056.4971.0172.6578.04.8182.0176.1243.0353.2485.0396.5289-.0284 1.9016-.0311 3.6162-.0336 5.2835-.0024 1.5797-.0048 3.1169-.029 4.7305.013.859.0132 1.5788.0133 2.2761.0002.7515.0004 1.4769.0166 2.3223.0022.5366-.0029 1.1558-.0079 1.7737-.0079.9792-.0158 1.9548.0051 2.5917-.0568 1.5802-.037 3.8368-.0086 5.8887-.0192.7527-.0137 1.5526-.0077 2.4207.0033.4806.0068.9823.0063 1.5084-.0005.6876-.0052 1.4428-.01 2.2132-.0088 1.4301-.018 2.9127-.0014 4.1132-.0016.174-.002.3616-.0025.5485-.0013.4862-.0025.9669-.023 1.1866.0406 1.9744.0296 4.0614.0187 6.1504l-.0016.312 2.4257.006c.0994.023.4121.03.7213.037.2123.005.4229.01.5618.02.5141.01.7812 0 1.0476-.011.2019-.008.4034-.016.7116-.015.1476.066.903.088 1.6681.11.2291.007.459.013.6738.021.5125-.004.9441-.003 1.3346-.003.7832.001 1.401.002 2.1738-.032.4915-.002.6412.022.7943.047.0174.002.0347.005.0526.008.2921-.021.8624-.016 1.4315-.012.2616.002.5229.004.757.003-.0191.129-1.3734.143-2.7247.157-.3645.004-.7288.008-1.0666.014-.9745.042-2.1734.066-3.3693.09-.2027.004-.4053.008-.6068.012-.438.008-.58-.006-.7212-.019-.1241-.012-.2475-.023-.5704-.021-1.0281.018-1.8378.023-2.6808.028-.8397.006-1.7125.011-2.8669.029l-.2132.003-.0071-.378c.0285-2.42.0214-3.646-.0241-5.9056-.0028-.6956.0067-1.2174.0163-1.7393s.0192-1.0438.0163-1.7393c-.0185-1.2264-.0581-2.2026-.105-3.105.0166-.4518.0295-.9583.0424-1.4659.0204-.7966.0408-1.5958.0755-2.1904.0082-.5261-.0012-.8549-.0106-1.183-.0068-.239-.0137-.4777-.0137-.7922.0029-.3844.016-.6224.0292-.8604.0131-.238.0263-.476.0291-.8604-.0008-.4035-.0125-.6821-.0241-.96-.0077-.1841-.0153-.3679-.0199-.5875-.0009-.4978-.0011-1.0137-.0013-1.54-.0006-1.8085-.0012-3.738-.0342-5.4629.0129-1.5759.0064-3.3856-.0003-5.2643-.0059-1.6499-.012-3.3531-.0054-4.9982-.0028-.1962-.0038-.4134-.0047-.6303-.0019-.4337-.0038-.8666-.0208-1.1289.0881-3.0609.0638-6.6817-.0086-9.3916.0234-.5161.0189-.9191.0135-1.4183-.0019-.1674-.0039-.3457-.0049-.5427.0119-.6591.0414-1.0723.0707-1.4835.0229-.321.0457-.6409.06-1.0758.0043-.557.0156-1.0331.0412-1.2917-.0207-.3602-.0314-.8293-.0421-1.2953-.0054-.2381-.0108-.4754-.0176-.697.0318-.8728.034-1.8785.0363-2.8772.002-.9438.0041-1.8814.0311-2.6945-.1098.0092-.2263.0166-.3672.0172-.2379-.0059-.3854-.0325-.5328-.0591-.1476-.0267-.2951-.0533-.5331-.0591-.2516.0016-.4248.025-.598.0485-.1133.0153-.2266.0306-.3618.0399-.3254.0024-.6633.0028-1.008.0032-1.1052.0014-2.28.0029-3.3327.0697-.9752-.0257-2.0947-.0132-3.2573-.0003-1.0244.0114-2.0821.0232-3.1037.0096-.1197.0056-.2521.0077-.3845.0097-.2706.0043-.5416.0085-.7054.0425-1.8975-.1772-4.1419-.1285-5.8215.0169-.3237-.0468-.5759-.038-.8909-.0271-.1003.0034-.2069.0071-.3243.0093-.4124-.0237-.6695-.0829-.9268-.1422-.1966-.0453-.3934-.0906-.6596-.1201-.345-.0082-.6407-.0285-.8002-.0798-.2169.0387-.4977.0596-.7784.0806-.1558.0116-.3118.0232-.4566.0379-.5419-.0637-1.1667-.0682-1.787-.0726-.6538-.0047-1.3026-.0093-1.844-.0832.0239-.1354.4823-.1503.9408-.1652.2663-.0087.5326-.0174.7137-.0496.5593.0174.9413-.0022 1.2807-.0195.2565-.0131.4888-.025.7549-.0188.3309-.011.463-.077.5949-.1429.0351-.0175.0703-.0351.1091-.0516l.0383.0002.0695.0008.7693-1.8327h14.4239l7.8769-18.26h18.8227z"/>
<path d="m38.3361 104.941-.1894-.119c-.3191-.199-.6345-.397-1.0667-.65-.7461-.418-1.3544-.73-1.92-1.01-.2695-.18-.5754-.376-.8811-.572-.4613-.296-.9225-.592-1.2575-.829-.3167-.196-.5205-.306-.7255-.415-.1445-.078-.2896-.156-.4753-.265-.2275-.138-.3633-.234-.4987-.329-.137-.096-.2737-.193-.5044-.333-.2495-.146-.4263-.236-.6053-.327-.0503-.026-.1012-.052-.1536-.079l-.0924-.0485-.0141-.3453c-.0014-.379-.0017-.7731-.002-1.1752-.0009-1.2333-.0019-2.541-.0351-3.7145.0129-1.1027.0068-2.3697.0005-3.685-.0056-1.1493-.0113-2.3355-.0046-3.4813-.0028-.1328-.0039-.2793-.0051-.4261-.0023-.307-.0047-.6151-.022-.8016.0895-2.1372.0654-4.6667-.0071-6.558.0225-.3626.0183-.6458.0131-.9981-.0018-.1145-.0036-.2363-.0046-.3704.0113-.4664.0411-.7568.0709-1.0478.0226-.2205.0452-.4415.0599-.7398.0043-.388.0142-.7219.0397-.9009-.0187-.2391-.029-.5465-.0394-.8551-.0061-.183-.0123-.3664-.0202-.5361.0319-.6129.0343-1.3197.0367-2.0209.0025-.7343.005-1.4625.0414-2.0702.0684.027.0758.5445.0833 1.0616.0043.2995.0086.5989.0248.8028-.0089.6317.0007 1.0625.0092 1.4459.0065.2876.0123.5486.0092.8476.0057.3731.0388.5213.0721.6703.0088.0394.0176.0789.0259.1226-.0003.109-.0015.225-.0026.3413-.0035.3523-.0069.7077.0112.8808-.0128.4888.0001.7673.0285.9236.0019.1708-.0049.2523-.0117.3334-.0079.0944-.0158.1881-.0097.4212.0103.226.013.5168.0156.8083.0046.5111.0093 1.0248.0555 1.1967-.0199.1748-.0228.5315-.0228.9081.0028.4547.0228.7801.0441 1.0814-.0014.2022-.0025.4047-.0036.6073-.0011.2028-.0022.4066-.0036.6091-.0064.3468.0165.4591.0392.5707.0177.0869.0353.1735.0391.37-.0285 1.328-.0307 2.5253-.0329 3.6893-.0021 1.1029-.0041 2.176-.0283 3.3022.013.6005.0131 1.1032.0133 1.59.0001.5247.0003 1.031.0165 1.6214.0016.3622-.0034.7786-.0083 1.1961-.0083.6979-.0167 1.3985.0055 1.852-.0326.621-.0412 1.3926-.0355 2.2055.4661.27.9464.5426 1.4097.8046.4463.286.9346.567 1.4648.873.2868.166.5857.338.8969.522.4035.239.8439.505 1.2937.775.865.522 1.7653 1.064 2.5047 1.482.096.058.1996.119.3034.181l.0026.002c.2989.177.599.355.7242.453l1.0785.6-.905.021c-1.2763.03-2.6152.02-3.9549.01-.7575-.006-1.5153-.011-2.2621-.01-.0674-.021-.277-.028-.4877-.035-.1535-.006-.3076-.011-.4077-.022-.3588-.01-.5453.001-.7311.011-.1409.008-.2815.016-.4966.015-.1039-.066-.6417-.088-1.1818-.11-.1544-.006-.3092-.012-.4538-.019-.3509.003-.6475.002-.916.002-.5543-.002-.9893-.003-1.5339.032-.3387.001-.4453-.022-.5512-.045-.0134-.003-.0275-.006-.0413-.009-.2017.019-.5949.015-.9889.011h-.0013c-.1857-.002-.3714-.004-.5374-.004.0145-.129.9601-.143 1.9034-.157h.0016c.2537-.004.5072-.008.7423-.014.6823-.042 1.5196-.066 2.3553-.09l.4214-.012c.307-.008.4059.006.5052.02.0863.011.173.023.3971.021.7482-.019 1.3311-.024 1.9455-.03.5911-.005 1.2114-.011 2.0363-.029 1.4097.024 2.2396.022 3.392-.006z"/>
</mask>
<mask id="e" fill="#fff">
<path d="m45.3832 32.697c.0483-.0028.0994-.0014.1449.0028-.0342.0299-.0753.0611-.1151.0895-.0753.0555-.1577.1067-.2373.155-.0277.0214-.0496.0424-.0714.0633-.0374.0359-.0743.0712-.139.1072-.0617.029-.1048.0362-.1486.0434-.0418.007-.0843.014-.144.0405-.0466.0235-.0799.0471-.113.0705-.0486.0344-.0967.0684-.1855.1014-.1008.0121-.2249.0466-.3503.0815-.0956.0265-.1919.0533-.2792.0705-.0597.0483-.1222.0967-.1904.1436l-.2573.1762.1166.1634c.0497.071.1023.162.1478.2629.048.1271.0671.2232.0871.3234.0156.0779.0316.1583.0621.2577.1449.3624.2018.5728.2288.9835.044.2003.0583.3523.064.4959.0071.1463.0027.2813-.0029.4561-.0083.0544-.0232.0721-.0387.0904-.0165.0195-.0335.0397-.0438.1057-.0284.2231-.1093.4362-.1988.6039-.0796.1023-.1991.2047-.3042.2743-.1023.0739-.1833.1336-.1606.216.0277-.0123.0584-.0228.0897-.0334.0409-.0139.0828-.0282.1207-.0476.0027-.0014.0054-.0029.0081-.0043.0636-.0338.1206-.0641.1411-.1009.0049.0002.0099.0006.0149.0009.0365.0025.0758.0051.147-.0548.0238-.0379.0484-.07.072-.1007.0074-.0096.0147-.0192.0218-.0287.024-.0378.0502-.0723.0777-.1084.0035-.0046.0069-.0091.0105-.0138.0255-.0426.0539-.0881.0852-.1364.0044-.009.0089-.0182.0135-.0276.0222-.0449.0461-.0933.0661-.1486.0382-.0573.0695-.1256.0986-.1891.0467-.1018.0879-.1914.143-.2045.0134-.0582.0091-.0978.0049-.1364-.0008-.0066-.0015-.0132-.0021-.0199-.0043-.0455-.0042-.0953.0086-.1791.0133-.0279.0195-.0721.0256-.1153.0076-.0538.015-.1061.0355-.1234-.01-.5869-.0839-1.1894-.2942-1.6968.0093-.05-.0224-.1516-.0522-.2469-.0065-.021-.013-.0417-.0189-.0614-.0313-.0753-.0625-.1577-.0938-.2444.1222-.0469.2402-.0952.3468-.1421.101-.0449.1936-.0927.2819-.1383.1241-.0641.2396-.1237.3575-.1644.0711-.0436.1432-.0881.2151-.1324.0921-.0567.1838-.1132.2723-.1674.0297-.0184.0591-.0364.0881-.0541.1306-.08.255-.1562.3794-.2458.0094-.014.02-.0275.0315-.042.0336-.0428.075-.0953.1163-.2024.0057-.0156.0114-.0384.0157-.0625.0043-.0228.0071-.0483.0057-.0781 0-.054-.0185-.1237-.0469-.172-.0611-.1037-.1378-.1478-.1918-.1776-.1137-.0554-.199-.0725-.2828-.0881-.081-.0142-.1578-.0213-.2245-.0242-.0704.0044-.1343.0069-.1955.0092-.0774.003-.1504.0058-.2265.0121-.0198.0019-.0396.0037-.0596.0055-.1168.0107-.2389.0218-.3797.0485-.1534.0171-.3026.0398-.4518.0654-.1082.0244-.2149.0543-.3223.0845-.0365.0102-.073.0205-.1097.0306-.2856.0909-.5755.1961-.8952.3126-.0463.0254-.0595.0508-.0729.0767-.0167.0321-.0337.0649-.1147.0995l-.2856.1364c-.0065.0059-.0131.0119-.0197.018-.0541.0494-.1136.1036-.2035.1568-.0838.0469-.1662.0909-.2145.0952-.0139.0609-.1169.1304-.2214.2009-.066.0446-.1327.0896-.1778.1331-.0463.0378-.0711.0446-.0957.0513-.0214.0059-.0427.0117-.0778.0382-.0185.0469-.071.0938-.1804.1563-.0242.04-.099.0893-.1732.1382-.026.0171-.0519.0342-.0755.0508-.0043.0136-.0074.0272-.0105.0407-.011.0487-.0222.0982-.0933.1582-.068.0469-.12.0956-.179.1509-.0681.0636-.1454.136-.2671.2243-.0281.0419-.0789.0909-.1305.1408-.0973.0939-.1974.1905-.1537.2471.1198-.0657.2438-.1651.3707-.2668.1529-.1225.3099-.2483.4691-.3229.0317-.0345.068-.0698.1041-.1048.0529-.0514.1053-.1022.1417-.1495.0525-.0057.125-.0455.2074-.0981.0727-.0309.1324-.0431.1924-.0553.0748-.0152.15-.0305.251-.0826.0266-.0178.0504-.0347.0728-.0507.0722-.0515.13-.0926.22-.1197.3595-.3041.9165-.6196 1.4366-.7191.0374-.0325.1104-.0616.182-.0901.0316-.0126.0629-.0251.0908-.0378.1449-.0383.29-.0796.4349-.1236.1478-.0313.2941-.0626.4391-.0938.0615-.0061.1228-.0123.1833-.0186.0822-.0084.1631-.0167.2416-.024.1393-.0057.2743-.0043.3908.0099z"/>
<path d="m52.5787 37.5106c.0423-.0452.0851-.0909.1294-.1405.1108.0829.2228.1666.3311.2475.0903.0675.178.133.2601.1944.0857.0623.1703.1194.2516.1743.0466.0315.0922.0623.1362.0929.0668.0454.1308.0895.1933.1335.0725.0469.1465.0896.2275.1294.0753.0227.1563.0426.2501.0469.0923.0028.2017-.01.3097-.0682.1094-.0583.1947-.1691.2288-.27.0384-.1037.0384-.1918.0356-.2728-.0207-.2401-.0887-.4195-.1481-.5764-.0184-.0484-.0359-.0946-.0509-.1398-.047-.0671-.1022-.1527-.1626-.2463-.1316-.204-.2876-.4459-.4357-.6163-.1067-.109-.1975-.2083-.287-.3061-.0237-.0259-.0472-.0517-.071-.0776-.011-.0115-.0214-.023-.0319-.0345-.018-.0199-.0362-.04-.0578-.0607-.0175-.016-.0353-.0328-.0533-.0498-.0171-.0161-.0344-.0324-.0517-.0483-.0711-.071-.1564-.1307-.2516-.1918-.3254-.2685-.7006-.422-1.0828-.5229-.3866-.1009-.7872-.1492-1.2278-.1862-.0677.0044-.0975.0218-.1275.0393-.0378.0221-.0757.0443-.1908.0403-.1378.0014-.2742.0042-.4092.0128l-.0118.0032c-.0962.0261-.2002.0544-.3449.0721-.0101.0011-.0201.0021-.0301.0032-.1124.0117-.2164.0226-.2725.0096-.0474.0491-.1972.0785-.3522.109-.1053.0207-.2131.0419-.293.0701-.0736.0205-.1055.0187-.1374.0169-.0278-.0016-.0556-.0032-.1113.0101-.044.0383-.1307.0696-.2913.0923-.0471.0285-.1481.0502-.2524.0727-.0464.01-.0936.0201-.1369.031-.0122.0118-.0227.0238-.0333.0357-.039.0441-.0779.088-.1942.1249-.1053.0263-.1926.0584-.2927.0952-.1107.0407-.237.0871-.4206.1379-.0549.0328-.1389.066-.2245.0997-.1626.0641-.3304.1303-.3127.2001.1662-.0298.3537-.0879.5464-.1477.249-.0772.5067-.1571.7382-.182.0575-.0251.1213-.049.1842-.0726.0865-.0324.1715-.0642.2365-.0979.0625.0114.1691-.0042.2942-.0284.1027-.0065.1795.0015.2574.0095.0934.0096.1882.0194.3308.0047.0342-.0071.0657-.0141.0955-.0207.1202-.0267.2126-.0472.3379-.0404.2927-.0782.6424-.1407 1.0033-.1592.3595-.017.7319.0128 1.053.1024.0782-.0128.22.0136.3378.0356.0127.0024.0252.0048.0373.007.3652.0881.7276.2259 1.0189.4377l.1079.0781.0968.0895c.0625.054.1278.1251.1904.1933.125.1364.2373.2714.3354.4022.1719.1776.3353.3864.4675.6067.0654.1094.1236.2217.1662.3311.0412.1094.0654.2188.0611.2927.0011.0137.0027.0258.0041.0365.0021.0159.0038.0287.003.0389 0 .0156-.0014.0326-.0326.0426-.0398.0085-.0797-.0114-.1109-.0327-.0133-.0077-.0261-.0163-.0403-.0258-.0224-.015-.0483-.0324-.0847-.0523-.0597-.0285-.1039-.0498-.1564-.0768-.0583-.0327-.1179-.0682-.1989-.135-.0885-.1055-.2224-.2259-.3569-.3467-.0899-.0808-.1801-.1618-.257-.2388-.1421-.0611-.2885-.1279-.4505-.2188l-.2316-.1279-.0909.1905c-.0199.0412-.0626.1023-.1038.1577-.1331.1515-.2449.2287-.3773.32-.0613.0423-.1269.0876-.2011.1447-.0924.0795-.1748.1492-.2614.2046-.0186.012-.0368.0242-.0549.0362-.0649.0432-.1277.085-.1966.1173-.0226.0109-.045.0221-.0676.0334-.0653.0327-.1317.0659-.2067.0944-.1009.0356-.2103.0739-.3353.1137-.2473.0924-.4349.1563-.621.1918-.0396.0078-.0785.0172-.1174.0265-.0533.0128-.1067.0256-.1625.0347-.0981.0156-.2005.0326-.3156.054-.0747.0097-.1017.001-.1313-.0086-.0306-.0099-.0639-.0207-.1557-.0127-.0332.0036-.0664.0073-.0997.0109-.1219.0134-.2438.0268-.3621.0402-.152.0057-.297.0142-.4277.0313-.1057.0058-.2212-.0054-.333-.0163-.0791-.0077-.1563-.0152-.2269-.0164-.1691-.0071-.2999.0099-.3184.0895.053.0076.1119.0184.1708.0291.1291.0237.2587.0474.328.0377.0037.0031.0073.0063.0109.0094.0322.0283.0642.0564.1767.073.1364-.0171.2501-.0157.3737-.0085.0372.0012.0752.004.115.0069.094.0069.1978.0144.3227.0044.0526.007.1093.0127.1658.0183.1741.0175.3458.0347.3855.0883.072-.0067.1181-.0197.1641-.0327.0612-.0172.1222-.0345.2438-.0369.0356.0042.0881-.0008.1404-.0057.0707-.0068.141-.0135.1679.0029.3666-.0682.7333-.1805 1.0872-.3212.3495-.1506.6792-.3467.9492-.5911.0369-.0114.0923-.0498.1534-.0967.037-.0292.0745-.0631.1113-.0964.024-.0217.0477-.0431.0707-.0627.0146-.0158.0292-.0314.0439-.0471z"/>
</mask>
<path d="m21 51.5v-1.5l13.253.4825s-2.4336 4.3409-7.753 5.5175c-5.3194 1.1763-5.5-4.5-5.5-4.5z" fill="#e7e5f0"/>
<path d="m47.398 83.508 9.6977-11.102c0.8707 1.0947 1.7731 2.7058 2.6548 4.5647-2.7063 3.6972-6.3867 7.146-9.8305 9.9547z" fill="#e7e5f0"/>
<path d="m27.7312 18.9453c.1466.0428.3066-.0624.3568-.235.0504-.1727-.0276-.3471-.1744-.39-.1468-.0428-.3065.0623-.3567.235-.0506.1727.0276.3472.1743.39z" fill="#4d495f" stroke="#4d495f" stroke-width="1e-4"/>
<path d="m30.9863 17.6598c-.8224-.0198-2.8358-.0792-3.895-.2098-.2871-.0353-.5519.1565-.6037.4411-.1688.9301-.477 2.9985-.417 5.4487.0115.4749-.4272.833-.8907.7294-2.4864-.5551-9.0812-2.3254-8.842-5.445.2943-3.8413 4.411-7.9034 8.9755-7.6091 4.3888.2829 6.7891 3.2327 6.1304 6.2852-.0461.214-.2387.3646-.4575.3595z" stroke="#4d495f" stroke-linejoin="round" stroke-miterlimit="10" stroke-width="5e-5"/>
<path d="m29.7846 19.8762c-.0006.0569-.0013.1106-.007.19-.0512.0202-.0871.0324-.1236.0449-.0404.0137-.0814.0277-.1449.0531l-.2672.1151-.0241.1151c-.0277.1031-.0593.2413-.0911.3802-.0221.0966-.0443.1935-.0653.2791-.0084.0513-.0163.1026-.0243.1544-.0055.0358-.0111.072-.0169.1085-.0185.0924-.0397.1905-.0682.2985-.0866.2387-.1407.3566-.2743.5698l-.0193.0318c-.0196.0326-.0384.0639-.0588.0918l-.0115.0149c-.0242.0316-.0477.0621-.071.0903-.0429.0614-.0933.11-.1437.1588l-.0239.0231c-.1151.1151-.2516.2131-.442.3225-.1947.1024-.351.1578-.5044.1947-.1535.0341-.3042.0569-.496.0583l-.026-.0014c-.0404-.0023-.0595-.0033-.0786-.0049-.0169-.0014-.0339-.0032-.0659-.0067l-.0653-.0069c-.2557-.0185-.5102-.1066-.7077-.1776-.1599-.0638-.3449-.1605-.4737-.2277-.092-.0481-.1553-.0812-.1601-.0764.1151.0753.2757.1776.3496.2074l.0111.0108c.0205.0204.0423.0422.1196.0844.0532.0232.1035.0429.1533.0626.042.0165.0837.033.1266.0512.0888.0423.1921.0715.3248.109l.0163.0046c.0419.0163.0878.0306.1336.0448s.0916.0284.1336.0447c.0838.0256.1535.0498.1705.0896.072.0106.1146.0029.1616-.0056.0477-.0085.1-.018.1923-.0101.0328.0103.0826.0095.1313.0088.0588-.0009.116-.0018.1401.0168.3212-.0568.6493-.1733.9349-.3623.2856-.1876.5259-.4491.6581-.7432.0668-.037.1477-.1919.2074-.3127.0128-.0451.0298-.0912.0472-.1386.0194-.0528.0394-.1072.0551-.164.0123-.0424.0254-.0849.0387-.128l.011-.0355.0257-.0838.0212-.0739c.0172-.0599.035-.1199.0526-.1795.0405-.1367.0802-.2709.1109-.3946l.0025-.0111c.009-.0401.0179-.0791.0244-.1182.0327-.0085.0654-.0156.0981-.0199l.4846-.2601v-.2796c-.0002-.3298-.0004-.626.0781-.8642-.0352-.1121-.0312-.2804-.0271-.4541.0032-.1347.0065-.2727-.0084-.39-.037-.1385-.0537-.2619-.0705-.3861-.0206-.1524-.0414-.306-.1001-.4908-.0113-.3225-.0838-.6238-.1705-.9307-.0757-.2682-.171-.5396-.2753-.837l-.0458-.1307c-.0313-.0481-.0652-.0602-.0992-.0724-.0433-.0154-.0865-.0309-.124-.1209-.019-.0355-.0372-.0715-.0553-.1074-.0333-.0659-.0666-.1318-.1052-.1952-.0739-.0583-.1392-.1251-.216-.2274-.0625-.0853-.1194-.1677-.1279-.2217-.0675-.0057-.1508-.0937-.2382-.1861-.0653-.0691-.1329-.1406-.198-.1819-.0466-.0395-.0599-.0634-.0723-.0856-.0121-.0218-.0233-.042-.0641-.0736-.0526-.0085-.1165-.0511-.2131-.1449-.0421-.0126-.1022-.0578-.1661-.1058-.0376-.0283-.0766-.0576-.114-.0819-.0127-.0008-.0247-.0009-.0364-.001-.05-.0006-.0966-.0012-.1852-.0529-.0547-.0403-.1109-.0648-.1696-.0904-.0222-.0097-.0447-.0195-.0677-.0304-.0308-.0149-.064-.0305-.1002-.0476l-.0377-.0178-.0482-.0196c-.0396-.0162-.0828-.0338-.1308-.0528-.1379-.054-.4619-.145-.4746-.1408.3026.0867.7119.2445.989.4307.0236.0153.0486.0311.0741.0472.083.0526.1713.1086.2299.1574.0162.0162.0407.0365.07.0608.0325.027.071.0589.1106.0955.1279.1307.1776.1847.314.351.0829.0889.1312.1565.1889.2371l.0327.0457c.3041.3936.6026 1.0032.749 1.5489.0256.0682.0682.2046.0952.3098.1691.6267.2686 1.3215.3012 1.8672.0384.4106.0441.8867.0285 1.2946-.0009.0324-.0013.0609-.0016.0885z" fill="#4d495f"/>
<path d="m26.7383 24.6215-.7587 1.7543c.882.3726 1.6674.9243 2.3667 1.6147l-.0025-.0343.0103.0421c2.5688 2.5425 3.9738 6.9589 4.7387 11.2487l.9969-.2459c2.301-1.0513 4.7256-2.5644 5.8236-4.0299 0 0 1.7257 1.2477 2.1634 2.0605l4.4623-1.1003 1.3539 2.5315s-7.2796 6.7769-13.9284 9.6896c.011.383.018.7355.0221 1.0526.0048.3667.1097.6612.1887.883.1331.3737.1927.5411-.4237.4997l-11.8904-.3718c-.64-.043-1.2019-.4462-1.4463-1.0395-5.2279-12.6879-4.0557-19.2317-2.7733-22.1175.7383-1.6613 1.0416-3.4829.8283-5.2883l-.0172-.146z" fill="#4d495f"/>
<g stroke="#4d495f">
<g stroke-width="2e-4">
<path d="m29.7846 19.8762c-.0006.0569-.0013.1106-.007.19-.0512.0202-.0871.0324-.1236.0449-.0404.0137-.0814.0277-.1449.0531l-.2672.1151-.0241.1151c-.0277.1031-.0593.2413-.0911.3802-.0221.0966-.0443.1935-.0653.2791-.0084.0513-.0163.1026-.0243.1544-.0055.0358-.0111.072-.0169.1085-.0185.0924-.0397.1905-.0682.2985-.0866.2387-.1407.3566-.2743.5698l-.0193.0318c-.0196.0326-.0384.0639-.0588.0918l-.0115.0149c-.0242.0316-.0477.0621-.071.0903-.0429.0614-.0933.11-.1437.1588l-.0239.0231c-.1151.1151-.2516.2131-.442.3225-.1947.1024-.351.1578-.5044.1947-.1535.0341-.3042.0569-.496.0583l-.026-.0014c-.0404-.0023-.0595-.0033-.0786-.0049-.0169-.0014-.0339-.0032-.0659-.0067l-.0653-.0069c-.2557-.0185-.5102-.1066-.7077-.1776-.1599-.0638-.3449-.1605-.4737-.2277-.092-.0481-.1553-.0812-.1601-.0764.1151.0753.2757.1776.3496.2074l.0111.0108c.0205.0204.0423.0422.1196.0844.0532.0232.1035.0429.1533.0626.042.0165.0837.033.1266.0512.0888.0423.1921.0715.3248.109l.0163.0046c.0419.0163.0878.0306.1336.0448s.0916.0284.1336.0447c.0838.0256.1535.0498.1705.0896.072.0106.1146.0029.1616-.0056.0477-.0085.1-.018.1923-.0101.0328.0103.0826.0095.1313.0088.0588-.0009.116-.0018.1401.0168.3212-.0568.6493-.1733.9349-.3623.2856-.1876.5259-.4491.6581-.7432.0668-.037.1477-.1919.2074-.3127.0128-.0451.0298-.0912.0472-.1386.0194-.0528.0394-.1072.0551-.164.0123-.0424.0254-.0849.0387-.128l.011-.0355.0257-.0838.0212-.0739c.0172-.0599.035-.1199.0526-.1795.0405-.1367.0802-.2709.1109-.3946l.0025-.0111c.009-.0401.0179-.0791.0244-.1182.0327-.0085.0654-.0156.0981-.0199l.4846-.2601v-.2796c-.0002-.3298-.0004-.626.0781-.8642-.0352-.1121-.0312-.2804-.0271-.4541.0032-.1347.0065-.2727-.0084-.39-.037-.1385-.0537-.2619-.0705-.3861-.0206-.1524-.0414-.306-.1001-.4908-.0113-.3225-.0838-.6238-.1705-.9307-.0757-.2682-.171-.5396-.2753-.837l-.0458-.1307c-.0313-.0481-.0652-.0602-.0992-.0724-.0433-.0154-.0865-.0309-.124-.1209-.019-.0355-.0372-.0715-.0553-.1074-.0333-.0659-.0666-.1318-.1052-.1952-.0739-.0583-.1392-.1251-.216-.2274-.0625-.0853-.1194-.1677-.1279-.2217-.0675-.0057-.1508-.0937-.2382-.1861-.0653-.0691-.1329-.1406-.198-.1819-.0466-.0395-.0599-.0634-.0723-.0856-.0121-.0218-.0233-.042-.0641-.0736-.0526-.0085-.1165-.0511-.2131-.1449-.0421-.0126-.1022-.0578-.1661-.1058-.0376-.0283-.0766-.0576-.114-.0819-.0127-.0008-.0247-.0009-.0364-.001-.05-.0006-.0966-.0012-.1852-.0529-.0547-.0403-.1109-.0648-.1696-.0904-.0222-.0097-.0447-.0195-.0677-.0304-.0308-.0149-.064-.0305-.1002-.0476l-.0377-.0178-.0482-.0196c-.0396-.0162-.0828-.0338-.1308-.0528-.1379-.054-.4619-.145-.4746-.1408.3026.0867.7119.2445.989.4307.0236.0153.0486.0311.0741.0472.083.0526.1713.1086.2299.1574.0162.0162.0407.0365.07.0608.0325.027.071.0589.1106.0955.1279.1307.1776.1847.314.351.0829.0889.1312.1565.1889.2371l.0327.0457c.3041.3936.6026 1.0032.749 1.5489.0256.0682.0682.2046.0952.3098.1691.6267.2686 1.3215.3012 1.8672.0384.4106.0441.8867.0285 1.2946-.0009.0324-.0013.0609-.0016.0885z" mask="url(#g)"/>
<path d="m26.7383 24.6215-.7587 1.7543c.882.3726 1.6674.9243 2.3667 1.6147l-.0025-.0343.0103.0421c2.5688 2.5425 3.9738 6.9589 4.7387 11.2487l.9969-.2459c2.301-1.0513 4.7256-2.5644 5.8236-4.0299 0 0 1.7257 1.2477 2.1634 2.0605l4.4623-1.1003 1.3539 2.5315s-7.2796 6.7769-13.9284 9.6896c.011.383.018.7355.0221 1.0526.0048.3667.1097.6612.1887.883.1331.3737.1927.5411-.4237.4997l-11.8904-.3718c-.64-.043-1.2019-.4462-1.4463-1.0395-5.2279-12.6879-4.0557-19.2317-2.7733-22.1175.7383-1.6613 1.0416-3.4829.8283-5.2883l-.0172-.146z" mask="url(#g)"/>
<path d="m45.0385 66.7065c-.8654.1706-1.738.3012-2.6218.4107-1.134.1364-2.2807.2273-3.4303.2686-2.2992.0767-4.6184-.0498-6.8565-.4846-.0767-.0256-.2259-.0626-.4163-.1066-.1087-.0268-.2304-.0573-.3595-.0896-.0968-.0242-.1986-.0497-.3013-.0752-.0775-.0221-.1562-.044-.2349-.0658-.1635-.0454-.3275-.0909-.4799-.1389-.0671-.0219-.1325-.0428-.1953-.0627-.1484-.0473-.2824-.09-.3902-.1319-.7015-.2371-1.1415-.4185-1.5189-.5742-.066-.0272-.1301-.0537-.1934-.0795l-.1137-.0509c-.3756-.1678-.7407-.331-1.2818-.6525-.0476-.0447-.1493-.1185-.2892-.22-.0603-.0438-.1277-.0927-.2009-.1467l-.0401-.0284c-.1125-.0796-.2386-.1688-.3692-.2728-.0471-.0371-.0961-.0744-.1462-.1126-.1071-.0814-.2191-.1667-.3285-.2625-.665-.5429-1.3954-1.2847-1.9268-2.0065-.1034-.1245-.1936-.2534-.2823-.38l-.0789-.1124c-.0854-.1215-.1692-.2407-.2414-.3631l-.2529-.4106c-.0422-.0788-.084-.1562-.1253-.2327l-.0922-.1709c-.0231-.0427-.0457-.0853-.068-.1276l-.0357-.0671c-.0312-.0654-.0625-.1307-.0923-.1961-.0225-.0487-.0449-.0969-.0672-.1448-.037-.0795-.0736-.158-.109-.236-.0741-.1703-.1404-.3393-.2055-.5053-.031-.0791-.0617-.1575-.0929-.235-.3525-.9734-.5826-1.8943-.7674-2.9899-.1102-.8679-.1048-1.1808-.0999-1.4571.0009-.0549.0019-.1083.0019-.1643-.0207-.1643-.0265-.375-.0332-.6187-.0016-.0577-.0033-.1173-.0052-.1785-.012-.2464-.0055-.5191.0013-.8068.0021-.0856.0042-.1725.0058-.2604.0014-.1918.0142-.3879.027-.584l.0384-.594c.0223-.2201.0437-.4384.0645-.6501.0163-.1656.0321-.3271.0477-.4824.0505.0198.0345.3819.009.9607-.0184.4157-.0416.9432-.0487 1.536l-.0043.5485c.0056.1861.0113.3794.017.5741.002.2707.0231.5468.0443.8256.0094.1237.0189.2479.0268.3723.0838.8072.206 1.6228.3893 2.3546.2643 1.0459.6964 2.1998 1.3301 3.3067.3254.5471.6878 1.09 1.1141 1.5888.4234.4973.8909.9634 1.3883 1.384.1122.088.2105.1668.2981.2369.1485.119.266.2132.367.2847.0815.0598.1476.112.2063.1583.057.045.107.0845.1574.1202.0298.0213.0589.0425.0887.0642.1744.127.3702.2696.8534.544.8711.4717 1.6925.8057 2.4868 1.0756.7958.2686 1.5675.469 2.3647.6338.7972.1634 1.6228.2871 2.5337.3752.9094.0881 1.9069.1407 3.048.1322 1.6967.0128 3.0851-.0882 4.3711-.2274 1.2818-.1478 2.474-.3311 3.7473-.621l.6208-.1421-.4035.4931c-.5758.7047-1.1916 1.4563-1.8884 2.3066l-.03.0366c-.8469 1.0203-1.4913 1.7784-2.1358 2.5366-.6443.758-1.2889 1.5163-2.1357 2.5365-1.4821 1.8061-2.6446 3.2627-3.7104 4.6126-.5615.6473-1.1862 1.3761-1.8125 2.1068-.992 1.1573-1.988 2.3193-2.7432 3.1695l-.1919.2273c.3947.5704.6864.9779.9777 1.3847.2601.3634.52.7264.8525 1.2045.4149.6024.6626.9829.9102 1.3633s.4954.7611.9103 1.3636c.4471.6425.7622 1.076 1.0787 1.5115.2014.2772.4036.5553.6406.8885l.5812.8357 1.0928-2.8109.0256-.0667.0626-.0384c2.4327-1.4935 4.8584-3.193 6.9914-4.8315 2.2552-1.6824 4.7433-3.7145 7.1505-6.0237 1.781-1.7094 3.5207-3.578 5.0338-5.5711-.1653-.2429-.3499-.5079-.5174-.7231.0341-.0213.1179.0426.2387.1662.1026.1063.2324.2566.367.4401.4959-.6588.9668-1.331 1.4061-2.0154.2899-.4732.6266-1.0232.9023-1.5532.2842-.5258.5131-1.0274.6538-1.3684.6025-1.3031 1.0941-2.7426 1.2689-4.2546.0895-.7517.1065-1.5233.0255-2.2778-.081-.7546-.2784-1.495-.5853-2.1813-.307-.6864-.722-1.3187-1.2037-1.8815-.4803-.5627-1.0274-1.0558-1.5987-1.4892-.5712-.4363-1.1722-.8086-1.7733-1.134s-1.2022-.611-1.7934-.8511c-.5883-.2729-1.107-.4704-1.6512-.6637-.5471-.1876-1.1198-.3709-1.8346-.5698-1.0139-.2974-1.714-.4804-2.3645-.6504l-.0995-.026c-.6793-.1748-1.3201-.3268-2.2452-.5045-.584-.1018-1.1226-.1876-1.5684-.2586-.3503-.0559-.6433-.1025-.8559-.1407-1.0303-.1051-2.5337-.2544-3.7771-.3254-1.701-.1663-3.6775-.26-5.6343-.2913-1.9553-.0312-3.8893-.0085-5.5078.0398.054-.0583.9449-.1194 2.0136-.1492.7098-.0217 1.4976-.029 2.1688-.0352.338-.0031.6464-.006.9005-.0103 1.5091.0242 2.599.0611 3.5483.0966.9492.0384 1.7593.081 2.7085.1592.9619.0745 1.3789.0844 1.7669.0936.1301.0031.257.0062.4002.0115.7921.081 1.7173.2095 2.4328.3089.3639.0505.6735.0935.8838.1189.5336.0919.9735.1699 1.3363.2342.5347.0948.9022.1599 1.1562.1963.4382.0879.6545.1448.8607.199l.0814.0213c.0566.0144.1145.0294.1779.0459.199.0515.452.1171.8906.2227.8285.1975 1.9725.5328 2.98.8966.7028.2494 1.3393.5113 1.7796.6924.1917.0789.3463.1425.4528.183.0513.0273.1094.0578.1735.0915.4631.2436 1.2374.6507 1.9936 1.1661 1.0444.702 1.7222 1.3187 2.2935 1.9383.378.4235.6976.8995.9847 1.3912.2885.4945.5003 1.0288.6765 1.573.039.1469.0744.2782.1063.3966l.0386.1434c.0167.0836.0322.1599.0465.2302l.0005.0024c.0122.0602.0236.116.034.1682.0359.1452.0544.2625.0708.3657.0089.0562.0172.1085.0272.1586.0063.0371.0131.0731.0199.1093.0192.1024.0386.2052.047.3312l.0054.0639c.0058.0688.0123.1457.0187.2316.0026.034.0046.0699.0067.1076.0015.0254.003.0517.0047.0786 0 .0668-.0001.1393-.0015.2189-.0313 1.8217-.4902 3.5085-1.1112 5.0346-.6224 1.5333-1.4296 2.9159-2.295 4.2176-.3603.5312-.7334 1.0483-1.1183 1.5537.223.3347.4473.7099.6517 1.0518.0253.0423.0502.084.0748.1251.4533.712.9564 1.6556 1.414 2.5735.1433.2959.1742.3946.2062.4967.027.0863.0549.1751.1518.3872.5336 1.1386.8447 1.8912 1.3071 3.0098.1078.2607.2237.5412.3526.8511.6139 1.6739.9266 2.5209 1.5235 4.0741.1894.5368.3126.9298.441 1.3392.1027.3275.2088.6656.3547 1.0964.3026.8498.5642 1.5219.8086 2.1415.0691.2611.1478.5469.2279.838.1737.6311.3543 1.2868.4583 1.7681.1013.3609.1768.5864.2513.8092.0091.0272.0182.0544.0274.0818.0923.054.1917.1137.3054.1847.238.1521.3794.2562.5208.3603s.2828.2082.5208.3602c.2565.1591.438.2587.6206.3588.1159.0636.2322.1274.3685.2068.1234.0772.2481.1544.3813.2368l.0422.0261.3509.2188-.3851.1549c-.19.0763-.3832.1537-.5788.232-1.2328.4937-2.5555 1.0234-3.7268 1.5287-1.1171.432-2.3975.9516-3.7243 1.49-.4538.1841-.913.3704-1.3729.5566l-.182.072-.115-.1576c-.2211-.3005-.4426-.6009-.663-.8998-.1861-.2524-.3714-.5037-.5549-.7529-.0847-.1103-.1768-.2334-.2692-.3568-.1941-.2595-.3894-.5204-.5194-.6677-1.2647-1.8644-2.8662-3.9917-4.1082-5.552-.215-.3325-.3997-.575-.6351-.8841-.0664-.0872-.1369-.1798-.2132-.2811-.2815-.4017-.439-.6651-.5965-.9288-.1201-.2008-.2402-.4018-.4153-.6641-.2401-.3312-.4405-.6196-.5315-.7873-.1667-.1939-.3711-.4532-.5757-.7129-.1163-.1475-.2326-.2952-.3423-.4311-.3579-.5386-.7984-1.1394-1.2354-1.7354-.391-.5332-.7791-1.0626-1.1028-1.5402-.374.2991-.761.6048-1.1678.923-1.0515.81-2.3389 1.7436-3.5795 2.5991-1.2391.8568-2.4285 1.6384-3.2598 2.1841l-.7731.4632c-.3795.9407-.7915 1.9837-1.2207 3.085l-.169.4306-.263-.3794c-1.2462-1.8005-2.6174-3.7529-3.9176-5.5988-.7219-1.0687-1.5007-2.187-2.3476-3.3991l-.1151-.1649.1294-.1548c.342-.4129.6953-.8386 1.0596-1.2774l.0011-.0013c.3513-.4232.7126-.8585 1.0836-1.3062.828-.9918 1.7393-2.0775 2.6698-3.186 1.1285-1.3444 2.2851-2.7222 3.3554-4.0069-.0793-.0505-.1702-.114-.2612-.1775-.0621-.0434-.1243-.0867-.1827-.1259-.1716-.1006-.3735-.2349-.5757-.3694l-.1173-.078c-.0755-.0508-.0951-.0736-.1147-.0964-.0172-.0199-.0343-.0398-.0886-.0783-.1813-.1219-.3203-.2212-.466-.3251-.1449-.1035-.2963-.2116-.5025-.3513-.3949-.3087-.6015-.4563-.9918-.7152-.1164-.0841-.2003-.1519-.2842-.2196-.0845-.0682-.1688-.1363-.2859-.2208-.2099-.143-.3847-.2468-.5488-.3388-.0716-.0634-.1537-.1322-.2359-.201-.1253-.1049-.2507-.2098-.3384-.2958-.086-.0682-.1439-.105-.2018-.1418-.0415-.0263-.083-.0527-.135-.0907-.0631-.0483-.0988-.0829-.1346-.1174-.0357-.0346-.0714-.0692-.1345-.1175-.0679-.0495-.118-.0791-.168-.1086-.0328-.0194-.0656-.0388-.1034-.0637-.0867-.0631-.1763-.1291-.2678-.1963-.2985-.2195-.6161-.453-.9104-.6489-.2589-.1988-.5625-.4185-.8777-.6467-.2767-.2002-.5623-.4069-.8345-.6115-.0328-.0225-.0686-.0482-.1043-.0739-.0736-.0529-.1473-.1058-.1965-.1315-.4841-.4116-1.0949-.8463-1.5682-1.1498-.0798-.0733-.1488-.1214-.2347-.1814-.0278-.0193-.0573-.0399-.0894-.0629-.1076-.0865-.1679-.1494-.2284-.2123-.0461-.0481-.0923-.0961-.1594-.1548-.0917-.07-.1682-.1327-.2034-.1745-.0639-.035-.1422-.0862-.2206-.1375-.0439-.0287-.0879-.0574-.1292-.0833-.1365-.1203-.304-.2451-.4703-.369-.175-.1303-.3486-.2596-.4831-.3816.0265-.0226.1522.0654.2778.1533.0728.0509.1455.1018.1989.1312.148.1143.2536.1861.3475.2498.0709.0482.1351.0918.2057.1457.0906.0632.1359.0761.1812.089.0121.0034.0242.0069.0371.0113.0273.0203.0563.0423.0852.0644.0816.0622.1633.1244.2092.1468.113.0913.1832.1348.2288.1512.0415.0292.0589.0464.0763.0635.0201.0198.0401.0396.0975.0781.0581.0359.1297.0869.2013.1379.1223.0871.2445.1741.2989.1856.0354.0389.1202.1026.2099.1689.1094.0785.1928.1282.2713.1722l.2882.2172c.0811.0635.1146.074.1481.0845.0259.0081.0519.0163.0998.0489.3079.2446.5925.4557.8692.6609.2633.1953.5194.3853.7816.5937.1482.1009.2689.1897.3859.2758.1245.0915.2448.1801.3896.2767.0883.0639.1878.1403.2873.2166.1629.125.3258.25.4397.3204.2462.2174.6285.4863.9789.7272.1197.0996.2545.1956.4008.2996.0813.0579.1661.1182.2539.1831.1135.084.237.1778.3631.2736.2365.1797.4823.3664.688.5078.0274.021.0572.0432.0869.0654.082.0611.1639.1221.195.1577.342.2268.6876.4882 1.0333.7497.1784.1349.3569.2699.5348.4001.0098.0207.0583.0609.1068.1011.0348.0288.0696.0576.0902.0793.0828.0676.1306.0961.1784.1246.0359.0214.0718.0428.1225.0808.0051.045.1273.1486.2499.2526.0349.0296.0697.0592.102.0874.0852.0606.1561.1132.2203.1608.1315.0976.2348.1743.3749.2557.0814.0597.0997.0878.1181.116l.0068.0103c.0411.0211.1042.0669.1728.1188.5875-.7053 1.1483-1.3819 1.6634-2.0087.2056-.2443.426-.5078.6461-.771.603-.721 1.2038-1.4394 1.4912-1.7527.7304-.8953 1.4764-1.8018 2.2338-2.717zm2.4923 17.0472c.1409.1644.3304.414.5194.6631.1897.2499.379.4992.5184.6615.3837.5346.6595.8919.9041 1.2089.1886.2443.3587.4646.5454.7237.238.3121.3571.4184.4766.525.0317.0283.0635.0566.0975.0889.075.1017.1544.2114.2335.3208.2105.2909.4193.5793.5381.7094.2956.4221.4804.6495.6011.766.1084.1431.1536.2161.1986.2889.0525.0847.1047.1691.2561.3633.1496.1853.3334.4299.5177.6754.3233.4303.6482.863.7939.9815.0924.1592.314.4633.5485.783.287.3822.5059.648.712.8896l.7545 1.0359c.2125.2983.301.3794.3896.4606.0684.0627.1369.1255.2626.2883.8049 1.1394 1.5497 2.1529 2.2737 3.1381.291.3959.5786.7872.8653 1.1803.4889-.1904.9821-.3808 1.4879-.5712.5885-.2503 1.0843-.4488 1.5653-.6413.5075-.2032.9983-.3997 1.5638-.6433.3628-.1474.7839-.3104 1.2044-.4732.6747-.2612 1.348-.5218 1.7769-.7162.3539-.1222.7516-.27 1.1765-.4348-.5854-.3624-1.202-.7347-1.7932-1.0899-.2003-.1336-.4079-.2686-.6253-.405l-.0838-.0526-.0284-.0967c-.116-.4049-.2492-.8301-.3909-1.2821-.0771-.2459-.1566-.4998-.2372-.7627-.0357-.116-.0722-.2349-.1094-.356-.4041-1.3157-.89-2.8977-1.3103-4.0662-.0406-.1238-.0855-.2571-.1301-.3895-.1132-.3357-.2246-.6661-.2593-.8241-.2603-.6894-.52-1.4016-.7833-2.1236-.5242-1.4375-1.0624-2.9136-1.6479-4.325-.0061-.078-.0921-.3031-.1753-.521-.0532-.1392-.1053-.2755-.1346-.3685-.139-.3578-.2284-.5327-.319-.71-.066-.1291-.1326-.2594-.2194-.4624.0192-.1566-.3136-.9282-.581-1.5482l-.0273-.0632c-.0761-.1567-.1496-.3-.2188-.4347-.043-.0839-.0844-.1646-.1237-.2431-.1009-.2047-.196-.388-.2912-.5614-.0938-.1748-.1834-.341-.2815-.5072-.0994-.1649-.2032-.3312-.3197-.5088-.1903-.3221-.226-.421-.2671-.535-.0028-.0077-.0056-.0155-.0085-.0234-.0238-.0337-.0515-.0739-.0823-.1193-.5239.6816-1.0694 1.342-1.6347 1.9871-1.0189 1.1595-2.1002 2.2722-3.2527 3.3635-1.2235 1.1922-2.2893 2.1329-3.3423 3.0268-.6877.5822-1.3713 1.1439-2.1032 1.73z" clip-rule="evenodd" fill="#4d495f" fill-rule="evenodd" mask="url(#h)"/>
</g>
<path d="m30.9863 17.6597c-.8224-.0197-2.8358-.0791-3.895-.2097-.2871-.0354-.552.1565-.6037.4411-.1688.9301-.4771 2.9985-.4171 5.4487.0115.4748-.4271.8329-.8906.7293-1.2432-.2775-3.5135-.8588-5.4431-1.7607-.9648-.451-1.8444-.9821-2.4679-1.5954-.6234-.6133-.9908-1.3089-.931-2.0888.1472-1.9206 1.2499-3.8964 2.8864-5.3553 1.6366-1.459 3.8069-2.4009 6.0891-2.2538 2.1944.1415 3.8917.9497 4.958 2.104 1.0663 1.1544 1.5017 2.6549 1.1724 4.1812-.0462.2139-.2387.3646-.4575.3594zm-12.0895 12.4149c1.2873 2.5486 1.9134 5.379 1.8929 8.2344-.0446 6.2333.1076 10.8689.2693 13.9309.1212 2.2924 1.968 4.1284 4.2624 4.2009 4.3729.138 8.3301 1.7752 11.2344 3.8729 1.4521 1.0488 2.641 2.2128 3.487 3.362.8461 1.1493 1.3492 2.2837 1.4298 3.2737.0461.5674-.2319 1.0626-.7688 1.4848-.5368.4221-1.3326.7711-2.3219 1.046-1.9785.55-4.7311.8039-7.735.7547-3.004-.0492-6.2592-.4016-9.2429-1.0641-2.9838-.6625-5.6961-1.6353-7.6141-2.9253-2.0934-1.408-3.1785-4.4328-3.5902-8.2045s-.15-8.2902.45-12.6854c.6001-4.3953 1.5386-8.6673 2.4805-11.9459.4709-1.6394.9428-3.0304 1.3736-4.0643.2154-.517.4205-.9446.6102-1.2695.1896-.3248.3638-.5467.5172-.6522.2813-.1934.5664-.2425.8507-.1779s.5679.243.8461.5046c.5564.5232 1.0915 1.3793 1.5688 2.3242z" fill="#9173fa" stroke-width="1e-4"/>
<path d="m20.79 38.309c0.0205-2.8554-0.6056-5.6858-1.893-8.2344-0.9546-1.8897-2.1403-3.4246-3.2656-2.651-2.4552 1.6879-10.215 33.19-1.8414 38.822 7.6723 5.1602 28.052 5.2437 27.683 0.7038-0.3223-3.9596-7.4055-10.233-16.151-10.508-2.2944-0.0725-4.1411-1.9085-4.2623-4.2009-0.1617-3.062-0.3139-7.6976-0.2693-13.931z" stroke-linejoin="round" stroke-miterlimit="10" stroke-width="5e-5"/>
</g>
<path d="m83.535 40.9184.0842.0015c.6686.0113 1.3371.0226 1.9961.0199.0608.0437.2495.058.4381.0724.1346.0102.2691.0204.357.0413.3196.0213.4854-.0003.6511-.0218.1247-.0162.2493-.0324.4394-.0303.0925.1332.5729.1771 1.054.2211.1353.0124.2707.0248.3976.0392.3122-.0069.5761-.0057.8149-.0047.4912.0022.8766.0039 1.3596-.0658.3009-.0008.3952.046.4895.0928l.0141.007.0218.0105c.1801-.039.5308-.0304.8817-.0217.1638.004.3277.008.4742.0072-.0119.2568-.8492.2851-1.6858.3133-.2268.0077-.4536.0154-.6638.0276-.5975.0842-1.3302.1307-2.0628.1772-.1344.0086-.2687.0171-.4023.0259-.272.0154-.3597-.0114-.4475-.0382-.0767-.0234-.1534-.0468-.3529-.0421-.6524.0375-1.163.0477-1.6979.0583-.5335.0106-1.091.0216-1.8372.0609-1.4997-.0577-2.2597-.0428-3.6604.0487-.4305.0054-.7538-.0137-1.0769-.0329-.324-.0192-.6479-.0384-1.0795-.0329-.7595.0376-1.3653.1176-1.9244.2108-.2852-.0347-.6056-.0613-.926-.0879-.488-.0406-.9761-.0811-1.3401-.15-.328-.0155-.5324.0034-.7371.0223-.0191.0017-.0382.0035-.0575.0052.0204.2883.025.7596.0297 1.2318.0042.4313.0085.8632.0247 1.1568-.0089.905.0012 1.5221.0101 2.0708.0067.412.0128.7854.0098 1.2131.0056.531.0383.745.0706.9568.0089.058.0177.1159.026.18 0 .1732-.0012.3588-.0024.5438-.0031.4861-.0062.9678.0124 1.2055-.0128.702 0 1.0999.027 1.323.0027.2477-.0043.3644-.0113.482-.008.1341-.0161.2693-.01.6008.0109.3271.0136.7494.0163 1.172.0047.7269.0094 1.4546.0561 1.6999-.0213.2487-.0228.7603-.0228 1.2989.0029.6508.0214 1.1183.0442 1.5489l-.0086 1.7421c-.0056.4971.0172.6578.04.8182.0176.1243.0353.2485.0396.5289-.0284 1.9016-.0311 3.6162-.0336 5.2835-.0024 1.5797-.0048 3.1169-.029 4.7305.013.859.0132 1.5788.0133 2.2761.0002.7515.0004 1.4769.0166 2.3223.0022.5366-.0029 1.1558-.0079 1.7737-.0079.9792-.0158 1.9548.0051 2.5917-.0568 1.5802-.037 3.8368-.0086 5.8887-.0192.7527-.0137 1.5526-.0077 2.4207.0033.4806.0068.9823.0063 1.5084-.0005.6876-.0052 1.4428-.01 2.2132-.0088 1.4301-.018 2.9127-.0014 4.1132-.0016.174-.002.3616-.0025.5485-.0013.4862-.0025.9669-.023 1.1866.0406 1.9744.0296 4.0614.0187 6.1504l-.0016.312 2.4257.006c.0994.023.4121.03.7213.037.2123.005.4229.01.5618.02.5141.01.7812 0 1.0476-.011.2019-.008.4034-.016.7116-.015.1476.066.903.088 1.6681.11.2291.007.459.013.6738.021.5125-.004.9441-.003 1.3346-.003.7832.001 1.401.002 2.1738-.032.4915-.002.6412.022.7943.047.0174.002.0347.005.0526.008.2921-.021.8624-.016 1.4315-.012.2616.002.5229.004.757.003-.0191.129-1.3734.143-2.7247.157-.3645.004-.7288.008-1.0666.014-.9745.042-2.1734.066-3.3693.09-.2027.004-.4053.008-.6068.012-.438.008-.58-.006-.7212-.019-.1241-.012-.2475-.023-.5704-.021-1.0281.018-1.8378.023-2.6808.028-.8397.006-1.7125.011-2.8669.029l-.2132.003-.0071-.378c.0285-2.42.0214-3.646-.0241-5.9056-.0028-.6956.0067-1.2174.0163-1.7393s.0192-1.0438.0163-1.7393c-.0185-1.2264-.0581-2.2026-.105-3.105.0166-.4518.0295-.9583.0424-1.4659.0204-.7966.0408-1.5958.0755-2.1904.0082-.5261-.0012-.8549-.0106-1.183-.0068-.239-.0137-.4777-.0137-.7922.0029-.3844.016-.6224.0292-.8604.0131-.238.0263-.476.0291-.8604-.0008-.4035-.0125-.6821-.0241-.96-.0077-.1841-.0153-.3679-.0199-.5875-.0009-.4978-.0011-1.0137-.0013-1.54-.0006-1.8085-.0012-3.738-.0342-5.4629.0129-1.5759.0064-3.3856-.0003-5.2643-.0059-1.6499-.012-3.3531-.0054-4.9982-.0028-.1962-.0038-.4134-.0047-.6303-.0019-.4337-.0038-.8666-.0208-1.1289.0881-3.0609.0638-6.6817-.0086-9.3916.0234-.5161.0189-.9191.0135-1.4183-.0019-.1674-.0039-.3457-.0049-.5427.0119-.6591.0414-1.0723.0707-1.4835.0229-.321.0457-.6409.06-1.0758.0043-.557.0156-1.0331.0412-1.2917-.0207-.3602-.0314-.8293-.0421-1.2953-.0054-.2381-.0108-.4754-.0176-.697.0318-.8728.034-1.8785.0363-2.8772.002-.9438.0041-1.8814.0311-2.6945-.1098.0092-.2263.0166-.3672.0172-.2379-.0059-.3854-.0325-.5328-.0591-.1476-.0267-.2951-.0533-.5331-.0591-.2516.0016-.4248.025-.598.0485-.1133.0153-.2266.0306-.3618.0399-.3254.0024-.6633.0028-1.008.0032-1.1052.0014-2.28.0029-3.3327.0697-.9752-.0257-2.0947-.0132-3.2573-.0003-1.0244.0114-2.0821.0232-3.1037.0096-.1197.0056-.2521.0077-.3845.0097-.2706.0043-.5416.0085-.7054.0425-1.8975-.1772-4.1419-.1285-5.8215.0169-.3237-.0468-.5759-.038-.8909-.0271-.1003.0034-.2069.0071-.3243.0093-.4124-.0237-.6695-.0829-.9268-.1422-.1966-.0453-.3934-.0906-.6596-.1201-.345-.0082-.6407-.0285-.8002-.0798-.2169.0387-.4977.0596-.7784.0806-.1558.0116-.3118.0232-.4566.0379-.5419-.0637-1.1667-.0682-1.787-.0726-.6538-.0047-1.3026-.0093-1.844-.0832.0239-.1354.4823-.1503.9408-.1652.2663-.0087.5326-.0174.7137-.0496.5593.0174.9413-.0022 1.2807-.0195.2565-.0131.4888-.025.7549-.0188.3309-.011.463-.077.5949-.1429.0351-.0175.0703-.0351.1091-.0516l.0383.0002.0695.0008.7693-1.8327h14.4239l7.8769-18.26h18.8227z" fill="#4d495f"/>
<path d="m38.3361 104.941-.1894-.119c-.3191-.199-.6345-.397-1.0667-.65-.7461-.418-1.3544-.73-1.92-1.01-.2695-.18-.5754-.376-.8811-.572-.4613-.296-.9225-.592-1.2575-.829-.3167-.196-.5205-.306-.7255-.415-.1445-.078-.2896-.156-.4753-.265-.2275-.138-.3633-.234-.4987-.329-.137-.096-.2737-.193-.5044-.333-.2495-.146-.4263-.236-.6053-.327-.0503-.026-.1012-.052-.1536-.079l-.0924-.0485-.0141-.3453c-.0014-.379-.0017-.7731-.002-1.1752-.0009-1.2333-.0019-2.541-.0351-3.7145.0129-1.1027.0068-2.3697.0005-3.685-.0056-1.1493-.0113-2.3355-.0046-3.4813-.0028-.1328-.0039-.2793-.0051-.4261-.0023-.307-.0047-.6151-.022-.8016.0895-2.1372.0654-4.6667-.0071-6.558.0225-.3626.0183-.6458.0131-.9981-.0018-.1145-.0036-.2363-.0046-.3704.0113-.4664.0411-.7568.0709-1.0478.0226-.2205.0452-.4415.0599-.7398.0043-.388.0142-.7219.0397-.9009-.0187-.2391-.029-.5465-.0394-.8551-.0061-.183-.0123-.3664-.0202-.5361.0319-.6129.0343-1.3197.0367-2.0209.0025-.7343.005-1.4625.0414-2.0702.0684.027.0758.5445.0833 1.0616.0043.2995.0086.5989.0248.8028-.0089.6317.0007 1.0625.0092 1.4459.0065.2876.0123.5486.0092.8476.0057.3731.0388.5213.0721.6703.0088.0394.0176.0789.0259.1226-.0003.109-.0015.225-.0026.3413-.0035.3523-.0069.7077.0112.8808-.0128.4888.0001.7673.0285.9236.0019.1708-.0049.2523-.0117.3334-.0079.0944-.0158.1881-.0097.4212.0103.226.013.5168.0156.8083.0046.5111.0093 1.0248.0555 1.1967-.0199.1748-.0228.5315-.0228.9081.0028.4547.0228.7801.0441 1.0814-.0014.2022-.0025.4047-.0036.6073-.0011.2028-.0022.4066-.0036.6091-.0064.3468.0165.4591.0392.5707.0177.0869.0353.1735.0391.37-.0285 1.328-.0307 2.5253-.0329 3.6893-.0021 1.1029-.0041 2.176-.0283 3.3022.013.6005.0131 1.1032.0133 1.59.0001.5247.0003 1.031.0165 1.6214.0016.3622-.0034.7786-.0083 1.1961-.0083.6979-.0167 1.3985.0055 1.852-.0326.621-.0412 1.3926-.0355 2.2055.4661.27.9464.5426 1.4097.8046.4463.286.9346.567 1.4648.873.2868.166.5857.338.8969.522.4035.239.8439.505 1.2937.775.865.522 1.7653 1.064 2.5047 1.482.096.058.1996.119.3034.181l.0026.002c.2989.177.599.355.7242.453l1.0785.6-.905.021c-1.2763.03-2.6152.02-3.9549.01-.7575-.006-1.5153-.011-2.2621-.01-.0674-.021-.277-.028-.4877-.035-.1535-.006-.3076-.011-.4077-.022-.3588-.01-.5453.001-.7311.011-.1409.008-.2815.016-.4966.015-.1039-.066-.6417-.088-1.1818-.11-.1544-.006-.3092-.012-.4538-.019-.3509.003-.6475.002-.916.002-.5543-.002-.9893-.003-1.5339.032-.3387.001-.4453-.022-.5512-.045-.0134-.003-.0275-.006-.0413-.009-.2017.019-.5949.015-.9889.011h-.0013c-.1857-.002-.3714-.004-.5374-.004.0145-.129.9601-.143 1.9034-.157h.0016c.2537-.004.5072-.008.7423-.014.6823-.042 1.5196-.066 2.3553-.09l.4214-.012c.307-.008.4059.006.5052.02.0863.011.173.023.3971.021.7482-.019 1.3311-.024 1.9455-.03.5911-.005 1.2114-.011 2.0363-.029 1.4097.024 2.2396.022 3.392-.006z" fill="#4d495f"/>
<g stroke="#4d495f">
<path d="m83.535 40.9184.0842.0015c.6686.0113 1.3371.0226 1.9961.0199.0608.0437.2495.058.4381.0724.1346.0102.2691.0204.357.0413.3196.0213.4854-.0003.6511-.0218.1247-.0162.2493-.0324.4394-.0303.0925.1332.5729.1771 1.054.2211.1353.0124.2707.0248.3976.0392.3122-.0069.5761-.0057.8149-.0047.4912.0022.8766.0039 1.3596-.0658.3009-.0008.3952.046.4895.0928l.0141.007.0218.0105c.1801-.039.5308-.0304.8817-.0217.1638.004.3277.008.4742.0072-.0119.2568-.8492.2851-1.6858.3133-.2268.0077-.4536.0154-.6638.0276-.5975.0842-1.3302.1307-2.0628.1772-.1344.0086-.2687.0171-.4023.0259-.272.0154-.3597-.0114-.4475-.0382-.0767-.0234-.1534-.0468-.3529-.0421-.6524.0375-1.163.0477-1.6979.0583-.5335.0106-1.091.0216-1.8372.0609-1.4997-.0577-2.2597-.0428-3.6604.0487-.4305.0054-.7538-.0137-1.0769-.0329-.324-.0192-.6479-.0384-1.0795-.0329-.7595.0376-1.3653.1176-1.9244.2108-.2852-.0347-.6056-.0613-.926-.0879-.488-.0406-.9761-.0811-1.3401-.15-.328-.0155-.5324.0034-.7371.0223-.0191.0017-.0382.0035-.0575.0052.0204.2883.025.7596.0297 1.2318.0042.4313.0085.8632.0247 1.1568-.0089.905.0012 1.5221.0101 2.0708.0067.412.0128.7854.0098 1.2131.0056.531.0383.745.0706.9568.0089.058.0177.1159.026.18 0 .1732-.0012.3588-.0024.5438-.0031.4861-.0062.9678.0124 1.2055-.0128.702 0 1.0999.027 1.323.0027.2477-.0043.3644-.0113.482-.008.1341-.0161.2693-.01.6008.0109.3271.0136.7494.0163 1.172.0047.7269.0094 1.4546.0561 1.6999-.0213.2487-.0228.7603-.0228 1.2989.0029.6508.0214 1.1183.0442 1.5489l-.0086 1.7421c-.0056.4971.0172.6578.04.8182.0176.1243.0353.2485.0396.5289-.0284 1.9016-.0311 3.6162-.0336 5.2835-.0024 1.5797-.0048 3.1169-.029 4.7305.013.859.0132 1.5788.0133 2.2761.0002.7515.0004 1.4769.0166 2.3223.0022.5366-.0029 1.1558-.0079 1.7737-.0079.9792-.0158 1.9548.0051 2.5917-.0568 1.5802-.037 3.8368-.0086 5.8887-.0192.7527-.0137 1.5526-.0077 2.4207.0033.4806.0068.9823.0063 1.5084-.0005.6876-.0052 1.4428-.01 2.2132-.0088 1.4301-.018 2.9127-.0014 4.1132-.0016.174-.002.3616-.0025.5485-.0013.4862-.0025.9669-.023 1.1866.0406 1.9744.0296 4.0614.0187 6.1504l-.0016.312 2.4257.006c.0994.023.4121.03.7213.037.2123.005.4229.01.5618.02.5141.01.7812 0 1.0476-.011.2019-.008.4034-.016.7116-.015.1476.066.903.088 1.6681.11.2291.007.459.013.6738.021.5125-.004.9441-.003 1.3346-.003.7832.001 1.401.002 2.1738-.032.4915-.002.6412.022.7943.047.0174.002.0347.005.0526.008.2921-.021.8624-.016 1.4315-.012.2616.002.5229.004.757.003-.0191.129-1.3734.143-2.7247.157-.3645.004-.7288.008-1.0666.014-.9745.042-2.1734.066-3.3693.09-.2027.004-.4053.008-.6068.012-.438.008-.58-.006-.7212-.019-.1241-.012-.2475-.023-.5704-.021-1.0281.018-1.8378.023-2.6808.028-.8397.006-1.7125.011-2.8669.029l-.2132.003-.0071-.378c.0285-2.42.0214-3.646-.0241-5.9056-.0028-.6956.0067-1.2174.0163-1.7393s.0192-1.0438.0163-1.7393c-.0185-1.2264-.0581-2.2026-.105-3.105.0166-.4518.0295-.9583.0424-1.4659.0204-.7966.0408-1.5958.0755-2.1904.0082-.5261-.0012-.8549-.0106-1.183-.0068-.239-.0137-.4777-.0137-.7922.0029-.3844.016-.6224.0292-.8604.0131-.238.0263-.476.0291-.8604-.0008-.4035-.0125-.6821-.0241-.96-.0077-.1841-.0153-.3679-.0199-.5875-.0009-.4978-.0011-1.0137-.0013-1.54-.0006-1.8085-.0012-3.738-.0342-5.4629.0129-1.5759.0064-3.3856-.0003-5.2643-.0059-1.6499-.012-3.3531-.0054-4.9982-.0028-.1962-.0038-.4134-.0047-.6303-.0019-.4337-.0038-.8666-.0208-1.1289.0881-3.0609.0638-6.6817-.0086-9.3916.0234-.5161.0189-.9191.0135-1.4183-.0019-.1674-.0039-.3457-.0049-.5427.0119-.6591.0414-1.0723.0707-1.4835.0229-.321.0457-.6409.06-1.0758.0043-.557.0156-1.0331.0412-1.2917-.0207-.3602-.0314-.8293-.0421-1.2953-.0054-.2381-.0108-.4754-.0176-.697.0318-.8728.034-1.8785.0363-2.8772.002-.9438.0041-1.8814.0311-2.6945-.1098.0092-.2263.0166-.3672.0172-.2379-.0059-.3854-.0325-.5328-.0591-.1476-.0267-.2951-.0533-.5331-.0591-.2516.0016-.4248.025-.598.0485-.1133.0153-.2266.0306-.3618.0399-.3254.0024-.6633.0028-1.008.0032-1.1052.0014-2.28.0029-3.3327.0697-.9752-.0257-2.0947-.0132-3.2573-.0003-1.0244.0114-2.0821.0232-3.1037.0096-.1197.0056-.2521.0077-.3845.0097-.2706.0043-.5416.0085-.7054.0425-1.8975-.1772-4.1419-.1285-5.8215.0169-.3237-.0468-.5759-.038-.8909-.0271-.1003.0034-.2069.0071-.3243.0093-.4124-.0237-.6695-.0829-.9268-.1422-.1966-.0453-.3934-.0906-.6596-.1201-.345-.0082-.6407-.0285-.8002-.0798-.2169.0387-.4977.0596-.7784.0806-.1558.0116-.3118.0232-.4566.0379-.5419-.0637-1.1667-.0682-1.787-.0726-.6538-.0047-1.3026-.0093-1.844-.0832.0239-.1354.4823-.1503.9408-.1652.2663-.0087.5326-.0174.7137-.0496.5593.0174.9413-.0022 1.2807-.0195.2565-.0131.4888-.025.7549-.0188.3309-.011.463-.077.5949-.1429.0351-.0175.0703-.0351.1091-.0516l.0383.0002.0695.0008.7693-1.8327h14.4239l7.8769-18.26h18.8227z" mask="url(#f)" stroke-width="2e-4"/>
<path d="m38.3361 104.941-.1894-.119c-.3191-.199-.6345-.397-1.0667-.65-.7461-.418-1.3544-.73-1.92-1.01-.2695-.18-.5754-.376-.8811-.572-.4613-.296-.9225-.592-1.2575-.829-.3167-.196-.5205-.306-.7255-.415-.1445-.078-.2896-.156-.4753-.265-.2275-.138-.3633-.234-.4987-.329-.137-.096-.2737-.193-.5044-.333-.2495-.146-.4263-.236-.6053-.327-.0503-.026-.1012-.052-.1536-.079l-.0924-.0485-.0141-.3453c-.0014-.379-.0017-.7731-.002-1.1752-.0009-1.2333-.0019-2.541-.0351-3.7145.0129-1.1027.0068-2.3697.0005-3.685-.0056-1.1493-.0113-2.3355-.0046-3.4813-.0028-.1328-.0039-.2793-.0051-.4261-.0023-.307-.0047-.6151-.022-.8016.0895-2.1372.0654-4.6667-.0071-6.558.0225-.3626.0183-.6458.0131-.9981-.0018-.1145-.0036-.2363-.0046-.3704.0113-.4664.0411-.7568.0709-1.0478.0226-.2205.0452-.4415.0599-.7398.0043-.388.0142-.7219.0397-.9009-.0187-.2391-.029-.5465-.0394-.8551-.0061-.183-.0123-.3664-.0202-.5361.0319-.6129.0343-1.3197.0367-2.0209.0025-.7343.005-1.4625.0414-2.0702.0684.027.0758.5445.0833 1.0616.0043.2995.0086.5989.0248.8028-.0089.6317.0007 1.0625.0092 1.4459.0065.2876.0123.5486.0092.8476.0057.3731.0388.5213.0721.6703.0088.0394.0176.0789.0259.1226-.0003.109-.0015.225-.0026.3413-.0035.3523-.0069.7077.0112.8808-.0128.4888.0001.7673.0285.9236.0019.1708-.0049.2523-.0117.3334-.0079.0944-.0158.1881-.0097.4212.0103.226.013.5168.0156.8083.0046.5111.0093 1.0248.0555 1.1967-.0199.1748-.0228.5315-.0228.9081.0028.4547.0228.7801.0441 1.0814-.0014.2022-.0025.4047-.0036.6073-.0011.2028-.0022.4066-.0036.6091-.0064.3468.0165.4591.0392.5707.0177.0869.0353.1735.0391.37-.0285 1.328-.0307 2.5253-.0329 3.6893-.0021 1.1029-.0041 2.176-.0283 3.3022.013.6005.0131 1.1032.0133 1.59.0001.5247.0003 1.031.0165 1.6214.0016.3622-.0034.7786-.0083 1.1961-.0083.6979-.0167 1.3985.0055 1.852-.0326.621-.0412 1.3926-.0355 2.2055.4661.27.9464.5426 1.4097.8046.4463.286.9346.567 1.4648.873.2868.166.5857.338.8969.522.4035.239.8439.505 1.2937.775.865.522 1.7653 1.064 2.5047 1.482.096.058.1996.119.3034.181l.0026.002c.2989.177.599.355.7242.453l1.0785.6-.905.021c-1.2763.03-2.6152.02-3.9549.01-.7575-.006-1.5153-.011-2.2621-.01-.0674-.021-.277-.028-.4877-.035-.1535-.006-.3076-.011-.4077-.022-.3588-.01-.5453.001-.7311.011-.1409.008-.2815.016-.4966.015-.1039-.066-.6417-.088-1.1818-.11-.1544-.006-.3092-.012-.4538-.019-.3509.003-.6475.002-.916.002-.5543-.002-.9893-.003-1.5339.032-.3387.001-.4453-.022-.5512-.045-.0134-.003-.0275-.006-.0413-.009-.2017.019-.5949.015-.9889.011h-.0013c-.1857-.002-.3714-.004-.5374-.004.0145-.129.9601-.143 1.9034-.157h.0016c.2537-.004.5072-.008.7423-.014.6823-.042 1.5196-.066 2.3553-.09l.4214-.012c.307-.008.4059.006.5052.02.0863.011.173.023.3971.021.7482-.019 1.3311-.024 1.9455-.03.5911-.005 1.2114-.011 2.0363-.029 1.4097.024 2.2396.022 3.392-.006z" mask="url(#f)" stroke-width="2e-4"/>
<path d="m64.251 39.27 7.8547-18.209h18.823l-6.7664 18.209z" fill="#d3c8f9" stroke-width="1e-4"/>
</g>
<path d="m45.3832 32.697c.0483-.0028.0994-.0014.1449.0028-.0342.0299-.0753.0611-.1151.0895-.0753.0555-.1577.1067-.2373.155-.0277.0214-.0496.0424-.0714.0633-.0374.0359-.0743.0712-.139.1072-.0617.029-.1048.0362-.1486.0434-.0418.007-.0843.014-.144.0405-.0466.0235-.0799.0471-.113.0705-.0486.0344-.0967.0684-.1855.1014-.1008.0121-.2249.0466-.3503.0815-.0956.0265-.1919.0533-.2792.0705-.0597.0483-.1222.0967-.1904.1436l-.2573.1762.1166.1634c.0497.071.1023.162.1478.2629.048.1271.0671.2232.0871.3234.0156.0779.0316.1583.0621.2577.1449.3624.2018.5728.2288.9835.044.2003.0583.3523.064.4959.0071.1463.0027.2813-.0029.4561-.0083.0544-.0232.0721-.0387.0904-.0165.0195-.0335.0397-.0438.1057-.0284.2231-.1093.4362-.1988.6039-.0796.1023-.1991.2047-.3042.2743-.1023.0739-.1833.1336-.1606.216.0277-.0123.0584-.0228.0897-.0334.0409-.0139.0828-.0282.1207-.0476.0027-.0014.0054-.0029.0081-.0043.0636-.0338.1206-.0641.1411-.1009.0049.0002.0099.0006.0149.0009.0365.0025.0758.0051.147-.0548.0238-.0379.0484-.07.072-.1007.0074-.0096.0147-.0192.0218-.0287.024-.0378.0502-.0723.0777-.1084.0035-.0046.0069-.0091.0105-.0138.0255-.0426.0539-.0881.0852-.1364.0044-.009.0089-.0182.0135-.0276.0222-.0449.0461-.0933.0661-.1486.0382-.0573.0695-.1256.0986-.1891.0467-.1018.0879-.1914.143-.2045.0134-.0582.0091-.0978.0049-.1364-.0008-.0066-.0015-.0132-.0021-.0199-.0043-.0455-.0042-.0953.0086-.1791.0133-.0279.0195-.0721.0256-.1153.0076-.0538.015-.1061.0355-.1234-.01-.5869-.0839-1.1894-.2942-1.6968.0093-.05-.0224-.1516-.0522-.2469-.0065-.021-.013-.0417-.0189-.0614-.0313-.0753-.0625-.1577-.0938-.2444.1222-.0469.2402-.0952.3468-.1421.101-.0449.1936-.0927.2819-.1383.1241-.0641.2396-.1237.3575-.1644.0711-.0436.1432-.0881.2151-.1324.0921-.0567.1838-.1132.2723-.1674.0297-.0184.0591-.0364.0881-.0541.1306-.08.255-.1562.3794-.2458.0094-.014.02-.0275.0315-.042.0336-.0428.075-.0953.1163-.2024.0057-.0156.0114-.0384.0157-.0625.0043-.0228.0071-.0483.0057-.0781 0-.054-.0185-.1237-.0469-.172-.0611-.1037-.1378-.1478-.1918-.1776-.1137-.0554-.199-.0725-.2828-.0881-.081-.0142-.1578-.0213-.2245-.0242-.0704.0044-.1343.0069-.1955.0092-.0774.003-.1504.0058-.2265.0121-.0198.0019-.0396.0037-.0596.0055-.1168.0107-.2389.0218-.3797.0485-.1534.0171-.3026.0398-.4518.0654-.1082.0244-.2149.0543-.3223.0845-.0365.0102-.073.0205-.1097.0306-.2856.0909-.5755.1961-.8952.3126-.0463.0254-.0595.0508-.0729.0767-.0167.0321-.0337.0649-.1147.0995l-.2856.1364c-.0065.0059-.0131.0119-.0197.018-.0541.0494-.1136.1036-.2035.1568-.0838.0469-.1662.0909-.2145.0952-.0139.0609-.1169.1304-.2214.2009-.066.0446-.1327.0896-.1778.1331-.0463.0378-.0711.0446-.0957.0513-.0214.0059-.0427.0117-.0778.0382-.0185.0469-.071.0938-.1804.1563-.0242.04-.099.0893-.1732.1382-.026.0171-.0519.0342-.0755.0508-.0043.0136-.0074.0272-.0105.0407-.011.0487-.0222.0982-.0933.1582-.068.0469-.12.0956-.179.1509-.0681.0636-.1454.136-.2671.2243-.0281.0419-.0789.0909-.1305.1408-.0973.0939-.1974.1905-.1537.2471.1198-.0657.2438-.1651.3707-.2668.1529-.1225.3099-.2483.4691-.3229.0317-.0345.068-.0698.1041-.1048.0529-.0514.1053-.1022.1417-.1495.0525-.0057.125-.0455.2074-.0981.0727-.0309.1324-.0431.1924-.0553.0748-.0152.15-.0305.251-.0826.0266-.0178.0504-.0347.0728-.0507.0722-.0515.13-.0926.22-.1197.3595-.3041.9165-.6196 1.4366-.7191.0374-.0325.1104-.0616.182-.0901.0316-.0126.0629-.0251.0908-.0378.1449-.0383.29-.0796.4349-.1236.1478-.0313.2941-.0626.4391-.0938.0615-.0061.1228-.0123.1833-.0186.0822-.0084.1631-.0167.2416-.024.1393-.0057.2743-.0043.3908.0099z" fill="#4d495f"/>
<path d="m52.5787 37.5106c.0423-.0452.0851-.0909.1294-.1405.1108.0829.2228.1666.3311.2475.0903.0675.178.133.2601.1944.0857.0623.1703.1194.2516.1743.0466.0315.0922.0623.1362.0929.0668.0454.1308.0895.1933.1335.0725.0469.1465.0896.2275.1294.0753.0227.1563.0426.2501.0469.0923.0028.2017-.01.3097-.0682.1094-.0583.1947-.1691.2288-.27.0384-.1037.0384-.1918.0356-.2728-.0207-.2401-.0887-.4195-.1481-.5764-.0184-.0484-.0359-.0946-.0509-.1398-.047-.0671-.1022-.1527-.1626-.2463-.1316-.204-.2876-.4459-.4357-.6163-.1067-.109-.1975-.2083-.287-.3061-.0237-.0259-.0472-.0517-.071-.0776-.011-.0115-.0214-.023-.0319-.0345-.018-.0199-.0362-.04-.0578-.0607-.0175-.016-.0353-.0328-.0533-.0498-.0171-.0161-.0344-.0324-.0517-.0483-.0711-.071-.1564-.1307-.2516-.1918-.3254-.2685-.7006-.422-1.0828-.5229-.3866-.1009-.7872-.1492-1.2278-.1862-.0677.0044-.0975.0218-.1275.0393-.0378.0221-.0757.0443-.1908.0403-.1378.0014-.2742.0042-.4092.0128l-.0118.0032c-.0962.0261-.2002.0544-.3449.0721-.0101.0011-.0201.0021-.0301.0032-.1124.0117-.2164.0226-.2725.0096-.0474.0491-.1972.0785-.3522.109-.1053.0207-.2131.0419-.293.0701-.0736.0205-.1055.0187-.1374.0169-.0278-.0016-.0556-.0032-.1113.0101-.044.0383-.1307.0696-.2913.0923-.0471.0285-.1481.0502-.2524.0727-.0464.01-.0936.0201-.1369.031-.0122.0118-.0227.0238-.0333.0357-.039.0441-.0779.088-.1942.1249-.1053.0263-.1926.0584-.2927.0952-.1107.0407-.237.0871-.4206.1379-.0549.0328-.1389.066-.2245.0997-.1626.0641-.3304.1303-.3127.2001.1662-.0298.3537-.0879.5464-.1477.249-.0772.5067-.1571.7382-.182.0575-.0251.1213-.049.1842-.0726.0865-.0324.1715-.0642.2365-.0979.0625.0114.1691-.0042.2942-.0284.1027-.0065.1795.0015.2574.0095.0934.0096.1882.0194.3308.0047.0342-.0071.0657-.0141.0955-.0207.1202-.0267.2126-.0472.3379-.0404.2927-.0782.6424-.1407 1.0033-.1592.3595-.017.7319.0128 1.053.1024.0782-.0128.22.0136.3378.0356.0127.0024.0252.0048.0373.007.3652.0881.7276.2259 1.0189.4377l.1079.0781.0968.0895c.0625.054.1278.1251.1904.1933.125.1364.2373.2714.3354.4022.1719.1776.3353.3864.4675.6067.0654.1094.1236.2217.1662.3311.0412.1094.0654.2188.0611.2927.0011.0137.0027.0258.0041.0365.0021.0159.0038.0287.003.0389 0 .0156-.0014.0326-.0326.0426-.0398.0085-.0797-.0114-.1109-.0327-.0133-.0077-.0261-.0163-.0403-.0258-.0224-.015-.0483-.0324-.0847-.0523-.0597-.0285-.1039-.0498-.1564-.0768-.0583-.0327-.1179-.0682-.1989-.135-.0885-.1055-.2224-.2259-.3569-.3467-.0899-.0808-.1801-.1618-.257-.2388-.1421-.0611-.2885-.1279-.4505-.2188l-.2316-.1279-.0909.1905c-.0199.0412-.0626.1023-.1038.1577-.1331.1515-.2449.2287-.3773.32-.0613.0423-.1269.0876-.2011.1447-.0924.0795-.1748.1492-.2614.2046-.0186.012-.0368.0242-.0549.0362-.0649.0432-.1277.085-.1966.1173-.0226.0109-.045.0221-.0676.0334-.0653.0327-.1317.0659-.2067.0944-.1009.0356-.2103.0739-.3353.1137-.2473.0924-.4349.1563-.621.1918-.0396.0078-.0785.0172-.1174.0265-.0533.0128-.1067.0256-.1625.0347-.0981.0156-.2005.0326-.3156.054-.0747.0097-.1017.001-.1313-.0086-.0306-.0099-.0639-.0207-.1557-.0127-.0332.0036-.0664.0073-.0997.0109-.1219.0134-.2438.0268-.3621.0402-.152.0057-.297.0142-.4277.0313-.1057.0058-.2212-.0054-.333-.0163-.0791-.0077-.1563-.0152-.2269-.0164-.1691-.0071-.2999.0099-.3184.0895.053.0076.1119.0184.1708.0291.1291.0237.2587.0474.328.0377.0037.0031.0073.0063.0109.0094.0322.0283.0642.0564.1767.073.1364-.0171.2501-.0157.3737-.0085.0372.0012.0752.004.115.0069.094.0069.1978.0144.3227.0044.0526.007.1093.0127.1658.0183.1741.0175.3458.0347.3855.0883.072-.0067.1181-.0197.1641-.0327.0612-.0172.1222-.0345.2438-.0369.0356.0042.0881-.0008.1404-.0057.0707-.0068.141-.0135.1679.0029.3666-.0682.7333-.1805 1.0872-.3212.3495-.1506.6792-.3467.9492-.5911.0369-.0114.0923-.0498.1534-.0967.037-.0292.0745-.0631.1113-.0964.024-.0217.0477-.0431.0707-.0627.0146-.0158.0292-.0314.0439-.0471z" fill="#4d495f"/>
<path d="m45.3832 32.697c.0483-.0028.0994-.0014.1449.0028-.0342.0299-.0753.0611-.1151.0895-.0753.0555-.1577.1067-.2373.155-.0277.0214-.0496.0424-.0714.0633-.0374.0359-.0743.0712-.139.1072-.0617.029-.1048.0362-.1486.0434-.0418.007-.0843.014-.144.0405-.0466.0235-.0799.0471-.113.0705-.0486.0344-.0967.0684-.1855.1014-.1008.0121-.2249.0466-.3503.0815-.0956.0265-.1919.0533-.2792.0705-.0597.0483-.1222.0967-.1904.1436l-.2573.1762.1166.1634c.0497.071.1023.162.1478.2629.048.1271.0671.2232.0871.3234.0156.0779.0316.1583.0621.2577.1449.3624.2018.5728.2288.9835.044.2003.0583.3523.064.4959.0071.1463.0027.2813-.0029.4561-.0083.0544-.0232.0721-.0387.0904-.0165.0195-.0335.0397-.0438.1057-.0284.2231-.1093.4362-.1988.6039-.0796.1023-.1991.2047-.3042.2743-.1023.0739-.1833.1336-.1606.216.0277-.0123.0584-.0228.0897-.0334.0409-.0139.0828-.0282.1207-.0476.0027-.0014.0054-.0029.0081-.0043.0636-.0338.1206-.0641.1411-.1009.0049.0002.0099.0006.0149.0009.0365.0025.0758.0051.147-.0548.0238-.0379.0484-.07.072-.1007.0074-.0096.0147-.0192.0218-.0287.024-.0378.0502-.0723.0777-.1084.0035-.0046.0069-.0091.0105-.0138.0255-.0426.0539-.0881.0852-.1364.0044-.009.0089-.0182.0135-.0276.0222-.0449.0461-.0933.0661-.1486.0382-.0573.0695-.1256.0986-.1891.0467-.1018.0879-.1914.143-.2045.0134-.0582.0091-.0978.0049-.1364-.0008-.0066-.0015-.0132-.0021-.0199-.0043-.0455-.0042-.0953.0086-.1791.0133-.0279.0195-.0721.0256-.1153.0076-.0538.015-.1061.0355-.1234-.01-.5869-.0839-1.1894-.2942-1.6968.0093-.05-.0224-.1516-.0522-.2469-.0065-.021-.013-.0417-.0189-.0614-.0313-.0753-.0625-.1577-.0938-.2444.1222-.0469.2402-.0952.3468-.1421.101-.0449.1936-.0927.2819-.1383.1241-.0641.2396-.1237.3575-.1644.0711-.0436.1432-.0881.2151-.1324.0921-.0567.1838-.1132.2723-.1674.0297-.0184.0591-.0364.0881-.0541.1306-.08.255-.1562.3794-.2458.0094-.014.02-.0275.0315-.042.0336-.0428.075-.0953.1163-.2024.0057-.0156.0114-.0384.0157-.0625.0043-.0228.0071-.0483.0057-.0781 0-.054-.0185-.1237-.0469-.172-.0611-.1037-.1378-.1478-.1918-.1776-.1137-.0554-.199-.0725-.2828-.0881-.081-.0142-.1578-.0213-.2245-.0242-.0704.0044-.1343.0069-.1955.0092-.0774.003-.1504.0058-.2265.0121-.0198.0019-.0396.0037-.0596.0055-.1168.0107-.2389.0218-.3797.0485-.1534.0171-.3026.0398-.4518.0654-.1082.0244-.2149.0543-.3223.0845-.0365.0102-.073.0205-.1097.0306-.2856.0909-.5755.1961-.8952.3126-.0463.0254-.0595.0508-.0729.0767-.0167.0321-.0337.0649-.1147.0995l-.2856.1364c-.0065.0059-.0131.0119-.0197.018-.0541.0494-.1136.1036-.2035.1568-.0838.0469-.1662.0909-.2145.0952-.0139.0609-.1169.1304-.2214.2009-.066.0446-.1327.0896-.1778.1331-.0463.0378-.0711.0446-.0957.0513-.0214.0059-.0427.0117-.0778.0382-.0185.0469-.071.0938-.1804.1563-.0242.04-.099.0893-.1732.1382-.026.0171-.0519.0342-.0755.0508-.0043.0136-.0074.0272-.0105.0407-.011.0487-.0222.0982-.0933.1582-.068.0469-.12.0956-.179.1509-.0681.0636-.1454.136-.2671.2243-.0281.0419-.0789.0909-.1305.1408-.0973.0939-.1974.1905-.1537.2471.1198-.0657.2438-.1651.3707-.2668.1529-.1225.3099-.2483.4691-.3229.0317-.0345.068-.0698.1041-.1048.0529-.0514.1053-.1022.1417-.1495.0525-.0057.125-.0455.2074-.0981.0727-.0309.1324-.0431.1924-.0553.0748-.0152.15-.0305.251-.0826.0266-.0178.0504-.0347.0728-.0507.0722-.0515.13-.0926.22-.1197.3595-.3041.9165-.6196 1.4366-.7191.0374-.0325.1104-.0616.182-.0901.0316-.0126.0629-.0251.0908-.0378.1449-.0383.29-.0796.4349-.1236.1478-.0313.2941-.0626.4391-.0938.0615-.0061.1228-.0123.1833-.0186.0822-.0084.1631-.0167.2416-.024.1393-.0057.2743-.0043.3908.0099z" mask="url(#e)" stroke="#4d495f" stroke-width="2e-4"/>
<path d="m52.5787 37.5106c.0423-.0452.0851-.0909.1294-.1405.1108.0829.2228.1666.3311.2475.0903.0675.178.133.2601.1944.0857.0623.1703.1194.2516.1743.0466.0315.0922.0623.1362.0929.0668.0454.1308.0895.1933.1335.0725.0469.1465.0896.2275.1294.0753.0227.1563.0426.2501.0469.0923.0028.2017-.01.3097-.0682.1094-.0583.1947-.1691.2288-.27.0384-.1037.0384-.1918.0356-.2728-.0207-.2401-.0887-.4195-.1481-.5764-.0184-.0484-.0359-.0946-.0509-.1398-.047-.0671-.1022-.1527-.1626-.2463-.1316-.204-.2876-.4459-.4357-.6163-.1067-.109-.1975-.2083-.287-.3061-.0237-.0259-.0472-.0517-.071-.0776-.011-.0115-.0214-.023-.0319-.0345-.018-.0199-.0362-.04-.0578-.0607-.0175-.016-.0353-.0328-.0533-.0498-.0171-.0161-.0344-.0324-.0517-.0483-.0711-.071-.1564-.1307-.2516-.1918-.3254-.2685-.7006-.422-1.0828-.5229-.3866-.1009-.7872-.1492-1.2278-.1862-.0677.0044-.0975.0218-.1275.0393-.0378.0221-.0757.0443-.1908.0403-.1378.0014-.2742.0042-.4092.0128l-.0118.0032c-.0962.0261-.2002.0544-.3449.0721-.0101.0011-.0201.0021-.0301.0032-.1124.0117-.2164.0226-.2725.0096-.0474.0491-.1972.0785-.3522.109-.1053.0207-.2131.0419-.293.0701-.0736.0205-.1055.0187-.1374.0169-.0278-.0016-.0556-.0032-.1113.0101-.044.0383-.1307.0696-.2913.0923-.0471.0285-.1481.0502-.2524.0727-.0464.01-.0936.0201-.1369.031-.0122.0118-.0227.0238-.0333.0357-.039.0441-.0779.088-.1942.1249-.1053.0263-.1926.0584-.2927.0952-.1107.0407-.237.0871-.4206.1379-.0549.0328-.1389.066-.2245.0997-.1626.0641-.3304.1303-.3127.2001.1662-.0298.3537-.0879.5464-.1477.249-.0772.5067-.1571.7382-.182.0575-.0251.1213-.049.1842-.0726.0865-.0324.1715-.0642.2365-.0979.0625.0114.1691-.0042.2942-.0284.1027-.0065.1795.0015.2574.0095.0934.0096.1882.0194.3308.0047.0342-.0071.0657-.0141.0955-.0207.1202-.0267.2126-.0472.3379-.0404.2927-.0782.6424-.1407 1.0033-.1592.3595-.017.7319.0128 1.053.1024.0782-.0128.22.0136.3378.0356.0127.0024.0252.0048.0373.007.3652.0881.7276.2259 1.0189.4377l.1079.0781.0968.0895c.0625.054.1278.1251.1904.1933.125.1364.2373.2714.3354.4022.1719.1776.3353.3864.4675.6067.0654.1094.1236.2217.1662.3311.0412.1094.0654.2188.0611.2927.0011.0137.0027.0258.0041.0365.0021.0159.0038.0287.003.0389 0 .0156-.0014.0326-.0326.0426-.0398.0085-.0797-.0114-.1109-.0327-.0133-.0077-.0261-.0163-.0403-.0258-.0224-.015-.0483-.0324-.0847-.0523-.0597-.0285-.1039-.0498-.1564-.0768-.0583-.0327-.1179-.0682-.1989-.135-.0885-.1055-.2224-.2259-.3569-.3467-.0899-.0808-.1801-.1618-.257-.2388-.1421-.0611-.2885-.1279-.4505-.2188l-.2316-.1279-.0909.1905c-.0199.0412-.0626.1023-.1038.1577-.1331.1515-.2449.2287-.3773.32-.0613.0423-.1269.0876-.2011.1447-.0924.0795-.1748.1492-.2614.2046-.0186.012-.0368.0242-.0549.0362-.0649.0432-.1277.085-.1966.1173-.0226.0109-.045.0221-.0676.0334-.0653.0327-.1317.0659-.2067.0944-.1009.0356-.2103.0739-.3353.1137-.2473.0924-.4349.1563-.621.1918-.0396.0078-.0785.0172-.1174.0265-.0533.0128-.1067.0256-.1625.0347-.0981.0156-.2005.0326-.3156.054-.0747.0097-.1017.001-.1313-.0086-.0306-.0099-.0639-.0207-.1557-.0127-.0332.0036-.0664.0073-.0997.0109-.1219.0134-.2438.0268-.3621.0402-.152.0057-.297.0142-.4277.0313-.1057.0058-.2212-.0054-.333-.0163-.0791-.0077-.1563-.0152-.2269-.0164-.1691-.0071-.2999.0099-.3184.0895.053.0076.1119.0184.1708.0291.1291.0237.2587.0474.328.0377.0037.0031.0073.0063.0109.0094.0322.0283.0642.0564.1767.073.1364-.0171.2501-.0157.3737-.0085.0372.0012.0752.004.115.0069.094.0069.1978.0144.3227.0044.0526.007.1093.0127.1658.0183.1741.0175.3458.0347.3855.0883.072-.0067.1181-.0197.1641-.0327.0612-.0172.1222-.0345.2438-.0369.0356.0042.0881-.0008.1404-.0057.0707-.0068.141-.0135.1679.0029.3666-.0682.7333-.1805 1.0872-.3212.3495-.1506.6792-.3467.9492-.5911.0369-.0114.0923-.0498.1534-.0967.037-.0292.0745-.0631.1113-.0964.024-.0217.0477-.0431.0707-.0627.0146-.0158.0292-.0314.0439-.0471z" mask="url(#e)" stroke="#4d495f" stroke-width="2e-4"/>
</svg>
