<?xml version="1.0" encoding="UTF-8"?>
<svg fill="none" viewBox="0 0 116 116" xmlns="http://www.w3.org/2000/svg">
<path d="m25.574 62.672s-7.8411-6.9197-4.0054-14.554c0 0 4.8198 9.0991 10.107 10.449 5.287 1.3499 1.7787 4.8427 1.7787 4.8427z" fill="#e5e6f0"/>
<path d="m19.571 61.83s-2.1375 11.494 9.2083 17.76l-12.193-4.7417-6.52 12.955 5.8435 0.1246s12.7 7.75 20.914 6.6492c8.2134-1.1006 8.298-14.902 8.298-14.902l-17.896-20.859" fill="#9173fa"/>
<path d="m32.747 77.77s5.6153 7.3618 0 10.537c-3.7988 2.1482-8.5148 2.5523-11.169 2.5892 4.4153 2.0512 10.562 4.3049 15.249 3.6768 4.7126-0.6316 6.7486-5.4442 7.6285-9.4322z" fill="#4d495f"/>
<path d="m37.746 58.518s24.383 13.42 17.307 46.12l2.9288 5.381h-14.605l-3.7753-26.368c-0.1517-1.059-0.7917-1.9838-1.7274-2.5025-4.0237-2.2308-14.936-9.2489-15.966-20.231l8.3583-3.071s3.3306 3.2537 7.4796 0.6712z" fill="#9173fa"/>
<path d="m56.636 19.52c-1.8186-1.8186-4.7674-1.8186-6.5861 0l-1.9176 1.9178-1.9177-1.9178c-1.8187-1.8186-4.7674-1.8186-6.586 0-1.8188 1.8187-1.8188 4.7675 0 6.5861l1.9176 1.9177 6.5861 6.5861 6.5861-6.5861 1.9176-1.9177c1.8186-1.8186 1.8186-4.7674 0-6.5861z" fill="#d3c8f9"/>
<path d="m19.175 38.9427c0 .4435-.3911.8029-.8737.8029-.4825 0-.8737-.3594-.8737-.8029 0-.4434.3912-.803.8737-.803.4826 0 .8737.3596.8737.803z" fill="#6c44f8"/>
<path d="m17.4276 38.9427c0-.4435.3912-.803.8737-.803.4826 0 .8737.3595.8737.803 0 .4434-.3911.8029-.8737.8029-.4825 0-.8737-.3595-.8737-.8029z" stroke="#6c44f8" stroke-linejoin="round" stroke-miterlimit="10" stroke-width="1e-4"/>
<g fill="#4d495f">
<path d="m24.1483 36.8451c.0065-.0139.2788.0333.4786.06.144.0028.3279.0051.4976-.0386.1002-.0221.0741-.0134.1575-.0362.1247-.0426.2176-.0887.3095-.1444.0917-.056.1809-.1259.2848-.2337.1012-.1112.169-.2036.2191-.3027.025-.0494.0518-.0975.0691-.1537.0208-.0547.0414-.1134.0545-.1826.0412-.1672.053-.2543.0577-.4275-.0049-.0765-.0125-.1446-.0203-.208-.0109-.0608-.0214-.1201-.032-.1796-.0099-.1475-.0296-.3402-.0338-.4643-.0026-.0258-.005-.047-.0072-.0655l-.0018-.0178.0139-.0125c.0508-.0454.0852-.0762.1383-.1238.0724-.0602.0966-.0705.1662-.1276l-.0098.0287c-.0003-.0026-.0011-.0058-.0019-.0089-.0203-.0822-.0364-.1207-.0572-.1872-.0765-.2688-.1812-.5774-.2943-.836-.1371-.3485-.3506-.7795-.5934-1.1515-.0404-.0624-.0962-.1429-.1285-.1807-.2078-.3262-.5321-.6587-.8145-.8484-.069-.0518-.1175-.0901-.2038-.1374-.1238-.0801-.166-.1067-.2766-.166-.0639-.0292-.1208-.0489-.1497-.0644-.0647-.0242-.1629-.0462-.2428-.0667-.2187-.0641-.5189-.0791-.7347-.0732.007-.0078.2376-.0145.3391-.0127.0504.0044.0939.0073.1327.0091.0383.0045.0723.0083.1043.0119.0633.0074.1195.0061.1806.0261.0851.0173.1146-.0094.1613-.0267.0811.0196.1762.0644.2258.0584.0836.0416.1361.0535.1754.0426.069.0222.0445.0485.1236.0771.125.0247.2891.1643.3805.1312.0148.0369.0704.0786.1307.1213.0741.0495.1359.0753.2017.0928.0617.0516.1155.1101.1734.1654.0777.0927.1342.0088.2092.0632.154.2083.2968.3891.4222.5727.1254.1833.2399.367.311.5811.152.1932.1821.3547.3133.5365.0827.1688.109.4351.2057.5488-.0159.1887.0548.3918.1365.6245l.0643.183-.1993.221c-.1556.173-.1207.3459-.1165.5631.0015.0806.0012.1605.0017.2371.0035.0795-.0058.1571-.0017.228-.0155.0947-.0361.2188-.081.2563-.0179.2301-.1265.4613-.2827.6493-.1564.1896-.3576.3357-.5627.442-.0418-.0203-.14.0339-.1951.0296-.1275.0251-.1305.0727-.2323.0879-.0231-.03-.0753-.036-.1369-.0381-.0626-.0066-.1346-.0037-.1966-.0101-.1011.0042-.1781.0059-.2479-.0039-.0703-.006-.1343-.0078-.2077-.0187-.0687-.0166-.0828-.0301-.1038-.0422-.0547-.0038-.1809-.0377-.2733-.0574z" clip-rule="evenodd" fill-rule="evenodd"/>
<path d="m25.0983 33.6697c.0038.1232-.0778.2259-.1824.2291-.105.0035-.193-.0938-.1969-.217-.004-.1232.0777-.2259.1824-.2291.1049-.0033.193.0939.1969.217z"/>
<path d="m26.093 31.2335c-.2757.5636-.9264 1.6491-2.0353 2.1532-.4452.2023-.6757.6993-.539 1.1687l.0835.2858c.5798 1.989-.9119 3.978-2.9839 3.978h-3.3098c-.3399 0-.6103-.2839-.5943-.6235.0878-1.856.5616-7.3143 3.1132-8.8872 2.558-1.5769 5.2811.5311 6.1437 1.3045.1749.157.225.4094.1219.6205z"/>
<path d="m17.6352 39.3193h-.0013l-1.0461 5.5664c-.088.4683.4376.8099.8283.537 1.2395-.8657 1.9598-1.6708 2.3416-2.3926.8592-1.624-.289-3.5929-2.1225-3.7108z"/>
<path d="m20.7642 46.6058c.0703-.0204.2205.2534.4195.6271.1977.374.4439.8478.6718 1.2368.3484.5462.7826 1.2402 1.2321 1.885.2648.3817.1508.3074.375.6274.3481.4822.6299.8524.9266 1.2384.3028.3811.6207.7787 1.0822 1.2785.4368.5244.7928.8964 1.1497 1.2503.3588.3519.7274.6776 1.2204 1.0788.1503.125.2817.2343.4039.3359.1207.1039.2321.1993.3481.2894.2289.1834.4559.3708.7827.5864.5757.3794 1.07.6239 1.5305.8306.135.0916.2899.172.4465.2601.1585.0844.3165.1815.4808.2578.3263.1572.6378.318.8878.4292.2374.091.4017.1568.5542.1911.1528.0374.2932.0743.4931.1082.4083.0784.5073.1243.9291.1316.184-.013.3207-.0226.4463-.0546.1261-.0262.2433-.0506.3885-.0933.2958-.0603.593-.1698.8923-.2884.2936-.1335.5903-.2793.8694-.4594.563-.3506 1.0815-.7795 1.5191-1.2219.3023-.2822.6135-.5984.9197-.9468.3041-.3499.6117-.7236.9059-1.1209.5923-.7914 1.156-1.6546 1.6723-2.5036.1661-.2875.3911-.6647.4807-.8697.9266-1.4644 1.7995-3.3296 2.3529-4.7612.1815-.3463.277-.6061.4453-1.017.274-.6062.4202-.788.6572-1.2992.1205-.2921.2259-.5414.3006-.6692.0855-.2981.239-.7217.3497-1.0767.4091-.9354.7986-2.2192 1.1442-3.1209.085.0614-.2689 1.031-.3809 1.4703-.306.847-.409 1.2343-.6108 1.7648-.1274.3627-.1188.4643-.1453.6357-.1279.3343-.3038.7505-.3521.9324-.1571.367-.2321.5808-.2567.7087-.1098.2804-.1265.2313-.2521.5625-.1678.4795-.555 1.3011-.5866 1.529-.0743.122-.1949.388-.3233.6669-.1524.3382-.2489.5869-.3377.8171-.1439.2981-.2917.595-.4414.891-.2344.4458-.1244.3875-.2852.7178-1.0213 1.853-1.8701 3.3506-3.0449 4.8518-.2994.4164-.5695.7479-.8411 1.0632-.2734.3143-.5457.6148-.8746.9536-.2829.2853-.6515.5995-1.0174.8767-.363.2817-.7345.5108-.9899.6782-.4148.2089-.9324.445-1.5188.5953-.5843.1527-1.2362.2094-1.8483.1359-.0871-.0099-.1725-.0349-.2603-.053-.087-.021-.1771-.0349-.2651-.0612-.1747-.0536-.3615-.1001-.5342-.1683-.1771-.0636-.3597-.129-.5479-.1966-.1866-.0719-.3747-.157-.5707-.2408-.263-.1068-.5285-.2545-.8079-.3932-.1406-.068-.2761-.1496-.4143-.2284-.1378-.0791-.2765-.1586-.4147-.2379-.2679-.1719-.5391-.335-.7898-.5051-.1251-.0853-.2474-.1689-.3659-.25-.0596-.0401-.1182-.0795-.1756-.1182-.0562-.0408-.1112-.0807-.1648-.1196-.1434-.1095-.307-.2344-.4523-.3453-.1403-.1166-.2606-.2213-.3204-.2862-1.3729-1.0506-2.6336-2.4576-3.724-3.8759-.0327-.0964-.3019-.4485-.3999-.6179-.2868-.4297-.3697-.4701-.5972-.8098-.0012-.1317-.3762-.7173-.6295-1.185-.4666-.7438-.6686-1.1597-1.0205-1.7203-.1444-.2764-.1537-.3513-.178-.4519-.1342-.2049-.371-.7344-.538-1.1261z" clip-rule="evenodd" fill-rule="evenodd"/>
<path d="m44.4637 37.42c.0632.0364-.0125.247-.1392.5218-.0633.1373-.1394.2906-.2171.4461-.0387.0776-.0779.1558-.1163.2328-.0422.0748-.0836.1482-.123.2184-.2045.4165-.4801.9385-.79 1.4123-.1784.2833-.1713.1787-.3263.4128-.4791.7079-.7815 1.0865-1.3875 1.8576-.159.188-.312.3404-.4458.4884-.1352.1465-.2579.2826-.3778.4185-.2434.2686-.4853.5271-.7893.8732-.201.199-.36.3402-.5183.4817-.079.071-.158.142-.2434.2189-.0867.0753-.1793.1575-.2828.2536-.3536.3513-.6335.6349-.885.907-.1928.1399-.4136.3001-.6271.4551-.2149.1535-.427.2946-.5977.3969-.3033.2123-.3862.319-.6338.4965-.16.1103-.2535.1533-.367.2127l-.1683.0881-.0643-.1412c-.0314-.0686-.0687-.1443-.1288-.246-.1426-.2302-.2358-.3268-.3622-.5102-.4752-.7528-1.0254-1.6308-1.5513-2.361-.636-1.011-1.5185-2.258-2.3166-3.4321-.1417-.1886-.3135-.4567-.4241-.5653-.3132-.5097-.7589-1.0025-1.2688-1.3838-.2523-.1945-.525-.3525-.7907-.4914-.2709-.1297-.5362-.2392-.7893-.3151-.1211-.0587-.2269-.1044-.3423-.1363-.1145-.0343-.2337-.0687-.3835-.1021-.4401-.1292-.5825-.2199-.9695-.3028-.2192-.0336-.4083-.0526-.5093-.0852-.2187.0143-.5353.0097-.7956.0359-.3581-.0232-.7738.0051-1.1809.0575-.4065.0538-.8076.1283-1.1392.1883-.0039-.0491.1754-.1142.3952-.1674.2198-.054.4795-.0988.6362-.1397.6364-.0719.9189-.1183 1.3239-.1221.2739-.0094.3404-.0507.4632-.0836.2576.0094.5798.048.7157.043.2845.0425.4461.0623.5419.0515.215.0341.1799.0654.4323.1068.0902.0163.1974.0403.3099.067.1123.028.2279.0659.3389.0969.2195.0701.4151.1319.5012.135.0871.0598.2843.1389.4818.2447.0609.0291.1175.0562.171.0817.0525.0269.1016.0522.1485.0762.0933.048.1814.0835.261.1261l.3001.2062.2863.2253c.1406.1191.2017.1608.2608.1867.0565.0286.1106.0423.2096.1348.1314.1449.2679.278.3822.4254.0593.0718.1181.1427.1764.2129.0555.0722.1072.1462.1603.2181.0525.072.1044.1435.1559.2145.048.0701.0956.1399.1427.2091.095.1383.1889.2748.2821.4105.3719.5426.7302 1.0709 1.0865 1.6397.4231.5861.6675.9984 1.0524 1.5347.3127.4663.7067 1.1464.9589 1.4838.2717.5124.7079 1.1812 1.1223 1.8244l-.3335-.0761c.0646-.0472.1286-.094.192-.1402.3965-.2454.7914-.5787 1.256-.9441.6168-.4878 1.3942-1.1335 1.9212-1.6556.1835-.1717.4104-.4008.5157-.4681.8193-.8825 1.7335-1.8186 2.5074-2.8068.0672-.0331.2508-.2836.3514-.3789.2304-.2807.2391-.3451.3997-.582.1053-.0189.3912-.4172.6279-.711.1651-.2622.2854-.466.3993-.651.1107-.1871.2137-.3567.3082-.5707.1025-.1942.1492-.2256.2028-.2775.0579-.1638.2676-.5167.4068-.7818z" clip-rule="evenodd" fill-rule="evenodd"/>
<path d="m48.153 39.8399c-.069-.1296.3274-.3365.5903-.5314.1753-.1608.4131-.3373.6329-.5175.1317-.1038.1243-.0351.2369-.1199.3304-.2737.5333-.4077.8854-.7469.3855-.2995.5641-.4769.8376-.8382.1775-.2128.2972-.2952.457-.5231.1288-.2088.2017-.3929.253-.5668.0361-.045.0733-.0945.1109-.1461.0382-.0521.0606-.0869.0796-.1253.0333-.0788.0453-.094.0301-.1511-.0289-.0393-.079-.0581-.1228-.0682-.0486-.0095-.0937-.0182-.1552-.0301-.1338-.0325-.1665-.0773-.3159-.0937-.1324-.0057-.1977.0224-.3068.034-.4383.0112-.9598.0653-1.4003.1758-.4912.0609-1.0904.2032-1.668.346l-.1027.0253-.0975-.0709c-.0993-.0723-.1912-.1558-.2909-.22-.0492-.0273-.104-.0626-.1557-.0938-.0533-.0271-.1044-.0477-.1418-.0549-.2337-.1637-.5388-.2716-.8292-.2411-.2904.0277-.5494.1724-.7238.3496-.1166.0541-.1768.1265-.2761.2348-.1657.1471-.2642.1684-.4061.3093-.0669.0886-.1265.1636-.1726.1961-.0366.1064-.1079.2494-.1527.3742-.221.2936-.3551.76-.5114 1.067-.0922-.0379.0627-.3816.0905-.5458.1362-.2967.1677-.4421.2681-.6232.0596-.1267.0379-.1775.0388-.2494.0663-.1148.1684-.2476.1905-.317.0918-.1168.1387-.1873.1464-.2422.0696-.0903.0855-.0573.1652-.1643.0283-.0393.0656-.0832.106-.1286.0421-.044.0897-.0872.133-.1303.0916-.081.1711-.1566.1915-.2055.0574-.0157.1536-.078.2651-.1298.0638-.0376.1245-.0598.1757-.0885.0511-.0294.0994-.0508.1464-.072.0666-.0164.1332-.0315.2021-.0357.0682-.0069.1361-.0163.2043-.0113.2063.0103.1687-.0557.3245-.0454.283.0679.5276.1706.7399.2949.11.0577.204.13.3044.1927.094.0698.1837.1419.2741.2128l-.2228-.0507c.2295-.054.4535-.0984.6903-.1327.3583-.1.6047-.1209.935-.2044.285-.0532.6918-.0691.9063-.1204.3381.0215.8029-.0406 1.2739.0062.1317.0375.2746.0654.4405.1573.0812.0466.1749.1204.2365.2373.0629.1163.0727.2575.0506.3675-.0268.1492-.1008.272-.1553.3635-.0583.1001-.1183.2027-.1853.3001-.0321.0496-.0642.0987-.096.1475-.0334.0474-.0665.0941-.0988.1399-.0627.0931-.125.1803-.1819.2605-.083.1047-.189.2388-.2502.2715-.372.5232-.927.9472-1.4416 1.3468-.0484-.0055-.1746.0954-.2447.1198-.1611.0981-.1621.147-.2844.232-.0751-.0378-.2907.0936-.4668.1764-.262.1808-.4157.2501-.596.4136-.0962.0593-.1316.05-.1748.0492-.0625.0665-.2537.1559-.3852.2346z" clip-rule="evenodd" fill-rule="evenodd"/>
<path d="m24.8298 28.3301c-.0342-.0132-.0276-.1443.0073-.3572.0173-.1063.0419-.233.0718-.3754.0366-.1405.0846-.2949.1345-.4608.2042-.6615.5651-1.4646.9478-2.0992.5152-.9303 1.3817-1.9942 2.3796-2.8324.293-.2498.4173-.3195.5213-.3889.1044-.0693.2046-.1173.4665-.3045.8022-.5654 1.4853-.9256 2.2112-1.268.7297-.3366 1.5096-.6521 2.5865-.9777.6523-.1747 1.2093-.2949 1.7338-.3738l.0093-.0014.0154-.0003c.289-.005.5813-.0402.8343-.1162.1255-.0388.2456-.0897.3314-.1571.0876-.0691.1282-.1384.1272-.2238l.0013-.0195.0029-.0313c.002-.0216.0073-.04.0133-.0582.0114-.0391.0281-.0665.0451-.096.035-.0513.0732-.0917.11-.1227.0747-.064.1482-.1078.2223-.1483.1478-.0797.2975-.1405.4518-.1984.3086-.1146.6349-.2126.9895-.3142.6245-.1664 1.095-.2675 1.5572-.385.2295-.0595.4619-.1199.6901-.206.0562-.0219.1123-.0456.1607-.0717.0231-.0125.0469-.0266.0598-.0374.0143-.0079.0181-.0253.0019.0131-.0086.0202-.0038.0562.0033.0735.0042.01.0101.0169.0101.0184.002.0033.0063.0056.0033.0041-.0024-.0015.0012.0005-.0055-.005l-.0225-.0181-.0461-.0369c-.0617-.0491-.1258-.0994-.1871-.1551-.223-.1895-.4181-.3803-.6035-.556-.1857-.1755-.3629-.3379-.5396-.4815-.3528-.2881-.707-.5-1.0672-.6556-.4402-.2481-1.0099-.4314-1.5797-.5373-.5699-.106-1.1348-.1562-1.5779-.176-.2069-.0082-.3811.0023-.5356.0077-.1549.006-.2901.0132-.4207.0278-.2615.0253-.5036.0479-.8427.0873-.3496.0306-.5671.0495-.7852.0686-.2181.0151-.4358.0366-.7842.0923-.3047.0478-.5286.0985-.7384.1472-.2096.0501-.4068.091-.6535.1513-.9942.2018-2.0606.4671-3.1242.752-.2653.0734-.5309.147-.7953.2201-.2632.0779-.5253.1554-.7853.2322-.5222.1525-1.0222.3131-1.4966.4975-1.2711.4498-2.6632 1.1356-3.9623 2.0709-1.3047.9273-2.5061 2.0989-3.5064 3.3534-.3303.4225-.747.997-.9252 1.3099-.8112 1.1378-1.5442 2.4906-2.116 3.8669-.5752 1.3758-.995 2.7701-1.2777 3.9786-.1853.6037-.2746 1.0429-.4185 1.747-.2319 1.0511-.3559 1.3977-.5219 2.2951-.0766.5065-.1375.9413-.1871 1.1742-.0313.5008-.0921 1.229-.1138 1.831-.0858.822-.1256 1.7788-.1234 2.7239.0009.4725.0111.9422.0311 1.3905.0099.2242.0221.4432.0381.6537.008.1053.017.2087.0284.3087.006.0498.0118.0994.0197.1464.0041.0233.0082.0471.0132.0677.0022.0113.005.02.0074.0287-.0001.007.0114.0141-.0118-.004.0008.0035.0039.0083.0054.0153.0009.0076-.0049.0007-.0082.0002-.0084-.0072-.0188-.0243-.0288-.047-.0202-.0463-.0397-.1165-.0573-.2024-.0357-.1719-.0642-.4079-.0863-.6654-.0447-.5153-.0598-1.1174-.0826-1.4845.0002-.7316.0095-1.2594.019-1.7197.0111-.4602.0245-.8529.06-1.3124.0395-.6234.0105-.7762.0006-1.0542.0554-.5796.159-1.3068.1796-1.611.1007-.6414.1509-1.0063.1605-1.2154.0797-.4836.1005-.4148.1991-.9825.0654-.4076.1864-.9705.3025-1.475.1163-.5044.2271-.9503.244-1.1327.0792-.2176.2108-.6744.3628-1.151.1807-.5763.3102-.9904.4302-1.374.1909-.5048.3941-1.0063.6149-1.4998.1704-.3736.2277-.5276.2698-.6585.042-.1308.0706-.2372.2003-.508.7976-1.5347 1.6608-2.8506 2.6293-4.024.971-1.1697 2.0513-2.1997 3.3248-3.0872.6725-.4964 1.2698-.8563 1.866-1.1759.5965-.3198 1.1942-.5974 1.8996-.8885.3025-.1184.6394-.2375.9902-.3489.3523-.1112.7134-.2096 1.0643-.3089.701-.2024 1.3688-.3752 1.829-.5161 1.4291-.3193 3.4617-.8203 5.3596-1.0758.2717-.0243.5498-.0492.8357-.0749.2873-.0174.5812-.0455.8871-.0521.6095-.023 1.2614-.0231 1.9568.0736.4617.0614.955.1737 1.4436.3564.4899.1791.9639.4542 1.3816.7827.4176.3304.7723.711 1.1134 1.0433.086.081.1705.1628.2567.2361.0427.0379.0851.0749.129.1084l.0647.0513.0323.0255.016.0127.0328.0279c.0201.0158.0484.0498.0693.0813.0242.0422.0432.0901.0456.1514.0011.1222-.056.1933-.0927.2368-.0771.08-.139.1111-.1987.1454-.1179.062-.2258.1035-.3315.1424-.5737.1901-1.2913.359-1.5701.4079-.3345.0915-.672.1824-1.0063.2825-.3301.1011-.6754.2078-.9522.3569-.0655.0354-.1261.0818-.1445.1056-.0011.0019-.0032.0041-.0042.0052.0094.0042-.0216-.0144-.0376-.0188-.0097-.0058-.0217-.0099-.0346-.0117-.0016-.0008-.0037-.0013-.0059-.0017l-.0039-.0004-.0021.0002h-.001c.1834.0002.0508.001.0917.0015l-.0002.0015c-.0015.0682-.0105.1387-.0335.2062-.0447.1364-.1342.2476-.2272.3254-.094.0791-.1931.1318-.2907.1747-.196.0842-.39.1279-.5829.1593-.1948.0302-.3804.0466-.5833.049l.0312-.0021c-.694.1065-1.4058.2819-2.0928.489-.69.2074-1.3638.4616-2.0117.753-.1552.0283-.7907.3382-1.0713.4726-.1853.0911-.324.1762-.4433.2464-.1186.071-.2159.1299-.3042.1932-.1777.1246-.3407.2313-.6056.4198-.1926.0256-1.1011.6806-1.7188 1.274-.1218.1278-.2362.2479-.345.362-.1077.1149-.2008.2315-.2946.3384-.1914.2113-.3375.4252-.4896.6201-.1461.1996-.2689.4022-.4006.6035-.117.2104-.2372.4246-.3517.663-.2184.4484-.2977.537-.3761.68-.06.1873-.1968.4891-.3045.8411-.1287.3448-.2188.7395-.3064 1.069z" clip-rule="evenodd" fill-rule="evenodd"/>
<path d="m30.0377 57.6689c.0443.1393-.7762.4418-1.3616.6998-.41.2093-.9432.4416-1.4535.6698-.3027.133-.2394.051-.496.1568-.7736.3406-1.2244.5015-2.1127.889-.914.3323-1.3699.519-2.1999.8896-.5182.2093-.7932.2754-1.3114.4848-.4519.196-.8043.3731-1.1262.5447-.0958.0301-.1973.0619-.3035.0953l-.2159.0679-.0944-.1615c-.2118-.3623-.4224-.7683-.5184-1.0684-.1548-.3376-.2312-.4448-.3556-.7219-.1146-.2897-.1041-.3746-.2134-.6644-.0986-.2521-.1739-.3643-.261-.5685-.32-.8286-.6564-1.8039-1.0638-2.5889-.2344-.5356-.5414-1.1327-.9624-1.6638-.1117-.1305-.2105-.2559-.3369-.3954-.1196-.1378-.2456-.2718-.3573-.4174-.1139-.1436-.2314-.2848-.3356-.4347-.1071-.1477-.2148-.2942-.3105-.4463-.1432-.1938-.3028-.4681-.405-.5943-.2874-.5573-.5848-1.1681-.8534-1.7722-.2696-.6036-.5118-1.1994-.7139-1.7132-.062-.2743-.1327-.4594-.2262-.7641-.1106-.4648-.0847-.6366-.1481-1.0331-.0501-.2194-.0794-.4103-.08-.5163-.0726-.209-.1418-.5223-.2068-.7794-.071-.7236-.2487-1.6614-.22-2.3573.0481.0113.0723.198.0993.4219.0263.2237.0553.4843.094.6405.0659.6331.1514.9054.2134 1.3005.0555.2657.1121.3208.1707.4304.0472.2468.1039.5594.1551.6823.0524.2754.1024.4269.1497.5071.0571.2031.0153.1858.0922.4222.1151.3368.2847.9501.3959 1.0757.0148.0994.0802.2925.1523.4945.0953.2409.1743.4096.2595.5596.0829.2149.173.4273.2655.6382.1366.3228.1752.2264.2913.4518.3007.6668.6352 1.2399.9972 1.7677.0908.1319.1857.2591.2772.3883.0931.1283.1939.2497.2899.3757.1977.2482.4045.478.6197.765.24.287.4073.5483.5559.8066.0791.1274.1458.2576.2167.3911.072.1331.1472.2699.2214.4188.2512.5109.5047 1.2566.6814 1.6365.1816.613.5046 1.4608.8398 2.2049.1585.4357.3806.8972.6689 1.3932.0806.1433.1776.2851.2718.4405l-.2837-.0856c.6293-.2388 1.3312-.4988 1.8668-.7284.2361-.0883.5341-.213.657-.2348 1.102-.4926 2.3401-.9256 3.5082-1.3893.0752.0063.363-.1124.4984-.1417.3438-.1176.3813-.1774.6492-.2806.0993.0428.5589-.1265.9181-.2365.5723-.2355.884-.3322 1.3001-.5458.2042-.0808.2602-.0743.3349-.0789.1502-.0865.538-.2177.8156-.328z" clip-rule="evenodd" fill-rule="evenodd"/>
</g>
</svg>
