<?xml version="1.0" encoding="UTF-8"?>
<svg viewBox="0 0 282 200" xmlns="http://www.w3.org/2000/svg">
<path d="m195.44 19.789c2.931 10.929-2.104 21.802-11.246 24.286-9.143 2.4842-18.93-4.3619-21.862-15.291-2.931-10.929 2.104-21.802 11.246-24.286 9.143-2.4834 18.93 4.3627 21.862 15.291z" fill="#e7e5f0"/>
<path d="m195.667 19.7122c-.304.0614-.63-.7133-1.068-1.7455-.439-1.0326-1.014-2.3227-1.636-3.337-.959-1.4128-2.265-3.1212-3.759-4.5052-.887-.80728-.505-.74246-1.276-1.40432-1.224-.94217-2.244-1.58441-3.354-2.16184-1.114-.5613-2.331-1.08161-4.034-1.3966-.839-.21514-1.592-.33987-2.294-.38612-.701-.06307-1.348-.03749-1.984.00911-1.269.12123-2.5.42746-3.964 1.08127-.908.38261-1.574.70776-2.228 1.06445-.642.37595-1.281.77854-2.023 1.45126-1.255 1.247-2.002 2.46809-2.532 3.64359-1.04 1.2968-1.944 3.3177-2.508 4.6362-.394 1.2764-.347 1.7712-.5 2.8468-.164 1.1093-.357 1.3669-.417 2.5021-.002.248.003.4646.012.6615.017.1973.039.3756.061.5476.039.3445.101.664.153 1.0669.124 1.6167.449 3.3521.966 5.0332.512 1.6825 1.26 3.2901 2.122 4.6667 1.026 1.8949 2.547 3.8756 4.486 5.5213 1.924 1.659 4.275 2.9365 6.684 3.6243.813.1966 1.9.4005 2.462.3567 2.129.3889 4.589.1044 6.716-.8353 2.141-.9201 3.89-2.4611 5.042-4.0006.726-.6661 1.095-1.2758 1.668-2.2369.244-.3426.424-.6461.616-.8983.178-.2611.337-.4895.5-.7092.308-.4485.603-.8763.915-1.5424.288-.7711.51-1.4414.701-1.7886.094-.8126.283-1.9755.313-2.9464.269-1.3062.312-2.864.194-4.3878-.111-1.5273-.386-3.0146-.59-4.2795.1-.0042.207.1615.317.4317.114.2691.226.6433.318 1.0581.207.8262.327 1.8094.471 2.4036.078 1.2043.118 2.0736.126 2.8346.012.7606-.009 1.4124-.104 2.1692-.109 1.0273.022 1.302.076 1.7851-.193.9597-.573 2.1318-.664 2.6402-.391 1.0203-.606 1.5987-.654 1.9638-.155.3844-.277.5266-.384.6941-.111.1664-.226.3483-.447.7814-.282.6401-.81 1.4631-1.323 2.1737-.129.1777-.255.3507-.373.5137-.123.1594-.238.3108-.338.4513-.196.2848-.36.5055-.415.666-.163.1181-.384.3241-.656.5589-.263.2445-.58.515-.908.7887-.796.6552-1.369 1.1345-1.928 1.5493-.804.4685-1.653.8648-2.531 1.171-1.346.4177-.996.6055-2.005.8914-2.977.5361-5.751.2515-8.237-.527-2.49-.7894-4.72-2.09-6.658-3.864-1.104-.8857-1.921-1.7424-2.653-2.6215-.728-.8836-1.382-1.7841-2.1-2.8591-.579-.9358-1.161-2.1243-1.613-3.2865-.457-1.1601-.804-2.2817-1.085-3.0557-.227-1.234-.499-2.7203-.658-4.3191-.162-1.5974-.195-3.3055-.071-4.9309.303-1.8244.63-3.8524 1.516-6.0422.605-1.4426 1.477-3.0217 2.579-4.40535 1.078-1.40327 2.374-2.59245 3.547-3.50238.418-.28206.893-.60616 1.343-.84967.44-.25858.858-.42396 1.093-.49544 2.116-1.14749 4.666-1.72176 7.207-1.60823 2.546.10686 5.037.87874 7.237 2.01712.176.24001 1.253.81674 1.637 1.20706 1.128.85142 1.398.86298 2.25 1.59807.033.42361 1.387 1.74279 2.18 2.94952.767.9025 1.246 1.673 1.698 2.3678.434.7067.829 1.35 1.3 2.1167.374.7575.325.9898.354 1.2715.176.2796.385.7953.583 1.378.2.5824.371 1.2369.529 1.7841z" clip-rule="evenodd" fill="#e7e5f0" fill-rule="evenodd"/>
<path d="m25.764 195.57 15.67-19.4s-28.721-23.158-6.7885-37.42 39.687 18.847 39.687 18.847-6.2663-22.645 2.0889-25.249c8.3552-2.605 18.799 8.789 18.799 8.789s-6.7885-60.794 17.755-67.626c24.543-6.832 29.243 64.197 29.243 64.197s8.877-25.981 18.277-16.184c9.399 9.796 0 32.92 0 32.92s10.966-36.981 22.454-29.527c11.489 7.454 0 39.328 0 39.328s32.376-62.578 42.82-40.394-17.232 52.319-17.232 52.319 13.219-16.856 21.574-11.95c8.356 4.905 0 16.467 0 16.467l9.673 9.646-12.752 6.656z" fill="#e7e5f0"/>
<path d="m149.201 31.9579s-5.571 7.8341-7.05 7.8589c0 0-.871 5.543-.784 5.105.087-.4379-1.566-4.2921-3.133-4.1169s-2.176 1.9765-.522 4.1415l-7.572 5.1435-4.344-7.2843 5.388-12.4244" fill="#4d495f"/>
<path d="m17.265 198.47 17.232-10.857s-28.721-23.159-6.7886-37.421c21.932-14.261 39.687 18.848 39.687 18.848s-6.2663-22.645 2.0889-25.25c8.3552-2.604 18.799 8.79 18.799 8.79s-6.7886-60.795 17.755-67.627c24.543-6.832 29.243 64.197 29.243 64.197s8.877-25.98 18.277-16.184c9.399 9.797 0 32.921 0 32.921s10.966-36.981 22.454-29.527c11.489 7.454 0 39.327 0 39.327s32.376-62.577 42.82-40.394c10.444 22.185-17.232 52.32-17.232 52.32s13.218-16.856 21.574-11.951 0 16.468 0 16.468l6.963 6.34" fill="#9173fa"/>
<path d="m282 198.085c-.088.805-7.932.699-13.665.841-4.112.245-9.325.361-14.337.5-2.963.072-2.165-.222-4.654-.198-7.579.185-11.87.101-20.56.294-8.722-.142-13.142-.105-21.288.121-5.014.026-7.526-.19-12.541-.163-4.418.093-7.941.29-11.192.52-4.185-.216-9.673-.305-13.179-.587-3.279-.065-4.434.12-7.123.124-2.768-.029-3.432-.262-6.199-.291-2.42.007-3.593.16-5.582.218-7.959.025-17.212-.036-25.244.18-10.669-.119-24.31.094-36.9943.023-2.1195.041-4.9204.004-6.3391.128-11.0356-.437-24.0884-.316-33.8567.042-2.4816-.152-4.2397-.066-7.066-.044-4.2321-.103-5.6536-.479-9.227-.647-2.0067-.02-3.7259-.07-4.6537-.196-1.9615.148-4.8229.19-7.1823.292-6.4734-.323-14.98114-.029-21.1169-.384.218289-.528 6.75407-.314 9.62212-.53 5.71028.075 8.24238-.13 11.83848-.094 2.4373-.035 3.0201-.287 4.0942-.48 2.2661.004 5.1264.078 6.3101-.045 2.5269.064 3.9609-.001 4.769-.139 1.9057-.022 1.6568.165 3.8989.109 3.2099-.147 8.9544.004 10.3529-.357.8958.103 2.7427.112 4.684.114 2.3465-.016 4.0291-.11 5.5825-.219 2.0917.014 4.1872.027 6.281.039 3.181.054 2.5383-.342 4.8549-.39 13.3515.276 24.1451.059 36.0969.308 6.436-.136 10.702.003 16.576-.149 5.001-.025 11.994.186 15.736.013 5.695.285 13.833.185 21.231.047 4.212.144 8.84-.002 14.163.005 7.076.01 16.144.18 22.804.058 2.259.024 5.157-.015 6.255.123 10.817-.302 22.576-.022 33.853-.042.606.185 3.398.157 4.625.28 3.257.092 3.767-.14 6.341-.128.69.421 5.083.48 8.443.642 5.55-.052 8.471.081 12.647-.174 1.969-.002 2.417.144 3.055.272 1.537-.141 5.207-.03 7.886-.036z" clip-rule="evenodd" fill="#d3c8f9" fill-rule="evenodd"/>
<path d="m165.479 198.457 13.926-6.574s-7.891-18.92 1.625-14.949 10.677 10.487 10.677 10.487-2.322-27.773 3.713-21.933 8.23 19.695 8.23 19.695 10.802-12.454 10.57-5.213c-.232 7.242-1.625 11.212-1.625 11.212s11.368-13.38 13.808-5.872c2.439 7.508.269 10.008.269 10.008s6.618-7.19 14.239-7.639c6.441-.38-.153 7.055-.153 7.055l10.134 3.723" fill="#d3c8f9"/>
<path d="m152.333 41.7469c-.066-.2838-.115-.4204-.184-.6587-.255-.967-.613-2.0813-.996-3.0168-.47-1.2544-1.201-2.817-2.047-4.1625-.14-.2277-.338-.5185-.446-.6587-.735-1.1737-1.869-2.3861-2.862-3.0904-.247-.1892-.414-.3292-.72-.5044-.439-.2908-.592-.3819-.986-.5957-.226-.1086-.428-.1824-.532-.2385-.227-.0911-.575-.1785-.86-.2556-.777-.2382-1.845-.3117-2.615-.2976.028-.0176.846-.0386 1.208-.0141.181.0175.334.0313.47.0418.136.021.258.0387.369.0527.227.035.425.0386.641.1122.299.0701.397.0036.557-.0315.282.0771.616.2382.787.2347.292.1507.473.203.602.1855.237.0911.16.1578.432.2734.425.1191 1.002.6098 1.284.5502.06.1191.251.2698.457.4239.254.1857.456.2944.668.3785.212.1857.393.396.592.5957.271.3258.418.0838.661.2905.536.7288 1.024 1.3772 1.445 2.0359.425.6552.811 1.3138 1.072 2.0636.488.7077.613 1.2685 1.027 1.9342.272.6027.401 1.531.693 1.9514-.014.6482.223 1.3841.474 2.2005l.167.543-.944.9635c-.073.0351-.146.0736-.212.1191.01.1051.021.2106.028.3227.028.445.024.9599.035 1.4645l.003.1892v.2135.4205c.011.2768-.028.5397-.021.7849-.049.3259-.129.75-.257.8832-.094.7883-.467 1.5731-1 2.2213-.529.6517-1.211 1.1633-1.918 1.5312-.129-.0491-.47.1366-.654.1331-.439.0981-.46.2416-.815.2977-.07-.0841-.247-.091-.463-.091-.216-.014-.47 0-.686-.0141-.359.0106-.63.0139-.877-.0212-.247-.0245-.474-.0348-.738-.0664-.244-.049-.296-.0912-.369-.1262-.195-.014-.644-.1401-.968-.2347.021-.0316.978.1963 1.695.2559.515.0245 1.17.0455 1.779-.0982.362-.0701.265-.0454.564-.1225.449-.1436.784-.3051 1.118-.4978.331-.1963.654-.4415 1.034-.8199.369-.3959.616-.7253.801-1.0792.094-.1752.191-.3467.257-.5464.038-.0981.077-.1997.119-.3083.038-.1051.059-.2243.09-.347.16-.5991.202-.9109.23-1.5346-.014-.2768-.035-.5219-.056-.7497-.031-.2242-.063-.4347-.094-.6449-.031-.5291-.094-1.2229-.108-1.6643l-.028-.2871.54-.4626c.247-.2032.334-.2487.557-.4274z" clip-rule="evenodd" fill="#4d495f" fill-rule="evenodd"/>
<path d="m147.351 39.739c.007.4417-.29.8048-.663.8111-.374.0055-.682-.348-.689-.7897s.29-.8048.663-.8111c.374-.0059.682.3476.689.7897z" fill="#4d495f"/>
<path d="m123.74 39.468c-2.058-4.1099-3.593-10.297 2.82-14.127 10.27-6.1316 18.103 0 18.103 0s7.66-8.2338 11.315-4.0293c3.656 4.2045-24.718 22.687-38.818 26.191 0 0-2.089-1.3139 1.131-2.9782 2.19-1.1317 4.314-3.5951 5.449-5.0562z" fill="#9173fa"/>
<g clip-rule="evenodd" fill="#4d495f" fill-rule="evenodd">
<path d="m126.923 23.1319c-.588.1118-.719-.9274-.86-1.6941-.214-.5451-.303-1.2781-.273-2.0262.047-.4453.217-.2785.31-.6342.105-.5574.308-.9933.61-1.4015.307-.3997.716-.8083 1.422-1.1177.753-.1703 1.313-.0904 1.829.0253.516.1254 1.012.3072 1.592.7112.164.1426.284.2926.388.4362.095.1535.175.2824.249.4702.147.3483.214.7096.246 1.1426.097.7635.063 1.3364.047 1.8896-.378.5753-.861 1.2337-1.328 1.5154-.316.3462-.318.5574-.577.8493-.292.2757-.481.2165-.788.4583-.256.2267-.319.4201-.538.6216-.478.337-1.06.6446-1.746.8051-.671.1752-1.489.1398-2.18-.1433-.098-.0624-.198-.1261-.299-.1906-.054-.0354-.108-.0718-.163-.1086-.117-.0634-.242-.1226-.379-.1671-.273-.0894-.585-.129-.911-.1195-.652.0175-1.35.2337-1.939.5378-.181.1304-.423.2814-.466.4394-.25.1058-.468.2771-.597.4639-.137.1902-.155.3661-.11.5283.048.1623.212.3424.418.472.2.1265.392.157.559.1296.137.1465.29.0943.518.0484.37.0186.62.2232 1.052.1703.22-.0862.417-.1566.564-.1321.151-.219.425-.438.613-.6727.792-.2831 1.439-1.1941 2.129-1.5883.29.2807-.412.8003-.575 1.1661-.583.467-.747.7908-1.144 1.0574-.245.2095-.206.4061-.25.6104-.265.1699-.635.3156-.747.4695-.34.1163-.516.2281-.596.3679-.27.1023-.266-.033-.586.0805-.227.1055-.583.1518-.919.1381-.167.0049-.328-.0238-.467-.0182-.137-.0095-.255-.0035-.339.0399-.128-.1272-.421-.2722-.691-.4754-.16-.1167-.299-.218-.43-.3133-.13-.0876-.25-.1797-.368-.2768-.22-.3262-.395-.7379-.434-1.1818-.011-.3353-.046-.4643-.109-.5897-.062-.1251-.119-.2295-.071-.4867.279-.6758.681-1.1201 1.071-1.4652.395-.3455.8-.6037 1.214-.8129.826-.4089 1.711-.6359 2.66-.555 1.017-.0943 1.764.239 2.608.6433.148.0918.312.1825.522.22.207.0379.451-.0049.594-.1103.277.035.632-.0855.964-.3101.334-.2232.646-.5442.9-.8788.408-.2705.674-.7582.972-1.2655.202-.3367.419-.7281.544-1.1121.119-.3781.131-.7498.017-.9166-.012-.0718-.041-.1184-.071-.1882-.048-.083-.084-.1611-.08-.2302-.392-.2827-.841-.508-1.307-.5588-.46-.0582-.912.0788-1.224.4621-.14-.0532-.283.1728-.418.245-.113.1303-.125.2407-.128.3363-.007.0943.012.1896-.035.3189-.329-.0274-.495.4775-.645.8868-.009.6898-.094 1.0725.146 1.5812.019.246-.072.315-.158.4082.123.1818.119.6562.188.9954z"/>
<path d="m127.423 59.0683-.916-4.2148-.069-.3329.288-.1824c1.981-1.2403 4.217-2.6383 6.932-4.3376 2.751-1.6748 5.024-3.0553 7.099-4.3202l.54-.3291.194.5991c1.017 3.1218 1.943 5.8968 3.047 9.1553 1.107-.0631 2.322-.0419 3.641.0387 2.66.2207 4.634.6306 6.563 1.1702.48.1506.957.2975 1.448.4482.481.1752.972.3505 1.483.5362.505.1997 1.024.4241 1.574.6518.54.2558 1.104.5148 1.709.8267 1.132.5991 1.95 1.4611 2.643 2.3055.365.4169.651.8619.957 1.2858.286.4345.554.8656.808 1.2931.992 1.7168 1.741 3.3707 2.416 4.9754.738 2.1093 1.469 4.5757 2.079 6.9723.612 2.4001 1.1 4.7301 1.423 6.5555.683 3.3987.986 4.5865 1.466 7.386.049.2873.087.5537.126.799.066-.2593.135-.5359.212-.8407.595-2.4807.811-3.7001 1.274-5.7463 1.87-7.7819 4.066-16.7622 5.891-24.7122l.195-.8479.717.5047c.345.2417.661.4625.978.6867 2.27 1.6398 4.697 3.3917 7.231 5.2242 1.267.911 2.566 1.8392 3.882 2.7852.327.2348.658.4731.989.7114l.498.3575.515.3921c.668.5466 1.299 1.153 1.842 1.8433.543.6902 1.016 1.44 1.406 2.2354.383.7988.672 1.6466.874 2.5156.205.8689.299 1.7661.292 2.663.011.4485-.034.8967-.076 1.3417l-.098.6658-.111.634c-.62 3.3567-1.326 6.6996-2.124 9.9581-.498 2.1863-1.284 5.0452-1.65 6.5028-.86 2.7925-1.831 5.6905-2.952 8.5875-1.128 2.891-2.399 5.785-3.924 8.511-1.525 2.719-3.3 5.305-5.549 7.323-.561.504-1.156.967-1.779 1.37-.624.406-1.275.76-1.957 1.033-1.351.564-2.803.81-4.174.743-1.396-.102-2.542-.487-3.638-.897-.282-.101-.568-.192-.853-.308-.279-.126-.564-.256-.86-.389s-.606-.263-.919-.417c-.303-.168-.624-.343-.954-.529-.248-.144-.488-.277-.711-.413-.215-.148-.424-.291-.623-.428-.397-.28-.773-.525-1.1-.788-.327-.266-.63-.519-.922-.76-.143-.123-.286-.239-.425-.358-.132-.126-.265-.249-.394-.371-.508-.498-1.023-.953-1.521-1.514-.258-.273-.522-.554-.808-.855-.275-.308-.557-.645-.87-1.002-.178-.2-.352-.392-.522-.582-.16-.199-.317-.392-.47-.581-.303-.379-.599-.732-.85-1.072-.491-.684-.905-1.251-1.159-1.672-1.281-1.633-2.897-4.208-4.101-6.394-.759-1.538-1.564-3.199-2.319-4.951-.756-1.7519-1.49-3.5773-2.159-5.4168-1.336-3.679-2.426-7.3963-3.056-10.5917.149.0911.581 1.8183 1.183 3.861.592 2.0427 1.369 4.397 1.926 5.8021.992 2.838 1.848 4.8317 2.635 6.5524.783 1.72 1.525 3.153 2.406 4.825.313.557.567 1.008.794 1.38.236.364.431.659.609.911.345.508.623.844.968 1.293.317.497.651 1.034 1.016 1.552.356.522.707 1.051 1.076 1.524.703.971 1.389 1.769 1.804 2.225.407.518.821.936 1.166 1.332.345.392.682.707.971.987.293.277.547.512.766.715.23.193.432.344.599.47.372.322.637.557.849.753.223.186.397.329.578.484.369.29.742.662 1.731 1.271.685.47 1.566.929 2.482 1.427.473.213.961.434 1.448.655.237.119.495.192.742.283.25.088.498.176.741.26.972.361 1.908.522 2.692.56.783.046 1.396-.066 1.73-.143.438-.042 1.114-.144 1.88-.421.766-.269 1.612-.711 2.416-1.275.968-.687 1.713-1.405 2.34-2.088.626-.687 1.135-1.346 1.598-1.997 1.305-1.714 2.419-3.588 3.422-5.523.759-1.471.989-2.098 1.17-2.617.181-.522.309-.939.762-2.06 1.358-3.202 2.437-6.356 3.374-9.4392.933-3.0833 1.716-6.107 2.419-9.0992.697-2.9992 1.309-5.967 1.866-8.9627.54-2.8275-.111-5.8828-1.873-8.2759-.491-.6307-1.013-1.1948-1.577-1.6643-.136-.1262-.289-.2277-.428-.3398-.146-.1121-.282-.2209-.439-.3295-.31-.2207-.612-.4343-.908-.6481-1.191-.8549-2.319-1.6641-3.43-2.4594-2.221-1.5978-4.379-3.1499-6.903-4.9193l-1.39-.9988c-1.1 4.4638-2.35 9.4427-3.004 12.4349-1.441 5.4064-3.248 13.0269-4.912 20.1816l-.763 3.2831-.526-3.3495c-.083-.5325-.163-1.0548-.243-1.5698-.623-4.3762-1.584-9.1552-2.987-14.5475-.951-3.5738-2.155-7.649-3.941-11.363-.23-.459-.47-.9109-.711-1.3594-.264-.4309-.498-.8829-.79-1.2858-.536-.8409-1.173-1.5802-1.849-2.2073-.177-.1437-.351-.2874-.525-.4346-.188-.1156-.373-.2311-.557-.3432-.397-.2207-.843-.4099-1.254-.6131-.411-.2103-.842-.3576-1.253-.5328-.205-.0806-.411-.1644-.613-.245-.205-.0701-.411-.1403-.612-.2104-.276-.0981-.558-.1961-.847-.2977-.292-.0876-.591-.179-.887-.2666-.596-.1927-1.208-.3222-1.776-.4728-.574-.1297-1.114-.2451-1.577-.3432-.47-.0841-.86-.1614-1.138-.2245-1.031-.1261-2.075-.2415-3.127-.2871-1.048-.0455-2.134-.0633-3.158.0103l-.497.0353-.157-.4698-2.89-8.8012-13.01 7.957.446 2.0845c.021.3504.219 1.363.428 2.4212l.174.8899-.843-.2942c-.135-.0456-.365-.0911-.553-.1191-.198-.028-.397-.0422-.588-.0527-.383-.007-.735.0071-1.007.0387-.79.1156-1.403.3117-1.893.5464-.495.2208-.885.4522-1.236.6939-.704.4941-1.313.9776-2.211 1.9271-.321.1752-1.247 1.1071-2.183 2.4875-.947 1.37-1.894 3.1677-2.604 4.7794-1.111 2.6909-1.72 4.8352-2.263 6.8043-.254.9916-.505 1.9339-.697 2.9115-.1.487-.201.9811-.306 1.4857-.09.508-.174 1.0299-.261 1.5695-.198 1.0161-.331 1.64-.425 2.092-.097.4485-.177.7253-.261 1.0511-.223 1.6012-.755 5.4308-1.044 8.2373-.098-.0351-.112-.5747-.066-1.4576.048-.8795.135-2.1128.316-3.5178.303-2.8241.906-6.3592 1.532-9.3233.401-2.1374.989-4.5377 1.779-7.0114.794-2.4666 1.814-5.0032 3.158-7.3332.414-.6798.71-1.1352.954-1.4645.251-.3259.428-.5398.595-.736.16-.2032.345-.3678.571-.6306.119-.1261.247-.2768.411-.452.167-.1717.366-.3715.599-.6098 1.149-1.1597 2.44-2.0075 3.791-2.5296.679-.2558 1.375-.4135 2.079-.4766.348-.0386.699-.035 1.051-.0175.111.0105.223.021.331.0315z"/>
<path d="m186.148 161.675c-.343-.187.64-2.359 1.182-4.024.331-1.214.809-2.726 1.216-4.195.244-.867.307-.592.523-1.317.579-2.23.979-3.475 1.47-6.064.318-1.282.512-2.259.657-3.219.142-.961.24-1.907.292-3.132.108-1.501.239-2.253.186-3.755-.094-1.319-.339-2.347-.643-3.247-.073-.606-.216-1.297-.419-1.941-.201-.645-.44-1.25-.644-1.719-.233-.415-.432-.669-.631-.889-.094-.116-.197-.216-.306-.325-.108-.108-.216-.233-.357-.362-.553-.557-.636-.765-1.295-1.224-.597-.372-.945-.437-1.493-.62-1.059-.461-2.311-.71-3.568-.877-.636-.045-1.269-.125-1.901-.102-.314.002-.626.004-.934.007-.308.024-.611.048-.91.072-.793.001-1.642.103-2.526.19-.883.125-1.802.256-2.733.45-1.863.369-3.785.843-5.624 1.365-.611.183-1.42.43-1.812.609-3.245.771-6.929 2.243-9.581 3.552-.719.224-1.196.463-1.973.82-1.194.463-1.66.474-2.682.844-.556.247-1.04.443-1.322.504-.505.324-1.282.711-1.902 1.072-1.837.712-4.073 2.015-5.781 2.757-.073-.268 1.73-1.114 2.458-1.604 1.562-.757 2.207-1.191 3.199-1.652.658-.341.767-.527 1.02-.756.623-.298 1.43-.628 1.731-.836.712-.296 1.099-.499 1.294-.665.525-.249.493-.134 1.108-.433.864-.466 2.506-1.076 2.832-1.405.273-.056.796-.264 1.345-.487.661-.274 1.124-.5 1.546-.724.596-.229 1.202-.438 1.802-.657.92-.311.672-.423 1.332-.684 1.95-.611 3.712-1.167 5.446-1.642 1.728-.486 3.431-.889 5.247-1.172 1.932-.441 3.252-.522 5.06-.734.388-.02.815-.034 1.255-.047.441-.001.897.028 1.34.039.442.002.874.062 1.267.091.393.036.751.043 1.045.085.221.052.451.107.692.165.24.058.493.095.747.184.256.075.52.152.789.232.134.039.272.075.408.119.134.053.27.106.406.161 1.107.37 2.238 1.002 3.167 1.786.969.98 1.944 2.187 2.571 3.796.424 1.062.717 2.325.878 3.572.16 1.248.207 2.479.23 3.519-.017.705-.038 1.609-.135 1.944-.073 3.374-.926 6.935-1.816 10.281-.135.157-.35.988-.515 1.332-.322.948-.26 1.13-.498 1.884-.262.14-.697 1.414-1.109 2.359-.531 1.614-.906 2.427-1.247 3.665-.218.563-.337.663-.468.82-.11.464-.583 1.482-.916 2.234z"/>
<path d="m161.088 128.186c-.187.069-.294-.327-.423-.599-.134-.183-.234-.438-.331-.683-.057-.146.024-.124-.015-.248-.152-.371-.173-.596-.312-1.031-.063-.453-.108-.677-.232-1.088-.048-.257-.019-.394-.064-.651-.052-.225-.125-.4-.203-.562.026-.224.006-.509.059-.699-.001-.171-.053-.226-.068-.365-.008-.144.046-.184.039-.328-.015-.125-.059-.182-.084-.284-.043-.411-.063-.891-.15-1.304-.003-.555-.1-1.26-.105-1.919-.015-.11-.012-.255-.046-.328.091-.577.044-1.252-.049-1.759.035-.129.013-.22.008-.367.025-.22.118-.294.159-.479.004-.104.017-.193.049-.241-.036-.102-.045-.251-.07-.373.083-.335.018-.777.116-1.094.13.016.068.352.119.502-.023.295.025.426.015.612.008.126.071.157.118.212-.001.117-.021.265.01.326-.016.13.001.204.035.246.006.098-.04.086-.026.201.036.165.002.462.093.533-.025.047-.026.142-.025.242.006.121.03.207.059.287l-.003.323c-.009.165.089.129.104.248-.052.689.028 1.242-.003 1.859.053.329.031.55.087.848.023.257.001.619.059.807-.051.299.014.713.088 1.087-.011.219.042.453.077.723.047.36.059.828.142 1.161.013.114.047.26.022.321.155.536.209 1.135.334 1.697-.04.042-.002.179-.013.247.02.166.083.177.113.304-.092.061-.049.282-.043.46.078.274.112.421.236.605.032.095.005.129-.014.171.058.063.092.25.138.38z"/>
<path d="m185.786 52.5893c.171-.4765.362-.9459.585-1.4224.369-1.0791.745-1.738 1.236-2.6945.233-.3925.571-.841.971-1.237.397-.3959.895-.7253 1.341-.8899.358-.0596.78-.0421 1.169.1016.369.1577.718.3855.972.6518.143.1297.254.2698.372.4099.129.1472.22.2769.321.4065.198.2663.407.5255.595.7918.171.3293.386.6517.602 1.0056.227.3469.456.7184.676 1.1353.592 1.1037 1.149 2.6139 1.525 3.7491.104.3889.229.8969.215 1.1001.533 1.871.39 4.1871-.557 6.0686-.135.0806-.313.4904-.456.6481-.139.2312-.167.3889-.202.5256-.024.1401-.052.2663-.118.4626-.115.021-.233.2029-.352.4482-.104.2453-.212.5537-.292.827-.111.918-.171 1.4226.024 2.0988.039.3224-.017.4031-.059.5222.108.2347.209.8582.404 1.2366-.178.0981-.418-.1891-.588-.6341-.174-.4414-.275-1.0406-.328-1.5452-.163-.7253-.142-1.6819.021-2.5789.112-.5255.213-.3433.331-.7743.104-.3188.184-.6132.296-.8759.115-.2593.219-.5046.331-.7569.087-.2348.202-.4622.285-.7285.035-.1366.07-.277.112-.4277.017-.0736.038-.1507.059-.2313.01-.0806.021-.1646.031-.2522.042-.1681.08-.3294.118-.48.032-.1542.042-.3012.06-.4448.017-.1402.034-.2768.041-.4099 0-.1367 0-.2663-.003-.3959-.004-.1332-.007-.2629-.011-.3925-.017-.1331-.038-.2664-.055-.4031-.021-.1366-.046-.2767-.066-.4273-.039-.1437-.077-.298-.119-.4592-.153-.8024-.167-1.2297-.428-2.0215-.143-.3399-.296-.6342-.442-.904-.164-.2628-.324-.4974-.484-.7217-.101-.3328-.24-.7113-.383-1.0757-.153-.3609-.282-.7183-.379-1.0056-.255-.4906-.429-.6133-.683-.9882-.24-.3994-.205-.5568-.463-.9458-.118-.1646-.223-.2841-.324-.3822-.101-.0841-.195-.1646-.299-.2662-.206-.2032-.425-.3887-.648-.4728-.219-.0736-.435-.0595-.675.0561-.487.2452-.926.8197-1.229 1.3768-.898 1.2789-1.595 3.2621-2.152 5.1086l-.348 1.1527-.787-1.009c-.09-.1156-.16-.2665-.257-.3435-.185-.1752-.407-.2487-.495-.1787-.17-.049-.476.1052-.678.438-.202.3259-.331.7566-.338 1.2051-.021.2208.01.4486.021.6693.042.2242.066.4415.125.6552.066.2103.129.4206.192.6238.073.2313.146.4556.215.6693-.003.4625.105.7672.15 1.2752.014.3854-.042.6411-.097.8794-.053.2383-.119.4591-.168.7709-.006.3539-.055.6519-.125.8096.059.3468.035.8477.038 1.2612-.282 1.1037-.407 2.5822-.863 3.5773-.233-.1086.132-1.1702.115-1.6817.216-.9566.171-1.4016.258-2.0113.031-.4169-.094-.5291-.171-.7148.031-.3819.094-.8654.035-1.0651.035-.4275.007-.6693-.07-.8024-.024-.3153.077-.2801.028-.6515-.108-.529-.167-1.4891-.414-1.6643.017-.1541-.046-.4346-.126-.7955-.114-.4134-.181-.7218-.275-1.0056-.021-.396-.017-.7987.039-1.2051.052-.3049.055-.438.028-.5537-.028-.1191-.053-.2174.024-.4591.15-.3749.393-.7288.693-1.0371.327-.2979.755-.5324 1.243-.578.41-.0175.8.098 1.11.2837z"/>
<path d="m195.748 19.6925c-.401.0865-.768-.6756-1.227-1.6959-.459-1.021-1.033-2.3044-1.667-3.3047-1.01-1.3749-2.327-3.0486-3.829-4.3913-.888-.78379-.46-.77538-1.227-1.42603-1.227-.91413-2.237-1.54166-3.336-2.10577-1.101-.54764-2.306-1.05428-3.984-1.33879-.822-.22003-1.562-.34932-2.25-.39803-.688-.06517-1.325-.04064-1.949.00771-1.245.12368-2.451.44288-3.873 1.11035-.886.37736-1.542.68394-2.191 1.02275-.635.35774-1.27.74315-1.997 1.40677-1.217 1.24419-1.911 2.47644-2.376 3.65724-1.065 1.2361-1.977 3.213-2.604 4.4946-.405 1.2575-.313 1.7565-.462 2.8181-.169 1.0928-.42 1.3434-.487 2.4681-.001.2459.006.4604.019.6559.022.1951.049.3714.077.542.05.3402.125.6559.184 1.0536.126 1.5981.445 3.3149.96 4.9768.509 1.6629 1.259 3.2487 2.134 4.5931.999 1.8769 2.506 3.8292 4.419 5.4431 1.901 1.6282 4.213 2.8717 6.569 3.5549.799.1818 1.862.391 2.415.3157 2.071.4383 4.495.1808 6.578-.7467 2.098-.9071 3.796-2.4456 4.885-3.982.741-.6247 1.087-1.2386 1.643-2.1829.245-.3321.431-.6243.632-.8657.186-.2499.357-.4678.533-.6773.334-.4278.658-.8371.986-1.4902.291-.7624.523-1.4225.744-1.7599.057-.8167.233-1.9716.238-2.9369.308-1.2897.352-2.8391.237-4.352-.106-1.5179-.376-2.9943-.535-4.2655.132-.0123.258.1471.383.4134.127.2653.246.6377.343 1.0515.217.8238.337 1.8062.507 2.3987.069 1.2063.117 2.0753.135 2.8381.02.7617.01 1.4158-.089 2.1741-.101 1.0304.091 1.3163.192 1.8128-.195.9674-.595 2.1419-.659 2.6643-.409 1.0234-.611 1.6121-.629 1.9947-.155.3899-.286.5297-.403.6944-.12.1643-.243.3444-.46.7852-.27.6549-.803 1.4874-1.318 2.2095-.259.3619-.503.7036-.706.9881-.192.2946-.348.528-.389.706-.174.1117-.403.316-.682.5511-.27.2463-.591.5203-.925.7978-.805.6682-1.375 1.1734-1.932 1.6188-.821.4747-1.687.8759-2.583 1.1853-.34.1181-.575.2067-.75.2887-.175.0848-.289.1671-.391.2491-.203.1664-.366.3087-.882.4597-3.057.5179-5.887.2215-8.424-.5746-2.537-.8076-4.808-2.1359-6.756-3.9593-1.131-.8864-1.961-1.7571-2.703-2.6485-.739-.8959-1.403-1.8083-2.147-2.8892-.589-.9481-1.171-2.159-1.622-3.3391-.458-1.1783-.807-2.3142-1.111-3.0931-.197-1.2596-.461-2.7645-.624-4.3825-.166-1.617-.213-3.3461-.104-4.9968.343-1.845.638-3.907 1.541-6.1337.615-1.4656 1.512-3.0658 2.638-4.46973 1.103-1.42323 2.422-2.63169 3.61-3.5714.428-.28485.913-.61631 1.373-.86263.45-.26138.878-.42536 1.125-.48317 2.14-1.20179 4.751-1.79183 7.342-1.66779 2.599.11632 5.128.91728 7.363 2.07143.159.2824 1.254.86192 1.626 1.28168 1.128.87909 1.434.84546 2.295 1.59246-.031.5056 1.322 1.84509 2.088 3.08295.776.9029 1.253 1.6801 1.708 2.377.434.7112.841 1.3514 1.341 2.1086.378.7617.296 1.0101.296 1.3051.193.2737.405.7912.6 1.3766.199.5855.364 1.2442.524 1.7933z"/>
<path d="m186.76 52.7621c-.775.1969-.736-.0722-.918-.2148-.268-.0669-.42-.2-.594-.3202-.092-.0746.197-.1226.154-.1938-.238-.1892-.19-.3433-.446-.5644.068-.3059-.002-.4341-.284-.6303-.065-.1489.123-.2807.057-.4292-.123-.1143-.341-.1745-.588-.2183.175-.1833.218-.3756.461-.5543.037-.1181-.15-.1083-.176-.1903.006-.0928.226-.1713.232-.2645-.026-.0736-.183-.0715-.254-.1191-.087-.2404-.102-.5424-.373-.7379.03-.3602-.282-.7305-.314-1.1415-.057-.0554-.042-.1514-.174-.1651.334-.4505.115-.8251-.307-1.0392.126-.1149.03-.1478-.014-.2302.066-.1566.416-.2939.55-.4463.004-.0673.038-.1332.153-.1934-.159-.0239-.222-.1023-.338-.1504.259-.2806-.091-.4716.202-.7501.51-.124.355.1317.586.1668-.027.1958.19.2235.185.344.052.067.299.0225.494.0078.014.0711-.035.1783.093.1846-.042.0942.032.1226.17.1135.037.0533-.144.0922-.073.1479.167.063.068.2785.425.2323-.091.0532-.086.1128-.072.1734.034.0687.138.0978.254.1191.004.068.008.1363.013.2043-.027.1121.349-.0063.413.054-.159.4821.134.7631-.011 1.1954.182.1661.081.3325.274.4772.064.149-.084.418.112.4913-.229.2473-.069.4747.122.6702-.105.1661.072.2733.107.4405.047.2217-.045.5455.125.721-.005.0761.054.1566-.069.2246.376.2607.199.6948.307 1.0396-.173.0644-.124.1443-.233.213-.063.124.165.082.174.1647-.4.1258-.422.2771-.552.4211.094.1591-.011.2831.268.349.017.0606-.12.1111-.238.1622.148.0126.07.1545.097.2358z"/>
</g>
</svg>
